<?xml version="1.0" encoding="utf-8"?>
<!-- Generator: Adobe Illustrator 25.4.1, SVG Export Plug-In . SVG Version: 6.00 Build 0)  -->
<svg className="o-logo" version="1.1" id="Layer_1" xmlns="http://www.w3.org/2000/svg" xmlns:xlink="http://www.w3.org/1999/xlink" x="0px" y="0px"
	 viewBox="0 0 51.43 103.19" style="enable-background:new 0 0 51.43 103.19;" xml:space="preserve">
<path d="M2.23,50.61c-0.08-7.46-0.17-15.38-0.26-23.3c-0.03-2.49,0.09-4.97,0.77-7.37C5.16,11.46,10.6,5.78,19.08,3.43
	C27.52,1.1,35.1,3.17,41.44,9.22c4.48,4.27,6.8,9.62,6.99,15.83c0.1,3.03,0.06,6.07,0.06,9.11c0,11.12-0.02,22.24,0.01,33.35
	c0.01,3.04,0.18,6.07,0.19,9.11c0.02,5.4-1.63,10.29-5.08,14.41c-6.35,7.57-14.52,10.48-24.06,7.95
	c-9.43-2.5-15.12-8.94-16.96-18.55c-0.41-2.13-0.33-4.38-0.34-6.57C2.21,66.26,2.23,58.66,2.23,50.61z M13.19,48.67
	c0,0,0.01,0,0.01,0c0,2.08-0.03,4.15,0.01,6.23c0.06,3.57,2.51,6.35,6.05,6.48c4.11,0.15,8.22,0.03,12.33-0.02
	c0.46,0,0.93-0.21,1.36-0.4c2.62-1.15,3.95-3.37,4.09-6.03c0.22-4.13,0.23-8.3-0.03-12.43c-0.23-3.68-2.82-6.24-6.29-6.41
	c-3.79-0.19-7.59-0.21-11.38-0.03c-3.59,0.17-6.2,3.26-6.17,6.86C13.2,44.83,13.19,46.75,13.19,48.67z"/>
</svg>
