<?xml version="1.0" encoding="utf-8"?>
<!-- Generator: Adobe Illustrator 25.4.1, SVG Export Plug-In . SVG Version: 6.00 Build 0)  -->
<svg className="a-logo" version="1.1" id="Layer_1" xmlns="http://www.w3.org/2000/svg" xmlns:xlink="http://www.w3.org/1999/xlink" x="0px" y="0px"
	 viewBox="0 0 51.43 103.19" style="enable-background:new 0 0 51.43 103.19;" xml:space="preserve">
<path d="M2.12,57.82c-0.07-9.38-0.15-20.06-0.25-30.73c-0.03-3.18,0.28-6.3,1.36-9.32C6.9,7.47,17.14,1.19,28.11,2.52
	C38.69,3.8,47.23,12.54,48.26,23.24c0.19,2.02,0.13,4.07,0.14,6.11c0.1,15.51,0.21,31.03,0.27,46.54
	c0.02,6.16-0.04,12.32-0.11,18.47c-0.03,2.96-2.55,5.46-5.43,5.51c-3,0.05-5.45-2.2-5.67-5.23c-0.05-0.68-0.04-1.36-0.04-2.04
	c0-7.44,0.03-14.88-0.04-22.31c-0.01-1.34-0.25-2.71-0.63-3.99c-0.92-3.08-3.1-4.64-6.3-4.69c-3.24-0.05-6.48-0.11-9.71-0.13
	c-1.53-0.01-3.03,0.19-4.35,1.09c-2.12,1.45-3.14,3.43-3.02,6.01c0.05,1.03-0.05,2.07-0.05,3.11c0,7.12,0.01,14.24-0.01,21.36
	c0,0.99-0.07,2.02-0.37,2.95c-0.86,2.68-3.46,4.25-6.05,3.81c-2.8-0.47-4.73-2.74-4.74-5.65c-0.03-5.96-0.02-11.92-0.03-17.88
	C2.11,70.55,2.12,64.83,2.12,57.82z M25.46,50.15c0-0.01,0-0.02,0-0.02c1.76,0,3.52,0.02,5.27,0c4.54-0.05,7.58-4.38,6.17-8.7
	c-0.77-2.38-3.31-4.53-6.82-4.47c-3.2,0.05-6.39-0.03-9.59,0.02c-0.86,0.01-1.76,0.17-2.56,0.47c-2.78,1.01-4.69,4-4.35,6.63
	c0.49,3.73,3.32,6.15,7.08,6.08C22.26,50.13,23.86,50.15,25.46,50.15z"/>
</svg>
