<?xml version="1.0" encoding="utf-8"?>
<!-- Generator: Adobe Illustrator 25.4.1, SVG Export Plug-In . SVG Version: 6.00 Build 0)  -->
<svg version="1.1" id="Layer_1" xmlns="http://www.w3.org/2000/svg" xmlns:xlink="http://www.w3.org/1999/xlink" x="0px" y="0px"
	 viewBox="0 0 53.06 35.88" style="enable-background:new 0 0 53.06 35.88;" xml:space="preserve">
<path d="M42,16c0.05-1.05-0.48-1.41-0.87-1.84c-1.61-1.79-3.25-3.55-4.86-5.33c-0.53-0.59-1.09-1.2-1.49-1.87
	c-0.9-1.5-0.12-3.35,1.54-3.87c0.73-0.23,1.41-0.09,2.01,0.3c0.5,0.32,0.95,0.73,1.35,1.17c3.18,3.47,6.31,7,9.54,10.42
	c1.73,1.82,1.97,3.81,0.08,6.14c-2.78,3.42-5.46,6.92-8.2,10.38c-0.56,0.7-1.14,1.41-1.8,2.01c-0.88,0.79-2.11,0.8-3.05,0.14
	c-1.04-0.73-1.48-2.07-0.94-3.18c0.3-0.62,0.72-1.2,1.15-1.75c1.4-1.83,2.83-3.64,4.24-5.46c0.3-0.39,0.67-0.76,0.51-1.32
	c-0.61-0.56-1.33-0.31-2-0.31c-5.41-0.04-10.82-0.04-16.23-0.06c-5.11-0.02-10.22-0.03-15.33-0.06c-0.8,0-1.61,0.01-2.4-0.12
	c-1.39-0.23-2.32-1.44-2.25-2.77c0.07-1.2,0.99-2.28,2.26-2.46c0.89-0.13,1.8-0.12,2.7-0.11c7.72,0.02,15.43,0.06,23.15,0.09
	c2.91,0.01,5.81,0.03,8.72,0.03C40.52,16.14,41.21,16.05,42,16z"/>
</svg>
