<?xml version="1.0" encoding="utf-8"?>
<!-- Generator: Adobe Illustrator 25.4.1, SVG Export Plug-In . SVG Version: 6.00 Build 0)  -->
<svg version="1.1" id="Layer_1" xmlns="http://www.w3.org/2000/svg" xmlns:xlink="http://www.w3.org/1999/xlink" x="0px" y="0px"
	 viewBox="0 0 80 53" style="enable-background:new 0 0 80 53;" xml:space="preserve">
<path d="M46.16,33.8c0.31-0.55,0.71-0.95,0.72-1.35c0.09-3.35,0.14-6.71,0.11-10.06c-0.01-0.94-0.22-1.9-0.46-2.83
	c-0.95-3.73-2.89-5.31-6.79-5.5C37.84,13.96,35.92,13.98,34,14c-7.51,0.07-15.02,0.16-22.53,0.22c-1.28,0.01-2.56,0.01-3.83-0.13
	c-2.02-0.24-3.5-1.88-3.61-3.85C3.91,8.2,5.09,6.51,7.15,5.99c1.07-0.27,2.2-0.41,3.31-0.43C19.73,5.43,29,5.34,38.26,5.24
	c0.8-0.01,1.6,0.03,2.4,0.08c7.7,0.53,13.46,5.79,14.59,13.46c0.28,1.88,0.26,3.82,0.28,5.73c0.03,3.19-0.03,6.39-0.02,9.59
	c0,0.28,0.19,0.77,0.36,0.8c0.41,0.07,0.98,0.08,1.28-0.15c1.01-0.77,1.95-1.65,2.89-2.51c2.48-2.26,4.94-4.54,7.43-6.79
	c0.83-0.75,1.68-1.48,2.6-2.11c1.75-1.18,3.82-0.97,5.26,0.44c1.49,1.46,1.64,3.95,0.27,5.68c-0.59,0.75-1.29,1.42-1.99,2.06
	C68.43,36.27,63.23,41,58.03,45.73c-0.35,0.32-0.73,0.62-1.08,0.95c-2.54,2.44-5.36,2.59-8.65,0.18c-1.42-1.04-2.7-2.25-4.08-3.33
	C39.82,40.08,35.4,36.66,31,33.2c-1-0.79-2.03-1.58-2.88-2.51c-1.88-2.07-1.27-5.19,1.19-6.52c1.04-0.56,2.17-0.74,3.22-0.2
	c1.13,0.57,2.21,1.27,3.22,2.04c2.68,2.02,5.3,4.12,7.96,6.16C44.46,32.73,45.28,33.21,46.16,33.8z"/>
</svg>
