<?xml version="1.0" encoding="utf-8"?>
<!-- Generator: Adobe Illustrator 25.4.1, SVG Export Plug-In . SVG Version: 6.00 Build 0)  -->
<svg version="1.1" id="Layer_1" xmlns="http://www.w3.org/2000/svg" xmlns:xlink="http://www.w3.org/1999/xlink" x="0px" y="0px"
	 viewBox="0 0 76.24 130" style="enable-background:new 0 0 76.24 130;" xml:space="preserve">
<path d="M45.64,3.17c7.52,0,15.04,0,22.56,0c0.64,0,1.28,0,1.92,0.01c0.88,0.02,1.29,0.52,1.36,1.35c0.04,0.48,0.05,0.96,0.05,1.44
	c-0.03,13.84-0.06,27.68-0.09,41.52c0,0.56-0.03,1.12,0,1.68c0.07,1.27-0.63,1.72-1.76,1.71c-2-0.01-4,0.05-6-0.07
	c-3.19-0.18-5.39,1.27-6.78,4c-2.51,4.92-2.67,9.98-0.52,15.05c1.16,2.73,3.17,4.3,6.35,4.14c2.31-0.12,4.64,0.04,6.96,0.03
	c1.21-0.01,1.78,0.52,1.73,1.73c-0.02,0.48,0,0.96,0,1.44c-0.02,15.36-0.04,30.72-0.06,46.08c0,0.4,0.01,0.8,0,1.2
	c-0.08,2.52-0.49,2.99-2.94,2.98c-15.04-0.03-30.08-0.03-45.11-0.17c-2.36-0.02-4.78-0.49-7.06-1.13c-3.13-0.87-5.72-2.68-7.79-5.3
	c-4.27-5.44-5.62-11.75-5.66-18.44c-0.08-15.6-0.09-31.2-0.14-46.8C2.64,46.5,2.55,37.38,2.61,28.26c0.02-2.79,0.29-5.59,0.65-8.35
	C4.57,9.66,13.39,3.5,22.36,3.37c7.76-0.11,15.52-0.02,23.28-0.02C45.64,3.29,45.64,3.23,45.64,3.17z"/>
</svg>
