<?xml version="1.0" encoding="utf-8"?>
<!-- Generator: Adobe Illustrator 25.4.1, SVG Export Plug-In . SVG Version: 6.00 Build 0)  -->
<svg version="1.1" id="Layer_1" xmlns="http://www.w3.org/2000/svg" xmlns:xlink="http://www.w3.org/1999/xlink" x="0px" y="0px"
	 viewBox="0 0 332 432" style="enable-background:new 0 0 332 432;" xml:space="preserve">
<g>
	<path d="M328.12,215.2c0,67.19,0,134.37,0,201.56c0,1.76,0.04,3.52-0.05,5.28c-0.14,2.78-1.58,4.49-4.23,5.07
		c-0.77,0.17-1.59,0.2-2.38,0.22c-1.44,0.04-2.88,0.03-4.32,0.03c-69.9,0.15-139.81,0.27-209.71,0.45
		c-31.03,0.08-62.06,0.29-93.1,0.44c-1.6,0.01-3.2,0.06-4.8-0.04c-3.34-0.23-4.96-1.88-5.13-5.13c-0.05-0.96-0.01-1.92-0.01-2.88
		C4.34,284.7,4.28,149.21,4.22,13.72c0-1.44-0.05-2.88,0.06-4.32c0.19-2.57,1.63-4.19,4.13-4.53c1.58-0.22,3.19-0.25,4.78-0.26
		c38.87-0.22,77.74-0.47,116.61-0.64c40.15-0.17,80.3-0.22,120.45-0.39c22.71-0.09,45.43-0.31,68.14-0.48
		c2.08-0.02,4.15-0.04,6.17,0.63c2.06,0.67,3.24,2.02,3.4,4.16c0.12,1.59,0.08,3.2,0.08,4.8c0,67.51,0,135.01,0,202.52
		C328.09,215.2,328.1,215.2,328.12,215.2z M240.01,111.7c1.11,2.24,2.6,2.93,3.81,3.89c14.26,11.3,25.55,25.02,33.82,41.23
		c8.81,17.25,13.19,35.63,13.56,54.94c0.16,8.32-0.7,16.61-2.35,24.79c-6.51,32.17-23.05,57.92-49.52,77.28
		c-8.43,6.17-17.61,11.02-27.34,14.82c-1.32,0.51-2.81,0.72-3.93,2.06c-0.56,2.52-0.29,5.24-0.22,7.94c0.04,1.4,0.69,2.07,2.06,2.08
		c4.96,0.04,9.92-0.01,14.88,0.07c2.46,0.04,4.63-0.44,6.82-1.73c7.38-4.34,15.48-5.33,23.66-3.47
		c17.15,3.89,28.39,14.65,34.24,31.08c1.79,5.03,1.13,6.2-3.69,8.66c-0.33,0.17-0.53,0.56-1.07,1.16c1.84,0.04,3.27,0.1,4.7,0.11
		c7.68,0.03,15.36,0.06,23.04,0.06c7.58,0,6.96,0.62,6.96-7c-0.01-88.62-0.03-177.24-0.05-265.87c0-1.44,0.04-2.88-0.08-4.32
		c-0.06-0.74-0.41-1.45-0.62-2.14c-3.38-0.51-6.57-0.84-9.69-1.48c-10.58-2.17-19.83-7.03-27.92-14.15
		c-7.42-6.54-13.2-14.34-17.53-23.2c-5.63-11.52-8.6-23.7-8.86-36.53c-0.06-3.03-0.01-6.06-0.01-8.87
		c-1.43-1.36-2.93-1.02-4.33-1.01c-9.12,0.05-18.23,0.19-27.35,0.23c-45.43,0.19-90.86,0.35-136.29,0.52c-1.6,0.01-3.2,0.03-4.8,0.1
		c-1.08,0.05-1.69,0.72-1.74,1.88c-0.05,0.96-0.04,1.92-0.04,2.88c-0.03,10.81-1.79,21.33-5.51,31.49
		c-4.51,12.36-11.28,23.3-20.82,32.42c-10.83,10.36-23.53,16.98-38.6,18.6c-0.6,0.06-1.17,0.34-1.76,0.51
		c-0.69,2.19-0.41,4.28-0.41,6.33c0.02,87.18,0.05,174.36,0.09,261.55c0,1.28-0.02,2.56,0.02,3.84c0.07,2.84,0.41,3.22,3.43,3.24
		c8.96,0.07,17.92,0.09,26.87,0.1c0.77,0,1.53-0.22,2.26-0.33c0.02-0.52,0.15-0.88,0.03-1.12c-1.06-2.11-1.19-4.25-0.53-6.52
		c0.54-1.84,0.73-3.78,1.31-5.6c3.73-11.73,10.95-20.5,22.25-25.63c5.64-2.56,11.57-3.51,17.78-2.65c5.03,0.7,9.6,2.47,13.64,5.49
		c1.51,1.12,3.04,1.6,4.87,1.58c4.96-0.07,9.92-0.04,14.88-0.06c0.64,0,1.28-0.06,1.91-0.13c0.81-0.08,1.45-0.74,1.46-1.6
		c0.05-3.34,0.19-6.68-0.33-10.13c-1.71-0.77-3.28-1.51-4.88-2.2c-11.56-4.95-22.16-11.48-31.62-19.74
		c-24.73-21.56-38.93-48.75-42.62-81.29c-1.36-11.96-0.8-23.94,1.51-35.83c4.76-24.55,15.85-45.78,33.23-63.72
		c7.5-7.74,15.95-14.29,25.2-19.83c1.35-0.81,2.94-1.33,3.83-3.03c0.04-0.64,0.12-1.43,0.13-2.22c0.03-6.72,0.04-13.44,0.06-20.16
		c0.02-6.4,0.05-12.8,0.03-19.2c0-1.94,0.23-3.8,0.97-5.62c0.81-2.01,2.29-3.04,4.36-3.22c1.43-0.12,2.88-0.09,4.32-0.09
		c32.47,0.02,64.95,0.04,97.42,0.06c0.96,0,1.92-0.01,2.88,0.01c0.64,0.01,1.28,0.03,1.91,0.12c2.08,0.29,3.55,1.4,4.22,3.42
		c0.25,0.75,0.43,1.55,0.48,2.33c0.09,1.44,0.06,2.88,0.05,4.32c-0.05,11.2-0.11,22.4-0.16,33.59c-0.01,1.44,0,2.88,0.06,4.32
		c0.04,1.07,0.75,1.86,1.75,1.92c1.43,0.08,2.87,0.11,4.31,0.1c8.48-0.08,16.96-0.18,25.43-0.27c4.96-0.05,9.92-0.09,14.88-0.08
		c1.1,0,2.25,0.11,3.3,0.41c1.67,0.48,2.98,2.42,2.83,4.04c-0.16,1.72-1.03,3.03-2.67,3.67c-0.73,0.29-1.53,0.46-2.32,0.54
		c-1.11,0.1-2.24,0.08-3.36,0.09c-7.68,0.06-15.36,0.12-23.03,0.17C243.88,111.71,242.29,111.7,240.01,111.7z M280.35,193.26
		c0-0.9,0.14-1.71-0.02-2.44c-0.79-3.42-1.52-6.87-2.54-10.23c-8.6-28.46-25.62-50.46-50.83-66.19c-2.82-1.76-5.68-2.67-9.03-2.5
		c-5.43,0.28-10.87,0.35-16.31,0.4c-15.35,0.16-30.71,0.24-46.06,0.4c-10.55,0.11-21.11,0.33-31.66,0.43
		c-4.31,0.04-8.62,0.5-12.93-0.15c-0.57-0.09-1.26,0.19-1.81,0.46c-1,0.49-1.96,1.08-2.9,1.68c-24.64,15.64-41.22,37.44-49.72,65.34
		c-1.16,3.81-1.9,7.76-2.79,11.65c-0.27,1.18,0.16,1.89,1.22,2.25c0.6,0.21,1.22,0.36,1.84,0.54c6.54,1.85,11.79,5.6,15.94,10.93
		c2.48,3.18,4.41,6.66,5.79,10.45c3.37,9.31,3.77,18.73,1.12,28.28c-2.24,8.06-6.26,15.01-12.75,20.43
		c-0.59,0.5-1.09,1.11-1.73,1.77c0.81,1.51,1.52,2.94,2.32,4.32c4.5,7.79,9.88,14.94,16.07,21.45
		c24.68,25.97,60.51,39.16,96.07,35.15c12.52-1.41,24.5-4.61,35.89-9.93c22.59-10.53,40-26.71,52.28-48.4
		c0.61-1.08,1.54-2.09,1.22-3.77c-0.66-0.61-1.51-1.33-2.27-2.14c-1.86-1.98-3.87-3.85-5.47-6.02c-9.51-12.9-11.38-31.4-2.95-46.73
		c4.42-8.04,10.9-13.7,19.7-16.57C278.78,193.87,279.5,193.57,280.35,193.26z M166.15,419.11c0-0.05,0-0.11,0-0.16
		c48.61-0.11,97.22-0.22,145.83-0.33c1.6,0,3.2-0.01,4.8-0.04c0.48-0.01,1-0.01,1.41-0.21c0.39-0.19,0.82-0.58,0.93-0.97
		c0.22-0.75,0.3-1.57,0.31-2.36c0.02-8.63,0.02-17.27,0-25.9c0-0.79-0.08-1.6-0.22-2.37c-0.12-0.66-0.59-1.18-1.28-1.23
		c-1.59-0.11-3.19-0.17-4.79-0.17c-71.32-0.06-142.63-0.11-213.95-0.17c-2.56,0-5.11-0.16-7.67-0.26c-2.71-0.11-5.43-0.32-8.14-0.33
		c-16.95-0.08-33.9-0.11-50.85-0.16c-5.12-0.01-10.23-0.04-15.35-0.03c-0.95,0-1.92,0.04-2.85,0.23c-0.37,0.08-0.84,0.55-0.94,0.93
		c-0.2,0.76-0.25,1.57-0.25,2.37c-0.01,9.27-0.01,18.55,0.01,27.82c0,0.8,0.07,1.6,0.17,2.38c0.09,0.71,0.57,1.17,1.26,1.21
		c1.75,0.1,3.51,0.16,5.27,0.15C68.61,419.37,117.38,419.24,166.15,419.11z M13.5,90.98c0.61,0.13,1.07,0.32,1.52,0.3
		c1.11-0.04,2.26-0.04,3.33-0.3c2.79-0.67,5.6-1.32,8.31-2.26c7.97-2.78,14.93-7.28,20.92-13.18c15.84-15.6,23.37-34.73,23.78-56.8
		c0.11-6.19,0.23-5.88-5.62-5.86C49.93,12.94,34.11,13,18.3,13.06c-0.96,0-1.92,0-2.87,0.05c-1.77,0.1-2.34,0.62-2.41,2.26
		c-0.05,1.28-0.04,2.56-0.04,3.83c0.01,22.05,0.02,44.1,0.04,66.15c0,1.28-0.01,2.56,0.07,3.83C13.11,89.8,13.35,90.39,13.5,90.98z
		 M263.87,12.32c-0.2,1.41-0.4,2.35-0.45,3.3c-0.51,11.31,1.04,22.3,5.15,32.88c3.63,9.35,8.81,17.72,16.04,24.72
		c8.27,8,17.98,13.18,29.47,14.73c1.26,0.17,2.54,0.2,3.81,0.19c0.7,0,1.2-0.51,1.26-1.2c0.12-1.43,0.21-2.86,0.21-4.29
		c0.01-21.72,0-43.44,0-65.16c0-1.28-0.04-2.55-0.11-3.83c-0.06-1.04-0.78-1.67-1.89-1.74c-0.48-0.03-0.96-0.05-1.44-0.05
		c-16.29,0.05-32.58,0.09-48.87,0.16C266.12,12.02,265.19,12.19,263.87,12.32z M117.05,62.13c-0.71,1.86-0.57,3.45-0.44,5.04
		c0.09,1.07,0.63,1.68,1.82,1.86c7.22,1.09,13.33,4.32,18.35,9.57c5.59,5.86,8.86,12.89,9.72,20.91c0.48,4.51,0.57,4.5,4.8,4.5
		c0.32,0,0.64,0,0.96-0.01c19.17-0.16,38.35-0.34,57.52-0.47c4.96-0.04,5.78-0.06,5.77-5.62c0-10.23,0.11-20.45,0.18-30.68
		c0.04-5.77,0.13-5.49-5.51-5.49c-18.22-0.01-36.43-0.02-54.65-0.03c-11.18-0.01-22.37-0.02-33.55-0.01
		C120.44,61.7,118.84,61.5,117.05,62.13z M124.58,376.13c0,0.04,0,0.08,0,0.12c10.39,0,20.79,0,31.18,0c1.28,0,2.56,0,3.84-0.05
		c1.5-0.06,2.09-0.59,2.18-1.96c0.07-1.12,0.08-2.24,0.08-3.36c0.01-5.28,0.01-10.55,0-15.83c-0.01-5.73,0.21-5.42-5.57-5.41
		c-17.11,0.02-34.22,0.05-51.33,0.08c-0.96,0-1.92-0.02-2.88,0.02c-1.84,0.09-3.47-0.37-4.85-1.65c-0.7-0.65-1.47-1.24-2.24-1.8
		c-2.23-1.61-4.68-2.7-7.35-3.4c-5.37-1.4-10.52-0.62-15.44,1.61c-9.17,4.16-14.85,11.4-17.63,20.94c-0.87,2.98-0.47,3.66,2.52,4.49
		c13.14,3.66,26.43,6.24,40.15,6.18C106.35,376.1,115.46,376.13,124.58,376.13z M280.49,367.67c-4.23-12.42-15.61-20.73-24.12-22.94
		c-7.91-2.06-15.5-1.77-22.48,3.05c-0.26,0.18-0.53,0.36-0.8,0.53c-1.1,0.7-2.31,1.08-3.61,1.13c-1.28,0.04-2.55,0.05-3.83,0.05
		c-16.13,0.04-32.26,0.08-48.4,0.12c-1.12,0-2.24,0-3.35,0.02c-0.48,0.01-0.96,0.03-1.43,0.07c-1.09,0.09-1.8,0.73-1.79,1.82
		c0.02,7.82,0.07,15.64,0.14,23.46c0,0.26,0.31,0.52,0.6,0.97c1.54,0.56,3.31,0.3,5.03,0.3c19.17-0.03,38.33-0.16,57.5-0.1
		c6.89,0.02,13.71-0.44,20.48-1.7c7.85-1.46,15.64-3.17,23.26-5.59C278.56,368.57,279.39,368.13,280.49,367.67z M281.37,202.28
		c-1.42,0.46-2.51,0.71-3.51,1.17c-5.44,2.48-9.42,6.54-12.15,11.78c-4.66,8.95-5.23,18.29-2.18,27.86
		c1.63,5.11,4.33,9.58,8.29,13.25c0.46,0.43,1,0.78,1.77,0.49c0.21-0.35,0.51-0.74,0.69-1.17c0.55-1.33,1.09-2.66,1.56-4.01
		c3.18-9.08,5.25-18.39,6.12-27.99c0.48-5.26,0.66-10.51,0.46-15.78C282.36,206.14,282.32,204.38,281.37,202.28z M61.29,258.25
		c3.01-2.38,4.95-4.87,6.54-7.66c4.76-8.28,5.74-17.15,4-26.4c-0.81-4.29-2.49-8.24-5-11.83c-2.04-2.91-4.51-5.4-7.61-7.17
		c-1.94-1.1-3.95-2.06-6.36-2.1c-0.98,2.32-0.91,4.73-1.03,7.09c-0.21,4.16,0.17,8.29,0.48,12.44c0.84,11.4,3.48,22.37,7.7,32.98
		C60.29,256.33,60.68,257.01,61.29,258.25z M137.35,103.83c0.18-0.34,0.39-0.61,0.45-0.91c0.09-0.46,0.14-0.95,0.1-1.42
		c-0.67-8.63-4.51-15.48-11.59-20.47c-1.83-1.3-3.88-2.2-6.05-2.77c-0.75-0.2-1.58-0.26-2.36-0.19c-0.39,0.03-0.9,0.41-1.06,0.77
		c-0.25,0.56-0.34,1.23-0.34,1.85c-0.04,7.01-0.05,14.02-0.07,21.03c0,0.32,0.05,0.63,0.09,0.95c0.12,1.06,0.8,1.79,1.87,1.78
		c5.89-0.03,11.79-0.09,17.68-0.18C136.52,104.26,136.96,103.97,137.35,103.83z M146.5,340.85c0,0.01,0,0.03,0,0.04
		c3.67,0,7.34,0.01,11.02-0.01c0.96,0,1.91-0.06,2.87-0.14c0.83-0.07,1.3-0.68,1.33-1.66c0.04-1.03-0.33-1.78-1.03-1.91
		c-1.41-0.26-2.82-0.56-4.25-0.66c-7.03-0.49-13.93-1.77-20.73-3.57c-3.39-0.9-3.64-0.25-3.6,2.75c0.01,1.12,0.05,2.23,0.12,3.35
		c0.07,1.1,0.72,1.78,1.82,1.79C138.2,340.87,142.35,340.85,146.5,340.85z M198.54,340.53c0.25-0.82,0.4-1.12,0.42-1.42
		c0.06-0.8,0.09-1.6,0.08-2.39c-0.01-3.33-0.43-3.71-3.58-2.98c-5.93,1.36-11.89,2.41-17.97,2.81c-1.91,0.13-3.81,0.43-5.7,0.7
		c-0.75,0.1-1.13,0.83-1.08,1.86c0.05,1.05,0.45,1.54,1.37,1.63c0.63,0.06,1.27,0.11,1.91,0.11c7.19-0.01,14.38-0.01,21.58-0.05
		C196.5,340.79,197.43,340.64,198.54,340.53z"/>
	<path d="M167.77,242.39c-8.15,0-16.31,0-24.46,0c-1.28,0-2.56-0.04-3.83-0.07c-3.11-0.08-5.62-3.89-4.51-7.05
		c0.26-0.75,0.63-1.47,1-2.18c8.31-15.85,16.63-31.7,24.96-47.54c0.44-0.85,0.94-1.67,1.49-2.45c1.86-2.67,6-2.19,7.57-0.24
		c0.7,0.86,1.3,1.82,1.86,2.78c9.11,15.78,18.21,31.56,27.3,47.35c0.56,0.97,1.09,1.96,1.51,2.99c0.85,2.07,0.09,4.26-1.9,5.32
		c-0.83,0.44-1.77,0.76-2.7,0.88c-1.26,0.17-2.55,0.12-3.83,0.12c-8.15,0.01-16.31,0-24.46,0
		C167.77,242.32,167.77,242.36,167.77,242.39z M188.59,233.29c0.15-1.59-0.75-2.6-1.36-3.67c-6.2-10.79-12.42-21.57-18.64-32.35
		c-0.32-0.55-0.65-1.1-0.98-1.64c-0.34-0.55-0.72-1.02-1.56-0.8c-0.24,0.33-0.58,0.68-0.8,1.1c-6.1,11.58-12.18,23.16-18.26,34.74
		c-0.29,0.56-0.6,1.17-0.66,1.78c-0.03,0.34,0.36,0.92,0.69,1.05c0.57,0.22,1.25,0.22,1.89,0.21c12.45-0.03,24.9-0.06,37.35-0.12
		C187.02,233.59,187.78,233.4,188.59,233.29z"/>
	<path d="M228.39,244.2c1.55,0.08,2.63,1.1,3.81,1.85c3.21,2.02,3.26,2.27,1.13,5.62c-8.06,12.65-19.11,21.82-32.78,27.85
		c-10.69,4.71-21.94,7.04-33.6,6.7c-19.2-0.56-36.31-6.85-50.85-19.61c-5.33-4.68-9.8-10.09-13.48-16.14
		c-0.41-0.68-0.82-1.39-1.04-2.14c-0.11-0.37,0.05-1.1,0.33-1.28c1.74-1.11,3.53-2.15,5.36-3.12c0.61-0.32,1.27,0.05,1.68,0.57
		c0.5,0.62,0.91,1.31,1.34,1.99c9.43,14.67,22.73,24.1,39.47,28.55c18.42,4.89,36.16,2.84,52.97-6.24
		c9.46-5.11,17.14-12.23,23.03-21.26C226.53,246.35,227,244.9,228.39,244.2z"/>
	<path d="M94.84,188.34c1.28,0.19,2.05,0.4,2.82,0.4c8.94-0.02,17.88-0.06,26.82-0.13c4.41-0.04,4.46-0.11,4.51-4.64
		c0.05-4.79,0.06-9.58,0.09-14.37c0.01-1.12,0-2.24,0.05-3.35c0.1-2.41,0.54-2.86,2.77-2.96c0.48-0.02,0.96-0.02,1.44-0.02
		c4.31-0.02,4.5,0.14,4.49,4.61c-0.02,7.5-0.09,15.01-0.16,22.51c-0.01,1.11-0.07,2.24-0.29,3.33c-0.36,1.86-1.74,3.15-3.57,3.38
		c-1.1,0.14-2.23,0.16-3.34,0.16c-12.61,0.04-25.23,0.06-37.84,0.08c-0.8,0-1.6,0.02-2.39-0.06c-2.3-0.22-3.85-1.73-4.12-3.95
		c-0.06-0.47-0.04-0.96-0.05-1.43c-0.12-7.98-0.24-15.96-0.36-23.95c-0.01-0.96,0.01-1.92,0.06-2.87c0.05-0.8,0.74-1.55,1.49-1.62
		c2.06-0.2,4.12-0.38,6.04,0.17c1.1,1.14,1,2.47,1.04,3.72c0.15,4.95,0.23,9.9,0.35,14.84C94.71,184.1,94.77,186,94.84,188.34z"/>
	<path d="M222.69,197.34c-6.39,0-12.78,0.01-19.17-0.01c-1.11,0-2.24-0.03-3.33-0.22c-1.56-0.27-2.82-1.72-3.04-3.31
		c-0.07-0.47-0.08-0.95-0.1-1.43c-0.21-7.82-0.42-15.64-0.61-23.46c-0.03-1.28-0.03-2.55,0.02-3.83c0.04-1.04,0.76-1.76,1.85-1.8
		c1.59-0.06,3.19-0.06,4.78-0.01c1.1,0.04,1.83,0.72,1.9,1.76c0.1,1.59,0.14,3.19,0.18,4.78c0.13,4.79,0.22,9.58,0.37,14.37
		c0.03,1.11,0.17,2.23,0.38,3.32c0.13,0.66,0.66,1.07,1.36,1.16c0.47,0.06,0.95,0.11,1.43,0.11c8.78-0.05,17.57-0.08,26.35-0.16
		c4.5-0.04,4.58-0.14,4.68-4.53c0.12-5.43,0.21-10.86,0.32-16.29c0.02-0.8,0.04-1.6,0.1-2.39c0.13-1.64,0.67-2.12,2.47-2.2
		c0.64-0.03,1.28-0.04,1.92-0.04c3.76,0.02,3.99,0.2,3.98,4.14c-0.01,7.99-0.18,15.97-0.11,23.96c0.04,4.36-1.94,6.08-6.1,6.02
		c-6.55-0.1-13.1-0.03-19.64-0.03C222.69,197.28,222.69,197.31,222.69,197.34z"/>
</g>
</svg>
