<?xml version="1.0" encoding="utf-8"?>
<!-- Generator: Adobe Illustrator 25.4.1, SVG Export Plug-In . SVG Version: 6.00 Build 0)  -->
<svg version="1.1" id="Layer_1" xmlns="http://www.w3.org/2000/svg" xmlns:xlink="http://www.w3.org/1999/xlink" x="0px" y="0px"
	 viewBox="0 0 233.37 238.23" style="enable-background:new 0 0 233.37 238.23;" xml:space="preserve">
<style type="text/css">
	.st0{fill:#2B6998;}
	.st1{fill:#FFFFFF;}
	.st2{fill:#FF9E02;}
</style>
<path class="st0" d="M179.01,89c2.61,0.37,5.14,0.7,7.66,1.08c3.14,0.47,5.98,1.74,8.64,3.41c1.57,0.99,2.92,2.24,3.95,3.8
	c1.11,1.66,2.25,3.31,3.31,5c1.22,1.93,1.74,4.12,2.04,6.35c0.21,1.58,0.33,3.18,0.42,4.78c0.22,4.15,0.42,8.3,0.59,12.45
	c0.21,5.11,0.35,10.23,0.58,15.34c0.11,2.31,0.42,4.62,0.53,6.93c0.09,1.75,0,3.51,0,5.27c0,2.79,0,5.58,0,8.4
	c0.21,0.13,0.39,0.32,0.6,0.37c4.62,1.28,8.6,3.82,12.52,6.46c3.99,2.68,6.66,6.39,8.45,10.79c0.69,1.7,1.21,3.48,1.98,5.15
	c1.25,2.7,1.39,5.58,1.42,8.45c0.01,1.38,0.14,2.69,0.46,4.02c0.18,0.77,0.29,1.58,0.28,2.37c-0.02,1.17-0.45,1.58-1.62,1.6
	c-0.96,0.02-1.92-0.1-2.87-0.14c-0.54-0.02-1.08,0-1.73,0c-0.18,2.57,0.38,5,0.72,7.41c0.46,3.27,0.28,6.37-1.27,9.33
	c-0.15,0.28-0.28,0.58-0.38,0.88c-1.2,3.6-3.61,6.33-6.2,9c-2.9,2.98-6.43,4.34-10.47,4.69c-5.92,0.52-11.82,0.35-17.73-0.18
	c-1.27-0.11-2.56-0.21-3.83-0.13c-11.5,0.76-23.02,0.74-34.53,0.93c-4,0.07-8,0.42-11.98,0.28c-5.69-0.21-11.34,0.06-17.01,0.44
	c-3.57,0.24-7.19-0.07-10.78-0.2c-3.52-0.13-7.02-0.39-10.53,0.15c-1.49,0.23-3.03,0.17-4.55,0.14c-4.73-0.11-9.42,0.31-14.12,0.8
	c-1.51,0.16-3.03,0.12-4.55,0.18c-3.11,0.12-6.23,0.24-9.34,0.38c-4.16,0.18-8.3,0.14-12.45-0.44c-4.19-0.59-8.41-1-12.62-1.4
	c-6.35-0.59-12.48-2.04-18.2-4.88c-3.54-1.76-6.64-4.15-8.79-7.6c-0.63-1.02-1.43-1.93-2.04-2.96c-1.93-3.2-2.9-6.72-3.36-10.41
	c-0.23-1.82-0.55-3.62-0.85-5.54c-0.84-0.6-1.87-0.68-2.89-0.75c-1.2-0.08-2.4-0.09-3.59-0.18c-2.48-0.18-3.06-0.87-2.8-3.38
	c0.1-0.95,0.33-1.89,0.51-2.83c1-5.3,2.68-10.37,5.23-15.13c0.64-1.19,1.48-2.27,2.26-3.38c0.55-0.77,1.17-1.49,1.85-2.34
	c-1.64-1.74-1.71-3.79-1.65-5.91c0.18-6.15,0.31-12.31,0.47-18.46c0.02-0.63,0.11-1.27,0.23-1.9c0.32-1.54,1.23-2.56,2.77-3
	c0.84-0.24,1.67-0.5,2.67-0.8c0.17-2.48,0.51-4.92,0.36-7.4c-0.27-4.39-0.57-8.78-0.84-13.16c-0.3-4.68,1.6-7.28,6.22-8.56
	c0.23-0.06,0.44-0.16,0.75-0.28c0.09-0.26,0.25-0.55,0.27-0.85c0.43-6.51,1.84-12.8,4.08-18.91c1.84-5.01,4.38-9.65,8-13.56
	c3.48-3.75,7.23-7.26,12.18-9.13c2.54-0.96,5-2.13,7.56-3.06c1.06-0.38,1.56-0.97,1.77-2c1.45-7.4,5.77-13.26,10.4-18.9
	c1.71-2.09,3.83-3.84,5.8-5.71c3.54-3.35,7.94-5,12.53-6.26c2.47-0.68,4.93-1.37,7.43-1.9c2.03-0.43,4.1-0.63,6.16-0.95
	c0.54-0.08,1.08-0.2,1.63-0.3c0.49-1.17,0.91-2.28,1.42-3.36c0.57-1.21,1.91-1.35,3.15-2.05c0-0.86,0.04-1.8-0.01-2.74
	c-0.24-5.12,0.99-10.03,2.5-14.83c1.19-3.78,3.99-6.36,7.73-7.69c3.11-1.11,6.36-1.5,9.69-1.18c3.18,0.3,5.45,1.83,6.45,4.9
	c0.59,1.81,1.22,3.69,1.32,5.57c0.18,3.26-0.03,6.54-0.1,9.82c-0.03,1.19-0.15,2.37-0.24,3.67c2.75,0.61,3.09,2.55,2.95,4.8
	c-0.04,0.69,0.08,1.39,0.14,2.2c0.77,0.08,1.39,0.18,2.01,0.19c5.04,0.13,10.08,0.12,15.11,0.42c3.75,0.23,7.48,0.53,11.24,0.63
	c3.86,0.1,6.72,2.09,8.78,5.43c2.69,4.37,3.71,9.16,3.93,14.17c0.14,3.2,0.06,6.4,0.17,9.6c0.11,3.19,0.28,6.39,0.49,9.58
	c0.37,5.5,0.59,11.01,1.35,16.48C178.77,88.51,178.86,88.65,179.01,89z M177.79,160.5c0.54-2,0.32-3.68,0.3-5.34
	c-0.07-5.36-0.2-10.71-0.31-16.07c-0.02-0.96-0.03-1.92-0.07-2.88c-0.13-2.95-0.3-5.9-0.42-8.85c-0.22-5.43,0.08-10.88-0.61-16.29
	c-0.17-1.35-0.29-2.71-0.32-4.06c-0.16-5.67-0.21-11.34-0.42-17c-0.15-4.15-0.47-8.29-0.72-12.44c-0.27-4.47-0.6-8.93-0.81-13.4
	c-0.21-4.55-0.23-9.11-0.49-13.66c-0.22-3.98-1.42-7.69-3.63-11.04c-1.39-2.11-3.22-3.53-5.87-3.62c-1.59-0.06-3.19-0.13-4.78-0.24
	c-2.71-0.2-5.41-0.57-8.12-0.65c-6.23-0.18-12.47-0.27-18.71-0.33c-7.68-0.08-15.35-0.12-23.03-0.14
	c-5.39-0.01-10.62,1.32-15.93,1.94c-0.16,0.02-0.31,0.08-0.46,0.12c-2.24,0.58-4.47,1.22-6.73,1.73c-5.52,1.26-10.26,3.89-14.35,7.8
	c-5.1,4.89-8.8,10.74-11.93,17c-0.18,0.36-0.35,0.73-0.44,1.11c-0.75,3.19-1.58,6.36-2.2,9.57c-0.51,2.66-0.61,5.41-1.16,8.06
	c-0.79,3.86-1.1,7.72-0.87,11.66c0.15,2.54-0.06,5.11-0.21,7.66c-0.16,2.63-0.49,5.25-0.65,7.88c-0.23,3.75-0.38,7.5-0.55,11.26
	c-0.3,6.62-0.64,13.25-0.89,19.87c-0.17,4.55-0.25,9.1-0.33,13.65c-0.02,1.26-0.26,2.55,0.36,3.96c0.91,0.03,1.85,0.06,2.79,0.1
	c2.24,0.08,4.47,0.16,6.71,0.23c0.8,0.02,1.6,0.02,2.4,0.03c1.2,0,2.39-0.05,3.59,0c4.87,0.22,9.74,0.49,14.61,0.7
	c1.67,0.07,3.35,0.05,5.02,0.01c3.28-0.08,6.55-0.31,9.83-0.27c4.79,0.06,9.58,0.32,14.37,0.48c3.04,0.1,6.07,0.21,9.11,0.25
	c3.52,0.06,7.04-0.03,10.56,0.1c4.95,0.19,9.89,0.55,14.84,0.8c3.59,0.18,7.19,0.32,10.78,0.47c0.56,0.02,1.12,0.02,1.68-0.01
	c4.15-0.21,8.29-0.31,12.45-0.09C174,160.66,175.83,160.53,177.79,160.5z M220.5,222.17c-0.58-0.89-1.52-1.55-1.08-2.62
	c0.33-0.81,0.77-1.57,1.23-2.32c0.6-0.99,1.73-0.56,2.59-0.77c0.52-1.07,1.12-2.01,0.94-3.36c-1.78-0.23-2.24-1.51-2.48-3.05
	c-0.3-1.89,1.3-2.31,2.49-3.18c-0.65-1.99,0.05-4.21-1.42-5.97c-0.3-0.03-0.55-0.11-0.76-0.06c-0.97,0.25-1.7-0.17-2.39-0.78
	c-0.66-0.58-0.51-1.26-0.36-1.99c0.06-0.3-0.03-0.63-0.06-0.94c-0.39-3.6-2.2-6.52-4.66-8.98c-2.93-2.92-6.43-4.9-10.48-6.04
	c-5.25-1.48-10.61-2.3-15.97-3.22c-3.64-0.63-7.29-0.92-10.98-0.96c-1.52-0.02-3.04,0.01-4.56-0.06c-8.63-0.4-17.27-0.52-25.91-0.4
	c-7.92,0.11-15.82-0.37-23.73-0.84c-4.62-0.27-9.27-0.04-13.91,0.11c-4.15,0.14-8.3,0.54-12.45,0.7c-3.91,0.15-7.84,0.14-11.75,0.21
	c-3.51,0.06-7.03,0.23-10.54,0.19c-8.15-0.11-16.29-0.82-24.45-0.35c-3.67,0.21-7.35,0.44-10.97,1c-5.22,0.8-10.08,2.64-14.01,6.32
	c-1.92,1.8-3.56,3.88-5.39,5.78c-0.65,0.67-0.98,1.4-1.13,2.3c-0.35,2.21-0.84,4.4-1.14,6.61c-0.22,1.59-0.9,2.51-2.58,2.51
	c-0.12,0-0.24,0.19-0.36,0.29c0.05,1.41,0.04,1.45,1.08,1.59c0.72,0.1,1.48,0.07,1.92,0.76c0.59,0.91,0.75,1.94,0.54,3
	c-0.19,0.94-1.03,1.12-1.8,1.36c-0.28,0.09-0.52,0.29-0.87,0.49c0.52,1.16,0.55,2.39,1.29,3.44c0.44,0,0.84,0.06,1.22-0.01
	c1.71-0.33,2.7,0.54,3.45,1.94c0.82,1.51,0.76,1.86-0.69,2.97c-0.3,0.23-0.59,0.48-0.93,0.75c0.84,1.49,1.61,2.87,3.02,3.72
	c2.81-1.73,5.06-0.42,4.49,3.35c2.2,0.96,4.35,2.15,6.89,2.67c0.63-1.07,1.2-1.94,2.64-1.71c1.82,0.29,2.25,1.5,2.36,2.99
	c2.38,0.63,4.65,0.88,7.08,0.8c0.41-1.25,0.8-2.52,2.49-2.4c1.9,0.14,3.17,0.94,3.26,3.09c1.47,0.2,2.8,0.4,4.14,0.57
	c1.33,0.17,2.65,0.33,3.89,0.49c1.17-2.25,1.46-2.39,3.09-2.24c1.63,0.15,2.58,1.06,3.09,2.58c3.45-0.16,6.77-0.32,10.15-0.47
	c0.47-1.55,0.82-2.86,2.8-2.85c1.88,0,2.49,1.05,2.89,2.67c1.75-0.1,3.42-0.17,5.09-0.3c0.66-0.05,1.26-0.27,1.46-1.02
	c0.36-1.37,1.41-1.56,2.61-1.59c1.19-0.03,2.24,0.09,2.79,1.36c0.12,0.27,0.35,0.5,0.58,0.81c1.95,0,3.86,0.02,5.78-0.01
	c0.9-0.02,1.72-0.2,2.06-1.28c0.12-0.39,0.59-0.87,0.97-0.94c1.33-0.23,2.74-0.52,3.73,0.82c0.41,0.55,0.89,0.91,1.59,0.91
	c1.91,0,3.82,0,5.96,0c0.47-1.26,1.38-2.12,2.98-2.05c1.62,0.06,2.19,1.37,3.02,2.48c2.68-0.15,5.3-0.29,7.93-0.46
	c0.82-0.05,1.57-0.25,1.93-1.15c0.3-0.76,0.96-0.98,1.74-1.04c2.28-0.18,2.81,0.02,4.39,1.84c2.71,0.29,5.48,0.67,8.35,0.11
	c0.22-0.42,0.39-0.87,0.68-1.23c0.23-0.3,0.58-0.65,0.91-0.69c1.27-0.16,2.61-0.33,3.47,0.94c0.41,0.6,0.88,0.87,1.58,0.87
	c2.87-0.01,5.75,0,8.66,0c0.68-1.36,1.65-2.01,3.03-2.23c1.71-0.27,2.34,1.03,3.18,2.03c3.34-0.1,6.61-0.2,9.8-0.29
	c1.09-2.42,3.19-2.86,5.34-0.16c2.71-0.14,5.49-0.28,8.43-0.42c0.46-1.62,1.63-1.91,3.16-1.85c1.68,0.06,2.7,0.78,3.18,2.42
	c2.53,0,4.99,0,7.56,0c0.58-1.68,1.86-2.08,3.43-1.73c0.52,0.12,1.07,0.4,1.45,0.76c0.61,0.58,1.27,0.65,1.99,0.49
	c0.84-0.19,1.67-0.46,2.03-0.56c0.75-1.37,1.2-2.36,1.81-3.26c0.88-1.3,2.24-0.22,3.48-0.53
	C218.7,224.07,219.57,223.15,220.5,222.17z M14.54,199.18c0.37-1.92,0.73-3.47,0.95-5.04c0.51-3.67,1.42-7.21,2.9-10.61
	c1.14-2.61,2.67-4.95,5-6.62c5.26-3.77,11.13-5.87,17.6-6.24c2.55-0.15,5.11-0.31,7.65-0.53c6.28-0.55,12.54-1.51,18.89-0.93
	c0.95,0.09,1.92-0.01,2.88-0.05c2.48-0.08,4.95-0.2,7.43-0.26c3.28-0.07,6.56-0.18,9.83-0.13c3.27,0.05,6.54,0.26,9.81,0.45
	c1.59,0.09,3.19,0.47,4.77,0.42c2.95-0.11,5.89-0.51,8.84-0.66c4.39-0.22,8.79-0.42,13.18-0.44c5.83-0.03,11.67,0.19,17.5,0.19
	c4.56,0,9.11-0.23,13.67-0.25c4.08-0.01,8.15,0.19,12.23,0.18c7.13-0.02,14.22,0.51,21.29,1.28c5.9,0.64,11.61,2.21,17.14,4.38
	c3.27,1.28,5.98,3.33,8.23,6.03c3.54,4.25,6.16,8.94,7.01,14.49c0.08,0.55,0.24,1.09,0.4,1.63c0.16,0.52,0.38,1.01,0.63,1.67
	c1.25,0,2.44,0.03,3.62-0.01c1.16-0.04,2.35,0.26,3.41-0.07c-0.12-2.44-0.24-4.74-0.34-7.04c-0.08-1.77-0.41-3.48-1.1-5.13
	c-0.61-1.48-1.18-2.97-1.71-4.48c-1.68-4.86-4.64-8.73-9.02-11.44c-2.85-1.76-5.64-3.67-8.87-4.71c-3.59-1.16-7.27-1.98-11.05-2.03
	c-5.35-0.06-10.71,0.02-16.06,0.04c-0.56,0-1.12,0.06-1.68,0.06c-5.75-0.08-11.51-0.16-17.26-0.24c-3.84-0.05-7.68-0.04-11.51-0.15
	c-2.72-0.08-5.43-0.3-8.14-0.47c-1.91-0.12-3.82-0.33-5.74-0.36c-5.12-0.09-10.24-0.06-15.35-0.16c-4.39-0.08-8.78-0.27-13.18-0.39
	c-2-0.05-4.02,0.16-5.99-0.09c-4.24-0.54-8.46-0.3-12.69-0.11c-2.63,0.12-5.27,0.18-7.9,0.09c-6.07-0.22-12.11-0.96-18.2-0.81
	c-1.19,0.03-2.39-0.14-3.59-0.21c-0.64-0.04-1.28-0.09-1.92-0.07c-3.91,0.09-7.83,0.17-11.74,0.31c-3.12,0.11-6.28,0.24-9.17,1.51
	c-5.41,2.38-10.76,4.92-16.11,7.44c-1.15,0.54-2.35,1.09-3.32,1.89c-2.98,2.47-5.5,5.41-7.44,8.72c-2.65,4.51-4.19,9.49-5.23,14.62
	c-0.23,1.12-0.24,2.21,0.58,3.2C8.52,198.41,11.35,198.77,14.54,199.18z M19.16,167.38c0.42-0.11,0.74-0.14,1.01-0.27
	c4.21-1.94,8.43-3.84,12.6-5.86c3.2-1.55,6.49-2.66,10.05-2.96c0.69-0.06,1.45-0.25,2.02-0.62c2.04-1.35,3.63-3.08,4.37-5.51
	c0.75-2.46,1.28-4.95,1.41-7.52c0.18-3.82,0.26-7.65,0.44-11.47c0.23-4.94,0.51-9.88,0.75-14.82c0.02-0.45-0.09-0.91-0.15-1.45
	c-0.5-0.06-0.88-0.15-1.26-0.14c-4.55,0.11-9.1,0.24-13.66,0.36c-1.36,0.04-2.72,0-4.07,0.1c-3.03,0.23-6.05,0.35-9.09-0.02
	c-2.76-0.33-5.17,1.93-5.19,4.72c-0.01,0.72,0.09,1.44,0.15,2.15c0.5,5.49,0.92,10.99,0.76,16.51c-0.06,1.92-0.22,3.83-0.28,5.74
	c-0.18,5.43-0.36,10.86-0.48,16.28C18.5,164.19,18.72,165.75,19.16,167.38z M178.85,91.8c-0.05,1.72-0.15,3.15-0.12,4.57
	c0.07,3.84,0.16,7.67,0.32,11.5c0.16,3.83,0.47,7.65,0.62,11.48c0.19,4.63,0.27,9.26,0.44,13.9c0.11,3.07,1.09,5.7,3.53,7.82
	c1.01,0.88,1.88,1.32,3.14,1.26c3.43-0.14,6.87-0.17,10.3-0.39c2.41-0.15,4.3-1.3,5.05-3.73c0.49-1.59,1-3.25,1.05-4.89
	c0.09-3.43-0.06-6.88-0.21-10.31c-0.17-3.83-0.58-7.66-0.66-11.49c-0.15-6.5-3.46-11.3-7.94-15.54c-0.45-0.43-1.06-0.71-1.62-1.02
	C188.52,92.56,183.86,92.07,178.85,91.8z M129.56,24.79c0.19-0.45,0.34-0.67,0.37-0.89c0.7-4.68,0.91-9.39,0.19-14.07
	c-0.21-1.39-0.84-2.74-1.4-4.05c-0.5-1.17-1.49-1.77-2.75-2.08c-2.57-0.65-5.1-0.29-7.59,0.25c-4.84,1.05-7.9,3.95-8.83,8.92
	c-0.16,0.86-0.45,1.7-0.62,2.56c-0.66,3.2-1.43,6.4-1.14,9.71c0.05,0.51,0.23,1.02,0.35,1.51c0.41,0,0.66,0.05,0.88-0.01
	c4.57-1.33,9.25-1.65,13.98-1.62C125.16,25.02,127.3,24.87,129.56,24.79z M55.4,71.32c-4.35,1.77-8.22,3.23-11.74,5.46
	c-0.13,0.09-0.26,0.18-0.39,0.28c-5.08,4.02-9.28,8.74-12.03,14.69c-1.72,3.72-2.99,7.58-3.96,11.54c-0.47,1.92-0.65,3.95-0.71,5.93
	c-0.04,1.24,0.3,2.53,0.66,3.74c0.24,0.83,0.81,1.69,1.82,1.69c1.97,0,3.96,0.21,6.07-0.3c0.18-2.35,0.35-4.64,0.54-6.93
	c0.09-1.11,0.11-2.25,0.39-3.32c1.4-5.45,3.45-10.64,6.54-15.36c2.3-3.51,5.26-6.22,9.55-7.1c0.23-0.05,0.46-0.13,0.7-0.17
	c1.01-0.2,1.46-0.85,1.55-1.85c0.15-1.59,0.34-3.18,0.53-4.76C55.03,73.86,55.19,72.85,55.4,71.32z M203.72,144.12
	c-4.11,0.16-7.86,0.15-11.56,0.49c-3.78,0.36-7.61-0.13-11.42,0.67c-0.25,3.44-0.24,6.68,0.81,9.85c0.58,1.74,1.68,2.91,3.46,3.3
	c1.78,0.39,3.52,0.99,5.39,0.87c0.86-0.06,1.74,0.14,2.61,0.26c2.57,0.36,5.08,0.28,7.53-0.68c2.17-0.85,3.58-2.76,3.63-5.11
	c0.04-2.15,0.06-4.31-0.01-6.46C204.13,146.31,203.89,145.3,203.72,144.12z M104.16,32.02c0.51,0.03,0.9,0.07,1.29,0.06
	c5.02-0.04,10.05-0.18,15.07-0.09c2.85,0.05,5.53-0.6,8.22-1.33c1.37-0.37,2.36-1.19,2.94-2.8c-1.64-0.33-3.09-0.53-4.6-0.45
	c-2.23,0.12-4.46,0.35-6.68,0.25c-5.22-0.24-10.07,1.42-15.02,2.61C104.65,30.44,104.05,30.84,104.16,32.02z M13,167.99
	c1.64-1.59,1.75-1.59,2.08-3.04c0.41-1.79,0.79-3.6,0.92-5.42c0.25-3.51,0.32-7.02,0.43-10.54c0.02-0.69-0.07-1.37-0.11-2.05
	c-2.34,0-2.91,0.38-3.03,2.29c-0.16,2.47-0.13,4.95-0.19,7.43c-0.07,3.27-0.15,6.55-0.22,9.82C12.87,166.84,12.94,167.22,13,167.99z
	"/>
<path class="st1" d="M177.79,160.5c-1.96,0.03-3.79,0.15-5.61,0.06c-4.15-0.22-8.3-0.12-12.45,0.09c-0.56,0.03-1.12,0.03-1.68,0.01
	c-3.59-0.15-7.19-0.28-10.78-0.47c-4.95-0.25-9.89-0.61-14.84-0.8c-3.51-0.14-7.04-0.04-10.56-0.1c-3.04-0.05-6.08-0.15-9.11-0.25
	c-4.79-0.16-9.58-0.42-14.37-0.48c-3.27-0.04-6.55,0.19-9.83,0.27c-1.67,0.04-3.35,0.06-5.02-0.01c-4.87-0.21-9.74-0.48-14.61-0.7
	c-1.19-0.05-2.39,0-3.59,0c-0.8,0-1.6,0-2.4-0.03c-2.24-0.07-4.47-0.15-6.71-0.23c-0.94-0.03-1.88-0.06-2.79-0.1
	c-0.62-1.41-0.39-2.71-0.36-3.96c0.08-4.55,0.16-9.11,0.33-13.65c0.25-6.63,0.58-13.25,0.89-19.87c0.17-3.75,0.32-7.51,0.55-11.26
	c0.16-2.63,0.5-5.25,0.65-7.88c0.15-2.55,0.36-5.12,0.21-7.66c-0.23-3.94,0.08-7.8,0.87-11.66c0.55-2.65,0.65-5.4,1.16-8.06
	c0.61-3.21,1.44-6.39,2.2-9.57c0.09-0.38,0.26-0.76,0.44-1.11c3.12-6.26,6.83-12.11,11.93-17c4.08-3.92,8.83-6.54,14.35-7.8
	c2.26-0.52,4.49-1.15,6.73-1.73c0.15-0.04,0.31-0.1,0.46-0.12c5.31-0.62,10.54-1.95,15.93-1.94c7.68,0.02,15.36,0.06,23.03,0.14
	c6.24,0.06,12.47,0.15,18.71,0.33c2.71,0.08,5.41,0.45,8.12,0.65c1.59,0.12,3.18,0.19,4.78,0.24c2.65,0.09,4.48,1.51,5.87,3.62
	c2.21,3.35,3.41,7.06,3.63,11.04c0.26,4.55,0.28,9.11,0.49,13.66c0.21,4.47,0.54,8.93,0.81,13.4c0.25,4.15,0.57,8.29,0.72,12.44
	c0.2,5.67,0.26,11.34,0.42,17c0.04,1.36,0.15,2.72,0.32,4.06c0.68,5.41,0.39,10.86,0.61,16.29c0.12,2.95,0.28,5.9,0.42,8.85
	c0.04,0.96,0.05,1.92,0.07,2.88c0.11,5.36,0.24,10.71,0.31,16.07C178.12,156.82,178.33,158.5,177.79,160.5z M65.33,132.37
	c0.06,0,0.11,0,0.17,0c-0.09,3.52-0.2,7.03-0.26,10.55c-0.02,1.03,0.06,2.08,0.21,3.1c0.18,1.2,1.34,2.13,2.53,2.12
	c1.51-0.02,3.02-0.1,4.53-0.14c7.59-0.21,15.19-0.38,22.78-0.64c12-0.4,23.99-0.33,35.95,0.84c1.19,0.12,2.37,0.37,3.56,0.45
	c1.51,0.11,1.86-0.25,1.81-1.75c-0.16-5.11-0.36-10.22-0.51-15.34c-0.18-6.23-0.31-12.47-0.47-18.71c-0.04-1.52-0.1-3.04-0.2-4.55
	c-0.22-3.35-0.52-6.69-0.7-10.04c-0.09-1.83,0.01-3.68,0.03-5.52c0.02-1.68,0.04-3.36,0.08-5.03c0.11-4.31,0.24-8.63,0.34-12.94
	c0.09-3.83,0.27-7.67,0.18-11.5c-0.13-5.67-0.47-11.34-0.71-17.01c-0.02-0.4-0.01-0.8-0.05-1.2c-0.14-1.76-0.55-2.24-2.32-2.42
	c-3.57-0.35-7.1-1.22-10.73-1.07c-0.55,0.02-1.11-0.11-1.67-0.13c-1.59-0.07-3.19-0.16-4.78-0.16c-1.92,0-3.84,0.06-5.76,0.14
	c-1.11,0.04-2.23,0.12-3.33,0.27c-3.17,0.43-6.32,0.96-9.49,1.36c-4.89,0.63-9.56,1.93-13.87,4.35c-0.96,0.54-1.89,1.22-2.68,1.99
	c-3.12,3.05-5.49,6.66-7.47,10.52c-3.69,7.17-5.15,14.91-5.62,22.89c-0.35,5.9-0.8,11.8-1.21,17.7c-0.01,0.08-0.02,0.16-0.03,0.24
	c-0.2,4.78-0.89,9.55-0.38,14.36c0.12,1.1-0.01,2.24-0.04,3.36c-0.06,2.24-0.21,4.47-0.19,6.71
	C65.07,127.58,65.23,129.97,65.33,132.37z M98.79,154.22c-0.02-1.39-0.78-2.25-1.93-2.2c-1.01,0.04-1.71,0.82-1.71,1.89
	c0,1.14,0.98,2.24,2.01,2.26C98.1,156.19,98.81,155.34,98.79,154.22z M168.74,152.06c-1.01,0.03-1.81,0.85-1.8,1.85
	c0.01,1.2,1.01,2.14,2.16,2.06c0.95-0.07,1.52-0.77,1.47-1.81C170.5,152.88,169.76,152.04,168.74,152.06z M136.8,152.96
	c-1.14-0.03-1.93,0.65-1.92,1.65c0.02,1,0.94,1.97,1.97,2.06c0.88,0.08,1.8-0.63,1.88-1.46
	C138.83,154.03,137.94,152.99,136.8,152.96z M65.47,153.43c0.04-0.97-0.59-1.66-1.59-1.72c-1.12-0.07-2.19,0.7-2.29,1.66
	c-0.11,1.06,0.75,1.97,1.89,2C64.59,155.39,65.42,154.58,65.47,153.43z"/>
<path class="st1" d="M220.5,222.17c-0.94,0.98-1.81,1.89-2.61,2.73c-1.24,0.31-2.6-0.77-3.48,0.53c-0.61,0.89-1.06,1.89-1.81,3.26
	c-0.37,0.1-1.19,0.37-2.03,0.56c-0.72,0.16-1.39,0.09-1.99-0.49c-0.38-0.36-0.93-0.65-1.45-0.76c-1.57-0.35-2.85,0.05-3.43,1.73
	c-2.57,0-5.03,0-7.56,0c-0.48-1.64-1.5-2.36-3.18-2.42c-1.54-0.06-2.71,0.23-3.16,1.85c-2.93,0.15-5.71,0.29-8.43,0.42
	c-2.15-2.71-4.26-2.26-5.34,0.16c-3.19,0.1-6.45,0.19-9.8,0.29c-0.85-1-1.47-2.3-3.18-2.03c-1.38,0.21-2.35,0.87-3.03,2.23
	c-2.91,0-5.78,0-8.66,0c-0.7,0-1.17-0.27-1.58-0.87c-0.86-1.27-2.21-1.1-3.47-0.94c-0.33,0.04-0.68,0.4-0.91,0.69
	c-0.28,0.36-0.46,0.81-0.68,1.23c-2.87,0.56-5.63,0.18-8.35-0.11c-1.58-1.82-2.11-2.01-4.39-1.84c-0.78,0.06-1.43,0.28-1.74,1.04
	c-0.36,0.9-1.12,1.1-1.93,1.15c-2.63,0.17-5.26,0.31-7.93,0.46c-0.83-1.11-1.4-2.42-3.02-2.48c-1.6-0.06-2.52,0.79-2.98,2.05
	c-2.13,0-4.05,0-5.96,0c-0.7,0-1.18-0.35-1.59-0.91c-0.99-1.34-2.4-1.05-3.73-0.82c-0.38,0.07-0.84,0.55-0.97,0.94
	c-0.34,1.08-1.16,1.26-2.06,1.28c-1.91,0.03-3.83,0.01-5.78,0.01c-0.23-0.31-0.46-0.53-0.58-0.81c-0.55-1.26-1.61-1.39-2.79-1.36
	c-1.2,0.03-2.25,0.22-2.61,1.59c-0.2,0.75-0.8,0.97-1.46,1.02c-1.67,0.12-3.33,0.2-5.09,0.3c-0.4-1.62-1-2.67-2.89-2.67
	c-1.98,0-2.33,1.3-2.8,2.85c-3.37,0.16-6.7,0.31-10.15,0.47c-0.51-1.52-1.45-2.43-3.09-2.58c-1.62-0.15-1.92-0.01-3.09,2.24
	c-1.24-0.16-2.57-0.31-3.89-0.49c-1.34-0.18-2.67-0.37-4.14-0.57c-0.08-2.16-1.35-2.96-3.26-3.09c-1.7-0.12-2.08,1.15-2.49,2.4
	c-2.42,0.07-4.7-0.17-7.08-0.8c-0.12-1.49-0.55-2.7-2.36-2.99c-1.44-0.23-2.02,0.64-2.64,1.71c-2.54-0.52-4.69-1.7-6.89-2.67
	c0.57-3.77-1.68-5.08-4.49-3.35c-1.41-0.85-2.18-2.23-3.02-3.72c0.34-0.28,0.63-0.52,0.93-0.75c1.45-1.1,1.5-1.46,0.69-2.97
	c-0.75-1.4-1.74-2.27-3.45-1.94c-0.38,0.07-0.78,0.01-1.22,0.01c-0.75-1.05-0.77-2.28-1.29-3.44c0.35-0.2,0.6-0.41,0.87-0.49
	c0.77-0.24,1.61-0.42,1.8-1.36c0.21-1.05,0.05-2.08-0.54-3c-0.44-0.69-1.2-0.66-1.92-0.76c-1.04-0.14-1.03-0.19-1.08-1.59
	c0.12-0.1,0.24-0.29,0.36-0.29c1.68-0.01,2.36-0.93,2.58-2.51c0.3-2.22,0.79-4.41,1.14-6.61c0.14-0.91,0.48-1.63,1.13-2.3
	c1.83-1.9,3.47-3.98,5.39-5.78c3.93-3.68,8.79-5.52,14.01-6.32c3.62-0.56,7.31-0.79,10.97-1c8.15-0.47,16.3,0.24,24.45,0.35
	c3.51,0.05,7.03-0.13,10.54-0.19c3.92-0.07,7.84-0.05,11.75-0.21c4.15-0.16,8.29-0.57,12.45-0.7c4.63-0.15,9.29-0.38,13.91-0.11
	c7.91,0.47,15.8,0.94,23.73,0.84c8.64-0.12,17.27,0,25.91,0.4c1.52,0.07,3.04,0.05,4.56,0.06c3.68,0.04,7.34,0.33,10.98,0.96
	c5.36,0.92,10.72,1.74,15.97,3.22c4.05,1.14,7.55,3.12,10.48,6.04c2.47,2.46,4.27,5.38,4.66,8.98c0.03,0.31,0.13,0.65,0.06,0.94
	c-0.16,0.73-0.3,1.4,0.36,1.99c0.69,0.61,1.41,1.03,2.39,0.78c0.21-0.05,0.46,0.03,0.76,0.06c1.47,1.76,0.77,3.98,1.42,5.97
	c-1.19,0.86-2.78,1.28-2.49,3.18c0.24,1.54,0.7,2.82,2.48,3.05c0.18,1.35-0.42,2.29-0.94,3.36c-0.86,0.21-1.98-0.22-2.59,0.77
	c-0.46,0.75-0.9,1.51-1.23,2.32C218.98,220.62,219.92,221.29,220.5,222.17z M201.94,223.37c0,0.1,0.01,0.2,0.01,0.3
	c1.52,0,3.04,0.05,4.55-0.01c2.34-0.1,4.58-0.62,6.72-1.6c2.07-0.95,3.46-2.48,4.33-4.58c1.04-2.51,1.32-5.1,0.92-7.76
	c-0.4-2.71-1.17-5.32-2.56-7.69c-1.21-2.06-2.55-4.05-3.01-6.47c-0.09-0.46-0.38-0.88-0.59-1.31c-1.99-4-5.01-6.99-8.96-9.04
	c-2.72-1.42-5.6-2.37-8.69-2.44c-2.47-0.05-4.95,0.18-7.43,0.13c-6.55-0.14-13.1-0.43-19.65-0.54c-6.15-0.11-12.31,0-18.46-0.13
	c-3.69-0.08-7.36,0.16-11,0.62c-3.89,0.48-7.79,0.8-11.71,0.77c-4.39-0.03-8.79-0.22-13.18-0.3c-4.24-0.08-8.48-0.08-12.71-0.16
	c-1.11-0.02-2.22-0.15-3.33-0.31c-2.22-0.32-4.43-0.57-6.68-0.21c-1.65,0.26-3.33,0.51-5,0.52c-9.67,0.04-19.35-0.01-29.02,0.01
	c-1,0-1.86-0.23-2.74-0.69c-2.39-1.23-4.93-1.88-7.63-1.71c-2.07,0.13-4.14,0.33-6.21,0.5c-4.61,0.39-8.33,2.7-11.64,5.68
	c-1.15,1.03-2.09,2.47-2.67,3.91c-0.99,2.43-1.68,4.99-2.4,7.52c-0.82,2.92-0.74,5.84,0.15,8.75c0.45,1.45,0.86,2.91,1.19,4.39
	c0.75,3.35,2.7,5.94,5.18,8.17c1.13,1.01,2.37,1.9,3.58,2.82c4.36,3.3,9.28,4.25,14.52,3.06c2.22-0.5,4.39-0.61,6.61-0.61
	c1.43,0,2.87-0.18,4.3-0.17c2.32,0.03,4.63,0.26,6.95,0.21c4.95-0.11,9.9-0.32,14.85-0.53c1.3-0.05,2.54,0.08,3.77,0.51
	c3.33,1.17,6.71,1.3,10.15,0.43c1.15-0.29,2.36-0.38,3.55-0.41c2.8-0.08,5.61,0.08,8.39-0.11c4.79-0.34,9.58-0.43,14.38-0.27
	c3.67,0.12,7.35,0.21,11.01-0.32c0.53-0.08,1.14-0.05,1.64,0.12c3.16,1.11,6.38,1.21,9.7,1.1c2.85-0.09,5.55-0.5,8.14-1.7
	c0.49-0.23,1.06-0.39,1.6-0.4c3.83-0.05,7.66-0.09,11.49-0.06c6.15,0.05,12.3,0.14,18.45,0.25c0.88,0.01,1.75,0.17,2.62,0.27
	c2.95,0.33,5.9,0.33,8.86,0.06C196.85,223.7,199.4,223.56,201.94,223.37z"/>
<path class="st1" d="M14.54,199.18c-3.19-0.41-6.02-0.77-8.85-1.14c-0.82-0.99-0.81-2.08-0.58-3.2c1.04-5.12,2.58-10.11,5.23-14.62
	c1.94-3.3,4.46-6.25,7.44-8.72c0.97-0.8,2.17-1.35,3.32-1.89c5.35-2.51,10.7-5.05,16.11-7.44c2.89-1.27,6.05-1.4,9.17-1.51
	c3.91-0.14,7.82-0.22,11.74-0.31c0.64-0.01,1.28,0.03,1.92,0.07c1.2,0.07,2.39,0.24,3.59,0.21c6.09-0.15,12.13,0.59,18.2,0.81
	c2.63,0.09,5.27,0.03,7.9-0.09c4.23-0.19,8.45-0.43,12.69,0.11c1.97,0.25,3.99,0.04,5.99,0.09c4.39,0.11,8.78,0.31,13.18,0.39
	c5.12,0.09,10.24,0.07,15.35,0.16c1.91,0.03,3.82,0.24,5.74,0.36c2.71,0.17,5.42,0.4,8.14,0.47c3.83,0.11,7.67,0.1,11.51,0.15
	c5.75,0.08,11.51,0.16,17.26,0.24c0.56,0.01,1.12-0.05,1.68-0.06c5.35-0.02,10.71-0.1,16.06-0.04c3.78,0.04,7.46,0.87,11.05,2.03
	c3.23,1.04,6.02,2.95,8.87,4.71c4.39,2.71,7.34,6.58,9.02,11.44c0.52,1.51,1.09,3.01,1.71,4.48c0.69,1.65,1.02,3.36,1.1,5.13
	c0.1,2.3,0.22,4.6,0.34,7.04c-1.07,0.34-2.25,0.03-3.41,0.07c-1.19,0.04-2.38,0.01-3.62,0.01c-0.25-0.66-0.47-1.16-0.63-1.67
	c-0.17-0.53-0.32-1.08-0.4-1.63c-0.85-5.55-3.47-10.24-7.01-14.49c-2.25-2.7-4.95-4.75-8.23-6.03c-5.53-2.17-11.24-3.74-17.14-4.38
	c-7.07-0.77-14.16-1.3-21.29-1.28c-4.08,0.01-8.15-0.2-12.23-0.18c-4.56,0.02-9.11,0.25-13.67,0.25c-5.83,0-11.67-0.22-17.5-0.19
	c-4.39,0.02-8.79,0.22-13.18,0.44c-2.95,0.15-5.89,0.55-8.84,0.66c-1.58,0.06-3.18-0.32-4.77-0.42c-3.27-0.19-6.54-0.4-9.81-0.45
	c-3.28-0.05-6.56,0.05-9.83,0.13c-2.48,0.06-4.95,0.17-7.43,0.26c-0.96,0.03-1.93,0.13-2.88,0.05c-6.34-0.59-12.6,0.37-18.89,0.93
	c-2.55,0.22-5.1,0.39-7.65,0.53c-6.48,0.37-12.35,2.48-17.6,6.24c-2.33,1.67-3.86,4.01-5,6.62c-1.48,3.4-2.39,6.94-2.9,10.61
	C15.28,195.71,14.91,197.26,14.54,199.18z"/>
<path class="st1" d="M19.16,167.38c-0.44-1.63-0.66-3.2-0.62-4.77c0.13-5.43,0.3-10.86,0.48-16.28c0.06-1.92,0.23-3.83,0.28-5.74
	c0.16-5.52-0.26-11.02-0.76-16.51c-0.06-0.72-0.16-1.43-0.15-2.15c0.03-2.79,2.44-5.05,5.19-4.72c3.04,0.37,6.05,0.25,9.09,0.02
	c1.35-0.1,2.72-0.07,4.07-0.1c4.55-0.12,9.1-0.25,13.66-0.36c0.38-0.01,0.76,0.08,1.26,0.14c0.06,0.54,0.17,1,0.15,1.45
	c-0.24,4.94-0.53,9.88-0.75,14.82c-0.18,3.82-0.25,7.65-0.44,11.47c-0.12,2.56-0.65,5.06-1.41,7.52c-0.74,2.43-2.33,4.16-4.37,5.51
	c-0.57,0.37-1.33,0.57-2.02,0.62c-3.56,0.3-6.85,1.41-10.05,2.96c-4.17,2.02-8.4,3.92-12.6,5.86
	C19.89,167.24,19.58,167.27,19.16,167.38z M28.02,155.35c1.11,0.03,2-0.77,2.07-1.86c0.07-1.14-1.07-2.27-2.28-2.26
	c-0.9,0.01-1.72,0.89-1.77,1.9C25.98,154.35,26.85,155.32,28.02,155.35z M27.11,123.74c-0.89,0.04-1.76,0.99-1.77,1.95
	c-0.02,0.94,0.91,1.8,1.89,1.76c0.99-0.04,1.78-0.91,1.74-1.91C28.92,124.52,28.07,123.7,27.11,123.74z"/>
<path class="st1" d="M178.85,91.8c5.01,0.27,9.67,0.76,13.9,3.17c0.55,0.32,1.16,0.59,1.62,1.02c4.48,4.24,7.79,9.05,7.94,15.54
	c0.09,3.83,0.49,7.66,0.66,11.49c0.15,3.43,0.31,6.88,0.21,10.31c-0.04,1.64-0.55,3.3-1.05,4.89c-0.75,2.42-2.64,3.57-5.05,3.73
	c-3.43,0.22-6.87,0.25-10.3,0.39c-1.26,0.05-2.14-0.38-3.14-1.26c-2.43-2.13-3.41-4.75-3.53-7.82c-0.17-4.63-0.25-9.27-0.44-13.9
	c-0.16-3.83-0.46-7.65-0.62-11.48c-0.16-3.83-0.25-7.67-0.32-11.5C178.7,94.95,178.8,93.53,178.85,91.8z"/>
<path class="st1" d="M55.4,71.32c-0.21,1.53-0.36,2.54-0.49,3.55c-0.19,1.59-0.38,3.17-0.53,4.76c-0.09,1-0.54,1.64-1.55,1.85
	c-0.23,0.05-0.46,0.13-0.7,0.17c-4.29,0.88-7.26,3.59-9.55,7.1c-3.09,4.72-5.14,9.91-6.54,15.36c-0.27,1.07-0.29,2.21-0.39,3.32
	c-0.19,2.29-0.36,4.58-0.54,6.93c-2.11,0.51-4.1,0.3-6.07,0.3c-1.01,0-1.57-0.86-1.82-1.69c-0.36-1.21-0.69-2.5-0.66-3.74
	c0.06-1.98,0.24-4.01,0.71-5.93c0.97-3.95,2.25-7.82,3.96-11.54c2.75-5.95,6.95-10.67,12.03-14.69c0.13-0.1,0.25-0.2,0.39-0.28
	C47.18,74.55,51.05,73.09,55.4,71.32z"/>
<path class="st1" d="M203.72,144.12c0.17,1.18,0.41,2.18,0.44,3.19c0.06,2.15,0.05,4.31,0.01,6.46c-0.05,2.35-1.46,4.26-3.63,5.11
	c-2.45,0.96-4.97,1.05-7.53,0.68c-0.87-0.12-1.75-0.32-2.61-0.26c-1.88,0.12-3.62-0.48-5.39-0.87c-1.78-0.39-2.88-1.56-3.46-3.3
	c-1.05-3.17-1.06-6.41-0.81-9.85c3.8-0.81,7.64-0.32,11.42-0.67C195.86,144.27,199.6,144.28,203.72,144.12z"/>
<path class="st1" d="M104.16,32.02c-0.11-1.18,0.49-1.58,1.22-1.75c4.95-1.18,9.8-2.85,15.02-2.61c2.22,0.1,4.45-0.13,6.68-0.25
	c1.51-0.08,2.97,0.12,4.6,0.45c-0.58,1.61-1.57,2.43-2.94,2.8c-2.69,0.73-5.37,1.38-8.22,1.33c-5.02-0.09-10.04,0.05-15.07,0.09
	C105.06,32.08,104.67,32.04,104.16,32.02z"/>
<path class="st1" d="M13,167.99c-0.06-0.77-0.13-1.14-0.12-1.51c0.07-3.27,0.14-6.55,0.22-9.82c0.06-2.48,0.03-4.96,0.19-7.43
	c0.12-1.91,0.69-2.29,3.03-2.29c0.04,0.67,0.13,1.36,0.11,2.05c-0.12,3.51-0.19,7.03-0.43,10.54c-0.13,1.82-0.51,3.64-0.92,5.42
	C14.75,166.4,14.64,166.39,13,167.99z"/>
<path class="st0" d="M65.33,132.37c-0.1-2.4-0.26-4.79-0.28-7.19c-0.02-2.24,0.13-4.47,0.19-6.71c0.03-1.12,0.16-2.25,0.04-3.36
	c-0.51-4.81,0.17-9.58,0.38-14.36c0-0.08,0.02-0.16,0.03-0.24c0.41-5.9,0.86-11.8,1.21-17.7c0.47-7.98,1.93-15.72,5.62-22.89
	c1.98-3.85,4.36-7.46,7.47-10.52c0.79-0.77,1.72-1.45,2.68-1.99c4.31-2.42,8.98-3.73,13.87-4.35c3.17-0.41,6.32-0.93,9.49-1.36
	c1.1-0.15,2.22-0.23,3.33-0.27c1.92-0.08,3.84-0.14,5.76-0.14c1.59,0,3.19,0.09,4.78,0.16c0.56,0.02,1.12,0.15,1.67,0.13
	c3.63-0.15,7.15,0.72,10.73,1.07c1.77,0.18,2.18,0.65,2.32,2.42c0.03,0.4,0.03,0.8,0.05,1.2c0.25,5.67,0.58,11.34,0.71,17.01
	c0.09,3.83-0.09,7.67-0.18,11.5c-0.1,4.31-0.23,8.63-0.34,12.94c-0.04,1.68-0.06,3.36-0.08,5.03c-0.02,1.84-0.12,3.68-0.03,5.52
	c0.17,3.35,0.47,6.7,0.7,10.04c0.1,1.52,0.16,3.04,0.2,4.55c0.16,6.23,0.29,12.47,0.47,18.71c0.15,5.11,0.35,10.22,0.51,15.34
	c0.05,1.49-0.3,1.85-1.81,1.75c-1.19-0.08-2.37-0.33-3.56-0.45c-11.96-1.17-23.95-1.24-35.95-0.84c-7.59,0.26-15.19,0.43-22.78,0.64
	c-1.51,0.04-3.02,0.12-4.53,0.14c-1.19,0.02-2.35-0.92-2.53-2.12c-0.15-1.02-0.22-2.07-0.21-3.1c0.06-3.52,0.17-7.03,0.26-10.55
	C65.44,132.37,65.39,132.37,65.33,132.37z M67.98,145.14c0.74,0.09,1.27,0.21,1.81,0.2c6.48-0.04,12.95-0.09,19.43-0.15
	c0.56-0.01,1.11-0.12,1.67-0.14c4.55-0.21,9.1-0.51,13.65-0.6c5.43-0.1,10.87-0.09,16.29,0.41c3.58,0.33,7.17,0.55,10.75,0.79
	c0.7,0.05,1.4,0.01,2.19,0.01c0.11-0.58,0.27-1.04,0.27-1.49c-0.02-2.72,0.08-5.45-0.14-8.15c-0.58-7.26-0.7-14.52-0.81-21.8
	c-0.07-4.54-0.63-9.08-0.97-13.62c-0.01-0.14-0.14-0.28-0.34-0.65c-0.71-0.07-1.57-0.25-2.42-0.21c-2.55,0.1-5.1,0.35-7.66,0.42
	c-7.83,0.2-15.66,0.33-23.49,0.51c-1.6,0.04-3.19,0.24-4.78,0.31c-4.55,0.2-9.1,0.46-13.65,0.52c-2.87,0.04-5.75-0.24-8.62-0.35
	c-0.85-0.03-1.71,0.03-2.61,0.04c-0.49,1.4-0.61,2.65-0.62,3.93c-0.05,7.11-0.12,14.22-0.15,21.32c-0.02,5.43,0.01,10.87,0.03,16.31
	C67.81,143.51,67.92,144.29,67.98,145.14z M100.23,66.84c-0.05,0.75-0.08,1.46-0.16,2.17c-0.19,1.83,0.49,3.35,1.9,4.41
	c1,0.75,2.16,1.4,3.35,1.75c1.6,0.46,3.29,0.62,4.95,0.83c0.43,0.05,0.94-0.1,1.34-0.29c1.58-0.75,3.09-1.65,4.7-2.33
	c2.46-1.04,4.98-0.9,7.49-0.12c0.42,0.13,0.85,0.25,1.4,0.42c1.35-4.05,2.78-7.92,2.98-12.03c-2.61-1.25-18.74-6.15-20.75-6.28
	c-0.85,1.56-1.76,3.22-2.75,5.03c-0.71-0.13-1.39-0.29-2.09-0.37c-0.95-0.11-1.91-0.25-2.85-0.2c-1.26,0.06-1.89,0.68-2.12,1.89
	c-0.34,1.78-0.07,3.34,1.63,4.37C99.59,66.3,99.88,66.57,100.23,66.84z M93.55,93.84c2.92,1.47,4.88,1.63,8.19,1.34
	c4.3-0.37,8.55-0.99,12.63-2.49c0.3-0.11,0.62-0.14,0.94-0.2c3.3-0.54,5.91-2.22,8.03-4.78c1.42-1.7,2.25-3.63,2.8-5.75
	c0.54-2.12-1.37-5.89-4.35-6.62c-2.67-0.65-7.39,0.99-9.11,3.15c-0.45,0.56-0.85,1.15-1.29,1.73c-2.94,3.9-6.71,6.29-11.7,6.5
	c-1.18,0.05-2.37,0.12-3.63,0.19C95.2,89.28,93.94,91.41,93.55,93.84z M131.6,59.63c1-1.19,0.92-2.32,0.87-3.43
	c-0.09-1.91-0.17-3.83-0.33-5.73c-0.05-0.62-0.18-1.3-0.49-1.81c-1.39-2.26-3.22-4-6-4.28c-1.82-0.19-3.66-0.19-5.49-0.35
	c-1.74-0.15-3.32,0.29-4.83,1.09c-1.64,0.87-3.06,2.02-4.3,3.39c-0.47,0.53-0.96,1.04-1.49,1.61c-0.9-0.22-1.74-0.45-2.6-0.62
	c-0.86-0.17-1.73-0.35-2.59-0.39c-0.3-0.01-0.78,0.34-0.87,0.63c-0.09,0.29,0.09,0.8,0.33,1.03c0.33,0.32,0.8,0.53,1.24,0.68
	c1.13,0.38,2.28,0.69,3.42,1.05c6.85,2.14,13.71,4.3,20.56,6.43C129.86,59.19,130.71,59.39,131.6,59.63z M76.79,90.16
	c-0.14,0.3-0.36,0.64-0.48,1.01c-0.56,1.68-0.19,2.59,1.48,3.17c0.88,0.31,1.86,0.44,2.8,0.46c1.9,0.04,3.81-0.04,5.72-0.11
	c0.79-0.03,1.58-0.17,2.38-0.23c1.25-0.11,2.05-0.73,2.44-1.94c0.37-1.14,0.78-2.26,1.23-3.36c1.63-3.99,1.64-3.84-1.31-7.4
	c-0.15-0.18-0.33-0.35-0.49-0.52c-0.69-0.79-1.51-1.02-2.57-0.89c-2.45,0.31-4.9,0.44-7.38,0.3c-3.07-0.17-3.98,1.05-3.37,4.11
	c0.03,0.15-0.03,0.31-0.05,0.46C75.77,87.71,75.77,87.71,76.79,90.16z M128.65,97.05c-0.34-1.82-0.55-3.31-0.9-4.77
	c-0.33-1.4-0.01-2.99-1.12-4.37c-0.63,0.71-1.13,1.31-1.67,1.89c-1.86,2-3.78,3.92-6.58,4.55c-4.73,1.06-9.21,3.16-14.17,3.28
	C112.29,97.82,120.36,97.78,128.65,97.05z M87.37,77.55c-0.06-0.83-0.06-1.39-0.14-1.93c-0.08-0.53-0.26-1.05-0.37-1.5
	c-3.09-0.93-3.73-0.9-5.85,0.3c-0.13,1.12-0.35,2.28,0.07,3.52C83.19,78.3,85.2,78.33,87.37,77.55z M108.97,78.68
	c-1.61-0.79-3.28-0.84-5.07-0.78c-0.57,1.94-1.64,3.63-1.79,5.67C104.8,83.17,107.83,80.99,108.97,78.68z M81.21,97.67
	c0.42,0.48,0.66,0.98,0.89,0.98c1.73,0.01,3.46-0.06,5.18-0.16c0.16-0.01,0.3-0.45,0.47-0.72C86.04,97.17,83.9,97.12,81.21,97.67z
	 M97.42,98.1l-0.04-0.13l-0.17,0.07L97.42,98.1z"/>
<path class="st0" d="M98.79,154.22c0.02,1.12-0.69,1.97-1.63,1.95c-1.03-0.02-2.01-1.12-2.01-2.26c0-1.07,0.7-1.85,1.71-1.89
	C98.02,151.97,98.77,152.83,98.79,154.22z"/>
<path class="st0" d="M168.74,152.06c1.02-0.03,1.75,0.82,1.82,2.09c0.05,1.04-0.51,1.74-1.47,1.81c-1.15,0.09-2.15-0.86-2.16-2.06
	C166.93,152.92,167.73,152.09,168.74,152.06z"/>
<path class="st0" d="M136.8,152.96c1.14,0.03,2.04,1.08,1.93,2.25c-0.08,0.82-1,1.54-1.88,1.46c-1.02-0.09-1.95-1.06-1.97-2.06
	C134.86,153.61,135.66,152.92,136.8,152.96z"/>
<path class="st0" d="M65.47,153.43c-0.05,1.15-0.88,1.96-1.99,1.94c-1.14-0.03-2-0.93-1.89-2c0.1-0.95,1.17-1.72,2.29-1.66
	C64.88,151.77,65.51,152.45,65.47,153.43z"/>
<path class="st0" d="M201.94,223.37c-2.54,0.18-5.09,0.33-7.63,0.56c-2.96,0.27-5.91,0.27-8.86-0.06c-0.87-0.1-1.75-0.26-2.62-0.27
	c-6.15-0.1-12.3-0.2-18.45-0.25c-3.83-0.03-7.66,0.01-11.49,0.06c-0.54,0.01-1.11,0.17-1.6,0.4c-2.59,1.2-5.29,1.61-8.14,1.7
	c-3.31,0.11-6.54,0.01-9.7-1.1c-0.5-0.18-1.11-0.2-1.64-0.12c-3.66,0.53-7.34,0.44-11.01,0.32c-4.8-0.16-9.59-0.07-14.38,0.27
	c-2.79,0.2-5.59,0.04-8.39,0.11c-1.19,0.03-2.4,0.12-3.55,0.41c-3.44,0.87-6.81,0.74-10.15-0.43c-1.23-0.43-2.47-0.57-3.77-0.51
	c-4.95,0.21-9.9,0.42-14.85,0.53c-2.31,0.05-4.63-0.18-6.95-0.21c-1.43-0.02-2.87,0.17-4.3,0.17c-2.23,0-4.4,0.11-6.61,0.61
	c-5.25,1.19-10.17,0.24-14.52-3.06c-1.21-0.92-2.45-1.81-3.58-2.82c-2.48-2.23-4.43-4.81-5.18-8.17c-0.33-1.48-0.74-2.94-1.19-4.39
	c-0.9-2.91-0.98-5.83-0.15-8.75c0.72-2.53,1.41-5.09,2.4-7.52c0.59-1.44,1.53-2.88,2.67-3.91c3.31-2.98,7.03-5.29,11.64-5.68
	c2.07-0.17,4.14-0.37,6.21-0.5c2.7-0.17,5.24,0.48,7.63,1.71c0.88,0.45,1.74,0.69,2.74,0.69c9.67-0.02,19.35,0.03,29.02-0.01
	c1.67-0.01,3.35-0.25,5-0.52c2.25-0.36,4.46-0.11,6.68,0.21c1.1,0.16,2.21,0.29,3.33,0.31c4.24,0.08,8.48,0.09,12.71,0.16
	c4.39,0.08,8.79,0.27,13.18,0.3c3.92,0.03,7.81-0.28,11.71-0.77c3.64-0.45,7.31-0.69,11-0.62c6.15,0.13,12.31,0.02,18.46,0.13
	c6.55,0.11,13.1,0.4,19.65,0.54c2.47,0.05,4.95-0.18,7.43-0.13c3.09,0.07,5.97,1.02,8.69,2.44c3.95,2.05,6.96,5.04,8.96,9.04
	c0.21,0.43,0.5,0.85,0.59,1.31c0.46,2.42,1.79,4.41,3.01,6.47c1.39,2.37,2.16,4.99,2.56,7.69c0.39,2.66,0.12,5.25-0.92,7.76
	c-0.87,2.1-2.26,3.63-4.33,4.58c-2.14,0.98-4.38,1.5-6.72,1.6c-1.51,0.06-3.03,0.01-4.55,0.01
	C201.95,223.57,201.95,223.47,201.94,223.37z M141.95,223.22c5.1,0.07,9.33-1.9,13.3-4.86c1.98-1.47,3.34-3.41,4.83-5.27
	c1.75-2.19,2.69-4.7,2.67-7.52c-0.03-3.67-1.13-7.09-2.66-10.35c-1.19-2.54-2.72-4.9-4.88-6.75c-2.69-2.31-5.8-3.82-9.37-3.68
	c-3.49,0.14-6.97,0.71-10.45,1.14c-1.96,0.24-3.68,1.09-5.12,2.42c-1.47,1.35-2.91,2.74-4.23,4.23c-1.11,1.26-1.94,2.73-2.37,4.39
	c-0.78,3.06-0.85,6.17-0.5,9.28c0.27,2.4,0.98,4.68,2.47,6.66c0.62,0.83,1.17,1.72,1.66,2.63c2.03,3.72,5.09,6.11,9.22,7
	C138.3,222.93,140.14,223.01,141.95,223.22z M45.75,183.28c-5.2,0.14-10.16,0.96-14.39,4.38c-1.54,1.24-2.87,2.59-3.48,4.46
	c-0.85,2.57-1.56,5.19-2.31,7.8c-0.57,1.98-0.41,3.95,0.16,5.91c0.53,1.84,1.06,3.69,1.52,5.55c0.45,1.84,1.4,3.39,2.66,4.76
	c2.12,2.31,4.55,4.25,7.35,5.69c4.81,2.48,9.57,2.16,14.17-0.46c1.93-1.1,3.66-2.56,5.42-3.94c1.34-1.05,2.21-2.47,2.96-4.01
	c1.49-3.08,1.83-6.44,2.57-9.7c0.1-0.45,0.07-0.99-0.08-1.42c-0.53-1.53-0.8-3.07-0.76-4.7c0.02-0.61-0.32-1.22-0.53-1.83
	c-0.31-0.91-0.72-1.79-0.94-2.71c-0.69-2.97-2.23-5.26-4.97-6.7c-0.35-0.18-0.67-0.44-0.99-0.67
	C51.59,183.97,48.81,183.13,45.75,183.28z M92.86,184.94c-2.76,0.16-5.46,0.47-8.06,1.3c-4.49,1.42-7.33,4.77-9.47,8.7
	c-1.87,3.44-2.44,7.21-1.93,11.15c0.47,3.64,1.74,6.95,3.64,10.06c3.41,5.58,9.91,8.35,16.29,6.83c1.86-0.44,3.69-1.04,5.53-1.57
	c2.58-0.75,4.77-2.21,6.86-3.84c0.54-0.42,1.06-1.02,1.32-1.64c0.8-1.91,1.46-3.88,2.18-5.83c0.73-1.98,1.08-4,0.75-6.11
	c-0.16-1.02-0.27-2.06-0.29-3.1c-0.05-3.21-1.31-6.07-2.62-8.89c-0.33-0.7-0.89-1.34-1.48-1.85c-1.15-0.99-2.32-1.99-3.61-2.76
	c-1.22-0.72-2.56-1.32-3.93-1.67C96.36,185.29,94.59,185.19,92.86,184.94z M174.35,203.64c0.07,0.79,0.22,1.83,0.23,2.86
	c0.02,2.14,0.71,4.03,1.77,5.89c1.28,2.25,2.91,4.2,4.59,6.13c1.42,1.64,3.29,2.48,5.45,2.69c2.31,0.22,4.6,0.3,6.93,0.03
	c5.15-0.59,9.79-2.32,13.67-5.8c2.04-1.83,3.82-3.9,4.23-6.78c0.2-1.34,0.43-2.69,0.57-4.04c0.33-3.28-0.52-6.36-1.84-9.3
	c-0.89-1.98-2.18-3.77-3.85-5.16c-5.32-4.41-11.42-5.97-18.17-4.42c-3.73,0.86-7.11,2.56-9.43,5.74c-1.27,1.73-2.35,3.63-3.3,5.56
	c-0.51,1.04-0.66,2.29-0.82,3.46C174.25,201.46,174.35,202.43,174.35,203.64z M73.86,216.23c-0.75-1.87-1.41-3.31-1.91-4.81
	c-0.5-1.49-0.83-3.04-1.24-4.58c-2.13,0-4.1,0-6.03,0c-0.99,3.1-1.92,6.03-2.9,9.1C65.76,216.35,69.63,216.29,73.86,216.23z
	 M123.52,214.81c-0.77-1.56-1.41-2.65-1.86-3.81c-0.48-1.24-0.78-2.55-1.23-4.07c-2.58,0.49-5.1-0.07-7.77,0.27
	c-0.27,2.56-1.61,4.68-2.06,7.24C114.86,215.51,118.97,214.62,123.52,214.81z M162.66,214.47c1.23,0.69,2.59,0.26,3.87,0.34
	c1.27,0.08,2.54,0.07,3.81,0c1.3-0.06,2.66,0.3,3.95-0.34c-0.91-2.24-1.76-4.33-2.66-6.54c-2.13-0.17-4.23,0.14-6.28,0.44
	C164.45,210.43,163.59,212.38,162.66,214.47z"/>
<path class="st0" d="M28.02,155.35c-1.17-0.03-2.04-1.01-1.98-2.21c0.05-1.01,0.87-1.89,1.77-1.9c1.21-0.01,2.36,1.12,2.28,2.26
	C30.01,154.58,29.12,155.39,28.02,155.35z"/>
<path class="st0" d="M27.11,123.74c0.97-0.04,1.82,0.78,1.86,1.8c0.04,1-0.75,1.87-1.74,1.91c-0.98,0.04-1.91-0.82-1.89-1.76
	C25.35,124.74,26.22,123.78,27.11,123.74z"/>
<path class="st1" d="M67.98,145.14c-0.06-0.86-0.17-1.63-0.17-2.4c-0.02-5.43-0.05-10.87-0.03-16.31c0.03-7.11,0.1-14.22,0.15-21.32
	c0.01-1.28,0.13-2.53,0.62-3.93c0.89-0.02,1.75-0.08,2.61-0.04c2.88,0.11,5.75,0.39,8.62,0.35c4.55-0.06,9.1-0.32,13.65-0.52
	c1.6-0.07,3.19-0.27,4.78-0.31c7.83-0.19,15.66-0.31,23.49-0.51c2.55-0.07,5.1-0.32,7.66-0.42c0.85-0.03,1.71,0.15,2.42,0.21
	c0.2,0.37,0.33,0.5,0.34,0.65c0.35,4.54,0.9,9.08,0.97,13.62c0.12,7.28,0.24,14.54,0.81,21.8c0.22,2.7,0.12,5.43,0.14,8.15
	c0,0.46-0.16,0.91-0.27,1.49c-0.79,0-1.49,0.04-2.19-0.01c-3.58-0.25-7.17-0.46-10.75-0.79c-5.42-0.5-10.86-0.51-16.29-0.41
	c-4.55,0.08-9.1,0.38-13.65,0.6c-0.56,0.03-1.11,0.14-1.67,0.14c-6.48,0.06-12.95,0.11-19.43,0.15
	C69.25,145.35,68.71,145.23,67.98,145.14z M129.72,111.76c-0.06-0.33-0.17-1.2-0.41-2.04c-0.7-2.49-2.39-3.44-4.9-2.93
	c-1.4,0.29-2.83,0.46-4.25,0.61c-2.3,0.25-4.61,0.41-6.91,0.67c-1.03,0.12-2.07,0.31-2.71,1.3c-1.24,1.88-1.4,3.88-0.59,5.94
	c0.49,1.25,1.44,1.78,2.84,1.7c3.74-0.22,7.49-0.32,11.24-0.53c0.95-0.05,1.9-0.22,2.82-0.47
	C129.23,115.38,129.71,114.71,129.72,111.76z"/>
<path class="st1" d="M100.23,66.84c-0.35-0.27-0.64-0.55-0.97-0.75c-1.7-1.03-1.97-2.59-1.63-4.37c0.23-1.21,0.85-1.82,2.12-1.89
	c0.94-0.05,1.9,0.09,2.85,0.2c0.69,0.08,1.38,0.24,2.09,0.37c0.99-1.81,1.9-3.47,2.75-5.03c2.01,0.13,18.14,5.03,20.75,6.28
	c-0.2,4.11-1.63,7.97-2.98,12.03c-0.55-0.17-0.98-0.29-1.4-0.42c-2.51-0.78-5.04-0.92-7.49,0.12c-1.61,0.68-3.12,1.57-4.7,2.33
	c-0.41,0.19-0.91,0.35-1.34,0.29c-1.66-0.21-3.35-0.37-4.95-0.83c-1.19-0.34-2.35-0.99-3.35-1.75c-1.41-1.06-2.09-2.58-1.9-4.41
	C100.14,68.3,100.17,67.59,100.23,66.84z M108.57,68.66c0.01-1.38-0.65-2.18-2.1-2.47c-1.01-0.2-2.02-0.38-3.03-0.54
	c-0.87-0.14-1.64,0.16-2.06,0.9c-0.39,0.68-0.69,1.45-0.84,2.22c-0.19,0.94,0.66,1.73,1.63,1.48c1.58-0.41,3.11-0.18,4.66,0.03
	C107.99,70.45,108.56,69.93,108.57,68.66z M109.56,56.9c-1.26,1.07-1.25,1.07-1.85,2.79c0.33,0.42,0.63,1.01,1.12,1.36
	c0.3,0.22,0.98,0.24,1.3,0.05c1.27-0.75,1.46-2.35,0.47-3.42C110.35,57.4,109.99,57.21,109.56,56.9z"/>
<path class="st1" d="M93.55,93.84c0.39-2.43,1.65-4.56,2.52-6.92c1.26-0.07,2.45-0.14,3.63-0.19c4.99-0.2,8.76-2.6,11.7-6.5
	c0.43-0.57,0.84-1.17,1.29-1.73c1.72-2.16,6.44-3.8,9.11-3.15c2.98,0.73,4.9,4.5,4.35,6.62c-0.54,2.12-1.38,4.05-2.8,5.75
	c-2.13,2.56-4.73,4.24-8.03,4.78c-0.31,0.05-0.64,0.09-0.94,0.2c-4.08,1.5-8.33,2.11-12.63,2.49
	C98.42,95.48,96.47,95.32,93.55,93.84z"/>
<path class="st1" d="M131.6,59.63c-0.9-0.24-1.74-0.44-2.57-0.69c-6.86-2.14-13.71-4.29-20.56-6.43c-1.14-0.36-2.29-0.67-3.42-1.05
	c-0.45-0.15-0.92-0.36-1.24-0.68c-0.24-0.23-0.43-0.74-0.33-1.03c0.1-0.29,0.58-0.65,0.87-0.63c0.87,0.04,1.74,0.22,2.59,0.39
	c0.85,0.17,1.69,0.4,2.6,0.62c0.53-0.57,1.01-1.09,1.49-1.61c1.24-1.38,2.67-2.52,4.3-3.39c1.51-0.81,3.09-1.25,4.83-1.09
	c1.83,0.16,3.67,0.16,5.49,0.35c2.79,0.29,4.61,2.02,6,4.28c0.32,0.51,0.44,1.19,0.49,1.81c0.15,1.91,0.24,3.82,0.33,5.73
	C132.52,57.31,132.6,58.45,131.6,59.63z"/>
<path class="st1" d="M76.79,90.16c-1.01-2.45-1.01-2.45,0.39-4.93c0.02-0.15,0.08-0.32,0.05-0.46c-0.61-3.05,0.3-4.27,3.37-4.11
	c2.48,0.14,4.93,0.01,7.38-0.3c1.05-0.13,1.88,0.1,2.57,0.89c0.16,0.18,0.34,0.34,0.49,0.52c2.95,3.55,2.95,3.41,1.31,7.4
	c-0.45,1.1-0.86,2.23-1.23,3.36c-0.39,1.21-1.19,1.83-2.44,1.94c-0.79,0.07-1.58,0.21-2.38,0.23c-1.91,0.07-3.81,0.14-5.72,0.11
	c-0.94-0.02-1.92-0.16-2.8-0.46c-1.67-0.58-2.04-1.48-1.48-3.17C76.43,90.8,76.64,90.46,76.79,90.16z"/>
<path class="st1" d="M128.65,97.05c-8.28,0.73-16.35,0.78-24.45,0.58c4.96-0.12,9.45-2.22,14.17-3.28c2.8-0.63,4.73-2.55,6.58-4.55
	c0.54-0.58,1.04-1.18,1.67-1.89c1.11,1.38,0.79,2.97,1.12,4.37C128.1,93.74,128.31,95.23,128.65,97.05z"/>
<path class="st1" d="M87.37,77.55c-2.17,0.77-4.18,0.75-6.3,0.39c-0.42-1.24-0.19-2.4-0.07-3.52c2.12-1.2,2.76-1.23,5.85-0.3
	c0.11,0.45,0.29,0.97,0.37,1.5C87.31,76.17,87.31,76.72,87.37,77.55z"/>
<path class="st1" d="M108.97,78.68c-1.14,2.3-4.17,4.48-6.86,4.89c0.15-2.05,1.21-3.73,1.79-5.67
	C105.69,77.84,107.36,77.9,108.97,78.68z"/>
<path class="st1" d="M81.21,97.67c2.69-0.55,4.83-0.5,6.55,0.1c-0.17,0.27-0.31,0.71-0.47,0.72c-1.72,0.11-3.45,0.17-5.18,0.16
	C81.86,98.65,81.63,98.15,81.21,97.67z"/>
<polygon class="st1" points="97.42,98.1 97.21,98.05 97.38,97.98 "/>
<path class="st1" d="M141.95,223.22c-1.81-0.22-3.65-0.3-5.43-0.68c-4.13-0.89-7.19-3.28-9.22-7c-0.49-0.91-1.04-1.8-1.66-2.63
	c-1.48-1.99-2.2-4.26-2.47-6.66c-0.34-3.11-0.28-6.22,0.5-9.28c0.43-1.66,1.26-3.13,2.37-4.39c1.31-1.5,2.76-2.89,4.23-4.23
	c1.44-1.32,3.17-2.17,5.12-2.42c3.48-0.43,6.96-1.01,10.45-1.14c3.56-0.14,6.68,1.37,9.37,3.68c2.16,1.86,3.7,4.21,4.88,6.75
	c1.53,3.27,2.63,6.69,2.66,10.35c0.02,2.82-0.92,5.33-2.67,7.52c-1.49,1.86-2.84,3.79-4.83,5.27
	C151.28,221.32,147.05,223.29,141.95,223.22z M132.02,203.49c0.04,1.49,0.67,3.97,1.7,6.31c1.11,2.5,3.18,3.94,5.83,4.52
	c3.08,0.68,6.03,0.09,8.89-1.07c0.5-0.21,1-0.55,1.36-0.95c1.92-2.17,3.5-4.44,3.78-7.53c0.36-3.89-2.13-9.12-6.51-10.67
	c-2.93-1.04-5.8-1.02-8.69-0.17C135,194.92,132.09,198.91,132.02,203.49z"/>
<path class="st1" d="M45.75,183.28c3.06-0.16,5.84,0.69,8.36,2.42c0.33,0.23,0.64,0.48,0.99,0.67c2.74,1.43,4.28,3.73,4.97,6.7
	c0.21,0.93,0.63,1.81,0.94,2.71c0.2,0.6,0.54,1.22,0.53,1.83c-0.04,1.63,0.22,3.17,0.76,4.7c0.15,0.43,0.18,0.97,0.08,1.42
	c-0.74,3.26-1.09,6.62-2.57,9.7c-0.75,1.54-1.62,2.96-2.96,4.01c-1.76,1.38-3.49,2.84-5.42,3.94c-4.59,2.62-9.36,2.94-14.17,0.46
	c-2.8-1.45-5.23-3.38-7.35-5.69c-1.26-1.37-2.21-2.92-2.66-4.76c-0.46-1.86-0.99-3.7-1.52-5.55c-0.57-1.96-0.73-3.93-0.16-5.91
	c0.75-2.61,1.46-5.22,2.31-7.8c0.62-1.87,1.95-3.21,3.48-4.46C35.59,184.24,40.55,183.42,45.75,183.28z M43.02,213.45
	c0.5,0,0.74-0.02,0.98,0c4.25,0.35,9.67-3.58,10.4-8.24c0.23-1.49,0.67-2.94,0.92-4.42c0.07-0.41-0.09-1.11-0.37-1.27
	c-1.11-0.61-1.34-1.73-1.86-2.69c-1.3-2.44-3.28-4.12-5.94-4.86c-4.6-1.29-8.66-0.09-12.25,2.92c-1.82,1.52-2.63,3.5-2.76,5.87
	c-0.18,3.18,0.82,5.92,2.54,8.53c0.96,1.46,2.15,2.52,3.71,3.25C39.95,213.28,41.57,213.57,43.02,213.45z"/>
<path class="st1" d="M92.86,184.94c1.73,0.24,3.5,0.34,5.19,0.77c1.37,0.34,2.71,0.95,3.93,1.67c1.3,0.77,2.47,1.77,3.61,2.76
	c0.59,0.51,1.15,1.15,1.48,1.85c1.31,2.83,2.57,5.68,2.62,8.89c0.02,1.03,0.13,2.08,0.29,3.1c0.33,2.12-0.02,4.13-0.75,6.11
	c-0.72,1.94-1.39,3.91-2.18,5.83c-0.26,0.63-0.78,1.22-1.32,1.64c-2.08,1.63-4.27,3.1-6.86,3.84c-1.84,0.53-3.67,1.13-5.53,1.57
	c-6.38,1.52-12.88-1.25-16.29-6.83c-1.9-3.11-3.17-6.42-3.64-10.06c-0.51-3.94,0.06-7.71,1.93-11.15c2.14-3.93,4.98-7.28,9.47-8.7
	C87.4,185.42,90.1,185.11,92.86,184.94z M92.61,193.2c-5.28-0.38-9.94,2.72-11.5,7.5c-1.24,3.8-0.61,7.32,2.02,10.31
	c2.71,3.08,6.37,3.75,10.28,3.51c3.44-0.22,5.9-2.09,7.43-4.98c1.67-3.16,2.64-6.53,0.63-10.01c-0.32-0.55-0.6-1.13-0.9-1.69
	c-1.55-2.92-3.84-4.65-7.27-4.59C92.98,193.24,92.66,193.2,92.61,193.2z"/>
<path class="st1" d="M174.35,203.64c0-1.21-0.1-2.18,0.03-3.12c0.16-1.17,0.31-2.42,0.82-3.46c0.95-1.93,2.03-3.82,3.3-5.56
	c2.32-3.18,5.7-4.89,9.43-5.74c6.75-1.55,12.86,0.01,18.17,4.42c1.67,1.38,2.96,3.18,3.85,5.16c1.32,2.94,2.17,6.02,1.84,9.3
	c-0.14,1.35-0.37,2.69-0.57,4.04c-0.42,2.88-2.19,4.95-4.23,6.78c-3.88,3.48-8.52,5.21-13.67,5.8c-2.33,0.27-4.62,0.19-6.93-0.03
	c-2.17-0.21-4.03-1.05-5.45-2.69c-1.68-1.93-3.31-3.88-4.59-6.13c-1.05-1.86-1.74-3.75-1.77-5.89
	C174.57,205.46,174.42,204.43,174.35,203.64z M194.5,214.98c0.43,0,0.91,0,1.39,0c3.35-0.03,5.51-1.78,6.84-4.75
	c0.87-1.94,1.16-4.01,1.07-6.09c-0.22-5.42-3.88-10.08-9.26-11.04c-1.06-0.19-2.23-0.08-3.3,0.11c-2.08,0.37-3.47,1.86-4.87,3.31
	c-1.78,1.84-2.61,3.97-2.19,6.55c0.17,1.02,0.14,2.08,0.32,3.1c0.3,1.64,0.46,3.38,1.67,4.68
	C188.41,213.24,190.91,215.18,194.5,214.98z"/>
<path class="st0" d="M129.72,111.76c-0.01,2.95-0.5,3.62-2.87,4.26c-0.92,0.25-1.87,0.42-2.82,0.47c-3.74,0.2-7.49,0.31-11.24,0.53
	c-1.4,0.08-2.35-0.45-2.84-1.7c-0.81-2.06-0.65-4.06,0.59-5.94c0.65-0.98,1.69-1.18,2.71-1.3c2.3-0.26,4.61-0.42,6.91-0.67
	c1.42-0.15,2.85-0.33,4.25-0.61c2.51-0.51,4.2,0.44,4.9,2.93C129.55,110.56,129.66,111.43,129.72,111.76z M122.2,109.96
	c-3.28,0.11-6.11,0.38-8.92,0.86c-0.37,0.06-0.8,0.53-0.97,0.91c-0.35,0.8-0.54,1.67,0.13,2.42c4.88,0.2,7.79,0.02,9.58-0.64
	C122.07,112.49,122.13,111.4,122.2,109.96z M124.7,113.54c2.17-0.14,2.53-0.44,2.42-1.73c-0.14-1.65-0.48-1.96-2.07-1.71
	C124.94,111.15,124.83,112.23,124.7,113.54z"/>
<path class="st0" d="M108.57,68.66c-0.01,1.26-0.58,1.79-1.75,1.62c-1.55-0.22-3.09-0.44-4.66-0.03c-0.97,0.25-1.81-0.54-1.63-1.48
	c0.15-0.77,0.45-1.54,0.84-2.22c0.43-0.75,1.19-1.04,2.06-0.9c1.01,0.16,2.03,0.34,3.03,0.54
	C107.92,66.48,108.58,67.28,108.57,68.66z"/>
<path class="st0" d="M109.56,56.9c0.43,0.31,0.79,0.5,1.04,0.78c0.99,1.07,0.8,2.67-0.47,3.42c-0.33,0.19-1,0.17-1.3-0.05
	c-0.48-0.35-0.79-0.94-1.12-1.36C108.31,57.97,108.3,57.97,109.56,56.9z"/>
<path class="st0" d="M132.02,203.49c0.07-4.58,2.98-8.57,6.36-9.57c2.89-0.85,5.76-0.86,8.69,0.17c4.38,1.55,6.87,6.78,6.51,10.67
	c-0.28,3.1-1.87,5.36-3.78,7.53c-0.36,0.4-0.86,0.74-1.36,0.95c-2.86,1.17-5.81,1.75-8.89,1.07c-2.65-0.58-4.72-2.02-5.83-4.52
	C132.69,207.46,132.06,204.98,132.02,203.49z M150.93,204.3c0.03-1.87,0.01-1.86-1.47-4.9c-0.59-1.21-1.48-2.04-2.68-2.6
	c-2.43-1.13-4.98-1.32-7.45-0.41c-2.42,0.89-4.29,2.64-4.67,5.3c-0.39,2.75,0.6,5.34,1.87,7.76c0.28,0.54,0.82,0.98,1.33,1.35
	c2.39,1.76,7.76,1.73,9.95-0.29C149.63,208.83,151.16,206.83,150.93,204.3z"/>
<path class="st0" d="M43.02,213.45c-1.44,0.12-3.07-0.17-4.62-0.9c-1.56-0.73-2.75-1.8-3.71-3.25c-1.73-2.61-2.72-5.35-2.54-8.53
	c0.13-2.37,0.94-4.35,2.76-5.87c3.59-3.01,7.65-4.21,12.25-2.92c2.66,0.75,4.63,2.42,5.94,4.86c0.52,0.97,0.75,2.09,1.86,2.69
	c0.28,0.15,0.44,0.86,0.37,1.27c-0.25,1.48-0.69,2.94-0.92,4.42c-0.73,4.66-6.15,8.59-10.4,8.24
	C43.76,213.43,43.52,213.45,43.02,213.45z M43.2,194.14c-2.28-0.06-4.56,0.96-6.56,2.69c-1.28,1.1-1.86,2.5-1.98,4.19
	c-0.18,2.63,0.89,4.79,2.24,6.92c0.97,1.53,2.36,2.34,4.05,2.71c0.7,0.15,1.43,0.15,2.14,0.23c5.63,0.62,10.98-5.29,8.38-11.34
	C49.89,195.88,47.6,194.11,43.2,194.14z"/>
<path class="st0" d="M92.61,193.2c0.05,0,0.37,0.04,0.69,0.03c3.43-0.05,5.72,1.68,7.27,4.59c0.3,0.57,0.58,1.14,0.9,1.69
	c2.01,3.47,1.04,6.85-0.63,10.01c-1.53,2.89-3.99,4.77-7.43,4.98c-3.91,0.25-7.57-0.43-10.28-3.51c-2.63-2.98-3.27-6.5-2.02-10.31
	C82.66,195.92,87.32,192.82,92.61,193.2z M91.69,195.69c-3.97-0.58-7.82,3.64-8.4,6.73c-0.68,3.65,0.85,7.03,4.13,8.6
	c2.07,0.99,4.29,1.24,6.55,0.81c1.19-0.23,2.28-0.74,3.15-1.63c2.24-2.31,4.16-6.81,1.54-10.48c-0.23-0.32-0.38-0.7-0.58-1.05
	c-1.02-1.81-2.54-2.83-4.64-2.9C92.87,195.76,92.31,195.72,91.69,195.69z"/>
<path class="st0" d="M194.5,214.98c-3.59,0.2-6.09-1.74-8.32-4.13c-1.21-1.29-1.37-3.03-1.67-4.68c-0.18-1.02-0.16-2.07-0.32-3.1
	c-0.42-2.58,0.41-4.7,2.19-6.55c1.4-1.45,2.79-2.94,4.87-3.31c1.08-0.19,2.24-0.3,3.3-0.11c5.38,0.96,9.03,5.62,9.26,11.04
	c0.09,2.08-0.2,4.15-1.07,6.09c-1.33,2.96-3.49,4.71-6.84,4.75C195.4,214.98,194.92,214.98,194.5,214.98z M186.78,202.47
	c0.06,1.19,0.09,1.91,0.13,2.63c0.2,3.16,1.73,5.49,4.63,6.69c3.58,1.49,8.32,1.11,9.39-4.4c0.46-2.37,0.29-4.53-0.68-6.75
	c-1-2.28-2.6-3.81-4.86-4.65c-1.62-0.6-3.38-0.77-4.83,0.3C188.36,197.92,186.18,199.67,186.78,202.47z"/>
<path class="st1" d="M122.2,109.96c-0.07,1.45-0.12,2.53-0.17,3.55c-1.79,0.66-4.7,0.84-9.58,0.64c-0.67-0.76-0.49-1.62-0.13-2.42
	c0.17-0.38,0.6-0.85,0.97-0.91C116.09,110.34,118.92,110.07,122.2,109.96z"/>
<path class="st1" d="M124.7,113.54c0.13-1.31,0.24-2.39,0.35-3.43c1.59-0.25,1.93,0.05,2.07,1.71
	C127.23,113.1,126.86,113.4,124.7,113.54z"/>
<path class="st1" d="M150.93,204.3c0.24,2.54-1.29,4.53-3.12,6.21c-2.18,2.01-7.56,2.05-9.95,0.29c-0.5-0.37-1.04-0.82-1.33-1.35
	c-1.27-2.42-2.26-5-1.87-7.76c0.37-2.66,2.25-4.41,4.67-5.3c2.46-0.9,5.01-0.71,7.45,0.41c1.2,0.56,2.09,1.39,2.68,2.6
	C150.94,202.44,150.96,202.43,150.93,204.3z M142.63,207.37c0.26-0.03,0.74-0.05,1.21-0.14c2.06-0.42,3.08-2.1,2.48-4.12
	c-0.16-0.53-0.4-1.05-0.68-1.52c-1.22-2.03-3.31-2.31-5.01-0.66c-0.45,0.44-0.82,0.98-1.12,1.54
	C138.12,205.15,139.43,207.33,142.63,207.37z"/>
<path class="st1" d="M43.2,194.14c4.4-0.03,6.69,1.74,8.27,5.4c2.6,6.05-2.75,11.95-8.38,11.34c-0.71-0.08-1.44-0.08-2.14-0.23
	c-1.69-0.37-3.08-1.18-4.05-2.71c-1.35-2.13-2.42-4.29-2.24-6.92c0.11-1.69,0.69-3.09,1.98-4.19
	C38.64,195.1,40.93,194.09,43.2,194.14z M41.93,207.46c2.53,0.02,4.17-1.31,5.26-3.45c0.71-1.39,0.51-2.4-0.64-3.41
	c-0.53-0.47-1.14-0.86-1.72-1.27c-1.6-1.12-3.32-1.03-4.76,0.27c-0.91,0.82-1.51,1.85-1.82,3.02
	C37.54,205.28,39.19,207.42,41.93,207.46z"/>
<path class="st1" d="M91.69,195.69c0.62,0.03,1.18,0.07,1.74,0.09c2.11,0.07,3.62,1.09,4.64,2.9c0.2,0.35,0.35,0.73,0.58,1.05
	c2.62,3.67,0.7,8.16-1.54,10.48c-0.86,0.89-1.95,1.4-3.15,1.63c-2.26,0.43-4.48,0.18-6.55-0.81c-3.28-1.57-4.81-4.95-4.13-8.6
	C83.87,199.33,87.72,195.11,91.69,195.69z M95.66,204.26c-0.15-1.72-0.92-2.89-2.07-3.82c-0.95-0.76-2.08-0.94-3.14-0.37
	c-1.9,1.01-3.3,2.5-3.57,4.75c-0.23,1.95,1.08,3.41,3.08,3.41c2.13,0,3.79-1.06,5.13-2.62C95.42,205.21,95.51,204.61,95.66,204.26z"
	/>
<path class="st1" d="M186.78,202.47c-0.6-2.8,1.58-4.55,3.78-6.18c1.45-1.07,3.22-0.9,4.83-0.3c2.26,0.84,3.86,2.37,4.86,4.65
	c0.98,2.22,1.14,4.38,0.68,6.75c-1.07,5.51-5.81,5.89-9.39,4.4c-2.9-1.21-4.44-3.53-4.63-6.69
	C186.87,204.38,186.84,203.67,186.78,202.47z M194.52,200.73c-1.89-0.14-3.22,0.79-3.81,2.37c-0.51,1.35-0.22,2.27,1.06,3.33
	c0.24,0.2,0.51,0.38,0.77,0.57c1.43,1.06,2.73,1.03,4.09-0.08c1.42-1.16,1.81-2.71,1.03-4.24
	C196.92,201.24,195.73,200.6,194.52,200.73z"/>
<path class="st0" d="M142.63,207.37c-3.21-0.05-4.51-2.23-3.12-4.9c0.29-0.56,0.67-1.11,1.12-1.54c1.71-1.65,3.8-1.37,5.01,0.66
	c0.28,0.47,0.53,0.99,0.68,1.52c0.6,2.02-0.42,3.7-2.48,4.12C143.38,207.33,142.9,207.35,142.63,207.37z"/>
<path class="st0" d="M41.93,207.46c-2.74-0.04-4.39-2.18-3.69-4.84c0.31-1.17,0.91-2.2,1.82-3.02c1.44-1.29,3.16-1.39,4.76-0.27
	c0.58,0.41,1.19,0.8,1.72,1.27c1.15,1.01,1.35,2.02,0.64,3.41C46.1,206.15,44.45,207.48,41.93,207.46z"/>
<path class="st0" d="M95.66,204.26c-0.14,0.35-0.24,0.95-0.58,1.34c-1.34,1.56-3,2.62-5.13,2.62c-2,0-3.3-1.45-3.08-3.41
	c0.26-2.25,1.67-3.73,3.57-4.75c1.06-0.57,2.19-0.39,3.14,0.37C94.74,201.37,95.5,202.54,95.66,204.26z"/>
<path class="st0" d="M194.52,200.73c1.22-0.13,2.41,0.51,3.14,1.95c0.78,1.53,0.39,3.07-1.03,4.24c-1.36,1.12-2.65,1.14-4.09,0.08
	c-0.26-0.19-0.52-0.37-0.77-0.57c-1.28-1.06-1.57-1.98-1.06-3.33C191.3,201.52,192.63,200.59,194.52,200.73z"/>
</svg>
