<?xml version="1.0" encoding="utf-8"?>
<!-- Generator: Adobe Illustrator 25.4.1, SVG Export Plug-In . SVG Version: 6.00 Build 0)  -->
<svg version="1.1" id="Layer_1" xmlns="http://www.w3.org/2000/svg" xmlns:xlink="http://www.w3.org/1999/xlink" x="0px" y="0px"
	 viewBox="0 0 25.66 25.88" style="enable-background:new 0 0 25.66 25.88;" xml:space="preserve">
<style type="text/css">
	.st0{fill:#FFFFFF;}
	.st1{fill:#FF9E02;}
</style>
<path class="st1" d="M23.33,23.25c-2.26,0.08-4.4,0.23-6.55,0.22c-4.73-0.03-9.41,0.29-13.98,1.62c-0.21,0.06-0.46,0.01-0.88,0.01
	c-0.12-0.49-0.31-0.99-0.35-1.51c-0.29-3.31,0.47-6.51,1.14-9.71c0.18-0.86,0.46-1.7,0.62-2.56c0.93-4.97,3.99-7.87,8.83-8.92
	c2.49-0.54,5.02-0.9,7.59-0.25C21.01,2.46,22,3.06,22.5,4.23c0.56,1.31,1.18,2.66,1.4,4.05c0.72,4.69,0.51,9.39-0.19,14.07
	C23.67,22.58,23.53,22.8,23.33,23.25z"/>
</svg>
