<?xml version="1.0" encoding="utf-8"?>
<!-- Generator: Adobe Illustrator 25.4.1, SVG Export Plug-In . SVG Version: 6.00 Build 0)  -->
<svg version="1.1" id="Layer_1" xmlns="http://www.w3.org/2000/svg" xmlns:xlink="http://www.w3.org/1999/xlink" x="0px" y="0px"
	 viewBox="0 0 265 263" style="enable-background:new 0 0 265 263;" xml:space="preserve">
<style type="text/css">
	.st0{fill:#2D679A;}
	.st1{fill:#FFFFFF;}
</style>
<path class="st0" d="M254.02,198.58c-1.34,1.29-1.75,2.76-2.16,4.21c-0.18,0.66,0,1.24,0.56,1.71c2.68,2.28,5.35,4.57,8.01,6.86
	c0.54,0.46,1.11,0.92,1.55,1.47c0.39,0.49,0.27,1.07-0.18,1.52c-0.46,0.46-1,0.52-1.51,0.13c-1.46-1.11-2.94-2.22-4.35-3.39
	c-1.35-1.13-2.62-2.35-3.94-3.51c-0.35-0.3-0.76-0.53-1.31-0.9c-4.28,12.16-6.25,24.72-9.56,37.06c1.63,1.1,1.74,2.79,1.68,4.62
	c-0.11,3.11-0.07,6.23-0.11,9.35c-0.01,0.96,0.05,2.03-0.97,2.54c-1.11,0.56-1.97-0.29-2.85-0.77c-0.33-0.18-0.57-0.55-0.84-0.84
	c-7.43-7.97-15.64-15.1-23.87-22.21c-3.21-2.77-6.37-5.59-9.47-8.48c-6.03-5.61-12.04-11.24-17.97-16.96
	c-2.64-2.55-5.03-5.36-7.57-8.02c-5.03-5.26-10.25-10.34-14.94-15.92c-1.85-2.2-3.85-4.27-5.83-6.36c-3.25-3.42-6.58-6.77-9.8-10.22
	c-5.79-6.21-12.14-11.83-18.34-17.62c-5.08-4.75-10.01-9.65-14.91-14.6c-8.16-8.24-15.91-16.87-24.36-24.83
	c-7.11-6.7-13.56-14.03-20.08-21.29c-2.78-3.09-5.63-6.12-8.5-9.13c-5.19-5.45-9.97-11.25-14.71-17.08
	c-4.84-5.96-9.5-12.07-14.45-17.93c-4.38-5.19-9.06-10.13-13.61-15.18c-0.26-0.29-0.54-0.6-0.86-0.82
	c-4.85-3.19-8.73-7.47-12.82-11.5c-2.75-2.71-3.25-6.12-2.72-9.77c0.22-1.52,1.07-2.68,2.23-3.57c2.1-1.61,4.37-2.94,6.87-3.88
	c1.6-0.6,3.14-0.51,4.66,0.19c5.81,2.7,10.95,6.26,14.89,11.4c0.24,0.31,0.52,0.61,0.83,0.85c2.78,2.16,5.58,4.29,8.36,6.44
	c2.21,1.71,4.39,3.48,6.62,5.17c8.93,6.77,17.24,14.28,25.82,21.47c3.43,2.88,7.05,5.53,10.44,8.45
	c5.27,4.54,10.32,9.34,15.64,13.82c9.67,8.14,19.46,16.12,29.2,24.17c3.82,3.16,7.6,6.37,11.46,9.47
	c5.36,4.31,10.83,8.48,16.17,12.82c4.1,3.32,8.05,6.83,12.09,10.21c2.76,2.31,5.52,4.63,8.38,6.8c6.95,5.26,14.04,10.35,20.93,15.68
	c6.07,4.7,11.96,9.63,17.9,14.49c7.61,6.23,15.13,12.57,22.8,18.73c4.23,3.41,8.68,6.56,13.03,9.81c2.05,1.53,4.12,3.04,6.17,4.56
	c0.26,0.19,0.53,0.37,0.74,0.6c0.41,0.44,0.62,0.94,0.26,1.52c-0.35,0.56-0.9,0.68-1.47,0.49c-0.44-0.15-0.85-0.43-1.26-0.67
	C255.36,199.41,254.76,199.03,254.02,198.58z M240.01,256.55c0.08-3.08,0.14-5.86,0.24-8.63c0.03-0.88-0.3-1.52-0.92-2.1
	c-4.07-3.84-8.03-7.8-12.22-11.52c-8.38-7.45-16.31-15.33-24.07-23.41c-3.76-3.92-7.33-8.04-11.66-11.38c-1.2-0.93-2.31-1.97-3.43-3
	c-6.05-5.59-12.09-11.18-18.11-16.81c-3.33-3.11-6.63-6.26-9.87-9.46c-2.05-2.02-3.93-4.21-5.94-6.26
	c-3.59-3.65-7.27-7.21-10.84-10.87c-3.97-4.06-8-8.05-12.24-11.84c-4.59-4.1-9.04-8.35-13.52-12.57c-1.22-1.15-2.3-2.45-3.5-3.62
	c-6.26-6.07-12.58-12.07-18.8-18.18c-4.51-4.42-8.92-8.94-13.34-13.46c-5.71-5.84-10.74-12.28-15.96-18.54
	c-5.33-6.39-10.62-12.8-16.55-18.65c-0.85-0.84-1.63-1.76-2.39-2.68c-1.84-2.22-3.55-4.54-5.48-6.67
	C36.1,41.02,30.57,35.36,24.74,30c-0.28-0.26-0.61-0.47-1.09-0.83c-0.6,0.84-1.13,1.59-1.67,2.34c0.56,0.65,0.96,1.14,1.38,1.61
	c3.91,4.33,7.94,8.56,11.7,13.02c4.74,5.62,9.24,11.45,13.87,17.16c5.59,6.89,11.13,13.82,17.48,20.07c1.42,1.4,2.75,2.9,4.08,4.39
	c7.39,8.3,14.65,16.75,22.8,24.31c7.63,7.08,14.36,15.04,21.92,22.18c0.7,0.66,1.31,1.41,1.98,2.09c3.2,3.25,6.33,6.57,9.62,9.71
	c5.73,5.46,11.75,10.63,17.32,16.25c8.05,8.11,16.23,16.12,23.61,24.87c0.36,0.43,0.74,0.84,1.13,1.24
	c4.14,4.34,8.3,8.66,12.43,13.01c2.31,2.43,4.48,5.02,6.89,7.34c6.57,6.32,13.16,12.61,19.9,18.76c6.32,5.77,12.88,11.26,19.23,17
	c3.43,3.11,6.63,6.48,9.95,9.72C238.04,255,238.67,255.95,240.01,256.55z M251.65,196.72c-0.56-0.46-1.03-0.87-1.53-1.25
	c-3.4-2.53-6.89-4.95-10.19-7.61c-9.02-7.28-17.96-14.68-26.94-22.01c-5.64-4.6-11.22-9.27-16.98-13.72
	c-7.35-5.67-14.85-11.12-22.27-16.7c-1.98-1.49-3.98-2.99-5.77-4.69c-4.82-4.59-10.04-8.69-15.24-12.81
	c-4.51-3.58-9.09-7.08-13.57-10.69c-5.66-4.57-11.27-9.21-16.88-13.85c-8.5-7.04-17.02-14.06-25.43-21.2
	c-5.48-4.66-10.73-9.6-16.2-14.28c-4.49-3.85-9.29-7.35-13.72-11.26C56.13,37.09,44.73,28.32,33.35,19.5
	c-0.47-0.37-1.03-0.63-1.66-1c-0.64,1.02-1.18,1.87-1.77,2.82c0.74,0.56,1.27,1.02,1.87,1.4c3.19,2.03,6.01,4.49,8.74,7.1
	c7.11,6.8,14.21,13.61,21.41,20.31c4.21,3.92,8.52,7.74,13.11,11.24c4.95,3.78,9.71,7.83,14.5,11.82c2.58,2.15,4.99,4.51,7.59,6.62
	c11.13,9.01,22.33,17.93,33.44,26.95c4.9,3.98,9.65,8.15,14.5,12.21c3.44,2.87,6.91,5.7,10.38,8.53c2.67,2.17,5.33,4.34,8.06,6.43
	c4.12,3.16,8.35,6.2,12.44,9.4c7.63,5.96,15.2,11.99,22.78,17.99c0.69,0.55,1.36,1.12,1.98,1.74c5.13,5.07,10.66,9.67,16.33,14.11
	c6.55,5.13,13.2,10.13,19.78,15.22c3.41,2.65,6.75,5.4,10.14,8.06c0.66,0.52,1.25,1.23,2.24,1.28
	C250.01,200.1,250.78,198.53,251.65,196.72z M204.73,195.28c0.34,4.6,0.69,8.89,0.93,13.19c0.05,0.84,0.11,1.52,0.74,2.15
	c2.76,2.78,5.47,5.61,8.22,8.4c0.24,0.25,0.62,0.36,1.05,0.6c-0.23-4.09-0.61-7.98-0.61-11.88c0-3.89-0.86-7.75-0.48-11.83
	c2.18,0.17,4.16,0.24,6.12,0.48c5.33,0.66,10.67,0.95,16.03,0.77c0.41-0.01,0.81-0.17,1.6-0.34c-1.64-1.28-3.03-2.22-4.25-3.35
	c-1.57-1.45-3.37-1.96-5.46-1.97c-3.76-0.02-7.51-0.17-11.27-0.31c-1.02-0.04-2.08,0.1-3.17-0.56c-0.07-0.55-0.2-1.17-0.21-1.79
	c-0.05-3.53-0.66-6.99-1.32-10.45c-0.21-1.09-0.63-1.9-1.48-2.61c-2.82-2.36-5.59-4.78-8.39-7.16c-0.15-0.13-0.41-0.13-0.85-0.27
	c1.11,7.46,1.75,14.81,2.23,22.39c-1.06,0.05-1.92,0.12-2.78,0.13c-4.48,0.02-8.96,0.02-13.43,0.04c-0.49,0-0.99,0.16-1.48,0.24
	c-0.08,0.17-0.17,0.33-0.25,0.5c0.68,0.54,1.45,1.01,2.03,1.65c1.28,1.4,2.77,1.94,4.68,1.86c3.03-0.13,6.08-0.05,9.11-0.03
	C202.81,195.14,203.59,195.22,204.73,195.28z M167.95,173.99c-0.93-6.51-1.91-12.6-2.38-18.86c2.56-0.46,4.92,0.21,7.29,0.21
	c2.39,0,4.78,0.36,7.18,0.39c2.34,0.03,4.7,0.3,7.37-0.04c-1.8-1.95-3.73-3.2-5.64-4.45c-0.24-0.16-0.61-0.16-0.93-0.18
	c-4.46-0.34-8.92-0.66-13.38-1c-0.78-0.06-1.62,0.08-2.24-0.63c-0.43-3.47-0.9-6.95-1.26-10.44c-0.13-1.22-0.62-2.06-1.61-2.76
	c-1.89-1.34-3.71-2.78-5.57-4.16c-0.28-0.2-0.62-0.31-1.19-0.58c0.71,6.06,1.38,11.82,2.08,17.8c-2.61,0.46-4.96-0.24-7.31-0.17
	c-2.36,0.07-4.7-0.68-7.34-0.26c0.32,0.49,0.49,0.83,0.74,1.1c0.98,1.06,2.02,2.06,2.97,3.14c0.8,0.91,1.74,1.27,2.95,1.27
	c2.16-0.01,4.31,0.11,6.47,0.2c1.99,0.08,2.31,0.42,2.54,2.39c0.31,2.7,0.61,5.4,1,8.09c0.1,0.67,0.38,1.42,0.83,1.9
	c2.03,2.15,4.14,4.22,6.24,6.31C166.95,173.45,167.25,173.57,167.95,173.99z M120.9,114.7c3.19,0.57,6.01,1.1,8.83,1.56
	c2.78,0.46,5.56,1.05,8.93,1.07c-1.3-1.41-2.47-2.23-3.46-3.23c-1.52-1.53-3.18-2.6-5.47-2.51c-0.94,0.04-1.9-0.25-2.84-0.42
	c-2.11-0.38-4.22-0.78-6.36-1.17c-0.14-0.58-0.28-1.03-0.35-1.49c-0.27-1.98-0.61-3.96-0.75-5.95c-0.09-1.25-0.59-2.07-1.56-2.79
	c-1.74-1.28-3.42-2.64-5.13-3.95c-0.68-0.52-1.38-1.02-2.19-1.61c-0.07,0.46-0.17,0.69-0.14,0.9c0.5,3.48,1.01,6.96,1.51,10.44
	c0.12,0.85,0.35,1.71-0.14,2.76c-0.78-0.07-1.56-0.11-2.32-0.22c-2.53-0.36-5.06-0.75-7.59-1.1c-0.75-0.1-1.53-0.27-2.55,0.24
	c1.42,1.45,2.72,2.72,3.96,4.04c0.81,0.86,1.73,1.34,2.92,1.43c1.59,0.11,3.18,0.34,4.76,0.52c1.85,0.2,2.08,0.35,2.4,2.06
	c0.32,1.73,0.61,3.46,0.78,5.21c0.07,0.76,0.22,1.36,0.77,1.91c1.8,1.82,3.56,3.68,5.35,5.5c0.31,0.31,0.7,0.55,1.37,1.05
	c-0.13-2.59-0.23-4.79-0.34-6.99C121.18,119.66,121.05,117.36,120.9,114.7z M19.72,29.54c0.44-0.36,0.78-0.58,1.03-0.87
	c1.64-1.95,3.33-3.86,4.88-5.88c1.21-1.58,2.28-3.26,3.31-4.96c0.62-1.03,0.6-2.04-0.37-3.02c-3.56-3.62-7.53-6.63-12.16-8.75
	c-1.32-0.61-2.64-0.71-3.91-0.04c-1.76,0.93-3.51,1.89-5.15,3c-0.67,0.46-1.31,1.29-1.5,2.06c-0.49,2.05-0.48,4.14,0.78,5.98
	c0.63,0.92,1.31,1.82,2.11,2.59c3.04,2.93,6.13,5.81,9.23,8.69C18.47,28.81,19.11,29.13,19.72,29.54z M79.77,87.09
	c0.41-3.63-0.54-6.88-0.06-10.41c3.9,0.55,7.59,1.84,11.43,2.07c0.03-0.25,0.07-0.37,0.04-0.4c-1.03-1-2.07-1.98-3.1-2.98
	c-0.7-0.69-1.47-1.06-2.49-1.24c-2.18-0.39-4.4-0.68-6.48-1.57c-0.15-0.61-0.35-1.14-0.39-1.69c-0.34-4.53-0.28-3.54-3.61-6.17
	c-0.84-0.67-1.57-1.55-2.83-1.89c-0.25,2.77,0.92,5.31,0.47,8.06c-2.76,0.06-5.11-1.43-8.12-1.6c1.76,2.33,2.99,4.68,6.04,4.93
	c1.03,0.08,2.06,0.24,3,1.03c0.23,1.42,0.45,2.92,0.72,4.4c0.13,0.7,0.17,1.52,0.57,2.04C76.35,83.51,77.68,85.39,79.77,87.09z
	 M46.57,46.6c3.04,0.14,5.83,1.92,9.27,1.7c-1.22-1.49-2.22-2.74-3.9-3.3c-2.03-0.67-4.04-1.42-6.05-2.14
	c-0.32-1.68-0.38-3.34-0.97-4.77c-0.63-1.52-2.12-2.45-3.53-3.53c-0.14,0.42-0.29,0.64-0.27,0.84c0.28,2.53,0.58,5.07,0.9,7.59
	c0.05,0.38,0.19,0.8,0.43,1.09c1.11,1.33,2.27,2.63,3.56,4.1C46.23,47.56,46.38,47.15,46.57,46.6z"/>
<path class="st1" d="M240.01,256.55c-1.34-0.6-1.97-1.55-2.76-2.31c-3.32-3.24-6.51-6.61-9.95-9.72c-6.34-5.74-12.91-11.23-19.23-17
	c-6.73-6.14-13.33-12.44-19.9-18.76c-2.42-2.32-4.58-4.91-6.89-7.34c-4.13-4.35-8.28-8.67-12.43-13.01
	c-0.39-0.4-0.77-0.81-1.13-1.24c-7.38-8.75-15.56-16.75-23.61-24.87c-5.57-5.62-11.59-10.79-17.32-16.25
	c-3.3-3.14-6.42-6.46-9.62-9.71c-0.67-0.68-1.28-1.43-1.98-2.09c-7.56-7.14-14.29-15.09-21.92-22.18
	c-8.15-7.57-15.41-16.01-22.8-24.31c-1.33-1.49-2.66-2.99-4.08-4.39c-6.34-6.24-11.89-13.17-17.48-20.07
	C44.3,57.6,39.8,51.77,35.06,46.15c-3.76-4.46-7.79-8.69-11.7-13.02c-0.42-0.47-0.83-0.96-1.38-1.61c0.54-0.76,1.07-1.5,1.67-2.34
	c0.47,0.36,0.8,0.57,1.09,0.83c5.84,5.36,11.37,11.02,16.68,16.89c1.93,2.13,3.65,4.45,5.48,6.67c0.76,0.92,1.54,1.84,2.39,2.68
	c5.93,5.85,11.22,12.26,16.55,18.65c5.22,6.26,10.25,12.69,15.96,18.54c4.41,4.52,8.83,9.04,13.34,13.46
	c6.22,6.1,12.54,12.11,18.8,18.18c1.2,1.17,2.28,2.47,3.5,3.62c4.48,4.22,8.94,8.47,13.52,12.57c4.23,3.79,8.27,7.78,12.24,11.84
	c3.58,3.66,7.25,7.23,10.84,10.87c2.02,2.05,3.9,4.24,5.94,6.26c3.24,3.2,6.54,6.35,9.87,9.46c6.01,5.63,12.06,11.21,18.11,16.81
	c1.11,1.03,2.23,2.08,3.43,3c4.33,3.34,7.9,7.47,11.66,11.38c7.75,8.08,15.69,15.96,24.07,23.41c4.18,3.72,8.14,7.68,12.22,11.52
	c0.62,0.58,0.95,1.22,0.92,2.1C240.15,250.69,240.09,253.47,240.01,256.55z"/>
<path class="st1" d="M251.65,196.72c-0.88,1.81-1.64,3.39-2.43,5.02c-0.99-0.05-1.59-0.76-2.24-1.28c-3.4-2.67-6.73-5.42-10.14-8.06
	c-6.57-5.1-13.22-10.1-19.78-15.22c-5.67-4.44-11.2-9.04-16.33-14.11c-0.62-0.62-1.29-1.2-1.98-1.74
	c-7.59-6.01-15.15-12.04-22.78-17.99c-4.1-3.2-8.32-6.23-12.44-9.4c-2.73-2.09-5.39-4.26-8.06-6.43c-3.48-2.82-6.95-5.66-10.38-8.53
	c-4.85-4.05-9.6-8.23-14.5-12.21c-11.11-9.02-22.31-17.94-33.44-26.95c-2.61-2.11-5.01-4.47-7.59-6.62
	c-4.79-3.99-9.55-8.04-14.5-11.82c-4.59-3.5-8.9-7.32-13.11-11.24c-7.2-6.7-14.3-13.51-21.41-20.31c-2.72-2.61-5.55-5.07-8.74-7.1
	c-0.59-0.38-1.13-0.85-1.87-1.4c0.59-0.95,1.13-1.8,1.77-2.82c0.63,0.38,1.18,0.64,1.66,1c11.38,8.82,22.79,17.6,33.59,27.13
	c4.43,3.91,9.23,7.41,13.72,11.26c5.47,4.68,10.71,9.62,16.2,14.28c8.41,7.15,16.93,14.16,25.43,21.2
	c5.6,4.64,11.21,9.28,16.88,13.85c4.48,3.62,9.05,7.12,13.57,10.69c5.2,4.12,10.42,8.22,15.24,12.81c1.79,1.7,3.79,3.2,5.77,4.69
	c7.41,5.58,14.92,11.04,22.27,16.7c5.76,4.44,11.34,9.12,16.98,13.72c8.99,7.33,17.92,14.73,26.94,22.01
	c3.3,2.66,6.79,5.07,10.19,7.61C250.62,195.84,251.1,196.26,251.65,196.72z"/>
<path class="st1" d="M204.73,195.28c-1.14-0.06-1.92-0.14-2.71-0.14c-3.04-0.01-6.08-0.09-9.11,0.03c-1.91,0.08-3.4-0.47-4.68-1.86
	c-0.58-0.64-1.35-1.1-2.03-1.65c0.08-0.17,0.17-0.33,0.25-0.5c0.49-0.08,0.99-0.24,1.48-0.24c4.48-0.03,8.96-0.02,13.43-0.04
	c0.86,0,1.72-0.08,2.78-0.13c-0.48-7.58-1.11-14.93-2.23-22.39c0.44,0.13,0.7,0.14,0.85,0.27c2.8,2.38,5.57,4.8,8.39,7.16
	c0.85,0.71,1.27,1.52,1.48,2.61c0.66,3.46,1.27,6.92,1.32,10.45c0.01,0.62,0.14,1.24,0.21,1.79c1.08,0.66,2.15,0.52,3.17,0.56
	c3.76,0.14,7.51,0.29,11.27,0.31c2.1,0.01,3.89,0.52,5.46,1.97c1.22,1.13,2.61,2.07,4.25,3.35c-0.78,0.17-1.19,0.33-1.6,0.34
	c-5.36,0.18-10.7-0.11-16.03-0.77c-1.96-0.24-3.94-0.32-6.12-0.48c-0.39,4.08,0.48,7.94,0.48,11.83c0,3.89,0.39,7.78,0.61,11.88
	c-0.43-0.24-0.81-0.35-1.05-0.6c-2.75-2.79-5.46-5.61-8.22-8.4c-0.62-0.63-0.69-1.3-0.74-2.15
	C205.42,204.17,205.07,199.88,204.73,195.28z"/>
<path class="st1" d="M167.95,173.99c-0.7-0.43-1-0.54-1.21-0.75c-2.1-2.09-4.21-4.16-6.24-6.31c-0.45-0.48-0.74-1.23-0.83-1.9
	c-0.39-2.69-0.69-5.39-1-8.09c-0.22-1.96-0.55-2.3-2.54-2.39c-2.16-0.09-4.31-0.21-6.47-0.2c-1.21,0-2.15-0.36-2.95-1.27
	c-0.95-1.08-1.99-2.08-2.97-3.14c-0.25-0.27-0.42-0.62-0.74-1.1c2.64-0.42,4.98,0.33,7.34,0.26c2.35-0.07,4.71,0.63,7.31,0.17
	c-0.7-5.98-1.37-11.73-2.08-17.8c0.57,0.27,0.92,0.38,1.19,0.58c1.86,1.38,3.68,2.82,5.57,4.16c0.99,0.7,1.48,1.54,1.61,2.76
	c0.36,3.49,0.84,6.97,1.26,10.44c0.62,0.72,1.46,0.58,2.24,0.63c4.46,0.33,8.92,0.66,13.38,1c0.31,0.02,0.68,0.02,0.93,0.18
	c1.91,1.25,3.84,2.49,5.64,4.45c-2.67,0.34-5.03,0.07-7.37,0.04c-2.39-0.03-4.79-0.39-7.18-0.39c-2.37,0-4.73-0.67-7.29-0.21
	C166.04,161.39,167.02,167.48,167.95,173.99z"/>
<path class="st1" d="M120.9,114.7c0.15,2.67,0.28,4.96,0.4,7.26c0.11,2.2,0.22,4.4,0.34,6.99c-0.66-0.5-1.06-0.73-1.37-1.05
	c-1.79-1.83-3.55-3.69-5.35-5.5c-0.55-0.55-0.7-1.15-0.77-1.91c-0.17-1.75-0.46-3.48-0.78-5.21c-0.32-1.71-0.55-1.86-2.4-2.06
	c-1.59-0.17-3.17-0.4-4.76-0.52c-1.19-0.09-2.12-0.56-2.92-1.43c-1.24-1.32-2.54-2.59-3.96-4.04c1.02-0.51,1.8-0.34,2.55-0.24
	c2.53,0.34,5.06,0.74,7.59,1.1c0.77,0.11,1.54,0.15,2.32,0.22c0.49-1.04,0.26-1.9,0.14-2.76c-0.51-3.48-1.02-6.96-1.51-10.44
	c-0.03-0.21,0.06-0.44,0.14-0.9c0.81,0.59,1.51,1.09,2.19,1.61c1.71,1.31,3.39,2.67,5.13,3.95c0.97,0.71,1.48,1.54,1.56,2.79
	c0.14,1.99,0.47,3.97,0.75,5.95c0.06,0.46,0.21,0.91,0.35,1.49c2.14,0.39,4.25,0.79,6.36,1.17c0.94,0.17,1.9,0.45,2.84,0.42
	c2.28-0.08,3.95,0.98,5.47,2.51c0.99,1,2.16,1.82,3.46,3.23c-3.37-0.02-6.14-0.61-8.93-1.07
	C126.91,115.79,124.09,115.26,120.9,114.7z"/>
<path class="st1" d="M19.72,29.54c-0.61-0.41-1.25-0.73-1.75-1.2c-3.1-2.87-6.19-5.76-9.23-8.69c-0.8-0.77-1.48-1.67-2.11-2.59
	c-1.26-1.84-1.27-3.94-0.78-5.98c0.19-0.77,0.83-1.6,1.5-2.06c1.64-1.11,3.4-2.07,5.15-3c1.27-0.68,2.59-0.57,3.91,0.04
	c4.63,2.12,8.6,5.13,12.16,8.75c0.97,0.98,0.99,2,0.37,3.02c-1.03,1.7-2.11,3.38-3.31,4.96c-1.55,2.02-3.23,3.94-4.88,5.88
	C20.5,28.97,20.15,29.18,19.72,29.54z M20.58,14.54c0.07-1.21-0.19-2.53-0.89-3.74c-0.93-1.61-2.32-2.47-4.17-2.2
	c-1.84,0.26-3.54,0.95-4.98,2.19c-0.78,0.67-1.17,1.46-1.23,2.49c-0.17,2.95,1.74,6.17,4.42,7.4c0.85,0.39,1.7,0.37,2.57,0.12
	C19.3,19.95,20.57,18.15,20.58,14.54z"/>
<path class="st1" d="M79.77,87.09c-2.09-1.7-3.42-3.59-4.79-5.42c-0.4-0.53-0.44-1.35-0.57-2.04c-0.27-1.49-0.49-2.98-0.72-4.4
	c-0.95-0.79-1.98-0.95-3-1.03c-3.05-0.25-4.28-2.6-6.04-4.93c3.01,0.17,5.36,1.67,8.12,1.6c0.44-2.75-0.72-5.29-0.47-8.06
	c1.26,0.34,1.99,1.23,2.83,1.89c3.33,2.63,3.27,1.64,3.61,6.17c0.04,0.55,0.25,1.08,0.39,1.69c2.07,0.89,4.3,1.18,6.48,1.57
	c1.02,0.18,1.79,0.55,2.49,1.24c1.02,1,2.07,1.98,3.1,2.98c0.03,0.03-0.01,0.15-0.04,0.4c-3.84-0.23-7.53-1.52-11.43-2.07
	C79.23,80.22,80.18,83.46,79.77,87.09z"/>
<path class="st1" d="M46.57,46.6c-0.19,0.55-0.34,0.96-0.56,1.59c-1.29-1.48-2.45-2.77-3.56-4.1c-0.24-0.29-0.38-0.71-0.43-1.09
	c-0.33-2.53-0.62-5.06-0.9-7.59c-0.02-0.2,0.13-0.42,0.27-0.84c1.4,1.08,2.9,2.01,3.53,3.53c0.59,1.43,0.65,3.09,0.97,4.77
	c2.01,0.72,4.02,1.47,6.05,2.14c1.68,0.55,2.68,1.81,3.9,3.3C52.4,48.52,49.61,46.74,46.57,46.6z"/>
<path class="st0" d="M20.58,14.54c-0.01,3.61-1.28,5.41-4.29,6.25c-0.87,0.24-1.72,0.27-2.57-0.12c-2.69-1.23-4.6-4.45-4.42-7.4
	c0.06-1.03,0.45-1.82,1.23-2.49c1.45-1.24,3.14-1.93,4.98-2.19c1.86-0.26,3.24,0.59,4.17,2.2C20.39,12.02,20.65,13.33,20.58,14.54z
	 M18.07,14.64c0-0.16,0.02-0.32,0-0.48c-0.45-3.06-1.79-3.53-4.01-2.45c-0.43,0.21-0.88,0.39-1.25,0.67
	c-0.93,0.73-1.18,1.64-0.77,2.76c0.46,1.24,1.35,2.16,2.44,2.84c0.35,0.22,0.93,0.22,1.36,0.13C17.4,17.75,18.1,16.62,18.07,14.64z"
	/>
<path class="st1" d="M18.07,14.64c0.03,1.98-0.67,3.11-2.22,3.47c-0.43,0.1-1.01,0.09-1.36-0.13c-1.09-0.68-1.99-1.6-2.44-2.84
	c-0.41-1.12-0.16-2.03,0.77-2.76c0.37-0.29,0.82-0.47,1.25-0.67c2.21-1.07,3.56-0.6,4.01,2.45C18.09,14.32,18.07,14.48,18.07,14.64z
	"/>
</svg>
