<?xml version="1.0" encoding="utf-8"?>
<!-- Generator: Adobe Illustrator 25.4.1, SVG Export Plug-In . SVG Version: 6.00 Build 0)  -->
<svg version="1.1" id="Layer_1" xmlns="http://www.w3.org/2000/svg" xmlns:xlink="http://www.w3.org/1999/xlink" x="0px" y="0px"
	 viewBox="0 0 166.89 72" style="enable-background:new 0 0 166.89 72;" xml:space="preserve">
<g>
	<path d="M126.65,46.7c0.25,1.06,0.76,1.82,1.41,2.49c1.53,1.57,3.49,2.31,5.57,2.75c3.56,0.75,7.08,0.37,10.55-0.57
		c3.54-0.96,6.81-2.5,9.69-4.81c0.12-0.09,0.25-0.17,0.49-0.33c3.3,4.24,6.59,8.48,9.9,12.74c-0.15,0.17-0.25,0.31-0.38,0.42
		c-5.67,4.56-11.95,7.95-19.06,9.68c-3.75,0.91-7.55,1.33-11.4,0.93c-10.04-1.05-17.52-5.98-22.22-14.96
		c-2.08-3.98-3.17-8.26-3.53-12.73c-0.47-5.8,0.06-11.51,1.63-17.1c1.61-5.71,4.77-10.5,9.08-14.53c4.81-4.48,10.43-7.43,16.92-8.56
		c7.31-1.27,14.21-0.2,20.5,3.95c4.82,3.19,7.39,7.74,7.97,13.4c0.6,5.97-1.52,11.04-5.65,15.26c-5.23,5.34-11.63,8.69-18.81,10.62
		c-3.9,1.05-7.87,1.48-11.9,1.35C127.21,46.69,126.98,46.7,126.65,46.7z M126.9,29.61c0.48,0.05,0.85,0.11,1.22,0.13
		c3.12,0.17,6.2-0.06,9.22-0.86c2.29-0.61,4.48-1.44,6.43-2.81c0.97-0.68,1.84-1.47,2.4-2.54c1.12-2.12,0.25-4.05-2.08-4.61
		c-1.11-0.27-2.24-0.24-3.35-0.04c-4.04,0.73-7.46,2.66-10.43,5.44c-1.26,1.17-2.3,2.51-2.99,4.09
		C127.15,28.77,127.05,29.15,126.9,29.61z"/>
	<path d="M54.7,20.12c6.33-0.8,12.61-1.59,18.99-2.39c0.02,0.57,0.07,1.14,0.07,1.71c0.01,8.82,0.02,17.63,0.02,26.45
		c0,1.63,0.33,3.13,1.37,4.42c1.85,2.31,4.95,2.3,6.77-0.03c0.91-1.17,1.33-2.51,1.33-3.99c-0.01-9.62-0.02-19.24-0.02-28.85
		c0-0.54-0.11-1.22,0.16-1.58c0.25-0.33,0.96-0.31,1.47-0.42c5.6-1.21,11.18-2.53,16.69-4.14c0.21-0.06,0.43-0.1,0.75-0.17
		c0.02,0.32,0.04,0.59,0.04,0.85c0.06,7.64,0.11,15.28,0.17,22.92c0.03,3.93,0.12,7.86,0.1,11.8c-0.03,4.38-1.17,8.48-3.58,12.15
		c-4.24,6.46-10.3,10.12-17.9,11.14c-6.74,0.9-12.9-0.68-18.27-4.92c-4.66-3.68-7.33-8.54-8.02-14.45c-0.1-0.84-0.05-1.7-0.05-2.55
		c-0.03-8.64-0.05-17.28-0.07-25.92C54.7,21.48,54.7,20.81,54.7,20.12z"/>
	<path d="M50.37,27c-0.34,0.65-0.64,1.23-0.94,1.8c-1.97,3.72-3.93,7.44-5.91,11.16c-0.39,0.73-0.4,0.72-1.13,0.34
		c-1.91-1-3.97-1.55-6.09-1.81c-3.93-0.48-7.8-0.16-11.55,1.18c-1.69,0.6-3.28,1.39-4.57,2.66c-0.43,0.42-0.83,0.88-1.13,1.39
		c-0.9,1.49-0.85,3,0.11,4.46c0.88,1.34,2.14,2.24,3.55,2.93c3.42,1.66,7.05,2.19,10.81,1.96c2.7-0.17,5.3-0.75,7.76-1.9
		c0.63-0.3,1.24-0.65,1.93-1.02c0.16,0.26,0.33,0.5,0.47,0.76c1.98,3.74,3.95,7.49,5.93,11.23c0.2,0.38,0.42,0.74,0.61,1.12
		c0.33,0.63,0.31,0.67-0.3,1.07c-2,1.3-4.11,2.41-6.37,3.18c-9.04,3.1-18.02,3.06-26.83-0.77c-5.41-2.35-9.66-6.11-12.26-11.46
		C0.98,48.1,1.73,41.23,6.49,34.85c3.74-5.02,8.78-8.28,14.61-10.39c4.65-1.68,9.47-2.38,14.4-2.06c5.01,0.32,9.77,1.63,14.15,4.14
		C49.87,26.67,50.07,26.81,50.37,27z"/>
</g>
</svg>
