<?xml version="1.0" encoding="utf-8"?>
<!-- Generator: Adobe Illustrator 25.4.1, SVG Export Plug-In . SVG Version: 6.00 Build 0)  -->
<svg className="svg-fill" version="1.1" id="Layer_1" xmlns="http://www.w3.org/2000/svg" xmlns:xlink="http://www.w3.org/1999/xlink" x="0px" y="0px"
	 viewBox="0 0 51.43 103.19" style="enable-background:new 0 0 51.43 103.19;" xml:space="preserve">
<path d="M2.48,51.39c-0.08-7.58-0.16-15.5-0.27-23.42c-0.04-3.31,0.33-6.54,1.48-9.66C7.24,8.64,17.35,2.27,27.51,3.31
	c10.76,1.1,19.38,9.13,20.91,19.54c0.25,1.69,0.38,3.42,0.38,5.13c0,14.68-0.05,29.35-0.06,44.03c0,1.8,0.2,3.6,0.19,5.39
	c-0.07,16.38-16.84,27.57-32.01,21.37C8.2,95.2,2.5,86.72,2.49,77.28C2.48,73,2.48,68.72,2.48,64.44
	C2.48,60.21,2.48,55.97,2.48,51.39z M38.02,50.13c-0.01,0-0.01,0-0.02,0c0-2.2,0.1-4.4-0.02-6.6c-0.18-3.15-2.51-5.23-5.14-5.71
	c-4.24-0.78-7.82,2.26-7.88,6.57c-0.05,3.72-0.04,7.44-0.01,11.16c0.01,0.79,0.05,1.63,0.32,2.36c1.24,3.38,3.96,4.91,7.18,4.54
	c3.13-0.36,5.45-2.88,5.56-6.09C38.08,54.3,38.02,52.21,38.02,50.13z"/>
</svg>
