<?xml version="1.0" encoding="utf-8"?>
<!-- Generator: Adobe Illustrator 25.4.1, SVG Export Plug-In . SVG Version: 6.00 Build 0)  -->
<svg className="svg-fill" version="1.1" id="Layer_1" xmlns="http://www.w3.org/2000/svg" xmlns:xlink="http://www.w3.org/1999/xlink" x="0px" y="0px"
	 viewBox="0 0 274.4 103.19" style="enable-background:new 0 0 274.4 103.19;" xml:space="preserve">
<g>
	<path d="M2.48,51.39c-0.08-7.58-0.16-15.5-0.27-23.42c-0.04-3.31,0.33-6.54,1.48-9.66C7.24,8.64,17.35,2.27,27.51,3.31
		c10.76,1.1,19.38,9.13,20.91,19.54c0.25,1.69,0.38,3.42,0.38,5.13c0,14.68-0.05,29.35-0.06,44.03c0,1.8,0.2,3.6,0.19,5.39
		c-0.07,16.38-16.84,27.57-32.01,21.37C8.2,95.2,2.5,86.72,2.49,77.28C2.48,73,2.48,68.72,2.48,64.44
		C2.48,60.21,2.48,55.97,2.48,51.39z M38.02,50.13c-0.01,0-0.01,0-0.02,0c0-2.2,0.1-4.4-0.02-6.6c-0.18-3.15-2.51-5.23-5.14-5.71
		c-4.24-0.78-7.82,2.26-7.88,6.57c-0.05,3.72-0.04,7.44-0.01,11.16c0.01,0.79,0.05,1.63,0.32,2.36c1.24,3.38,3.96,4.91,7.18,4.54
		c3.13-0.36,5.45-2.88,5.56-6.09C38.08,54.3,38.02,52.21,38.02,50.13z"/>
	<path d="M225.2,51.27c-0.08-7.46-0.17-15.38-0.26-23.3c-0.03-2.49,0.09-4.97,0.77-7.37c2.42-8.48,7.86-14.17,16.33-16.51
		c8.44-2.33,16.02-0.26,22.37,5.79c4.48,4.27,6.8,9.62,6.99,15.83c0.1,3.03,0.06,6.07,0.06,9.11c0,11.12-0.02,22.24,0.01,33.35
		c0.01,3.04,0.18,6.07,0.19,9.11c0.02,5.4-1.63,10.29-5.08,14.41c-6.35,7.57-14.52,10.48-24.06,7.95
		c-9.43-2.5-15.12-8.94-16.96-18.55c-0.41-2.13-0.33-4.38-0.34-6.57C225.18,66.92,225.2,59.33,225.2,51.27z M236.16,49.33
		c0,0,0.01,0,0.01,0c0,2.08-0.03,4.15,0.01,6.23c0.06,3.57,2.51,6.35,6.05,6.48c4.11,0.15,8.22,0.03,12.33-0.02
		c0.46,0,0.93-0.21,1.36-0.4c2.62-1.15,3.95-3.37,4.09-6.03c0.22-4.13,0.23-8.3-0.03-12.43c-0.23-3.68-2.82-6.24-6.29-6.41
		c-3.79-0.19-7.59-0.21-11.38-0.03c-3.59,0.17-6.2,3.26-6.17,6.86C236.17,45.5,236.16,47.41,236.16,49.33z"/>
	<path d="M114.59,66.37c0-3.92-0.01-7.84,0-11.76c0.02-4.33,3.43-8.11,7.76-8.48c1.55-0.13,3.11,0,4.67,0c6,0,12,0,17.99-0.01
		c2.9,0,4.79-1.78,4.81-4.51c0.03-2.77-1.86-4.71-4.77-4.73c-6.96-0.03-13.92-0.01-20.87,0.02c-1.61,0.01-3.18-0.07-4.68-0.79
		c-3.73-1.81-5.75-5.64-5.27-9.77c0.3-2.59,0.59-5.15,1.47-7.62C118.8,10.1,127.1,3.94,136.3,3.49c9.31-0.46,18.1,4.69,22.09,12.94
		c1.47,3.03,2.35,6.21,2.38,9.58c0.04,4.04,0.02,8.07,0.06,12.11c0.03,2.84,0.01,5.68,0.2,8.51c0.37,5.36-4.34,9.73-9.7,9.61
		c-5.83-0.13-11.67-0.09-17.51-0.12c-0.96,0-1.92,0.04-2.88,0.02c-2.74-0.04-5.37,2.57-5.26,5.42c0.08,2.3,0.83,4.06,2.83,5.16
		c0.64,0.35,1.43,0.58,2.15,0.59c6.64,0.03,13.28,0.03,19.91-0.02c3.39-0.03,6.29,0.93,8.42,3.72c1.26,1.65,1.93,3.54,1.97,5.56
		c0.21,9.09-3.58,16.17-11.32,20.84c-13.47,8.13-30.81,0.73-34.47-14.53c-0.64-2.68-0.62-5.39-0.62-8.11c0-2.8,0-5.6,0-8.4
		C114.57,66.37,114.58,66.37,114.59,66.37z"/>
	<path d="M188.58,36.9c-3.4,0-6.8-0.14-10.19,0.03c-5.27,0.27-10.26-4.5-9.41-10.75c0.32-2.38,0.54-4.76,1.31-7.05
		c3.38-9.96,13.5-16.58,23.88-15.61c10.83,1.02,19.54,9.12,21.07,19.65c0.25,1.69,0.36,3.42,0.37,5.14
		c0.02,4.84-0.05,9.68-0.05,14.51c0,1.4,0.08,2.8,0.18,4.19c0.31,4.38-3.5,8.69-8.27,9.12c-0.99,0.09-1.99-0.01-2.99-0.01
		c-6.2,0-12.4,0-18.59,0c-2.16,0-3.86,0.92-4.82,2.81c-1.93,3.78,0.43,8.46,4.73,8.4c6.6-0.08,13.2-0.04,19.79-0.06
		c3.36-0.01,6.18,1.06,8.24,3.84c1.19,1.6,1.82,3.42,1.87,5.35c0.23,9.35-3.71,16.54-11.77,21.18
		c-13.43,7.74-30.44,0.24-34.03-14.82c-0.63-2.64-0.62-5.31-0.61-7.99c0.01-6.72,0.12-13.44-0.01-20.15
		c-0.08-3.77,3.36-8.28,7.84-8.57c1.47-0.09,2.95,0.01,4.43,0.01c6.08,0,12.16,0,18.23-0.02c2.9-0.01,4.76-1.8,4.78-4.54
		c0.02-2.71-1.86-4.65-4.69-4.69c-3.76-0.05-7.52-0.01-11.28-0.01C188.58,36.88,188.58,36.89,188.58,36.9z"/>
	<path d="M58.86,58.48c-0.07-9.38-0.15-20.06-0.25-30.73c-0.03-3.18,0.28-6.3,1.36-9.32C63.64,8.13,73.88,1.85,84.85,3.18
		C95.43,4.46,103.97,13.21,105,23.9c0.19,2.02,0.13,4.07,0.14,6.11c0.1,15.51,0.21,31.03,0.27,46.54
		c0.02,6.16-0.04,12.32-0.11,18.47c-0.03,2.96-2.55,5.46-5.43,5.51c-3,0.05-5.45-2.2-5.67-5.23c-0.05-0.68-0.04-1.36-0.04-2.04
		c0-7.44,0.03-14.88-0.04-22.31c-0.01-1.34-0.25-2.71-0.63-3.99c-0.92-3.08-3.1-4.64-6.3-4.69c-3.24-0.05-6.48-0.11-9.71-0.13
		c-1.53-0.01-3.03,0.19-4.35,1.09c-2.12,1.45-3.14,3.43-3.02,6.01c0.05,1.03-0.05,2.07-0.05,3.11c0,7.12,0.01,14.24-0.01,21.36
		c0,0.99-0.07,2.02-0.37,2.95c-0.86,2.68-3.46,4.25-6.05,3.81c-2.8-0.47-4.73-2.74-4.74-5.65c-0.03-5.96-0.02-11.92-0.03-17.88
		C58.86,71.22,58.86,65.5,58.86,58.48z M82.2,50.81c0-0.01,0-0.02,0-0.02c1.76,0,3.52,0.02,5.27,0c4.54-0.05,7.58-4.38,6.17-8.7
		c-0.77-2.38-3.31-4.53-6.82-4.47c-3.2,0.05-6.39-0.03-9.59,0.02c-0.86,0.01-1.76,0.17-2.56,0.47c-2.78,1.01-4.69,4-4.35,6.63
		c0.49,3.73,3.32,6.15,7.08,6.08C79,50.79,80.6,50.81,82.2,50.81z"/>
</g>
</svg>
