<?xml version="1.0" encoding="utf-8"?>
<!-- Generator: Adobe Illustrator 25.4.1, SVG Export Plug-In . SVG Version: 6.00 Build 0)  -->
<svg version="1.1" id="Layer_1" xmlns="http://www.w3.org/2000/svg" xmlns:xlink="http://www.w3.org/1999/xlink" x="0px" y="0px"
	 viewBox="0 0 270.08 275.39" style="enable-background:new 0 0 270.08 275.39;" xml:space="preserve">
<style type="text/css">
	.st0{stroke:#000000;stroke-width:3;stroke-linejoin:round;stroke-miterlimit:10;}
</style>
<g>
	<path d="M171.62,170.99c0.22,0.96,0.39,1.69,0.58,2.52c0.6-0.03,1.19-0.06,1.78-0.08c1.92-0.06,3.27,1.01,4.3,2.42
		c0.88,1.21,0.49,2.5-0.24,3.71c-1.96,3.26-3.89,6.52-5.83,9.79c-3.73,6.25-7.45,12.5-11.18,18.74c-1.71,2.87-4.22,3.18-6.59,0.77
		c-6.81-6.94-13.59-13.9-20.38-20.86c-0.31-0.31-0.59-0.65-1.01-1.12c-0.79,1.53-1.51,2.89-2.21,4.26
		c-4.21,8.26-8.42,16.52-12.63,24.78c-0.33,0.64-0.68,1.27-1.02,1.9c-0.92,1.73-2.76,2.31-4.49,1.35c-0.87-0.48-1.67-1.1-2.48-1.68
		c-12.54-8.86-25.07-17.73-37.62-26.59c-0.48-0.34-1.02-0.66-1.58-0.82c-1.58-0.45-2.43-1.49-2.98-3
		c-2.35-6.51-4.08-13.18-5.74-19.89c-1.38-5.61-3.35-11.08-5.06-16.61c-0.05-0.15-0.14-0.28-0.3-0.58c-0.91,1.84-1.89,3.51-2.59,5.3
		c-1.44,3.72-3.49,7.09-5.54,10.47c-1.14,1.88-2.29,3.76-3.49,5.6c-3.3,5.04-7.77,8.54-13.61,10.19c-2.5,0.7-5.03,0.74-7.6,0.45
		c-3.13-0.35-6.07-1.39-9.04-2.29c-2.51-0.76-4.41-2.41-5.85-4.56c-1.25-1.85-2.5-3.71-3.17-5.89c-0.14-0.45-0.38-0.88-0.62-1.3
		c-1.82-3.09-2.33-6.42-1.83-9.94c0.19-1.34,0.19-2.72,0.48-4.05c0.42-1.95,0.84-3.92,1.56-5.77c2.51-6.46,5.71-12.58,9.42-18.44
		c1.15-1.82,2.12-3.76,3.27-5.58c2.48-3.96,4.97-7.92,7.55-11.82c4.33-6.53,8.73-13.02,13.13-19.5c0.94-1.39,1.97-2.72,3-4.04
		c0.49-0.63,0.66-1.3,0.7-2.09c0.18-3.83,0.29-7.67,0.7-11.48c0.35-3.27,1.42-6.39,3.01-9.3c0.9-1.65,1.74-3.33,2.64-4.97
		c1.45-2.66,3.53-4.83,5.5-7.1c0.7-0.81,1.41-1.62,2.11-2.42c-1.13-1.38-2.18-2.69-3.26-3.97c-4.44-5.23-6.86-11.37-7.53-18.1
		c-0.89-8.9,3.26-17.26,10.65-21.59c1.93-1.13,3.88-2.26,5.94-3.11c1.64-0.68,3.43-1.01,5.19-1.35c3.32-0.64,6.6-0.52,9.76,0.86
		c2.31,1.01,4.32,2.47,6,4.31c2.18,2.39,4.36,4.81,6.31,7.39c2.39,3.17,4.22,6.69,5.57,10.44c0.36,1.01,0.83,1.98,1.22,2.88
		c2.63-0.29,5.12-0.6,7.61-0.82c2.81-0.25,5.58,0.1,8.33,0.68c2.77,0.58,5.57,1.11,8.37,1.5c3.77,0.52,7.29,1.69,10.65,3.46
		c3.48,1.83,6.79,3.92,9.9,6.31c3.57,2.74,5.97,6.36,7.89,10.4c2.41,5.09,3.47,10.47,3.74,16c0.18,3.64-0.56,7.24-1.38,10.79
		c-0.71,3.07-1.41,6.15-2.16,9.21c-0.14,0.57-0.05,0.88,0.44,1.18c4.17,2.51,11.18,0.79,12.37-4.79c0.11-0.5,0.12-1.03,0.15-1.54
		c0.13-1.89,1.49-3.26,3.21-3.22c1.73,0.03,3.04,1.43,3.11,3.32c0.2,5.13-3.16,10.21-8.15,12.37c-3.72,1.61-7.48,1.86-11.33,0.54
		c-0.26-0.09-0.53-0.17-0.94-0.3c-0.02,1.4,0.42,2.58,0.9,3.73c0.96,2.33,2.83,3.67,5.08,4.62c3.58,1.51,7.32,1.85,11.15,1.83
		c5.43-0.03,10.61-1.24,15.68-3.05c3.01-1.08,6.05-2.05,9.04-3.18c1.83-0.69,3.59-1.55,5.37-2.36c2.11-0.96,4.22-1.92,6.3-2.93
		c1.47-0.72,2.89-1.53,4.33-2.3c0.43-0.23,0.63-0.51,0.55-1.05c-0.67-4.85,0-9.65,0.67-14.44c0.38-2.69,0.73-5.4,1.81-7.92
		c2.26-5.27,5.62-9.75,10.07-13.38c1-0.82,2.23-1.43,3.44-1.91c4.68-1.86,9.5-2.66,14.56-2.02c2.15,0.27,4.29,0.45,6.29,1.34
		c4.32,1.95,7.5,4.97,9.43,9.4c1.41,3.23,1.73,6.62,2.13,10.02c0.56,4.75-0.28,9.4-1.08,14.05c-0.65,3.79-1.73,7.46-3.25,11.05
		c0.23,0.2,0.42,0.39,0.63,0.56c3.48,2.76,6.43,5.99,8.65,9.85c0.86,1.49,1.72,2.98,2.57,4.47c1.45,2.55,2.13,5.3,2.35,8.22
		c0.27,3.52,0.37,7.04-0.27,10.52c-0.95,5.16-3.15,9.77-6.36,13.93c-3.44,4.46-7.94,7.74-12.27,11.23
		c-4.71,3.79-9.93,6.67-15.49,9.01c-4.71,1.98-9.31,4.26-14.28,5.58c-4.52,1.19-9.03,2.45-13.69,2.96
		c-2.62,0.28-5.26,0.35-7.89,0.59c-4.84,0.46-9.66-0.22-14.49-0.34c-2.41-0.06-4.8-0.78-7.19-1.2
		C172.67,171.17,172.25,171.1,171.62,170.99z M248.01,101.79c-0.17,0.14-0.28,0.2-0.34,0.29c-1.43,2.29-3.46,3.92-5.67,5.43
		c-3.48,2.37-7.27,3.63-11.48,3.55c-4.27-0.08-8.36-0.87-12.35-2.52c-3.53-1.46-6.11-3.71-7.82-7.04c-0.74-1.45-1.4-2.94-2.07-4.36
		c-1.72,0.75-3.36,1.45-4.99,2.19c-1.53,0.69-3.02,1.45-4.55,2.14c-2.36,1.06-4.71,2.17-7.12,3.11c-2.56,1-5.19,1.83-7.79,2.74
		c-6.07,2.11-12.22,3.66-18.73,3.59c-4.69-0.05-9.25-0.55-13.57-2.47c-2.17-0.97-4.31-2.09-5.78-3.98
		c-3.59-4.62-4.77-9.87-3.43-15.6c1.03-4.43,2.21-8.83,3.22-13.27c0.79-3.43,1.37-6.92,0.99-10.46c-0.51-4.72-1.62-9.26-3.94-13.48
		c-1.35-2.47-2.95-4.67-5.23-6.31c-2.14-1.53-4.32-3.03-6.58-4.4c-3.47-2.11-7.14-3.71-11.28-4.08c-2.02-0.18-4.05-0.53-6.01-1.05
		c-5.39-1.43-10.77-1.36-16.12-0.02c-3.25,0.82-6.43,1.9-9.66,2.81c-7.26,2.03-13.56,5.75-19.25,10.64
		c-3.55,3.06-6.89,6.3-9.99,9.82c-3.74,4.25-6.38,9.07-8.16,14.39c-0.59,1.76-0.93,3.6-0.87,5.71c0.39-0.34,0.62-0.53,0.84-0.74
		c1.01-0.97,1.99-1.97,3.01-2.92c3.47-3.21,7.29-5.64,12.18-6.15c5.2-0.55,9.13,1.73,11.9,5.91c2.51,3.81,3.16,8.28,2.17,12.8
		c-0.83,3.82-1.75,7.63-2.89,11.37c-1,3.32-2.35,6.54-3.55,9.8c-2.93,7.99-6.76,15.61-9.4,23.71c-0.64,1.97-1.22,3.98-2.06,5.87
		c-0.89,1.98-0.5,3.75,0.2,5.64c2.53,6.9,4.86,13.87,6.64,21.01c0.65,2.61,1.47,5.12,2.63,7.51c2.08,4.29,5.45,7.24,9.87,8.98
		c0.98,0.39,2.09,0.79,3.1,0.72c3.82-0.27,7.64-0.72,11.45-1.13c8.86-0.94,17.72-1.9,26.58-2.83c5.44-0.57,10.89-1.09,16.34-1.64
		c7-0.71,13.99-1.44,20.99-2.17c1.78-0.19,4.17-2.5,4.41-4.24c0.17-1.23,0.05-1.44-1.14-1.8c-3.74-1.14-7.6-2-11.21-3.47
		c-6.83-2.79-13.51-5.95-20.27-8.93c-3.21-1.41-6.13-3.27-8.89-5.4c-1.87-1.44-3.79-2.81-5.97-3.75c-2.5-1.07-4.68-2.6-6.5-4.61
		c-0.53-0.59-0.99-0.44-1.59-0.17c-4.14,1.87-8.46,2.61-12.98,1.93c-4.89-0.74-9.18-2.7-12.59-6.36c-0.48-0.52-0.91-1.13-1.2-1.77
		c-0.56-1.27-0.13-2.72,0.92-3.57c1.08-0.86,2.52-0.95,3.69-0.16c0.42,0.29,0.76,0.71,1.16,1.04c1.04,0.86,2,1.89,3.17,2.54
		c5.12,2.85,10.46,2.92,15.63,0.33c5.06-2.53,7.95-6.56,7.27-12.57c-0.19-1.7,1.03-3.14,2.7-3.43c1.5-0.26,2.99,0.72,3.48,2.3
		c0.09,0.3,0.18,0.62,0.21,0.94c0.31,3.12,0.03,6.19-1.44,9c-1.03,1.97-2.34,3.78-3.57,5.73c1,1.19,2.15,2.1,3.71,2.79
		c2.58,1.13,4.95,2.59,7.17,4.31c2.57,1.98,5.25,3.78,8.24,5.1c2.81,1.24,5.53,2.69,8.35,3.9c4.47,1.92,8.82,4.17,13.51,5.55
		c1.95,0.58,3.94,1.06,5.86,1.73c5.38,1.88,10.98,2.82,16.54,3.92c1.9,0.37,3.89,0.3,5.85,0.38c3.07,0.13,6.15,0.3,9.22,0.3
		c1.95,0,3.9-0.35,5.86-0.4c5.82-0.14,11.4-1.64,16.87-3.36c4.59-1.45,8.99-3.53,13.43-5.43c2.13-0.91,4.21-1.94,6.23-3.07
		c4.21-2.35,7.81-5.55,11.59-8.5c2.67-2.09,5.02-4.48,6.99-7.21c2.2-3.04,3.79-6.44,4.3-10.17c0.34-2.48,0.19-5.02,0.25-7.53
		c0.07-2.87-0.69-5.49-2.16-7.98c-2.04-3.45-3.98-6.95-7.02-9.65C249.02,102.68,248.52,102.24,248.01,101.79z M113.17,211.77
		c0.92-1.79,1.75-3.42,2.59-5.05c2.94-5.76,5.87-11.52,8.8-17.29c0.57-1.12,0.3-3.05-0.59-3.9c-0.26-0.25-0.76-0.38-1.15-0.36
		c-1.19,0.05-2.38,0.2-3.58,0.32c-4.21,0.42-8.42,0.85-12.63,1.28c-4.41,0.45-8.81,0.91-13.22,1.38c-1.91,0.2-3.81,0.38-5.71,0.64
		c-0.43,0.06-0.93,0.32-1.19,0.65c-0.79,0.98-0.74,2.3,0.08,3.28c0.35,0.42,0.77,0.81,1.22,1.13c5.9,4.19,11.8,8.36,17.71,12.53
		C108.02,208.14,110.53,209.91,113.17,211.77z M156.95,202.27c0.17-0.16,0.24-0.2,0.28-0.27c3.28-5.49,6.61-10.95,9.8-16.49
		c0.59-1.02,0.75-2.35,0.9-3.56c0.14-1.08-0.21-1.33-1.34-1.3c-0.68,0.02-1.36,0.08-2.03,0.15c-4.29,0.44-8.58,0.89-12.87,1.34
		c-2.82,0.3-5.65,0.56-8.46,0.92c-1.75,0.22-2.41,1.49-1.66,3.08c0.25,0.53,0.6,1.04,1,1.46c4.54,4.68,9.1,9.34,13.65,14.01
		C156.45,201.82,156.69,202.02,156.95,202.27z"/>
	<path d="M107.36,104.15c-5.14-0.15-9.41-1.56-12.6-5.32c-0.96-1.14-1.74-2.5-2.33-3.87c-0.71-1.63,0.07-3.33,1.58-4.02
		c1.53-0.7,3.44-0.23,4.06,1.44c1.71,4.59,7.5,6.29,12.7,4.78c3.27-0.95,5.9-2.85,7.59-5.85c0.55-0.98,0.77-2.16,1.12-3.25
		c0.07-0.22,0.05-0.48,0.1-0.71c0.4-1.97,1.9-3.13,3.65-2.83c1.78,0.3,2.86,1.85,2.65,3.81c-0.39,3.67-1.91,6.84-4.42,9.49
		C117.54,101.97,112.64,103.9,107.36,104.15z"/>
	<path d="M216.09,142.74c-1.43,0-2.59-0.83-3.05-2.1c-0.45-1.24-0.08-2.63,0.98-3.45c0.37-0.29,0.81-0.52,1.25-0.69
		c2.09-0.8,4.18-1.59,6.29-2.33c1.83-0.64,3.54,0.08,4.21,1.68c0.7,1.66-0.02,3.45-1.89,4.21c-2.37,0.95-4.8,1.74-7.21,2.58
		C216.45,142.73,216.2,142.73,216.09,142.74z"/>
	<path d="M184,145.81c-1.9-0.05-3.28-1.14-3.52-2.85c-0.22-1.59,0.87-2.99,2.6-3.51c1.76-0.52,3.48-1.15,5.22-1.72
		c0.49-0.16,0.98-0.34,1.49-0.46c1.59-0.37,3.12,0.44,3.69,1.92c0.57,1.49-0.01,3.08-1.46,3.89c-0.41,0.23-0.87,0.4-1.32,0.57
		c-1.42,0.53-2.84,1.06-4.28,1.54C185.63,145.45,184.81,145.61,184,145.81z"/>
	<path d="M202.45,125.58c-1.62-0.07-2.89-1.08-3.22-2.61c-0.29-1.35,0.42-2.92,1.81-3.43c2.09-0.77,4.25-1.37,6.39-2.01
		c0.37-0.11,0.79-0.09,1.19-0.09c1.58,0.01,2.79,0.93,3.17,2.42c0.36,1.41-0.35,2.88-1.75,3.58c-0.32,0.16-0.67,0.27-1.01,0.37
		c-1.53,0.44-3.07,0.88-4.6,1.3C203.77,125.28,203.11,125.42,202.45,125.58z"/>
</g>
<g>
	<path class="st0" d="M28.69,225.96h16.55c16.35,0,21.69,7.25,21.69,21.75c0,14.37-4.22,22.28-21.29,22.28H28.69V225.96z
		 M45.96,259.98c2.31,0,4.94,0,6.92-1.85c1.52-1.38,2.31-4.09,2.31-7.98v-4.55c0-3.36-0.4-6.06-1.85-7.58
		c-1.52-1.52-3.76-2.04-7.32-2.04h-5.67v24H45.96z"/>
	<path class="st0" d="M95.53,225.23c11.8,0,20.83,6.79,20.83,22.88c0,14.7-7.51,22.61-20.83,22.61s-20.77-8.11-20.77-22.61
		C74.76,232.02,83.79,225.23,95.53,225.23z M95.53,260.24c6.26,0,8.9-3.82,8.9-9.82v-4.94c0-6-2.64-9.76-8.9-9.76
		s-8.9,3.76-8.9,9.76v4.94C86.63,256.48,89.33,260.24,95.53,260.24z"/>
	<path class="st0" d="M146.28,225.37c4.81,0,8.83,0.66,11.01,1.19v9.82l-0.26,0.33c-2.5-0.4-5.41-0.86-8.77-0.86
		c-3.96,0-7.05,0.66-8.77,1.98c-1.98,1.45-2.97,5.21-2.97,9.1v2.24c0,4.22,1.05,7.84,3.16,9.3c1.78,1.25,5.14,1.65,8.17,1.65
		c3.16,0,7.51-0.66,9.89-1.25l0.33,0.33v9.76c-2.5,0.73-6.53,1.65-12.99,1.65c-15.1,0-20.96-7.38-20.96-23.07
		C124.13,232.16,131.45,225.37,146.28,225.37z"/>
	<path class="st0" d="M198.75,260.17V270h-31.84v-44.04h31.18v9.82h-19.51v7.71h17.86v8.37h-17.86v8.31H198.75z"/>
	<path class="st0" d="M243.64,236.64h-12.39V270h-11.93v-33.36h-12.46v-10.68h36.78V236.64z"/>
</g>
</svg>
