<?xml version="1.0" encoding="utf-8"?>
<!-- Generator: Adobe Illustrator 25.4.1, SVG Export Plug-In . SVG Version: 6.00 Build 0)  -->
<svg version="1.1" id="Layer_1" xmlns="http://www.w3.org/2000/svg" xmlns:xlink="http://www.w3.org/1999/xlink" x="0px" y="0px"
	 viewBox="0 0 238.23 319.19" style="enable-background:new 0 0 238.23 319.19;" xml:space="preserve">
<style type="text/css">
	.st0{stroke:#000000;stroke-width:3;stroke-linejoin:round;stroke-miterlimit:10;}
</style>
<g>
	<path d="M106.47,232.16c0.8,0.23,1.3,0.38,1.8,0.53c4.18,1.24,7.59,3.55,9.77,7.38c2.89,5.06,3.18,10.33,0.65,15.59
		c-0.69,1.43-1.91,2.62-3.01,3.81c-0.72,0.77-1.76,0.99-2.84,0.97c-4.15-0.05-8.3-0.11-12.46-0.1c-2.52,0.01-5.03,0.15-7.55,0.2
		c-2.7,0.05-5.39,0.06-8.09,0.1c-0.92,0.02-1.84,0.1-2.76,0.15c-0.83,0.05-1.52-0.22-2.11-0.8c-1.41-1.4-2.82-2.79-4.25-4.17
		c-3.48-3.39-7.04-6.7-10.44-10.17c-4.54-4.63-8.96-9.39-13.44-14.09c-0.54-0.57-1.07-1.13-1.6-1.71c-1.8-1.96-2.03-3.84-0.86-6.25
		c1.3-2.66,3.26-4.7,5.71-6.32c0.91-0.6,1.83-1.19,2.86-1.86c-0.06-0.32-0.15-0.72-0.23-1.13c-0.44-2.19-0.2-4.24,1.34-5.98
		c0.32-0.36,0.71-0.7,1.12-0.96c3.5-2.24,7.01-4.45,10.51-6.68c0.2-0.13,0.38-0.3,0.7-0.55c-0.51-0.11-0.87-0.2-1.24-0.28
		c-3.64-0.73-6.76-2.55-9.63-4.8c-4.53-3.55-7.73-8.1-9.51-13.57c-1.3-4-1.48-8.15-1.11-12.32c0.65-7.37,3.02-14.26,5.98-20.97
		c1.29-2.92,2.65-5.81,3.98-8.71c0.15-0.32,0.29-0.64,0.49-1.09c-0.37-0.18-0.69-0.36-1.03-0.51c-2.61-1.1-5.23-2.21-7.85-3.29
		c-1.01-0.41-2.02-0.9-3.08-1.1c-7.11-1.33-13.8,3.02-15.48,10.08c-0.35,1.46-0.36,3.01-0.47,4.53c-0.12,1.8-1.32,2.74-3.02,2.21
		c-0.59-0.18-1.17-0.53-1.63-0.94c-0.55-0.49-1.03-1.09-1.41-1.72c-1.9-3.08-2.77-6.39-2.43-10.04c0.26-2.81,0.72-5.55,1.7-8.2
		c1.22-3.26,3.06-6.07,5.99-8.07c0.12-0.08,0.23-0.17,0.33-0.26c0.05-0.04,0.08-0.11,0.17-0.26c-1.26-1.28-2.13-2.85-2.83-4.52
		c-1.66-3.97-1.33-7.91,0.27-11.79c0.37-0.89,1.08-1.65,1.69-2.43c0.35-0.45,0.55-0.86,0.45-1.45c-0.5-2.73,0.39-5.19,1.55-7.58
		c0.25-0.51,0.77-0.89,1.21-1.29c0.33-0.31,0.74-0.54,1.09-0.84c1.3-1.07,2.73-1.6,4.44-1.23c4.99,1.11,9.74,2.74,13.96,5.76
		c3.1,2.21,3.83,5.28,3.28,8.73c-0.36,2.26-1.08,4.46-2.78,6.21c-1.23,1.27-0.88,4.18,0.58,5.57c1.05,1,2.26,1.76,3.67,2.26
		c2.23,0.79,4.39,1.8,6.58,2.72c0.62,0.26,1.24,0.52,1.84,0.78c0.13-0.1,0.25-0.14,0.29-0.22c1.02-2.3,2.01-4.61,3.05-6.91
		c0.38-0.84,0.79-1.67,1.29-2.44c0.35-0.54,0.37-0.9-0.04-1.41c-0.42-0.51-0.77-1.1-1.05-1.71c-2.37-5.12-4.97-10.12-8.05-14.86
		c-0.87-1.34-1.63-2.74-2.47-4.1c-1.55-2.5-3.16-4.97-4.66-7.5c-3.11-5.25-6.03-10.6-8.45-16.21c-0.15-0.35-0.32-0.7-0.52-1.13
		c-0.29,0.22-0.52,0.36-0.73,0.54c-2.92,2.53-5.9,5-8.75,7.61c-3.01,2.75-5.87,5.66-8.86,8.43c-2.45,2.27-5.15,4.22-8.13,5.78
		c-7.52,3.92-15.64-0.69-17.23-8.56c-0.25-1.24-0.02-2.46,0.3-3.68c0.66-2.51,2.14-4.51,3.75-6.48c2.19-2.67,4.8-4.77,7.82-6.45
		c6.94-3.87,13.79-7.89,20.71-11.8c1.97-1.11,4.05-2.06,6.1-3.01c0.65-0.3,0.89-0.65,0.87-1.36c-0.14-4.12,0.52-8.14,1.91-12.01
		c0.6-1.66,1.44-3.24,2.21-4.94c-0.13-0.12-0.35-0.29-0.54-0.49c-1.34-1.31-2.83-2.51-3.98-3.97c-4.07-5.2-4.24-11.83,0.65-17.08
		c3.26-3.5,7.76-4.64,12.25-2.77c3.42,1.42,6.06,3.78,8.38,6.55c0.86,1.03,1.6,2.17,2.34,3.29c0.3,0.45,0.56,0.61,1.12,0.49
		c3.49-0.74,7.04-0.93,10.58-0.73c4.74,0.26,9.21,1.52,13.38,3.83c3.11,1.72,4.98,4.36,5.86,7.74c0.37,1.44,0.62,2.91,0.87,4.38
		c0.4,2.33-0.26,4.58-0.54,6.86c-0.11,0.83-0.24,1.67-0.37,2.58c0.78,0.19,1.46,0.43,2.15,0.52c1.61,0.22,3.13-0.55,3.87-2.06
		c0.4-0.81,0.58-1.73,0.79-2.63c0.36-1.57,1.54-2.37,2.85-1.87c0.84,0.32,1.42,1.11,1.36,2.08c-0.2,3.44-2.1,7.56-6.71,8.54
		c-0.96,0.2-1.97,0.15-3.12,0.22c0.84,0.94,1.77,1.56,2.9,1.91c1.83,0.57,3.7,0.49,5.59,0.39c3.34-0.17,6.48-1.14,9.61-2.19
		c2.51-0.84,4.77-2.16,6.97-3.61c2.43-1.6,4.91-3.12,7.35-4.69c1.13-0.73,2.23-1.51,3.45-2.34c-0.24-0.88-0.43-1.78-0.73-2.63
		c-1.61-4.59-2.03-9.3-0.99-14.04c0.9-4.08,3.13-7.26,7.16-8.91c1.92-0.78,3.9-0.57,5.87-0.26c0.8,0.13,1.61,0.28,2.39,0.49
		c4.67,1.26,7.97,4.14,9.66,8.65c1.34,3.59,1.93,7.34,1.42,11.19c-0.08,0.64,0.2,0.84,0.72,1.07c1.76,0.76,3.55,1.46,5.2,2.41
		c4.63,2.67,7.06,6.73,7.24,12.1c0.04,1.35-0.05,2.7,0.02,4.04c0.12,2.46-0.57,4.72-1.69,6.84c-1.27,2.38-2.71,4.66-4,7.02
		c-2.65,4.84-6.48,8.55-10.93,11.72c-3.16,2.25-6.5,4.18-9.89,6.05c-2.39,1.31-5.03,1.92-7.56,2.81c-4.06,1.43-8.28,1.9-12.53,2.16
		c-1.24,0.08-2.47,0.14-3.87,0.22c0.76,1.37,1.46,2.66,2.19,3.97c0.14,0.01,0.28,0.05,0.41,0.03c1.35-0.2,2.36,0.34,3.06,1.46
		c1.11,1.77,2.16,3.59,3.3,5.34c5.53,8.49,10.23,17.43,14.68,26.52c0.19,0.38,0.39,0.75,0.65,1.26c3.09-5.27,6.13-10.43,9.22-15.7
		c-1.8-2.13-2.01-4.61-1.04-7.22c0.96-2.57,2.55-4.44,5.62-4.43c0-0.38,0.03-0.65,0-0.92c-0.59-4.65-0.93-9.32-0.53-14.01
		c0.22-2.61,0.87-5.07,3.08-6.76c1.79-1.37,3.69-2.6,6.08-2.44c2.6,0.17,4.57,1.38,5.7,3.81c0.98,2.1,1.27,4.34,1.44,6.61
		c0.08,1.09,0.2,2.17,0.32,3.51c1.96-1.63,4.05-2.28,6.42-2.02c2.47,0.27,4.14,1.67,5.23,3.6c1.28-0.84,2.41-1.78,3.7-2.39
		c2.75-1.29,6.63-0.87,8.84,2.44c1.2,1.78,1.89,3.69,1.93,5.87c0.09,4.98-0.68,9.82-2.09,14.58c-0.46,1.56-1.26,2.83-2.65,3.73
		c-0.25,0.16-0.5,0.41-0.62,0.68c-1.06,2.35-1.94,4.8-3.16,7.07c-3.31,6.15-6.68,12.27-10.17,18.32c-2.8,4.85-5.78,9.6-8.72,14.37
		c-1.92,3.11-3.89,6.19-5.87,9.25c-0.27,0.42-0.16,0.72,0.01,1.07c1.07,2.2,2.14,4.4,3.2,6.6c0.77,1.6,1.58,3.18,2.26,4.81
		c0.7,1.69,0.17,2.89-1.59,3.38c-1.94,0.54-3.95,0.85-5.92,1.26c-1.21,0.25-2.41,0.49-3.69,0.75
		c10.16,15.52,21.47,30.07,32.12,45.27c0.3-0.43,0.55-0.79,0.81-1.15c1.33-1.8,2.51-3.72,4.01-5.36c3.52-3.83,7.82-6.4,13.01-7.35
		c0.24-0.04,0.49-0.09,0.74-0.1c3.3-0.09,6.6,0.07,9.86,0.62c2.31,0.39,4.3,1.47,5.92,3.14c2.95,3.04,4.62,6.68,4.89,10.93
		c0.19,3.01,0.24,6.02-0.15,9.03c-0.53,4.03-2.55,7.19-5.54,9.89c-3.2,2.89-6.8,5.23-10.24,7.8c-1.17,0.87-2.28,1.81-3.45,2.67
		c-1.31,0.97-2.59,2-3.99,2.83c-1.53,0.91-3.27,1.44-5.05,1.51c-5.17,0.19-10.35,0.27-15.53,0.39c-3.65,0.09-7.31,0.15-10.96,0.28
		c-4.25,0.15-8.5,0.39-12.76,0.55c-2.27,0.08-4.54,0.06-6.81,0.1c-0.82,0.01-1.63,0.07-2.44,0.1c-2.9,0.1-5.26-1.1-7.14-3.19
		c-3.26-3.62-5.17-7.84-5.32-12.78c0-0.14-0.04-0.27-0.07-0.48c-0.2,0.07-0.36,0.12-0.52,0.17c-1.23,0.4-2,0.15-2.77-0.92
		c-1.2-1.67-2.33-3.39-3.61-4.99c-3.04-3.79-6.18-7.5-9.23-11.29c-1.75-2.18-3.39-4.46-5.09-6.69c-0.17-0.22-0.36-0.42-0.64-0.74
		C117.91,225,112.23,228.45,106.47,232.16z M86.8,75.65c-0.1,0.07-0.32,0.23-0.54,0.41c-2.35,1.92-5.12,2.86-8.04,3.39
		c-0.61,0.11-1.27,0.06-1.9-0.02c-1.26-0.16-2.04-0.98-2.04-2.06c0-1.12,0.87-2.09,2.14-2.06c1.73,0.03,3.29-0.51,4.82-1.15
		c2.42-1.01,4.31-2.72,5.22-5.18c0.95-2.57,1.44-5.27,0.96-8.05c-0.05-0.31-0.04-0.64,0.01-0.95c0.13-0.96,0.82-1.65,1.72-1.78
		c0.98-0.14,1.85,0.33,2.21,1.28c0.19,0.49,0.33,1.02,0.37,1.55c0.27,3.49-0.25,6.86-1.52,10.12c-0.45,1.15-0.45,1.3,0.55,1.99
		c0.23,0.16,0.48,0.3,0.73,0.43c3.24,1.78,6.62,3.23,10.1,4.49c3.93,1.42,7.99,2.2,12.11,2.73c3.76,0.48,7.52,0.09,11.27-0.05
		c2.12-0.07,4.26-0.3,6.33-0.75c2.73-0.6,5.4-1.46,8.08-2.27c1.08-0.33,2.15-0.75,3.15-1.26c3.93-1.99,7.71-4.25,11.18-6.96
		c1.67-1.3,3.32-2.7,4.71-4.28c3.26-3.7,5.55-8.05,7.77-12.41c0.58-1.14,0.85-2.49,1-3.77c0.17-1.51,0.09-3.05,0.04-4.57
		c-0.1-3.11-1.34-5.72-3.79-7.66c-1.71-1.35-3.71-2.2-5.77-2.91c-0.05-0.02-0.13,0.05-0.23,0.09c-0.13,0.4-0.29,0.83-0.41,1.28
		c-0.77,2.81-2.52,4.73-5.23,5.74c-1.89,0.7-3.8,1.38-5.75,1.91c-2.73,0.74-5.26,0.28-7.48-1.6c-1.13-0.96-2.34-1.81-3.57-2.75
		c-0.16,0.07-0.4,0.15-0.61,0.28c-2.85,1.8-5.76,3.51-8.53,5.42c-3.63,2.5-7.51,4.38-11.74,5.63c-3.22,0.96-6.5,1.49-9.84,1.56
		c-2.72,0.06-5.39-0.38-7.71-1.98c-3.53-2.43-5.23-5.69-4.45-10.04c0.18-1.01,0.3-2.04,0.53-3.04c0.73-3.15,0.61-6.26-0.34-9.34
		c-0.65-2.12-1.8-3.82-3.79-4.92c-2.35-1.31-4.85-2.21-7.46-2.74c-4.11-0.83-8.25-0.75-12.38-0.08c-1.5,0.24-3.03,0.54-4.42,1.12
		c-4.5,1.88-8.52,4.54-11.8,8.17c-1.15,1.28-2.13,2.74-3.01,4.23c-1.7,2.89-2.36,6.14-2.8,9.42c-0.16,1.17-0.17,2.37-0.25,3.51
		c0.26,0.07,0.33,0.11,0.39,0.1c0.32-0.03,0.63-0.07,0.95-0.1c2.72-0.33,5.07,0.46,7.25,2.11c2.56,1.94,2.36,6.28,0.4,8.15
		c-1.79,1.71-3.4,3.62-5.13,5.4c-0.45,0.46-0.47,0.85-0.25,1.41c2.22,5.63,5.08,10.94,8.12,16.14c2.97,5.08,6.25,9.98,9.28,15.03
		c1.88,3.13,3.61,6.35,5.28,9.6c0.82,1.61,2.03,2.58,3.66,3.19c0.67,0.25,1.28,0.29,1.95,0c1.14-0.49,2.29-0.96,3.45-1.4
		c4.97-1.89,9.96-3.73,14.92-5.65c5.88-2.27,11.77-4.55,17.6-6.95c2.54-1.04,4.32-4.01,2.05-7.19c-0.17-0.24-0.57-0.38-0.88-0.43
		c-1.26-0.17-2.54-0.28-3.8-0.42c-7.17-0.83-13.85-3.23-20.25-6.47C89.87,77.53,88.44,76.6,86.8,75.65z M191.83,229.03
		c-0.37-0.64-0.58-1.05-0.84-1.42c-3.5-4.95-6.93-9.95-10.52-14.84c-6.56-8.95-13.09-17.93-19.28-27.14
		c-0.55-0.82-1.27-1.52-1.95-2.24c-1.75-1.88-3.84-2.41-6.37-1.88c-3.78,0.78-7.59,1.43-11.41,2.01c-5.36,0.82-10.73,1.51-16.1,2.27
		c-2.84,0.4-5.68,0.81-8.52,1.21c-2.17,0.3-4.39,0.34-6.32,1.6c-2.18,1.42-3.53,3.81-1.73,6.28c0.44,0.6,0.81,1.25,1.26,1.85
		c5.2,6.83,10.35,13.69,15.62,20.46c5.69,7.3,11.49,14.51,17.22,21.78c0.37,0.47,0.68,0.54,1.25,0.37c0.91-0.26,1.87-0.55,2.8-0.49
		c1.22,0.07,2.46,0.33,3.61,0.73c1.43,0.5,2.77,1.26,4.18,1.86c2.05,0.87,3.44,0.51,4.85-1.15c2.01-2.37,4.53-3.4,7.65-3.02
		c1.89,0.23,3.67,0.75,5.4,1.52c0.78,0.35,1.56,0.68,2.35,0.99c1.39,0.55,2.59,0.12,3.58-0.88c0.49-0.5,0.86-1.12,1.25-1.71
		c0.64-0.98,1.22-2,1.86-2.98c1.25-1.93,2.95-3.32,5.1-4.18C188.33,229.39,189.89,228.86,191.83,229.03z M91.81,151.51
		c-9.24-3.86-18.39-7.68-27.55-11.51c-0.2,0.38-0.35,0.63-0.46,0.88c-1.38,3-2.8,5.97-4.12,8.99c-2.92,6.72-5.33,13.59-5.72,21.01
		c-0.17,3.22,0.06,6.41,1.06,9.46c1.39,4.22,3.85,7.79,7.21,10.73c5.33,4.65,11.39,6.13,18.21,4.17c2.79-0.8,5.54-1.74,8.32-2.59
		c4.96-1.51,9.8-3.31,14.4-5.73c2.1-1.1,3.75-2.65,5.14-4.52c0.26-0.36,0.44-0.79,0.68-1.24c-0.4-0.27-0.7-0.5-1.03-0.7
		c-8.41-5.07-16.84-10.13-25.24-15.22c-1.81-1.09-3.6-1.01-5.36-0.09c-2.61,1.36-5.15,2.84-7.74,4.25
		c-1.74,0.95-3.49,1.91-5.27,2.78c-1.07,0.53-2.22,0.11-2.75-0.86c-0.5-0.92-0.23-2.04,0.7-2.73c0.37-0.27,0.79-0.48,1.19-0.7
		c3.85-2.12,7.71-4.23,11.56-6.35c3.82-2.1,7.62-4.24,11.47-6.3c1.21-0.65,2.5-1.22,3.82-1.57c0.77-0.21,1.19-0.46,1.3-1.22
		C91.68,152.16,91.74,151.89,91.81,151.51z M168.78,174.06c-0.41-0.84-0.73-1.5-1.06-2.16c-0.65-1.3-1.34-2.58-1.94-3.9
		c-2.4-5.23-5.09-10.29-8.16-15.16c-4.15-6.57-8.31-13.13-12.16-19.88c-3.53-6.19-6.69-12.59-9.92-18.94
		c-2.74-5.39-5.97-10.47-9.11-15.62c-0.36-0.59-0.84-0.68-1.44-0.65c-0.6,0.03-0.85,0.41-0.99,0.94c-0.83,3.34-1.67,6.67-2.5,10
		c-0.19,0.76-0.28,1.53-0.46,2.29c-0.47,1.92-2.12,2.65-3.84,1.69c-0.4-0.22-0.79-0.48-1.18-0.73c-2.46-1.55-4.92-3.1-7.37-4.67
		c-0.71-0.46-1.41-0.53-2.26-0.17c0.14,0.38,0.23,0.71,0.38,1.02c1.09,2.27,2.22,4.52,3.29,6.79c2.29,4.84,4.57,9.68,6.82,14.54
		c0.31,0.67,0.67,0.85,1.39,0.73c0.79-0.12,1.65-0.2,2.41-0.02c2.88,0.68,4.96,2.34,5.96,5.2c0.1,0.3,0.23,0.58,0.35,0.9
		c0.64-0.06,1.24-0.12,1.83-0.17c4.61-0.42,8.12,3.5,7.11,8.03c-0.35,1.55-0.9,3.06-1.39,4.57c-0.22,0.7-0.52,1.38-0.8,2.11
		c1.13,0.54,2.18,1.04,3.22,1.56c2.53,1.27,4.56,2.97,5.32,5.87c0.6,2.27,0.26,4.45-0.58,6.56c-0.94,2.37-2.61,4.05-5.13,4.7
		c-1.02,0.26-2.07,0.38-3.22,0.59c1.29,3.2,2.57,6.41,3.87,9.65C147.91,178.71,158.13,175.8,168.78,174.06z M101.94,192.4
		c-2.42,0.91-4.71,1.87-7.07,2.63c-5.16,1.67-10.34,3.24-15.52,4.85c-0.33,0.1-0.68,0.21-0.96,0.4c-1.21,0.86-2.36,1.82-3.6,2.64
		c-3.94,2.58-7.93,5.11-11.88,7.68c-0.4,0.26-0.86,0.59-1.04,1c-0.69,1.52,0.25,3.45,1.84,3.88c0.58,0.16,1.18,0.27,1.78,0.31
		c1.65,0.1,3.12,0.68,4.45,1.6c1.86,1.28,2.65,3.08,2.3,5.34c-0.2,1.3-0.31,2.61-0.6,3.88c-0.59,2.52,1.33,5.22,3.52,5.83
		c2.67,0.74,5.33,1.54,8.09,0.42c0.26-0.11,0.55-0.13,0.82-0.21c5.11-1.35,10.27-2.1,15.57-1.56c0.38,0.04,0.85-0.11,1.18-0.32
		c2.1-1.32,4.18-2.68,6.25-4.05c3.28-2.17,6.57-4.3,9.49-6.99c1.52-1.4,1.78-4.55,0.68-6.17c-0.44-0.64-0.89-1.28-1.35-1.91
		c-3.97-5.44-7.95-10.88-11.91-16.32C103.28,194.37,102.61,193.37,101.94,192.4z M112.36,133.18c-0.66-0.26-1.16-0.59-1.69-0.65
		c-1.71-0.21-3.35-0.08-4.91,0.9c-2.55,1.59-4.18,3.91-5.44,6.53c-1.92,3.98-3.15,8.2-4.31,12.44c-0.29,1.05-0.55,2.11-0.85,3.28
		c1.04,0.53,2.03,1.07,3.05,1.55c4.21,1.96,8.43,3.91,12.65,5.85c2.67,1.23,5.36,2.43,8.03,3.68c0.89,0.42,1.66,0.39,2.51-0.11
		c0.91-0.54,1.65-1.23,2.16-2.14c0.39-0.71,0.77-1.44,1.07-2.2c2.05-5.14,4.09-10.27,6.1-15.43c0.43-1.12,0.8-2.29,1.01-3.46
		c0.39-2.12-0.76-3.12-2.57-3.07c-1.57,0.04-2.67,0.81-3.52,2.06c-2.29,3.38-4.48,6.81-5.59,10.81c-0.36,1.31-1.42,1.88-2.6,1.57
		c-1.05-0.28-1.72-1.41-1.43-2.62c0.25-1.03,0.56-2.06,0.96-3.04c1.42-3.51,3.45-6.67,5.63-9.74c0.16-0.22,0.34-0.51,0.32-0.74
		c-0.06-0.66-0.17-1.34-0.37-1.97c-0.55-1.71-2.31-2.57-4.06-2.2c-1.89,0.4-3.2,1.51-4.1,3.11c-1.43,2.53-2.86,5.07-4.11,7.68
		c-0.68,1.42-1.02,3.01-1.49,4.52c-0.31,0.99-1.06,1.6-2.01,1.6c-1,0-1.79-0.64-2.02-1.7c-0.08-0.37-0.11-0.79-0.01-1.15
		c0.38-1.4,0.68-2.84,1.27-4.15C107.77,140.52,109.59,136.71,112.36,133.18z M111.56,128.36c-0.06-0.32-0.07-0.43-0.11-0.52
		c-2.99-6.31-5.98-12.62-8.98-18.93c-0.31-0.64-0.99-0.7-1.43-0.12c-0.21,0.27-0.34,0.62-0.44,0.96c-0.89,2.99-1.79,5.97-2.62,8.98
		c-0.48,1.73-1.52,2.45-3.23,1.93c-1.52-0.46-3.03-1-4.52-1.55c-3.85-1.42-7.7-2.87-11.55-4.29c-0.38-0.14-0.88-0.26-1.22-0.12
		c-1.12,0.44-2.14,1.02-2.92,2.03c-1.39,1.8-2.17,3.89-3.06,5.92c-0.11,0.25-0.15,0.53-0.25,0.9c8.99,3.87,17.93,7.73,26.89,11.58
		C101.44,130.58,105.41,127.37,111.56,128.36z M177.72,137.94c-9.16-4.81-18.2-9.75-27.85-13.61c-0.7,1.27-1.38,2.46-2.01,3.68
		c-0.1,0.2-0.03,0.55,0.07,0.78c0.21,0.48,0.49,0.95,0.76,1.4c2.02,3.34,4.04,6.67,6.08,10c2.73,4.44,5.48,8.87,8.2,13.32
		c0.36,0.59,0.85,0.87,1.49,0.82c0.59-0.04,1.22-0.09,1.76-0.31c1.44-0.58,2.63-1.49,3.46-2.86c2.57-4.24,5.18-8.47,7.77-12.71
		C177.54,138.32,177.61,138.16,177.72,137.94z M54.89,121.2c-3.55-2.03-5.69-4.91-5.45-9.07c-2.4-0.7-4.68-1.34-6.96-2.03
		c-3.11-0.94-6.1-2.13-8.44-4.51c-0.03-0.04-0.13-0.01-0.22-0.02c-0.78,0.8-0.93,1.87-1.15,2.9c-0.84,3.89,0.16,7.22,3.05,9.96
		c0.41,0.39,0.94,0.63,1.38,1c0.76,0.64,1.1,1.48,0.93,2.46c-0.16,0.93-0.76,1.5-1.65,1.76c-2.18,0.63-3.84,2-5.06,3.83
		c-2.67,4-3.39,8.5-3.19,13.2c0.02,0.57,0.25,1.13,0.38,1.69c0.24-0.17,0.31-0.32,0.36-0.48c0.64-2.09,1.53-4.06,2.88-5.78
		c4.63-5.86,10.64-8.1,17.98-6.66c0.72,0.14,1.08,0.06,1.39-0.65c0.51-1.17,1.14-2.28,1.71-3.42
		C53.5,124.03,54.16,122.67,54.89,121.2z M186.79,122.06c-2.98-1.12-5.7-2.32-8.54-3.18c-5.77-1.74-11.36-3.94-16.93-6.19
		c-0.32-0.13-0.68-0.22-1.01-0.19c-0.67,0.06-1.33,0.21-1.98,0.34c-2.54,0.52-5.26,4.5-4.8,7.07c0.16,0.89,0.54,1.6,1.51,2
		c2.41,1.02,4.81,2.09,7.15,3.26c4.53,2.27,9.02,4.6,13.52,6.95c0.91,0.47,1.82,0.69,2.76,0.33c1.46-0.56,2.93-1.24,3.79-2.61
		C183.8,127.33,185.24,124.73,186.79,122.06z M121.47,172.61c-0.56-0.3-1.03-0.59-1.53-0.82c-3.71-1.68-7.44-3.34-11.15-5.02
		c-3.16-1.44-6.32-2.88-9.46-4.37c-2.21-1.05-4.41-2.11-6.55-3.29c-2.01-1.11-1.99-1.22-4.11-0.19c-0.74,0.36-1.49,0.84-2.04,1.45
		c-0.9,0.99-0.68,1.89,0.45,2.57c7.99,4.82,15.97,9.62,23.95,14.45c0.73,0.44,1.48,0.62,2.32,0.6
		C117.13,177.89,119.54,175.76,121.47,172.61z M170.93,99c0.08-0.15,0.12-0.18,0.12-0.21c0.11-5.96,0.02-11.91-0.67-17.84
		c-0.12-1.04-0.49-2.07-0.86-3.05c-0.35-0.91-1.41-1.47-2.31-1.38c-1.7,0.16-3.75,1.87-4.13,3.54c-0.21,0.93-0.38,1.89-0.38,2.83
		c0.02,3.01,0.09,6.02,0.22,9.03c0.06,1.38,0.29,2.75,0.46,4.12c0.08,0.65,0.31,1.1,1.09,1.2c0.84,0.11,1.66,0.37,2.48,0.6
		C168.26,98.2,169.57,98.6,170.93,99z M197.05,95.07c0.12-1.75-0.16-3.39-1.24-4.84c-0.79-1.06-1.92-1.51-3.17-1.1
		c-0.62,0.2-1.27,0.51-1.75,0.95c-1.67,1.52-2.53,3.45-2.65,5.72c-0.09,1.8-0.24,3.6-0.38,5.4c-0.19,2.36,0.16,4.57,1.57,6.57
		c1.13,1.59,2.51,1.67,4.21,1.02c0.73-0.28,1.2-0.83,1.44-1.6C196.27,103.23,196.92,99.19,197.05,95.07z M175.25,98.11
		c0.03,0,0.05,0,0.08,0c0,0.74,0.09,1.5-0.02,2.23c-0.12,0.79,0.26,1.18,0.77,1.69c1.79,1.75,3.08,3.78,3.21,6.39
		c0.06,1.14,0.69,1.47,1.61,0.8c1.12-0.82,1.86-1.97,2.09-3.34c0.62-3.78,1-7.58,1.03-11.41c0.01-1.62-0.17-3.26-1.05-4.71
		c-0.87-1.43-2.79-1.85-4.16-0.87c-0.43,0.3-0.9,0.65-1.14,1.1c-0.82,1.56-1.57,3.16-2.3,4.76c-0.14,0.3-0.12,0.69-0.12,1.05
		C175.24,96.55,175.25,97.33,175.25,98.11z M171.18,111.21c0.01-0.06,0.03-0.12,0.04-0.18c0.25,0,0.51,0.05,0.74-0.01
		c2.72-0.65,4.01-1.98,2.3-4.62c-0.93-1.44-2.25-2.38-3.78-2.95c-1.95-0.73-3.95-1.35-5.97-1.86c-1.63-0.41-3.32-0.62-4.99-0.84
		c-0.45-0.06-1.05,0.04-1.37,0.31c-1.1,0.93-1.28,2.98-0.49,4.19c0.76,1.17,1.84,1.98,3.08,2.53c1.75,0.77,3.51,1.51,5.32,2.1
		C167.73,110.44,169.47,110.78,171.18,111.21z M97.98,103.88c-5.04,1.56-16.98,6.22-17.87,7c2.41,0.82,4.76,1.58,7.08,2.44
		c2.31,0.85,4.58,1.81,6.99,2.77C95.45,111.99,96.68,108.03,97.98,103.88z M132.79,180.44c0-0.2,0.02-0.28,0-0.34
		c-1.48-3.79-2.96-7.58-4.43-11.38c-0.25-0.65-0.74-0.89-1.44-0.96c-0.45,1.12-1.49,2.06-0.7,3.49c0.2,0.36,0.04,0.98-0.09,1.44
		c-0.17,0.57-0.39,1.16-0.74,1.63c-1.13,1.53-2.31,3.03-3.51,4.51c-0.47,0.57-1.04,1.06-1.56,1.59c-0.36,0.38-0.62,0.82-0.34,1.34
		c0.28,0.52,0.77,0.38,1.23,0.31c1.33-0.19,2.66-0.37,3.99-0.56C127.72,181.17,130.24,180.8,132.79,180.44z M117.31,107.74
		c1.08-4.32,2.12-8.46,3.22-12.83c-4.92,2-9.57,3.89-14.36,5.84C109.9,103.1,113.52,105.37,117.31,107.74z M50.99,102.65
		c0.65,0,1.13-0.18,1.49-0.73c0.57-0.86,0.52-1.55-0.33-2.36c-0.46-0.44-0.98-0.82-1.51-1.18c-3.38-2.27-7.2-3.46-11.1-4.44
		c-0.17-0.04-0.35-0.05-0.53-0.04c-0.9,0.04-1.39,0.75-0.93,1.52c0.41,0.69,0.93,1.35,1.51,1.89c2.18,2.05,4.8,3.4,7.59,4.38
		C48.41,102.13,49.72,102.34,50.99,102.65z M188.87,118.24c0.77-1.67,1.46-3.19,2.1-4.59c-1.11-0.51-2.09-0.83-2.93-1.37
		c-0.85-0.54-1.57-1.29-2.35-1.96c-0.5,0.58-0.95,1.23-1.53,1.73c-1.89,1.62-3.98,2.48-6.43,1.24c-0.64-0.33-0.87,0.16-1.32,0.46
		C180.56,115.24,184.61,116.7,188.87,118.24z M51.67,106.9c-6.17-0.51-11.3-3.11-15.87-7.22c0.12,1.35,0.57,2.33,1.42,3
		c1.04,0.83,2.12,1.74,3.34,2.19c3.02,1.1,6.12,1.96,9.2,2.9C50.5,107.99,51.14,107.79,51.67,106.9z"/>
	<path d="M78.07,53.89c-2.31-0.02-4.37-0.81-6.23-2.13c-0.77-0.55-1.19-1.32-0.94-2.31c0.22-0.89,0.82-1.47,1.7-1.52
		c0.56-0.03,1.15,0.23,1.7,0.44c0.95,0.35,1.86,0.87,2.84,1.13c2.31,0.61,4.62-0.75,5.57-2.86C83,46,83.16,45.3,83.35,44.62
		c0.09-0.3,0.12-0.63,0.2-0.93c0.31-1.19,1.25-1.87,2.33-1.7c1.08,0.17,1.88,1.1,1.79,2.29C87.22,50.01,83.1,53.9,78.07,53.89z"/>
	<path d="M146.45,63.03c-0.18,0.27-0.44,0.95-0.93,1.32c-0.9,0.68-1.9,1.24-2.91,1.74c-1.07,0.53-2.24,0.13-2.76-0.82
		c-0.51-0.93-0.29-2.07,0.66-2.72c0.96-0.66,1.96-1.28,3.02-1.76C144.96,60.13,146.48,61.15,146.45,63.03z"/>
	<path d="M124.32,65.23c-0.01,0.69-0.48,1.33-1.27,1.71c-0.79,0.39-1.61,0.74-2.45,1.02c-1.18,0.4-2.25-0.03-2.7-1.03
		c-0.48-1.06-0.1-2.19,1.04-2.77c0.88-0.45,1.8-0.86,2.75-1.13C123.09,62.64,124.32,63.62,124.32,65.23z"/>
	<path d="M133.56,57.73c-1.27,0.02-1.99-0.47-2.31-1.39c-0.29-0.82-0.08-1.79,0.69-2.25c0.93-0.55,1.95-1,2.98-1.31
		c0.89-0.27,1.81,0.31,2.2,1.1c0.38,0.77,0.26,1.78-0.4,2.34C135.73,57.07,134.52,57.45,133.56,57.73z"/>
</g>
<g>
	<path class="st0" d="M4.28,268h17.54c17.33,0,22.98,7.68,22.98,23.05c0,15.23-4.47,23.61-22.57,23.61H4.28V268z M22.58,304.05
		c2.45,0,5.24,0,7.34-1.96c1.61-1.47,2.45-4.33,2.45-8.45v-4.82c0-3.56-0.42-6.43-1.96-8.03c-1.61-1.61-3.98-2.17-7.75-2.17h-6.01
		v25.43H22.58z"/>
	<path class="st0" d="M75.11,267.23c12.51,0,22.08,7.2,22.08,24.24c0,15.58-7.96,23.96-22.08,23.96s-22.01-8.59-22.01-23.96
		C53.11,274.43,62.68,267.23,75.11,267.23z M75.11,304.33c6.64,0,9.43-4.05,9.43-10.41v-5.24c0-6.36-2.79-10.34-9.43-10.34
		s-9.43,3.98-9.43,10.34v5.24C65.68,300.34,68.55,304.33,75.11,304.33z"/>
	<path class="st0" d="M128.9,267.37c5.1,0,9.36,0.7,11.67,1.26v10.41l-0.28,0.35c-2.65-0.42-5.73-0.91-9.29-0.91
		c-4.19,0-7.48,0.7-9.29,2.1c-2.1,1.54-3.14,5.52-3.14,9.64v2.38c0,4.47,1.12,8.31,3.35,9.85c1.89,1.33,5.45,1.75,8.66,1.75
		c3.35,0,7.96-0.7,10.48-1.33l0.35,0.35v10.34c-2.65,0.77-6.92,1.75-13.76,1.75c-16,0-22.22-7.82-22.22-24.45
		C105.43,274.57,113.18,267.37,128.9,267.37z"/>
	<path class="st0" d="M184.5,304.26v10.41h-33.74V268h33.05v10.41h-20.68v8.17h18.93v8.87h-18.93v8.8H184.5z"/>
	<path class="st0" d="M232.07,279.32h-13.13v35.35H206.3v-35.35h-13.2V268h38.98V279.32z"/>
</g>
</svg>
