<?xml version="1.0" encoding="utf-8"?>
<!-- Generator: Adobe Illustrator 25.4.1, SVG Export Plug-In . SVG Version: 6.00 Build 0)  -->
<svg className="duck-head" version="1.1" id="Layer_1" xmlns="http://www.w3.org/2000/svg" xmlns:xlink="http://www.w3.org/1999/xlink" x="0px" y="0px"
	 viewBox="0 0 81.06 103.19" style="enable-background:new 0 0 81.06 103.19;" xml:space="preserve">
<g>
	<path d="M14.39,15.8c-0.71-4.88,1.4-9.23,5.54-11.85c3.52-2.22,7.3-2.94,11.35-2.31c0.84,0.13,1.7,0.43,2.42,0.87
		c1.3,0.78,2.51,1.7,3.75,2.59c1.08,0.78,2.15,1.58,3.21,2.37c0.06-0.02,0.12-0.03,0.14-0.06c1.04-1.87,2.82-2.46,4.76-2.63
		c0.86-0.07,1.78,0.07,2.63,0.31c1.77,0.49,2.79,1.72,3.08,3.59c0.89-0.18,1.76-0.35,2.62-0.53c1.7-0.36,3.39-0.76,5.14-0.61
		c1.07,0.09,2.15,0.19,3.19,0.46c3.28,0.84,5.49,3,6.96,5.97c0.56,1.13,0.7,2.37,0.75,3.62c0.05,1.48-0.03,2.95-0.47,4.38
		c-0.58,1.86-1.6,3.42-3.23,4.53c-0.06,0.04-0.12,0.08-0.17,0.12c-0.03,0.03-0.05,0.08-0.09,0.13c0.08,0.1,0.16,0.22,0.25,0.32
		c2.04,2.1,3.12,4.7,3.85,7.46c0.52,1.96,1.1,3.94,1.34,5.95c0.25,2.08,0.21,4.2,0.13,6.3c-0.11,2.83-0.44,5.65-0.26,8.49
		c0.05,0.79-0.33,1.28-1.11,1.47c-0.54,0.14-1.09,0.24-1.76,0.39c0.3,1.07,0.59,2.1,0.88,3.12c0.07,0.22,0.21,0.42,0.28,0.64
		c0.27,0.76-0.08,1.31-0.86,1.52c-1.49,0.39-2.93,0.12-4.37-0.23c-0.14-0.03-0.27-0.08-0.41-0.11c-0.04-0.01-0.09,0-0.23,0
		c0.03,0.23,0.04,0.44,0.08,0.66c0.16,0.91,0.25,1.8-0.16,2.69c-0.08,0.17-0.04,0.47,0.06,0.64c0.31,0.52,0.67,1.02,1.03,1.5
		c0.68,0.89,1.4,1.75,2.07,2.65c0.99,1.33,2.01,2.65,2.92,4.04c2.49,3.81,5.43,7.27,8.14,10.91c0.94,1.27,1.49,2.55,1.42,4.19
		c-0.15,3.2-0.17,6.41-0.16,9.62c0,1.23-1.05,2.06-2.11,2.03c-2.32-0.06-4.64,0.04-6.95-0.14c-3.58-0.27-7.16,0.01-10.73-0.04
		c-1.83-0.02-3.65-0.05-5.47-0.16c-4.21-0.27-8.42-0.13-12.64-0.08c-2.25,0.03-4.49,0.03-6.74,0.05c-2.43,0.02-4.87,0.05-7.3,0.07
		c-2.25,0.02-4.49,0.05-6.74,0.04c-2.85-0.02-5.71-0.08-8.56-0.12c-0.14,0-0.28,0.01-0.42,0.03c-1.36,0.15-2.04-0.58-1.81-1.89
		c0.05-0.25,0.04-0.51,0.03-0.77c-0.06-3.23-0.1-6.46-0.21-9.69c-0.05-1.58,0.3-2.95,1.27-4.25c2.06-2.78,4.03-5.63,6-8.48
		c1.52-2.19,2.98-4.42,4.51-6.69c-0.21,0-0.36-0.02-0.5,0c-1.97,0.27-3.93,0.59-5.9,0.82c-1.77,0.2-3.54,0.37-5.31,0.45
		c-1.8,0.08-3.6,0.14-5.39-0.18c-1.23-0.22-2.08-0.95-2.49-2.04c-0.73-1.99-0.49-3.65,1.17-4.76c1.55-1.04,3.16-2,4.77-2.94
		c0.87-0.5,1.79-0.93,2.72-1.3c1.71-0.68,3.12-1.78,4.45-3c1.96-1.81,3.91-3.63,5.86-5.45c0.07-0.06,0.12-0.14,0.25-0.3
		c-0.32-0.33-0.61-0.7-0.97-0.97c-3.44-2.56-6.69-5.34-9.85-8.24c-1.88-1.73-3.73-3.48-5.5-5.32c-0.8-0.83-1.47-1.84-1.97-2.87
		c-1.29-2.64,0.47-5.34,3.49-5.43c1.23-0.04,2.45,0.14,3.58,0.61c1.12,0.47,2.18,1.07,3.26,1.62c0.27,0.14,0.51,0.32,0.78,0.49
		c0.91-1.05,1.99-1.77,3.27-2.18c0.29-0.1,0.43-0.26,0.41-0.56c-0.03-0.43-0.06-0.87-0.09-1.3c-1.9-0.58-3.46-1.68-5.09-2.62
		c-0.62-0.36-1.18-0.84-1.72-1.32c-1.79-1.62-1.53-3.99,0.62-5.11c0.88-0.46,1.87-0.71,2.82-1.05
		C14.03,15.88,14.19,15.85,14.39,15.8z M32.51,50.44c-0.16,0.07-0.26,0.11-0.37,0.16c-4.37,2.09-8.74,4.17-13.09,6.28
		c-3.62,1.75-7.24,3.5-10.82,5.35c-1.49,0.77-2.87,1.75-4.27,2.67c-0.26,0.17-0.49,0.53-0.55,0.84c-0.26,1.33,0.27,2.05,1.58,2.28
		c0.21,0.04,0.42,0.06,0.63,0.07c2.58,0.09,5.14-0.02,7.71-0.29c3-0.32,6.01-0.59,8.93-1.41c0.47-0.13,0.96-0.22,1.44-0.29
		c2.45-0.38,4.9-0.78,7.35-1.12c1.09-0.15,2.19-0.27,3.28-0.25c1.73,0.04,3.46,0.17,5.18,0.35c2.96,0.31,5.84,0.13,8.58-1.17
		c1.06-0.5,1.86-1.24,2.37-2.29c0.62-1.28,1.01-2.58,0.79-4.06c-0.18-1.28-0.28-2.56-0.82-3.75c-0.84-1.86-1.95-3.59-3.25-5.15
		c-1.08-1.3-2.41-2.41-3.67-3.56c-0.89-0.81-1.68-1.68-2.17-2.8c-0.34-0.77-0.7-1.54-1.13-2.26c-1.33-2.21-2.92-3.08-5.22-2.62
		c-0.55,0.11-1.1,0.25-1.62,0.46c-1.19,0.48-2.36,1.02-3.55,1.52c-1.79,0.75-3.58,1.5-5.38,2.23c-0.79,0.32-1.45,0.16-2.08-0.49
		c-3.04-3.15-6.17-6.21-9.5-9.04c-1.24-1.05-2.65-1.87-4.23-2.29c-0.87-0.23-1.8-0.36-2.7-0.34C4.48,29.51,3.85,30.68,4.46,32
		c0.05,0.11,0.11,0.21,0.17,0.31c0.53,0.98,1.2,1.84,2.02,2.59c0.43,0.4,0.86,0.79,1.28,1.2c3.23,3.16,6.54,6.24,10.1,9.02
		c2.5,1.96,5.09,3.81,7.64,5.72c0.36,0.27,0.67,0.3,1.09,0.09c1.31-0.67,2.65-1.29,3.97-1.93c0.18-0.09,0.35-0.2,0.58-0.33
		c-0.56-0.81-1.08-1.56-1.6-2.31c-0.32-0.47-0.28-1,0.07-1.35c0.36-0.36,0.97-0.39,1.4-0.01c0.26,0.23,0.47,0.52,0.67,0.81
		c1.13,1.58,2.22,3.19,3.37,4.75c1.08,1.46,2.4,2.68,3.96,3.63c0.12,0.07,0.23,0.16,0.33,0.26c0.35,0.34,0.42,0.83,0.2,1.22
		c-0.23,0.41-0.74,0.62-1.21,0.45c-0.28-0.1-0.55-0.26-0.8-0.43c-1.3-0.89-2.5-1.89-3.5-3.12C33.63,51.88,33.09,51.18,32.51,50.44z
		 M28.68,3.58c-0.97,0.12-1.96,0.2-2.92,0.37c-2.61,0.47-4.83,1.72-6.73,3.54c-1.33,1.28-1.87,2.99-2.41,4.69
		c-0.26,0.84-0.33,1.7-0.14,2.57c0.16,0.75,0.48,1.02,1.23,1.07c1.17,0.09,2.35,0.09,3.49,0.32c7.88,1.57,15.5,3.94,22.58,7.82
		c0.35,0.19,0.79,0.29,1.19,0.29c4.89,0.01,9.78,0.02,14.68-0.03c1.39-0.01,2.7,0.1,3.9,0.86c0.15,0.1,0.44,0.14,0.58,0.06
		c0.54-0.31,1.14-0.61,1.56-1.05c1.03-1.09,1.75-2.38,1.87-3.92c0.08-1,0.18-2.02,0.1-3.01c-0.26-3.15-2.04-5.27-4.81-6.57
		c-2-0.94-4.18-1.05-6.33-0.65c-2.46,0.45-4.9,1.01-7.35,1.53c-1.17,0.25-2.36,0.4-3.55,0.25c-2.46-0.32-4.69-1.18-6.67-2.73
		c-1.69-1.33-3.49-2.52-5.19-3.83C32.25,3.98,30.54,3.59,28.68,3.58z M39.02,35.95c0.08-0.26,0.13-0.44,0.2-0.61
		c0.37-0.96,0.72-1.92,1.13-2.87c0.32-0.75,0.87-1.33,1.55-1.78c1.47-0.97,3.05-1.53,4.83-1.73c2.2-0.24,4.38-0.33,6.58-0.17
		c1.66,0.12,3.15,0.68,4.49,1.64c0.78,0.56,1.33,1.29,1.68,2.2c0.81,2.13,0.74,4.31,0.5,6.51c-0.16,1.49-0.74,2.8-1.76,3.9
		c-0.81,0.88-1.61,1.8-2.79,2.17c-1.34,0.41-2.7,0.74-4.13,0.75c-1.16,0.01-2.32,0.11-3.4,0.16c0.86,1.21,1.74,2.5,2.67,3.75
		c2.02,2.75,2.86,5.85,2.82,9.22c0,0.39-0.1,0.79-0.22,1.17c-0.19,0.62-0.42,1.23-0.65,1.9c1.12,0.33,2.27,0.61,3.01,1.56
		c0.71,0.91,1.34,1.9,2.03,2.9c0.4-0.06,0.89-0.12,1.36-0.23c0.26-0.06,0.55-0.17,0.75-0.34c1.39-1.16,2.07-2.62,1.82-4.46
		c-0.04-0.3-0.1-0.61-0.08-0.91c0.04-0.7,0.52-1.11,1.22-1.06c0.28,0.02,0.55,0.13,0.82,0.16c1.22,0.15,2.18-0.4,2.42-1.49
		c0.12-0.52,0.12-1.06,0.14-1.6c0.03-1.14,0.76-1.81,1.88-1.75c0.4,0.02,0.81-0.07,1.21-0.1c0.02-0.21,0.03-0.3,0.04-0.39
		c0.12-2.66,0.28-5.33,0.36-7.99c0.05-1.82,0.1-3.66-0.08-5.47c-0.29-2.85-1.15-5.59-2.09-8.28c-0.57-1.64-1.65-2.98-2.89-4.17
		c-1.74-1.67-3.92-2.26-6.23-2.33c-2.83-0.08-5.66,0.01-8.5,0.02c-2.11,0.01-4.22,0.1-6.32-0.02c-7.25-0.39-14.51-0.18-21.76-0.16
		c-0.67,0-1.34,0.08-2.02,0.12c0,0.42,0,0.74,0,0.97c1.46,0.21,2.87,0.37,4.27,0.61c1.66,0.29,3.34,0.46,4.92,1.08
		c1.91,0.75,3.23,2.06,3.65,4.11c0.14,0.7,0.1,1.44,0.13,2.16c0.01,0.25-0.02,0.49-0.03,0.82C34.73,35.21,36.85,34.83,39.02,35.95z
		 M36.4,71.13c-0.95,0.9-1.78,1.87-2.8,2.6c-1.01,0.72-1.48,1.5-1.29,2.73c0.1,0.63,0.02,1.29,0.02,2.01
		c3.87,0.25,7.65-0.06,11.44,0.04c3.8,0.1,7.6,0.1,11.43,0.15c0-1.12,0-2.21,0-3.4c-1.4,0.7-2.7,0.4-4-0.06
		c-1.73-0.62-3.31-1.51-4.74-2.67c-0.6-0.48-1.24-0.91-1.89-1.33c-0.17-0.11-0.44-0.16-0.64-0.12c-0.92,0.16-1.83,0.41-2.75,0.52
		C39.56,71.77,37.94,71.87,36.4,71.13z M58,35.87c0-0.16,0.01-0.37,0-0.56c-0.15-1.77-0.81-3.23-2.6-3.88
		c-0.74-0.27-1.52-0.46-2.3-0.55c-2.05-0.22-4.1-0.09-6.15,0.15c-1.34,0.16-2.56,0.51-3.68,1.24c-0.33,0.21-0.66,0.48-0.87,0.8
		c-0.69,1.07-1.13,2.26-1.33,3.51c-0.08,0.47-0.11,0.95,0.22,1.41c0.39,0.55,0.72,1.14,1.05,1.73c0.36,0.66,0.69,1.34,1.04,2.02
		c0.05,0.01,0.1,0.02,0.16,0.03c0.56-3.36,2.93-5.24,5.7-6.48C52.14,33.97,55.11,34.64,58,35.87z M45.89,69.55
		c0.59,0.44,1.26,0.9,1.9,1.41c1.46,1.17,3.08,2,4.87,2.54c1.51,0.46,3.09-0.86,3.11-2.13c0.03-2.08,0.03-4.15-1.45-5.91
		c-0.77-0.92-1.73-1.22-2.83-1.28c-0.14-0.01-0.34,0.06-0.44,0.16c-1.19,1.16-2.68,1.77-4.24,2.23c-0.36,0.11-0.46,0.3-0.51,0.64
		C46.2,67.97,46.04,68.71,45.89,69.55z M48.91,84.87C48.9,84.87,48.9,84.87,48.91,84.87c0-0.66,0.01-1.31-0.01-1.97
		c-0.02-0.65-0.28-0.87-0.92-0.85c-1.75,0.04-3.5,0.1-5.26,0.1c-1.47,0-2.94-0.06-4.42-0.09c-0.77-0.02-1.01,0.16-1.06,0.95
		c-0.07,1.17-0.11,2.34-0.12,3.5c-0.01,0.75,0.16,0.9,0.9,0.95c0.21,0.01,0.42-0.01,0.63,0c1.57,0.05,3.13,0.11,4.7,0.17
		c0.63,0.02,1.25,0.05,1.88,0.06c0.61,0.01,1.21-0.02,1.82-0.03c0.37-0.01,0.75,0.02,1.12-0.03c0.62-0.07,0.72-0.19,0.73-0.8
		C48.91,86.18,48.91,85.53,48.91,84.87z M34.7,66.82c-0.66,0-1.23-0.06-1.78,0.01c-2.13,0.27-4.26,0.58-6.39,0.89
		c-0.19,0.03-0.43,0.13-0.52,0.28c-0.72,1.2-1.49,2.38-1.75,3.8c-0.19,1.02,0.11,1.85,1.03,2.4c1,0.6,2.05,0.77,3.15,0.32
		c1.17-0.48,2.31-1.03,3.26-1.89c0.78-0.7,1.54-1.43,2.34-2.11c0.52-0.45,0.9-0.89,0.65-1.66c-0.1-0.31,0-0.7,0-1.05
		C34.7,67.53,34.7,67.23,34.7,66.82z M66.98,74.12c0.15,3.71,0.29,7.36,0.44,11.08c2.75,0.22,5.45,0.44,8.29,0.66
		C72.75,81.88,69.88,78.03,66.98,74.12z M30.32,33c-0.43-1.19-1.21-1.85-2.21-2.19c-0.97-0.33-1.98-0.54-2.99-0.71
		c-1.66-0.27-3.28-0.81-4.98-0.71c-1.53,0.09-3.02,0.37-4.25,1.4c-0.21,0.18-0.36,0.45-0.53,0.68c1.67,1.57,3.27,3.07,4.87,4.57
		C22.54,31.42,26.67,30.85,30.32,33z M19.8,74.76c-2.42,3.55-5.07,6.77-7.25,10.38c2.36,0.24,4.59-0.18,6.88-0.41
		C19.56,81.4,19.68,78.14,19.8,74.76z M63.39,84.94c0.01-1.59-1.17-2.81-2.76-2.84c-1.39-0.03-2.63,1.28-2.66,2.81
		c-0.03,1.52,1.21,2.83,2.7,2.83C62.16,87.75,63.38,86.49,63.39,84.94z M25.54,82.55c-1.29-0.03-2.43,1.07-2.45,2.36
		c-0.01,1.28,1.03,2.3,2.39,2.32c1.38,0.02,2.47-0.98,2.51-2.28C28.03,83.58,27.01,82.58,25.54,82.55z M44.17,67.34
		c-2.46-0.11-4.88-0.22-7.33-0.33c-0.03,0.34-0.05,0.64-0.07,0.94c-0.06,0.96,0.13,1.24,1.04,1.52c0.24,0.07,0.5,0.09,0.76,0.12
		c1.44,0.14,2.84-0.09,4.24-0.37C43.79,69.02,44.22,68.41,44.17,67.34z M49.17,9.13c-0.38-1.28-0.68-1.65-1.59-1.93
		c-1.38-0.42-2.72-0.26-4,0.4c-0.4,0.21-0.71,0.52-0.78,1.06C44.86,9.53,46.95,9.82,49.17,9.13z"/>
	<path d="M33.25,41.91c-0.81,0.02-1.35-0.33-1.48-0.81c-0.14-0.53,0.09-1.02,0.72-1.27c0.82-0.32,1.67-0.58,2.53-0.8
		c0.63-0.16,1.17,0.16,1.37,0.69c0.19,0.51-0.04,1.18-0.61,1.4C34.88,41.47,33.95,41.7,33.25,41.91z"/>
</g>
</svg>
