<?xml version="1.0" encoding="utf-8"?>
<!-- Generator: Adobe Illustrator 25.4.1, SVG Export Plug-In . SVG Version: 6.00 Build 0)  -->
<svg className="svg-fill" version="1.1" id="Layer_1" xmlns="http://www.w3.org/2000/svg" xmlns:xlink="http://www.w3.org/1999/xlink" x="0px" y="0px"
	 viewBox="0 0 55.62 85.27" style="enable-background:new 0 0 55.62 85.27;" xml:space="preserve">
<g>
	<path d="M22.32,36.73c0.18-0.9,0.2-0.94-0.51-1.25c-0.98-0.43-1.99-0.78-2.98-1.18c-0.97-0.39-1.98-0.71-2.87-1.24
		c-1.3-0.77-2.55-1.62-3.73-2.56c-1.79-1.43-2.63-5.1-1.42-7.24c0.84-1.48,2.14-2.23,3.66-2.69c2.07-0.64,4.12-0.66,6.12,0.29
		c0.13,0.06,0.26,0.1,0.39,0.15c0.02,0.01,0.05,0,0.17,0c-0.18-0.58-0.38-1.13-0.51-1.7c-0.42-1.88-0.8-3.77-1.23-5.65
		c-0.36-1.57-0.63-3.14-0.62-4.76c0.01-1.74,0.54-3.29,1.55-4.68C21.05,3.26,22.1,3,23.22,2.88c2.46-0.26,3.83,0.92,4.89,3.23
		c0.8,1.75,1.36,3.6,2.02,5.41c0.19,0.52,0.38,1.03,0.57,1.55c0.05-0.01,0.11-0.01,0.16-0.02c0.08-1.08,0.14-2.16,0.25-3.23
		c0.19-1.9,0.48-3.79,1.33-5.52c0.66-1.34,1.62-2.36,3-3.07c2.95-1.52,6.66,0.6,7.02,3.65c0.24,2.05,0.02,4.04-0.44,6.01
		c-0.34,1.44-0.76,2.87-1.03,4.38c0.37-0.44,0.73-0.9,1.11-1.32c1.79-1.97,3.69-3.81,6.06-5.08c1.06-0.57,2.21-0.71,3.39-0.55
		c1.12,0.16,1.95,0.82,2.41,1.81c0.37,0.81,0.64,1.69,0.83,2.57c0.22,1.03-0.16,1.97-0.73,2.83c-2.02,3.1-4.42,5.86-7.17,8.32
		c-1.28,1.15-2.61,2.24-3.89,3.38c-0.24,0.21-0.47,0.55-0.51,0.86c-0.37,2.69-0.69,5.39-1.03,8.09c-0.01,0.09,0.02,0.18,0.04,0.31
		c0.23,0.04,0.46,0.07,0.68,0.12c0.76,0.16,1.19,0.71,1.21,1.49c0.05,2.61-0.25,5.18-0.61,7.77c-0.55,3.98-1.88,7.71-3.29,11.42
		c-0.79,2.08-1.6,4.17-2.53,6.19c-1.76,3.82-3.72,7.54-6.28,10.92c-1.37,1.81-3.01,3.31-4.77,4.73c-1.73,1.4-3.54,2.65-5.51,3.65
		c-1.14,0.58-2.3,1.11-3.58,1.34c-0.64,0.12-1.1-0.06-1.55-0.52c-3.17-3.21-6.08-6.65-9.02-10.07C4.7,71.72,3.03,70,1.4,68.26
		c-0.57-0.61-0.5-1.46,0.27-1.7c4.06-1.26,7.06-4.08,10-6.9c3.51-3.37,5.97-7.47,7.34-12.16c0.48-1.63,0.81-3.29,0.93-4.99
		c0.08-1.09,0.28-2.16,0.42-3.24c0.03-0.21,0.02-0.42,0.02-0.63c-0.02-1.1,0.54-1.73,1.63-1.86C22.11,36.76,22.2,36.75,22.32,36.73z
		 M4.06,68.04C5.14,69.2,6.2,70.3,7.2,71.46c1.9,2.19,3.78,4.41,5.64,6.64c0.45,0.54,0.94,0.8,1.66,0.82
		c2.23,0.04,4.39-0.35,6.53-0.94c1.6-0.44,3.04-1.27,4.54-1.93c1.46-0.64,2.49-1.66,3.44-2.85c2.37-2.99,4.06-6.39,5.74-9.78
		c0.94-1.89,1.64-3.89,2.46-5.84c1.22-2.9,2.17-5.89,2.97-8.92c0.4-1.52,0.6-3.1,0.8-4.66c0.19-1.52,0.27-3.05,0.35-4.58
		c0.04-0.67-0.04-0.7-0.71-0.71c-0.81-0.02-1.62-0.07-2.44-0.1c-0.48-0.01-0.96,0-1.53,0c0,0.67,0.02,1.22-0.01,1.77
		c-0.03,0.46,0.13,0.69,0.59,0.84c1.28,0.41,1.97,1.37,2.13,2.67c0.18,1.47-0.43,2.64-1.54,3.54c-0.44,0.35-1.13,0.46-1.46,0.87
		c-0.35,0.44-0.38,1.13-0.61,1.68c-0.26,0.63-0.82,0.86-1.34,0.63c-0.5-0.22-0.67-0.72-0.46-1.37c0.13-0.39,0.25-0.78,0.38-1.18
		c-1.14-0.56-1.86-1.38-2.01-2.59c-0.21-1.7,0.49-2.97,1.89-3.91c0.17-0.11,0.44-0.25,0.45-0.38c0.03-0.8-0.01-1.6-0.03-2.43
		c-4.11,0.08-8.09,0.15-12.09,0.23c-0.17,1.1-0.38,2.17-0.48,3.25c-0.17,1.97-0.52,3.92-1.05,5.82c-1.11,3.98-3.16,7.48-5.69,10.69
		c-2.24,2.83-5,5.1-7.93,7.18C6.35,66.64,5.25,67.29,4.06,68.04z M34.8,36.48c0.2,0,0.6,0,0.99,0c1.48,0.01,2.48-0.79,3.05-2.04
		c0.46-1.03,0.76-2.14,1.01-3.24c0.26-1.13,0.37-2.29,0.53-3.44c0.11-0.8,0.49-1.46,1.12-1.94c2.58-1.99,4.95-4.22,7.16-6.62
		c1.34-1.46,2.57-3.01,3.61-4.69c0.25-0.4,0.49-0.91,0.45-1.34c-0.06-0.7-0.33-1.39-0.58-2.06c-0.2-0.53-0.68-0.81-1.23-0.74
		c-0.66,0.09-1.37,0.15-1.94,0.46c-2.09,1.13-3.78,2.77-5.33,4.54c-0.84,0.96-1.59,2-2.4,2.99c-0.49,0.59-1.01,1.16-1.57,1.68
		c-0.46,0.43-1.01,0.4-1.46,0.04c-0.45-0.36-0.55-0.86-0.3-1.44c0.13-0.3,0.23-0.61,0.31-0.92c0.17-0.72,0.31-1.45,0.49-2.18
		c0.55-2.35,1.16-4.69,1.66-7.05c0.25-1.16,0.3-2.35-0.01-3.53c-0.45-1.7-2.09-2.55-3.74-1.94c-0.92,0.34-1.58,0.93-2.08,1.76
		c-0.82,1.38-1.09,2.92-1.27,4.46c-0.28,2.4-0.42,4.82-0.62,7.22c-0.07,0.81-0.13,1.62-0.25,2.42c-0.07,0.49-0.43,0.75-0.92,0.82
		c-0.5,0.07-0.94-0.13-1.17-0.57c-0.11-0.2-0.17-0.43-0.23-0.66c-0.26-0.99-0.48-1.99-0.78-2.97c-0.55-1.78-1.11-3.55-1.73-5.3
		c-0.44-1.22-0.93-2.44-1.5-3.6c-0.74-1.49-1.41-1.78-2.95-1.62c-0.64,0.07-1.11,0.32-1.37,0.91c-0.22,0.48-0.48,0.96-0.63,1.46
		c-0.35,1.19-0.26,2.4-0.07,3.6c0.3,1.83,0.67,3.66,1.04,5.48c0.45,2.21,1.13,4.36,2.06,6.42c0.16,0.36,0.16,0.72-0.09,1.06
		c-0.25,0.34-0.61,0.41-1,0.34c-0.2-0.04-0.4-0.12-0.59-0.21c-0.61-0.29-1.22-0.57-1.81-0.9c-1.8-0.99-3.68-1.25-5.65-0.58
		c-0.95,0.33-1.82,0.72-2.37,1.69c-0.7,1.22-0.18,3.79,0.98,4.69c1.1,0.85,2.27,1.6,3.45,2.35c0.5,0.32,1.06,0.6,1.63,0.78
		c1.58,0.49,3.12,1.06,4.6,1.8c0.55,0.28,0.97,0.62,1.24,1.16c0.28,0.57,0.75,0.9,1.31,1.18c0.91,0.45,1.86,0.53,2.85,0.49
		C30.66,36.63,32.64,36.56,34.8,36.48z M34.27,44.94c0,0.9,0.61,1.42,1.5,1.29c0.99-0.14,1.73-1.09,1.63-2.1
		c-0.07-0.74-0.65-1.22-1.39-1.14C35.04,43.1,34.27,43.96,34.27,44.94z"/>
</g>
</svg>
