<?xml version="1.0" encoding="utf-8"?>
<!-- Generator: Adobe Illustrator 25.4.1, SVG Export Plug-In . SVG Version: 6.00 Build 0)  -->
<svg className="duck-side" version="1.1" id="Layer_1" xmlns="http://www.w3.org/2000/svg" xmlns:xlink="http://www.w3.org/1999/xlink" x="0px" y="0px"
	 viewBox="0 0 116.62 154.92" style="enable-background:new 0 0 116.62 154.92;" xml:space="preserve">
<style type="text/css">
	.st0{fill:#FFFFFF;}
</style>
<g>
	<path d="M7.62,143.79c-1-0.3-1.85-0.51-2.67-0.8c-0.59-0.21-1.17-0.49-1.73-0.79c-1.42-0.74-1.96-2.05-2-3.53
		c-0.04-1.35,0.87-2.21,1.95-2.86c0.62-0.37,1.3-0.62,2.08-0.99c-0.36-0.44-0.66-0.83-0.99-1.2c-0.65-0.73-1.22-1.5-1.48-2.46
		c-0.44-1.63,0.23-3.1,1.76-3.83c1.44-0.68,2.96-0.67,4.44-0.32c2.73,0.65,5.43,1.43,8.15,2.14c1.55,0.4,3.11,0.78,4.66,1.15
		c0.31,0.08,0.64,0.11,1.03,0.17c0.25-1.47,0.48-2.86,0.73-4.35c-0.62-0.12-1.15-0.23-1.67-0.31c-1.28-0.21-2.56-0.41-3.84-0.59
		c-0.52-0.07-0.85-0.34-0.92-0.85c-0.05-0.35-0.04-0.73,0.04-1.08c1.1-4.69,2.49-9.3,4.54-13.65c2.47-5.23,5.73-9.94,10.05-13.86
		c3.28-2.98,6.67-5.8,10.63-7.83c2.44-1.26,4.99-2.28,7.6-3.18c2.71-0.93,5.45-1.24,8.27-1.23c0.3,0,0.71-0.09,0.87-0.29
		c0.26-0.32,0.11-0.71-0.28-0.89c-0.24-0.11-0.53-0.16-0.8-0.14c-2.1,0.18-4.2,0.38-6.31,0.57c-0.18,0.02-0.35,0.02-0.65,0.04
		c0-0.36,0-0.69,0-1.01c0.04-4.02,0.08-8.04,0.12-12.07c0.01-0.94-0.01-0.92-0.91-1.23c-3.41-1.16-6.73-2.51-9.78-4.48
		c-3.33-2.14-6.73-4.17-10.04-6.33c-1.23-0.81-2.31-1.85-3.43-2.82c-0.51-0.44-0.52-0.85-0.16-1.45c0.19-0.3,0.4-0.59,0.65-0.96
		c-0.48-0.46-0.92-0.9-1.39-1.32c-0.12-0.11-0.32-0.18-0.49-0.2c-1.38-0.14-2.77-0.21-4.14-0.39c-2.42-0.32-4.84-0.67-7.26-1.06
		c-1.22-0.19-2.05-0.98-2.65-2.02c-0.65-1.13-0.55-2.77,0.32-3.75c0.93-1.05,1.97-1.99,3.35-2.4c0.65-0.2,1.36-0.24,2.04-0.31
		c0.5-0.05,1-0.01,1.51-0.01c0.02-0.07,0.04-0.15,0.07-0.22c-0.46-0.31-0.94-0.59-1.37-0.94c-1.06-0.85-2.14-1.68-3.12-2.62
		c-0.82-0.79-1.28-1.81-1.39-2.98c-0.21-2.36,1.86-4.67,4.24-4.71c1.08-0.02,2.11,0.18,3.05,0.73c1.1,0.64,2.18,1.29,3.4,2.01
		c-0.11-0.31-0.2-0.54-0.27-0.76c-0.44-1.44-0.95-2.87-1.27-4.33c-0.16-0.74-0.1-1.58,0.07-2.32c0.63-2.7,4.17-3.73,6.24-1.78
		c0.91,0.86,1.72,1.89,2.3,2.99c1,1.89,1.8,3.89,2.68,5.85c0.11,0.24,0.21,0.47,0.4,0.87c0.22-0.43,0.35-0.72,0.5-1
		c0.68-1.28,1.33-2.58,2.04-3.84c0.25-0.44,0.56-0.87,0.93-1.22c1.1-1.04,2.31-1.72,3.93-1.17c1.69,0.58,2.6,1.83,2.76,3.48
		c0.12,1.2,0,2.49-0.32,3.66c-0.44,1.62-1.15,3.18-1.76,4.75c-0.23,0.59-0.51,1.16-0.76,1.72c2.49,3.13,7.11,7.2,9.73,8.54
		c0-0.38,0-0.69,0-1.01c-0.07-6.23-0.15-12.46-0.22-18.69c0-0.36-0.06-0.76,0.08-1.07c0.15-0.35,0.44-0.73,0.77-0.91
		c0.42-0.22,0.82,0.06,1.09,0.42c0.62,0.78,1.21,1.59,1.84,2.36c0.49,0.6,1.02,1.17,1.61,1.84c1.23-6.04,3.48-11.37,8.22-15.38
		c-0.32-0.5-0.7-1-0.98-1.56c-1.28-2.47-0.94-4.97-0.11-7.48c1.11-3.34,5.39-6.29,10.22-5.26c1.65,0.35,3.16,0.98,4.67,1.68
		c0.51,0.24,1.04,0.46,1.59,0.7c0.18-0.32,0.31-0.59,0.48-0.83c0.59-0.83,1.39-1.34,2.41-1.45c1.74-0.19,3.32,0.21,4.64,1.37
		c0.55,0.48,0.93,1.15,1.48,1.86c0.72-0.31,1.58-0.66,2.43-1.03c1.11-0.47,2.22-0.96,3.33-1.42c2.02-0.84,4.04-0.48,6.03,0.12
		c2.34,0.71,4.34,1.97,5.95,3.81c2.55,2.92,3.29,6.23,2.05,9.94c-0.03,0.08-0.03,0.17-0.05,0.26c0.72,0.46,1.45,0.88,2.12,1.38
		c0.89,0.67,1.44,1.55,1.22,2.74c-0.13,0.69-0.48,1.26-1.1,1.59c-0.77,0.41-1.56,0.82-2.38,1.09c-1.17,0.39-2.38,0.66-3.58,0.96
		c-0.68,0.17-0.7,0.17-0.89,1.23c0.88,0.91,1.71,1.76,2.56,2.64c1.14-0.26,2.36-0.66,3.6-0.78c1.06-0.1,2.19-0.01,3.22,0.26
		c2.24,0.57,3.03,3.05,1.64,4.9c-0.83,1.11-1.91,1.91-3.09,2.62c-4.56,2.75-9.18,5.39-14.05,7.55c-0.32,0.14-0.6,0.38-0.98,0.62
		c0.5,0.8,0.94,1.55,1.43,2.27c0.95,1.4,1.94,2.77,2.91,4.16c1.11,1.61,2.69,2.69,4.28,3.72c1.42,0.92,2.59,2.07,3.63,3.38
		c1.4,1.75,0.63,4.46-0.85,5.28c-0.87,0.48-1.76,0.42-2.64,0.25c-4.17-0.8-8.16-2.17-12.07-3.82c-0.05-0.02-0.11,0-0.27,0
		c-0.09,0.6-0.19,1.22-0.26,1.83c-0.28,2.43-0.54,4.86-0.83,7.29c-0.17,1.41-0.37,2.81-0.6,4.21c-0.07,0.42,0.04,0.67,0.39,0.9
		c1.89,1.3,3.75,2.66,5.67,3.92c2.05,1.34,4.16,2.58,6.24,3.86c1.02,0.63,1.14,1.1,0.64,2.18c-0.77,1.67-1.87,3.07-3.11,4.42
		c-3.06,3.36-6.31,6.52-9.73,9.5c-3.06,2.67-6.39,5-9.98,6.9c-3.59,1.9-7.32,3.49-11.4,4.01c-2.46,0.31-4.94,0.38-7.4,0.64
		c-1.5,0.16-2.98,0.46-4.62,0.73c0.2,0.39,0.33,0.67,0.49,0.94c2.02,3.48,4.27,6.81,6.82,9.93c0.89,1.08,0.82,1.62-0.25,2.5
		c-0.98,0.8-1.96,1.61-3.01,2.48c0.52,0.64,0.99,1.26,1.52,1.83c0.12,0.13,0.43,0.11,0.65,0.12c0.84,0.03,1.7-0.07,2.51,0.08
		c2.76,0.52,4.31,3.02,3.71,5.77c-0.53,2.41-1.79,4.42-3.51,6.13c-3.64,3.62-6.78,7.63-9.7,11.84c-0.85,1.23-1.84,2.36-3.31,2.86
		c-0.62,0.21-1.29,0.28-1.94,0.34c-0.57,0.05-0.91-0.3-0.98-0.85c-0.07-0.57-0.1-1.14-0.11-1.72c-0.12-5.08-0.24-10.16-0.35-15.24
		c-0.02-1.07,0.12-1.24,1.12-1.71c1.37-0.64,2.71-1.32,4.17-2.03c-0.36-0.47-0.69-0.89-1.08-1.39c-0.43,0.33-0.83,0.63-1.23,0.94
		c-0.36,0.28-0.69,0.6-1.06,0.86c-0.99,0.68-1.8,0.29-1.87-0.9c-0.02-0.27,0-0.54,0.01-0.82c0.08-6.02,0.16-12.04,0.24-18.05
		c0-0.32,0-0.64,0-1.18c-0.79,0.47-1.45,0.77-2,1.2c-1.48,1.15-3.08,2.21-4.31,3.59c-1.33,1.49-2.47,3.23-3.39,5.01
		c-1.05,2.03-1.83,4.21-2.6,6.36c-0.29,0.82-0.58,1.17-1.74,1.22c-0.42,0.02-0.84-0.08-1.26-0.12c-0.39-0.04-0.78-0.07-1.29-0.12
		c-0.11,0.53-0.21,1.08-0.32,1.62c-0.02,0.12-0.01,0.25-0.05,0.36c-0.38,1.02-0.13,1.63,0.89,2.23c2.13,1.26,2.72,4.59,1.34,6.67
		c-1,1.52-2.43,2.58-4.03,3.29c-6.1,2.72-12.13,5.61-18.54,7.55c-1.07,0.32-2.16,0.58-3.26,0.78c-2.46,0.46-4.16-1.15-4.01-3.67
		C6.52,145.98,6.92,144.9,7.62,143.79z M28.83,53.99c1.08,0.86,1.99,1.71,3.02,2.38c3.04,1.97,6.14,3.85,9.21,5.78
		c3.94,2.49,8.17,4.23,12.73,5.28c2.65,0.61,5.32,0.83,7.99,0.96c4.12,0.19,8.21-0.39,12.19-1.5c3.57-0.99,6.84-2.71,10.09-4.45
		c1.83-0.98,3.05-2.54,4.24-4.14c0.28-0.38,0.47-0.85,0.64-1.3c0.25-0.64,0.12-0.92-0.54-1.18c-0.67-0.27-1.4-0.43-2.03-0.76
		c-1.96-1.04-4.12-1.28-6.25-1.67c-1.9-0.35-3.8-0.72-5.69-1.11c-1.13-0.23-1.95-1.03-2.87-1.65c-0.43-0.29-0.77-0.36-1.31-0.18
		c-1.4,0.47-2.82,0.94-4.27,1.19c-2.14,0.36-4.32,0.5-6.47,0.77c-2.87,0.36-5.53-0.32-8-1.73c-1.12-0.64-2.11-1.51-3.16-2.28
		c-2.19-1.61-4.37-3.23-6.2-5.28c-0.52-0.58-1.1-1.1-1.67-1.67C36.63,45.61,32.79,49.74,28.83,53.99z M88.56,39.68
		c1.23,1.06,2.32,2.08,3.82,2.4c0.47,0.1,1.04,0.09,1.48-0.09c6.17-2.52,12.01-5.7,17.65-9.23c0.77-0.48,1.46-1.19,2.01-1.92
		c0.62-0.81,0.29-1.64-0.67-2.03c-0.3-0.12-0.64-0.18-0.96-0.23c-2-0.27-3.87,0.21-5.57,1.18c-3.05,1.73-6.05,3.55-9.04,5.37
		c-0.71,0.43-1.32,0.48-2-0.02c-1.22-0.89-2.46-1.75-3.69-2.62c-1.11-0.79-2.18-1.63-3.33-2.35c-1.48-0.92-3.03-1.03-4.49,0.07
		c-0.57,0.43-1.04,1-1.51,1.54c-0.84,0.99-1.62,2.02-2.83,2.63c-2,1.01-3.86,2.19-5.5,3.77c-1.73,1.67-3.07,3.53-3.5,5.89
		c-0.31,1.72-0.03,3.44,1.41,4.63c0.9,0.74,1.95,1.32,3.01,1.82c1.86,0.86,3.94,0.83,5.92,1.23c1.59,0.32,3.23,0.58,4.73,1.15
		c3.01,1.14,6.02,2.29,8.94,3.71c2.21,1.07,4.61,1.79,6.96,2.55c1.49,0.48,3.04,0.77,4.58,1.09c0.65,0.13,1.3,0.12,1.74-0.6
		c0.45-0.72,0.35-1.35-0.19-1.89c-1.09-1.08-2.15-2.21-3.35-3.16c-1.7-1.34-3.47-2.59-5.39-3.65c-2.35-1.29-4.54-2.87-6.79-4.33
		c-1.98-1.28-3.97-2.54-5.93-3.85c-0.51-0.34-0.87-0.3-1.38,0.02c-0.84,0.53-1.75,0.96-2.65,1.37c-0.81,0.36-1.35,0.21-1.57-0.31
		c-0.23-0.54,0.04-0.93,0.92-1.27c1.54-0.59,2.91-1.46,4.13-2.57c1.12-1.02,2.23-2.04,3.37-3.03c0.53-0.47,1.11-0.47,1.46-0.08
		c0.31,0.35,0.2,0.85-0.3,1.33C89.58,38.68,89.11,39.14,88.56,39.68z M73.57,15.11c0,0.07,0,0.14,0,0.22
		c0.17,0.05,0.33,0.11,0.51,0.15c2.35,0.55,4.72,1.05,7.06,1.65c0.95,0.24,1.84,0.21,2.76-0.06c4.17-1.27,8.47-1.7,12.78-1.9
		c2.95-0.14,5.92-0.31,8.85,0.32c0.78,0.17,1.03,0,1.37-0.71c0.13-0.27,0.24-0.57,0.26-0.86c0.15-1.8,0.03-3.6-0.9-5.19
		c-1.37-2.36-3.43-3.92-6.02-4.81c-2.08-0.71-4.09-0.87-6.15,0.12c-1.76,0.86-3.57,1.65-5.4,2.34c-2.43,0.92-4.91,0.96-7.33-0.1
		c-1.49-0.65-2.95-1.38-4.42-2.07c-1.43-0.67-2.88-1.24-4.46-1.44c-2.45-0.31-4.57,0.39-6.25,2.17c-1.77,1.88-2.08,4.24-1.73,6.68
		c0.14,0.99,0.63,1.9,1.45,2.55c0.23,0.18,0.63,0.35,0.87,0.27c1.03-0.32,2.01-0.21,3.03,0.04c0.36,0.09,0.86,0,1.18-0.19
		c1.56-0.92,3.18-1.55,5.02-1.67c1.56-0.11,3,0.2,4.43,0.72c0.57,0.2,0.77,0.65,0.64,1.14c-0.13,0.48-0.56,0.74-1.15,0.63
		c-0.47-0.09-0.93-0.27-1.4-0.39C76.85,14.28,75.19,14.45,73.57,15.11z M25.44,126.45c-0.25,1.48-0.47,2.8-0.69,4.17
		c0.39,0.05,0.72,0.01,0.91,0.15c0.29,0.21,0.64,0.52,0.68,0.83c0.04,0.25-0.29,0.61-0.53,0.83c-0.15,0.14-0.46,0.17-0.69,0.15
		c-1.2-0.12-2.43-0.15-3.6-0.42c-2.65-0.61-5.27-1.35-7.9-2c-2.02-0.5-4.04-1.03-6.08-1.4c-0.69-0.12-1.5,0.1-2.19,0.35
		c-0.76,0.27-1.04,0.9-0.67,1.6c0.45,0.87,1.05,1.68,1.68,2.43c1.43,1.71,1.2,2.81-0.84,3.69c-0.53,0.23-1.07,0.44-1.55,0.74
		c-0.76,0.47-0.88,0.92-0.39,1.67c0.7,1.06,1.68,1.8,2.91,2.19c0.52,0.16,1.04,0.32,1.55,0.5c1.48,0.52,1.88,1.6,1.14,3
		c-0.25,0.48-0.53,0.96-0.68,1.47c-0.39,1.33,0.03,1.96,1.4,2.11c1.31,0.14,2.6,0.04,3.85-0.38c1.57-0.53,3.16-1.05,4.69-1.69
		c4.26-1.78,8.53-3.58,12.74-5.47c1.1-0.5,2.1-1.32,3.02-2.12c1.01-0.87,1.19-2.02,0.72-3.31c-0.37-1-1.05-1.61-2.01-1.94
		c-0.81-0.28-1.15-0.84-1.09-1.66c0.03-0.42,0.09-0.84,0.13-1.26c0.08-0.97-0.24-1.86-0.72-2.67c-0.4-0.67-1.16-0.55-1.79-0.7
		c-0.09-0.02-0.18-0.04-0.26-0.06C27.96,126.97,26.76,126.72,25.44,126.45z M28.82,51.08c0.18-0.16,0.32-0.27,0.45-0.4
		c1.9-1.99,3.86-3.93,5.69-5.97c1.58-1.76,3.36-3.39,4.23-5.7c0.89-2.37,1.95-4.68,2.78-7.07c0.4-1.15,0.56-2.42-0.16-3.6
		c-0.62-1.01-1.67-1.32-2.61-0.62c-0.49,0.37-0.97,0.86-1.25,1.4c-1.11,2.11-2.16,4.25-3.2,6.4c-0.24,0.48-0.44,0.95-1.08,0.93
		c-0.64-0.02-0.82-0.49-0.99-1.01c-1-3.08-2.2-6.08-3.81-8.9c-0.43-0.75-1.02-1.44-1.66-2.01c-1.13-1.01-2.86-0.41-3.17,1.05
		c-0.1,0.46-0.11,0.97-0.02,1.43c0.37,2.07,1.13,4.01,2.16,5.84c0.4,0.71,0.84,1.4,1.26,2.1c0.41,0.68,0.43,1.2,0.05,1.58
		c-0.41,0.4-0.96,0.37-1.64-0.12c-0.39-0.28-0.75-0.62-1.15-0.89c-1.75-1.18-3.49-2.39-5.28-3.5c-0.54-0.33-1.25-0.48-1.89-0.52
		c-1.83-0.11-3.16,1.85-2.37,3.49c0.29,0.61,0.74,1.19,1.25,1.63c0.91,0.79,1.89,1.51,2.89,2.18c1,0.67,2.07,1.25,3.11,1.86
		c0.46,0.27,0.74,0.63,0.62,1.18c-0.12,0.57-0.51,0.87-1.08,0.96c-0.09,0.01-0.18,0.02-0.27,0.02c-1.33,0.04-2.66,0.19-3.98,0.11
		c-1.79-0.11-3.07,0.74-4.19,1.95c-0.52,0.56-0.53,1.19-0.16,1.84c0.36,0.63,0.92,0.95,1.61,1.06c2.09,0.32,4.17,0.65,6.27,0.9
		c1.58,0.19,3.19,0.23,4.77,0.43c0.5,0.06,1,0.38,1.42,0.68C27.93,50.14,28.35,50.62,28.82,51.08z M68.24,16.46
		c-0.02-0.07-0.05-0.14-0.07-0.2c-0.46,0.1-0.94,0.15-1.39,0.3c-1.87,0.62-3.4,1.76-4.47,3.39c-1.87,2.87-3.49,5.86-4.1,9.3
		c-0.45,2.53-0.91,5.05-1.38,7.57c-0.16,0.85-0.09,0.98,0.76,1.18c1.04,0.24,1.4,0.77,1.23,1.81c-0.06,0.39-0.17,0.77-0.18,1.16
		c-0.04,1.19,0.95,1.85,2.02,1.4c1.41-0.6,2.81-0.6,3.99,0.47c0.73,0.66,1.3,1.49,1.96,2.22c0.19,0.21,0.42,0.48,0.66,0.51
		c0.43,0.05,0.88-0.05,1.27-0.09c0.19-2.89,1.16-5.37,3.13-7.4c1.01-1.04,2.11-1.98,3.18-2.96c0.2-0.19,0.42-0.36,0.66-0.56
		c-1.46-0.45-2.81-0.79-4.1-1.28c-3.17-1.21-4.61-3.5-4.35-6.9c0.08-1.04,0.3-2.1,0.64-3.09c0.42-1.23,1-2.43,2.22-3.09
		c1.28-0.7,2.64-0.94,4.11-0.79c2.1,0.21,4.09,0.8,6.03,1.56c2.93,1.14,4.3,2.84,4.47,5.75c0.02,0.35,0.08,0.7,0.13,1.13
		c1.89-0.37,3.5,0.24,5.08,1.15c0.07-0.21,0.14-0.32,0.15-0.43c0.22-1.87,1.27-3.23,2.69-4.34c0.29-0.23,0.71-0.42,1.07-0.41
		c2.68,0.04,5.37,0.03,8.02,0.54c0.11,0.02,0.23,0,0.39,0c0.04-0.26,0.08-0.48,0.13-0.75c-0.33-0.11-0.61-0.23-0.89-0.3
		c-3.17-0.77-6.33-1.58-9.52-2.28c-3.89-0.85-7.82-1.58-11.71-2.42c-2.68-0.58-5.35-1.27-8.01-1.94c-0.59-0.15-1.05-0.1-1.47,0.35
		c-0.6,0.63-1.24,1.23-1.83,1.87c-0.47,0.51-0.99,0.68-1.42,0.4c-0.45-0.29-0.5-0.93-0.08-1.53C67.55,17.29,67.9,16.88,68.24,16.46z
		 M53.13,150.29c0.31-0.04,0.67-0.04,1-0.12c1.09-0.25,1.71-1.1,2.29-1.95c2.63-3.77,5.43-7.4,8.72-10.64
		c0.49-0.48,0.91-1.05,1.31-1.61c1.19-1.64,1.85-3.48,1.63-5.52c-0.2-1.97-0.68-2.27-2.41-2.37c-0.44-0.03-0.9,0.05-1.34,0.15
		c-0.89,0.2-1.6,0.06-2.08-0.81c-0.17-0.31-0.45-0.57-0.73-0.79c-0.58-0.45-1.46-0.5-2.04-0.06c-1.05,0.8-2.06,1.66-3.07,2.49
		c0.83,1.32,1.07,1.57,2.11,2.2c0.39,0.24,0.57,0.63,0.37,1c-0.16,0.31-0.51,0.57-0.84,0.72c-1.49,0.73-3.03,1.36-4.5,2.12
		c-1.11,0.58-1.11,0.7-0.83,2.06c0.19,0.02,0.4,0.03,0.6,0.08c0.71,0.2,0.92,0.95,0.42,1.49c-0.16,0.17-0.41,0.26-0.58,0.43
		c-0.17,0.18-0.4,0.41-0.41,0.63c-0.04,1.25-0.02,2.5-0.02,3.76c0.45-0.32,0.7-0.69,0.99-1.02c0.39-0.44,0.9-0.52,1.29-0.25
		c0.4,0.28,0.5,0.78,0.22,1.29c-0.19,0.34-0.44,0.65-0.65,0.98C53.51,146.27,52.43,147.96,53.13,150.29z M86.24,87.38
		c-0.79,0.7-1.58,1.36-2.31,2.07c-2.25,2.18-4.48,4.39-6.74,6.57c-0.32,0.31-0.36,0.65-0.32,1.06c0.13,1.41,0.23,2.82,0.34,4.24
		c0.04,0.53,0.06,1.06,0.1,1.73c5.62-2.45,10.39-5.89,14.68-9.73c-1.83-1.93-3.58-3.77-5.32-5.6C86.56,87.59,86.4,87.5,86.24,87.38z
		 M56.79,50.48c0.71-0.78,1.31-1.4,1.87-2.05c0.17-0.21,0.35-0.54,0.31-0.77c-0.18-1.02-0.45-2.02-0.7-3.1
		c-0.62-0.15-1.43-0.28-2.18-0.54c-1.29-0.45-1.37-0.88-0.62-1.98c0.5-0.74,0.87-1.56,1.33-2.4c-0.42-0.21-0.7-0.37-1-0.5
		c-0.98-0.45-1.15-0.8-0.88-1.85c0.13-0.5,0.25-1,0.36-1.5c0.59-2.64,0.58-2.64-1.27-4.57c-0.44-0.46-0.87-0.93-1.4-1.49
		c0,0.47,0,0.77,0,1.08c0.05,4.23,0.13,8.46,0.15,12.68c0.01,2.02,0.67,3.83,1.57,5.6C54.91,50.2,55.85,50.54,56.79,50.48z
		 M28.91,118.42c-2.68-0.51-5.27-1.01-7.89-1.5c-0.83,2.17-1.47,4.25-1.85,6.46c2.78,0.51,5.44,1,8.17,1.5
		C27.87,122.72,28.37,120.65,28.91,118.42z M30.77,118.78c-0.53,2.23-1.04,4.35-1.57,6.55c2.45,0.47,4.76,0.9,7.06,1.35
		c0.48,0.09,0.67-0.11,0.85-0.56c0.67-1.74,1.4-3.47,2.1-5.2c0.05-0.13,0.07-0.27,0.12-0.49C36.49,119.88,33.72,119.35,30.77,118.78
		z M73.25,31.85c-0.59-4.75,1.29-7.81,5.78-9.38c-1.93-0.9-3.79-1.3-5.69-1.41c-2.02-0.12-3.37,0.76-4.03,2.56
		c-0.74,2.01-0.73,4.03,0.31,5.96c0.26,0.48,0.67,0.97,1.14,1.23C71.53,31.25,72.4,31.51,73.25,31.85z M88.7,69.72
		c0.96-0.78,1.45-1.78,1.53-2.99c0.03-0.36,0.09-0.72,0.13-1.08c0.14-1.41,0.33-2.82,0.39-4.23c0.03-0.78-0.02-1.61-0.73-2.3
		c-1.73,2.76-4.08,4.73-6.91,6.01C85.02,66.7,86.83,68.18,88.7,69.72z M58.84,124.64c1.77-1.46,3.41-2.81,5.08-4.19
		c-0.95-1.24-1.83-2.37-2.74-3.56c-1.72,1.39-3.38,2.73-5.09,4.12C57.02,122.23,57.9,123.4,58.84,124.64z M95.78,32.94
		c-0.5-2.93,0.52-5.12,2.59-6.98c-1.39-0.14-2.75-0.28-4.07-0.14c-0.6,0.06-1.23,0.59-1.7,1.06c-0.63,0.64-0.78,1.54-0.89,2.42
		c-0.11,0.84,0.17,1.49,0.91,1.91C93.61,31.76,94.62,32.3,95.78,32.94z M65.28,46.56c-0.55-0.98-1.02-1.88-1.95-2.35
		c-0.42-0.21-0.99-0.34-1.44-0.26c-1.38,0.26-1.82,1.28-1.26,2.68c0.58,1.45,0.39,2.25-0.79,3.29c-0.16,0.15-0.31,0.32-0.52,0.54
		c1.25,0.07,2.3-0.09,3.13-0.93C63.39,48.57,64.31,47.58,65.28,46.56z M52.76,129.61c1.6-1.32,3.08-2.53,4.61-3.79
		c-0.95-1.24-1.83-2.39-2.75-3.59c-0.59,0.47-1.09,0.85-1.57,1.27c-0.14,0.12-0.28,0.34-0.28,0.52
		C52.75,125.82,52.76,127.63,52.76,129.61z M96.38,82.6c-0.27-0.44-0.45-0.99-0.83-1.31c-1.12-0.96-3.13-0.55-3.87,0.73
		c-0.32,0.56-0.37,1.15-0.09,1.74c0.41,0.87,1.55,1.32,2.65,1.07C95.45,84.56,96.22,83.73,96.38,82.6z M86.59,5.03
		c-0.2-1.1-1.24-1.86-2.65-2.03C82.78,2.85,81.83,3,81.44,4.22C83.01,5.25,84.74,5.29,86.59,5.03z M68.49,47.54
		c-1.31-0.29-2.93,0.88-3.28,2.38c0.61-0.16,1.19-0.3,1.77-0.46C67.94,49.19,68.38,48.65,68.49,47.54z"/>
	<path d="M37.35,17.13c0.1,0.01,0.2,0.01,0.3,0.02c0.01,0,0.02,0.07,0.01,0.07c-0.1,0.03-0.21,0.05-0.31,0.07
		C37.35,17.24,37.35,17.19,37.35,17.13z"/>
	<path class="st0" d="M28.83,53.99c3.95-4.25,7.79-8.38,11.65-12.53c0.57,0.56,1.15,1.09,1.67,1.67c1.83,2.05,4.01,3.67,6.2,5.28
		c1.05,0.77,2.04,1.64,3.16,2.28c2.47,1.41,5.13,2.09,8,1.73c2.16-0.27,4.33-0.41,6.47-0.77c1.45-0.24,2.87-0.71,4.27-1.19
		c0.54-0.18,0.88-0.11,1.31,0.18c0.92,0.61,1.74,1.41,2.87,1.65c1.89,0.39,3.79,0.76,5.69,1.11c2.13,0.39,4.29,0.63,6.25,1.67
		c0.63,0.34,1.36,0.49,2.03,0.76c0.66,0.26,0.79,0.54,0.54,1.18c-0.17,0.45-0.36,0.91-0.64,1.3c-1.19,1.6-2.41,3.16-4.24,4.14
		c-3.25,1.75-6.53,3.46-10.09,4.45c-3.98,1.11-8.06,1.69-12.19,1.5c-2.67-0.12-5.34-0.35-7.99-0.96c-4.56-1.05-8.79-2.79-12.73-5.28
		c-3.06-1.94-6.16-3.82-9.21-5.78C30.83,55.71,29.92,54.85,28.83,53.99z"/>
	<path class="st0" d="M88.56,39.68c0.55-0.54,1.02-1.01,1.5-1.46c0.5-0.48,0.61-0.98,0.3-1.33c-0.35-0.39-0.93-0.39-1.46,0.08
		c-1.13,1-2.25,2.02-3.37,3.03c-1.22,1.11-2.59,1.98-4.13,2.57c-0.89,0.34-1.16,0.73-0.92,1.27c0.23,0.53,0.77,0.67,1.57,0.31
		c0.91-0.41,1.81-0.84,2.65-1.37c0.51-0.32,0.87-0.36,1.38-0.02c1.96,1.31,3.95,2.57,5.93,3.85c2.26,1.46,4.44,3.04,6.79,4.33
		c1.92,1.06,3.69,2.31,5.39,3.65c1.2,0.94,2.27,2.07,3.35,3.16c0.54,0.54,0.64,1.17,0.19,1.89c-0.45,0.72-1.09,0.74-1.74,0.6
		c-1.54-0.32-3.09-0.61-4.58-1.09c-2.35-0.76-4.75-1.47-6.96-2.55c-2.91-1.41-5.92-2.57-8.94-3.71c-1.51-0.57-3.14-0.83-4.73-1.15
		c-1.98-0.4-4.05-0.37-5.92-1.23c-1.06-0.49-2.11-1.08-3.01-1.82c-1.44-1.19-1.72-2.91-1.41-4.63c0.43-2.36,1.77-4.22,3.5-5.89
		c1.64-1.58,3.5-2.76,5.5-3.77c1.21-0.61,1.98-1.64,2.83-2.63c0.47-0.55,0.94-1.11,1.51-1.54c1.45-1.11,3.01-0.99,4.49-0.07
		c1.15,0.72,2.22,1.56,3.33,2.35c1.23,0.87,2.47,1.73,3.69,2.62c0.68,0.5,1.28,0.45,2,0.02c3-1.82,5.99-3.63,9.04-5.37
		c1.71-0.97,3.58-1.45,5.57-1.18c0.33,0.04,0.66,0.11,0.96,0.23c0.96,0.39,1.29,1.22,0.67,2.03c-0.56,0.73-1.24,1.43-2.01,1.92
		c-5.64,3.53-11.48,6.71-17.65,9.23c-0.44,0.18-1.01,0.19-1.48,0.09C90.87,41.76,89.79,40.74,88.56,39.68z M88.82,33.93
		c0.21-0.17,0.59-0.32,0.67-0.56c0.09-0.29,0.03-0.82-0.17-0.96c-0.7-0.51-1.46-0.94-2.24-1.31c-0.36-0.17-0.84-0.04-0.99,0.39
		c-0.1,0.3-0.12,0.8,0.06,0.99C86.83,33.21,87.74,33.62,88.82,33.93z"/>
	<path class="st0" d="M73.57,15.11c1.62-0.66,3.28-0.83,5-0.39c0.47,0.12,0.92,0.3,1.4,0.39c0.58,0.11,1.01-0.15,1.15-0.63
		c0.14-0.49-0.07-0.94-0.64-1.14c-1.43-0.51-2.88-0.82-4.43-0.72c-1.84,0.12-3.46,0.75-5.02,1.67c-0.33,0.19-0.82,0.28-1.18,0.19
		c-1.02-0.25-2-0.36-3.03-0.04c-0.24,0.08-0.64-0.09-0.87-0.27c-0.82-0.65-1.3-1.56-1.45-2.55c-0.35-2.45-0.04-4.8,1.73-6.68
		c1.68-1.79,3.79-2.49,6.25-2.17c1.58,0.2,3.03,0.78,4.46,1.44c1.47,0.69,2.93,1.42,4.42,2.07c2.42,1.06,4.9,1.02,7.33,0.1
		c1.83-0.69,3.64-1.48,5.4-2.34c2.06-1,4.07-0.83,6.15-0.12c2.59,0.88,4.65,2.45,6.02,4.81c0.92,1.59,1.05,3.38,0.9,5.19
		c-0.02,0.29-0.14,0.59-0.26,0.86c-0.33,0.7-0.59,0.88-1.37,0.71c-2.93-0.63-5.9-0.46-8.85-0.32c-4.32,0.2-8.62,0.64-12.78,1.9
		c-0.92,0.28-1.81,0.31-2.76,0.06c-2.34-0.6-4.7-1.1-7.06-1.65c-0.17-0.04-0.34-0.1-0.51-0.15C73.57,15.25,73.57,15.18,73.57,15.11z
		"/>
	<path class="st0" d="M25.44,126.45c1.31,0.27,2.52,0.52,3.73,0.77c0.09,0.02,0.18,0.04,0.26,0.06c0.63,0.15,1.39,0.03,1.79,0.7
		c0.49,0.81,0.8,1.69,0.72,2.67c-0.03,0.42-0.1,0.84-0.13,1.26c-0.06,0.83,0.27,1.38,1.09,1.66c0.96,0.33,1.64,0.94,2.01,1.94
		c0.47,1.29,0.29,2.43-0.72,3.31c-0.93,0.8-1.92,1.62-3.02,2.12c-4.21,1.9-8.47,3.69-12.74,5.47c-1.53,0.64-3.12,1.16-4.69,1.69
		c-1.25,0.42-2.54,0.53-3.85,0.38c-1.37-0.15-1.79-0.78-1.4-2.11c0.15-0.51,0.43-0.99,0.68-1.47c0.75-1.4,0.35-2.48-1.14-3
		c-0.51-0.18-1.03-0.34-1.55-0.5c-1.23-0.38-2.21-1.13-2.91-2.19c-0.49-0.75-0.37-1.19,0.39-1.67c0.48-0.3,1.03-0.51,1.55-0.74
		c2.04-0.88,2.27-1.98,0.84-3.69c-0.63-0.76-1.23-1.56-1.68-2.43c-0.37-0.71-0.09-1.33,0.67-1.6c0.69-0.24,1.5-0.47,2.19-0.35
		c2.05,0.37,4.06,0.9,6.08,1.4c2.64,0.66,5.26,1.4,7.9,2c1.17,0.27,2.39,0.31,3.6,0.42c0.23,0.02,0.53-0.01,0.69-0.15
		c0.24-0.22,0.57-0.58,0.53-0.83c-0.05-0.31-0.39-0.62-0.68-0.83c-0.19-0.14-0.52-0.09-0.91-0.15
		C24.98,129.25,25.2,127.93,25.44,126.45z M12.33,143.57c0.37-0.07,0.55-0.09,0.72-0.14c1.48-0.41,2.96-0.82,4.44-1.24
		c0.23-0.07,0.47-0.14,0.68-0.25c0.38-0.21,0.55-0.55,0.47-0.98c-0.08-0.46-0.4-0.67-0.83-0.69c-0.3-0.01-0.6,0.03-0.89,0.11
		c-1.31,0.35-2.62,0.71-3.92,1.08c-0.34,0.1-0.69,0.23-1,0.41c-0.4,0.24-0.63,0.65-0.39,1.07
		C11.77,143.24,12.14,143.42,12.33,143.57z M14.42,135.47c0-0.01,0-0.01,0-0.02c0.09,0.01,0.18,0.02,0.27,0.02
		c0.79,0.01,1.23-0.27,1.28-0.83c0.05-0.62-0.37-0.98-1.19-1.04c-0.6-0.04-1.2-0.09-1.8-0.14c-0.9-0.07-1.8-0.17-2.7-0.2
		c-0.51-0.02-0.86,0.28-0.92,0.81c-0.06,0.49,0.22,0.8,0.66,0.95c0.2,0.07,0.41,0.11,0.61,0.13
		C11.9,135.26,13.16,135.36,14.42,135.47z"/>
	<path class="st0" d="M28.82,51.08c-0.48-0.45-0.9-0.94-1.41-1.31C27,49.46,26.5,49.15,26,49.09c-1.58-0.2-3.19-0.24-4.77-0.43
		c-2.1-0.25-4.18-0.59-6.27-0.9c-0.69-0.1-1.25-0.43-1.61-1.06c-0.37-0.65-0.36-1.28,0.16-1.84c1.13-1.21,2.4-2.06,4.19-1.95
		c1.32,0.08,2.66-0.06,3.98-0.11c0.09,0,0.18-0.01,0.27-0.02c0.56-0.09,0.95-0.39,1.08-0.96c0.12-0.55-0.16-0.91-0.62-1.18
		c-1.04-0.61-2.11-1.19-3.11-1.86c-1-0.67-1.98-1.39-2.89-2.18c-0.51-0.44-0.96-1.03-1.25-1.63c-0.79-1.64,0.54-3.6,2.37-3.49
		c0.64,0.04,1.35,0.19,1.89,0.52c1.8,1.11,3.53,2.31,5.28,3.5c0.4,0.27,0.75,0.61,1.15,0.89c0.68,0.49,1.23,0.53,1.64,0.12
		c0.38-0.37,0.36-0.89-0.05-1.58c-0.42-0.7-0.86-1.39-1.26-2.1c-1.03-1.83-1.78-3.77-2.16-5.84c-0.08-0.46-0.08-0.97,0.02-1.43
		c0.32-1.47,2.04-2.06,3.17-1.05c0.64,0.57,1.24,1.26,1.66,2.01c1.6,2.82,2.81,5.82,3.81,8.9c0.17,0.52,0.35,0.99,0.99,1.01
		c0.63,0.02,0.84-0.45,1.08-0.93c1.05-2.14,2.09-4.29,3.2-6.4c0.28-0.54,0.76-1.03,1.25-1.4c0.94-0.7,1.99-0.39,2.61,0.62
		c0.72,1.18,0.56,2.45,0.16,3.6c-0.83,2.39-1.89,4.7-2.78,7.07c-0.87,2.31-2.65,3.94-4.23,5.7c-1.84,2.05-3.79,3.99-5.69,5.97
		C29.15,50.8,29.01,50.91,28.82,51.08z"/>
	<path class="st0" d="M68.24,16.46c-0.33,0.42-0.69,0.83-0.99,1.27c-0.42,0.6-0.37,1.24,0.08,1.53c0.43,0.28,0.95,0.11,1.42-0.4
		c0.59-0.64,1.23-1.24,1.83-1.87c0.43-0.45,0.89-0.49,1.47-0.35c2.66,0.67,5.33,1.36,8.01,1.94c3.9,0.85,7.82,1.57,11.71,2.42
		c3.19,0.7,6.35,1.51,9.52,2.28c0.29,0.07,0.57,0.19,0.89,0.3c-0.05,0.27-0.09,0.49-0.13,0.75c-0.16,0-0.28,0.02-0.39,0
		c-2.65-0.51-5.34-0.5-8.02-0.54c-0.36-0.01-0.78,0.19-1.07,0.41c-1.43,1.11-2.48,2.47-2.69,4.34c-0.01,0.11-0.07,0.22-0.15,0.43
		c-1.57-0.91-3.19-1.52-5.08-1.15c-0.05-0.43-0.11-0.78-0.13-1.13c-0.17-2.91-1.54-4.61-4.47-5.75c-1.94-0.76-3.93-1.34-6.03-1.56
		c-1.47-0.15-2.83,0.09-4.11,0.79c-1.22,0.67-1.81,1.86-2.22,3.09c-0.34,0.99-0.56,2.05-0.64,3.09c-0.27,3.4,1.18,5.69,4.35,6.9
		c1.29,0.49,2.64,0.83,4.1,1.28c-0.24,0.2-0.46,0.37-0.66,0.56c-1.06,0.98-2.17,1.92-3.18,2.96c-1.97,2.03-2.94,4.51-3.13,7.4
		c-0.4,0.04-0.84,0.14-1.27,0.09c-0.24-0.03-0.47-0.3-0.66-0.51c-0.66-0.74-1.24-1.56-1.96-2.22c-1.18-1.07-2.58-1.07-3.99-0.47
		c-1.07,0.45-2.06-0.2-2.02-1.4c0.01-0.39,0.12-0.77,0.18-1.16c0.17-1.05-0.19-1.58-1.23-1.81c-0.86-0.19-0.92-0.33-0.76-1.18
		c0.47-2.52,0.93-5.05,1.38-7.57c0.61-3.43,2.24-6.43,4.1-9.3c1.06-1.63,2.6-2.77,4.47-3.39c0.45-0.15,0.92-0.2,1.39-0.3
		C68.19,16.32,68.21,16.39,68.24,16.46z"/>
	<path class="st0" d="M53.13,150.29c-0.69-2.34,0.38-4.03,1.48-5.71c0.21-0.33,0.47-0.64,0.65-0.98c0.28-0.51,0.17-1.02-0.22-1.29
		c-0.39-0.27-0.9-0.2-1.29,0.25c-0.29,0.33-0.54,0.7-0.99,1.02c0-1.25-0.02-2.5,0.02-3.76c0.01-0.22,0.24-0.45,0.41-0.63
		c0.16-0.17,0.42-0.26,0.58-0.43c0.5-0.54,0.29-1.29-0.42-1.49c-0.2-0.06-0.41-0.06-0.6-0.08c-0.28-1.36-0.29-1.49,0.83-2.06
		c1.47-0.76,3.01-1.4,4.5-2.12c0.33-0.16,0.67-0.42,0.84-0.72c0.2-0.37,0.01-0.76-0.37-1c-1.03-0.63-1.27-0.88-2.11-2.2
		c1.02-0.83,2.02-1.69,3.07-2.49c0.58-0.44,1.46-0.39,2.04,0.06c0.28,0.22,0.56,0.48,0.73,0.79c0.48,0.87,1.19,1.01,2.08,0.81
		c0.44-0.1,0.9-0.18,1.34-0.15c1.72,0.1,2.2,0.41,2.41,2.37c0.21,2.04-0.44,3.88-1.63,5.52c-0.41,0.56-0.82,1.13-1.31,1.61
		c-3.28,3.24-6.09,6.86-8.72,10.64c-0.59,0.84-1.2,1.69-2.29,1.95C53.79,150.25,53.44,150.26,53.13,150.29z"/>
	<path class="st0" d="M86.24,87.38c0.16,0.12,0.31,0.21,0.43,0.34c1.75,1.83,3.49,3.67,5.32,5.6c-4.29,3.84-9.06,7.28-14.68,9.73
		c-0.04-0.68-0.06-1.21-0.1-1.73c-0.11-1.41-0.21-2.83-0.34-4.24c-0.04-0.42,0-0.75,0.32-1.06c2.25-2.18,4.48-4.39,6.74-6.57
		C84.67,88.74,85.45,88.09,86.24,87.38z"/>
	<path class="st0" d="M56.79,50.48c-0.94,0.06-1.88-0.28-2.46-1.4c-0.9-1.76-1.56-3.58-1.57-5.6c-0.03-4.23-0.1-8.46-0.15-12.68
		c0-0.3,0-0.6,0-1.08c0.53,0.57,0.96,1.04,1.4,1.49c1.85,1.93,1.86,1.93,1.27,4.57c-0.11,0.5-0.23,1-0.36,1.5
		c-0.27,1.06-0.1,1.41,0.88,1.85c0.3,0.14,0.59,0.29,1,0.5c-0.46,0.84-0.83,1.66-1.33,2.4c-0.75,1.11-0.67,1.54,0.62,1.98
		c0.76,0.26,1.56,0.39,2.18,0.54c0.25,1.07,0.51,2.08,0.7,3.1c0.04,0.23-0.14,0.56-0.31,0.77C58.11,49.08,57.51,49.7,56.79,50.48z"
		/>
	<path class="st0" d="M28.91,118.42c-0.54,2.23-1.04,4.3-1.57,6.45c-2.73-0.5-5.39-0.99-8.17-1.5c0.38-2.21,1.01-4.29,1.85-6.46
		C23.64,117.42,26.23,117.91,28.91,118.42z"/>
	<path class="st0" d="M30.77,118.78c2.94,0.57,5.72,1.1,8.55,1.65c-0.05,0.21-0.07,0.36-0.12,0.49c-0.7,1.73-1.43,3.45-2.1,5.2
		c-0.17,0.45-0.37,0.65-0.85,0.56c-2.31-0.44-4.61-0.88-7.06-1.35C29.73,123.12,30.24,121,30.77,118.78z"/>
	<path class="st0" d="M73.25,31.85c-0.86-0.35-1.73-0.61-2.5-1.04c-0.47-0.26-0.88-0.75-1.14-1.23c-1.04-1.92-1.05-3.95-0.31-5.96
		c0.66-1.8,2.01-2.68,4.03-2.56c1.9,0.11,3.76,0.5,5.69,1.41C74.54,24.04,72.66,27.1,73.25,31.85z"/>
	<path class="st0" d="M88.7,69.72c-1.87-1.53-3.68-3.02-5.59-4.58c2.83-1.28,5.18-3.25,6.91-6.01c0.71,0.69,0.76,1.52,0.73,2.3
		c-0.06,1.41-0.25,2.82-0.39,4.23c-0.04,0.36-0.1,0.72-0.13,1.08C90.15,67.94,89.66,68.93,88.7,69.72z"/>
	<path class="st0" d="M58.84,124.64c-0.94-1.25-1.82-2.41-2.75-3.64c1.71-1.38,3.36-2.72,5.09-4.12c0.92,1.19,1.79,2.33,2.74,3.56
		C62.25,121.83,60.61,123.18,58.84,124.64z"/>
	<path class="st0" d="M95.78,32.94c-1.16-0.64-2.17-1.18-3.16-1.74c-0.74-0.42-1.01-1.07-0.91-1.91c0.11-0.88,0.26-1.78,0.89-2.42
		c0.47-0.47,1.09-1,1.7-1.06c1.32-0.14,2.68,0,4.07,0.14C96.3,27.82,95.28,30,95.78,32.94z"/>
	<path class="st0" d="M65.28,46.56c-0.97,1.02-1.89,2.01-2.84,2.97c-0.83,0.85-1.88,1.01-3.13,0.93c0.22-0.23,0.36-0.4,0.52-0.54
		c1.17-1.04,1.37-1.83,0.79-3.29c-0.56-1.41-0.12-2.43,1.26-2.68c0.45-0.08,1.02,0.04,1.44,0.26
		C64.26,44.68,64.74,45.58,65.28,46.56z"/>
	<path class="st0" d="M52.76,129.61c0-1.99-0.01-3.79,0.01-5.59c0-0.18,0.14-0.4,0.28-0.52c0.47-0.41,0.97-0.8,1.57-1.27
		c0.92,1.2,1.8,2.35,2.75,3.59C55.84,127.08,54.36,128.29,52.76,129.61z"/>
	<path class="st0" d="M96.38,82.6c-0.16,1.13-0.93,1.96-2.14,2.23c-1.1,0.25-2.23-0.21-2.65-1.07c-0.28-0.59-0.23-1.18,0.09-1.74
		c0.74-1.29,2.75-1.7,3.87-0.73C95.93,81.61,96.11,82.16,96.38,82.6z"/>
	<path class="st0" d="M86.59,5.03c-1.86,0.27-3.58,0.23-5.16-0.81c0.4-1.22,1.34-1.37,2.51-1.23C85.36,3.17,86.39,3.93,86.59,5.03z"
		/>
	<path class="st0" d="M68.49,47.54c-0.11,1.11-0.55,1.65-1.52,1.92c-0.57,0.16-1.15,0.3-1.77,0.46
		C65.56,48.42,67.18,47.26,68.49,47.54z"/>
	<path d="M88.82,33.93c-1.08-0.31-1.99-0.71-2.67-1.45c-0.18-0.19-0.16-0.69-0.06-0.99c0.15-0.43,0.63-0.56,0.99-0.39
		c0.78,0.37,1.55,0.8,2.24,1.31c0.2,0.14,0.26,0.67,0.17,0.96C89.41,33.61,89.03,33.76,88.82,33.93z"/>
	<path d="M12.33,143.57c-0.19-0.16-0.56-0.34-0.72-0.63c-0.24-0.42-0.01-0.84,0.39-1.07c0.31-0.18,0.66-0.31,1-0.41
		c1.3-0.37,2.61-0.74,3.92-1.08c0.29-0.08,0.6-0.12,0.89-0.11c0.43,0.02,0.75,0.23,0.83,0.69c0.08,0.44-0.09,0.78-0.47,0.98
		c-0.21,0.11-0.45,0.18-0.68,0.25c-1.48,0.42-2.96,0.83-4.44,1.24C12.88,143.48,12.7,143.5,12.33,143.57z"/>
	<path d="M14.42,135.47c-1.26-0.11-2.52-0.21-3.77-0.33c-0.21-0.02-0.42-0.07-0.61-0.13c-0.45-0.15-0.72-0.46-0.66-0.95
		c0.06-0.52,0.41-0.82,0.92-0.81c0.9,0.03,1.8,0.13,2.7,0.2c0.6,0.05,1.2,0.1,1.8,0.14c0.82,0.06,1.24,0.42,1.19,1.04
		c-0.05,0.56-0.49,0.85-1.28,0.83c-0.09,0-0.18-0.01-0.27-0.02C14.42,135.46,14.42,135.47,14.42,135.47z"/>
</g>
</svg>
