<?xml version="1.0" encoding="utf-8"?>
<!-- Generator: Adobe Illustrator 25.4.1, SVG Export Plug-In . SVG Version: 6.00 Build 0)  -->
<svg version="1.1" id="Layer_1" xmlns="http://www.w3.org/2000/svg" xmlns:xlink="http://www.w3.org/1999/xlink" x="0px" y="0px"
	 viewBox="0 0 86.86 130" style="enable-background:new 0 0 86.86 130;" xml:space="preserve">
<path d="M82.75,34.25c-1.12,0.09-1.97,0.22-2.82,0.22c-3.12,0.01-6.24-0.04-9.36-0.02c-2.86,0.03-4.43,1.27-5.18,4.02
	c-0.48,1.76-0.36,3.49,0.39,5.15c0.86,1.91,2.26,3.01,4.47,2.99c3.36-0.03,6.72-0.01,10.07,0.08c2.33,0.06,2.4,0.19,2.4,2.52
	c0,8.88,0,17.75-0.03,26.63c-0.01,2.29-0.17,2.39-2.49,2.37c-3.2-0.03-6.39,0.01-9.59-0.02c-2.23-0.03-3.58,1.17-4.44,3.06
	c-1.01,2.21-1.05,4.5-0.34,6.79c0.72,2.29,2.2,3.63,4.74,3.64c3.2,0.01,6.4,0.07,9.59,0.17c2.14,0.07,2.5,0.44,2.5,2.58
	c0,9.6-0.03,19.19-0.06,28.79c0,0.48-0.07,0.96-0.1,1.43c-0.08,1.03-0.56,1.63-1.67,1.59c-0.32-0.01-0.64,0-0.96,0
	c-17.83-0.03-35.66-0.07-53.49-0.07c-3.6,0-6.94-0.9-10.18-2.39c-5.42-2.51-8.87-6.68-10.54-12.36c-1.06-3.62-1.7-7.31-1.69-11.1
	c0.07-25.35,0.11-50.7,0.18-76.05c0.01-4.74,1.2-9.2,3.64-13.25c2.85-4.74,7.29-7.12,12.64-7.62c3.65-0.34,7.35-0.17,11.03-0.19
	c16.07-0.08,32.14-0.15,48.22-0.23c0.08,0,0.16,0,0.24,0c2.69,0.01,2.89,0.19,2.88,2.82c-0.01,5.84-0.03,11.67-0.04,17.51
	c-0.01,2.8-0.01,5.6-0.01,8.4C82.75,32.49,82.75,33.26,82.75,34.25z"/>
</svg>
