<?xml version="1.0" encoding="utf-8"?>
<!-- Generator: Adobe Illustrator 25.4.1, SVG Export Plug-In . SVG Version: 6.00 Build 0)  -->
<svg version="1.1" id="Layer_1" xmlns="http://www.w3.org/2000/svg" xmlns:xlink="http://www.w3.org/1999/xlink" x="0px" y="0px"
	 viewBox="0 0 25.7 20.04" style="enable-background:new 0 0 25.7 20.04;" xml:space="preserve">
<style type="text/css">
	.st0{fill:#2B6998;}
</style>
<path class="st0" d="M23.76,9.81c-0.08,0.35-0.24,1.22-0.48,2.06c-0.37,1.31-1.18,2.25-2.5,2.69c-0.68,0.23-1.35,0.52-2.04,0.69
	c-4.19,1.02-8.39,2.02-12.58,3.02c-0.39,0.09-0.79,0.14-1.19,0.16c-1.31,0.04-1.93-0.44-2.21-1.69c-0.07-0.31-0.07-0.63-0.1-0.95
	c-0.22-2.71-0.42-5.41-0.65-8.12c-0.19-2.28,0.2-2.74,2.45-3.28c1.86-0.44,3.72-0.94,5.5-1.62c2.9-1.1,5.78-1.06,8.71-0.26
	C21.57,3.3,23.87,6.35,23.76,9.81z"/>
</svg>
