<?xml version="1.0" encoding="utf-8"?>
<!-- Generator: Adobe Illustrator 25.4.1, SVG Export Plug-In . SVG Version: 6.00 Build 0)  -->
<svg version="1.1" id="Layer_1" xmlns="http://www.w3.org/2000/svg" xmlns:xlink="http://www.w3.org/1999/xlink" x="0px" y="0px"
	 viewBox="0 0 100.65 140.46" style="enable-background:new 0 0 100.65 140.46;" xml:space="preserve">
<style type="text/css">
	.st0{fill:#2B6998;}
	.st1{fill:#FFFFFF;}
</style>
<path class="st0" d="M8.83,116.07c-1.07,0-1.77-0.01-2.47,0c-0.64,0.01-1.28,0.11-1.91,0.05c-1.5-0.16-2.08-0.73-2.32-2.26
	c-0.59-3.65-0.48-7.33-0.37-11.01c0.07-2.55,0.2-5.11,0.22-7.66c0.01-1.19-0.32-2.4-0.24-3.58c0.12-1.9,0.35-3.82,0.72-5.69
	c0.45-2.3,1.85-4.09,3.74-5.39c0.97-0.67,1.38-1.46,1.44-2.56c0.07-1.12,0.25-2.23,0.27-3.35c0.04-2.28,2.27-4.82,5.03-4.88
	c2.63-0.06,5.23-0.38,7.89-0.12c3.41,0.33,6.85,0.37,10.73,0.55c-0.64-0.52-0.95-0.79-1.28-1.03c-3.6-2.6-4.6-5.71-3.1-9.85
	c0.35-0.97,0.79-1.92,1.26-2.85c2.34-4.66,5.13-9.03,8.25-13.2c1.24-1.66,2.88-2.73,4.86-3.54c0.22-1.99-0.37-3.93-0.52-5.89
	c-0.15-1.91-0.34-3.82-0.52-5.8c-0.32-0.22-0.65-0.43-0.95-0.67c-1.48-1.22-1.79-2.42-0.69-3.95c0.8-1.11,1.02-2.28,1.22-3.56
	c0.66-4.19,2.3-7.94,5.14-11.17c1.87-2.12,4.15-3.47,6.85-4.16c1.18-0.3,2.13-0.73,2.88-1.86c0.96-1.47,2.64-1.4,3.78,0.07
	c0.5,0.65,1.06,0.91,1.76,1.08c5.96,1.41,9.53,5.5,11.96,10.81c0.45,0.99,0.88,1.78,2.02,2.15c0.8,0.26,1.55,0.84,2.16,1.45
	c1.39,1.4,1.52,3.13,0.53,4.83c-0.68,1.16-1.27,2.4-2.06,3.47c-0.55,0.74-1.39,1.27-2.09,1.89c-0.5,4.28-1.01,8.62-1.54,13.1
	c0.24,0.13,0.57,0.34,0.92,0.48c1.34,0.52,2.2,1.51,2.89,2.74c3.4,6.09,5.93,12.58,8.53,19.02c1.31,3.24,0.19,5.6-3.01,7.01
	c-1.17,0.52-2.37,0.95-3.56,1.43c-0.42,1.27-0.13,2.41,0.36,3.63c0.98,0.18,2.01,0.3,3,0.56c1,0.25,2,0.56,2.94,0.97
	c1.55,0.67,2.6,1.84,3.06,3.49c0.69,2.46,1.65,4.85,1.61,7.47c-0.01,0.38,0.14,0.76,0.23,1.21c1.96,0.7,3.95,0.79,5.92,0.92
	c3.56,0.24,3.75,0.39,3.84,3.97c0.14,5.99,0.22,11.98,0.39,17.97c0.07,2.48,0.23,4.95,0.42,7.42c0.12,1.49-0.23,2.79-0.92,4.12
	c-2.29,4.41-4.89,8.61-7.55,12.8c-0.59,0.93-1.3,1.31-2.34,1.37c-7.74,0.39-15.47,1.1-23.24,0.77c-7.74-0.33-15.49-0.58-23.23-0.97
	c-4.87-0.25-9.72-0.74-14.59-1.04c-2.79-0.17-5.59-0.11-8.37-0.26c-2.63-0.13-5.27-0.32-7.88-0.62c-1.97-0.23-2.56-0.95-2.51-3.05
	c0.09-3.75,0.32-7.5,0.44-11.25C8.88,119.89,8.83,118.14,8.83,116.07z M86.21,102.7c-1.97-0.22-3.71-0.43-5.46-0.6
	c-5.17-0.51-10.33-1.08-15.51-1.49c-4.38-0.34-8.78-0.47-13.17-0.74c-4.07-0.25-8.13-0.57-12.2-0.88c-1.67-0.13-3.34-0.38-5.01-0.47
	c-5.83-0.29-11.66-0.55-17.49-0.79c-1.5-0.06-3-0.01-4.56-0.01c-0.14,0.69-0.31,1.23-0.36,1.77c-0.14,1.67-0.27,3.35-0.35,5.02
	c-0.25,4.87-0.54,9.73-0.69,14.6c-0.07,2.14,0.47,4.34,0.17,6.43c-0.41,2.81,0.14,4.81,2.46,6.67c1.57,1.26,3.01,1.97,4.95,1.82
	c5.45-0.41,10.86,0.4,16.28,0.66c3.59,0.17,7.17,0.54,10.75,0.79c1.51,0.1,3.04,0.13,4.56,0.16c8.79,0.16,17.56,1.06,26.37,0.46
	c2.22-0.15,4.12-0.68,6.08-1.7c1.76-0.91,2.4-2.71,3.82-3.82c-0.01-0.95-0.03-1.9-0.01-2.85c0.01-0.88,0.09-1.76,0.1-2.64
	c0.03-3.28,0.12-6.56,0.04-9.83c-0.08-3.67-0.3-7.34-0.48-11.01C86.47,103.81,86.33,103.35,86.21,102.7z M74.06,72.34
	c0-0.55,0.07-1.03-0.01-1.48c-0.89-5.19-1.84-10.38-2.71-15.58c-0.43-2.56-2.03-4.38-3.95-5.8c-3.19-2.35-6.84-3.91-10.77-4.4
	c-3.71-0.46-7.45-0.87-11.22-0.35c-1.57,0.22-2.51,0.93-2.95,2.36c-0.35,1.15-0.73,2.3-0.9,3.48c-0.98,6.88-1.91,13.77-2.84,20.66
	c-0.04,0.3,0.07,0.61,0.12,1.01c0.59,0.1,1.13,0.27,1.67,0.27c5.51,0.06,11.03,0.28,16.54,0.09c5.43-0.18,10.84-0.85,16.27-0.08
	C73.45,72.55,73.61,72.46,74.06,72.34z M75.55,83.5c-1.7-0.37-3.11-0.11-4.53-0.08c-3.99,0.09-7.99,0.31-11.96,0.07
	c-4.05-0.25-8.07-1.02-12.11-1.54c-2.83-0.36-5.66-0.69-8.61-1.05c-0.07,0.53-0.18,0.91-0.15,1.29c0.1,1.43,0.23,2.86,0.38,4.29
	c0.39,3.59,2.8,6.16,6.37,6.78c0.63,0.11,1.29,0.1,1.89,0.28c2.49,0.76,5.02,0.82,7.59,0.63c1.11-0.08,2.23,0,3.35-0.01
	c2.32-0.01,4.64,0.07,6.94-0.09c1.98-0.14,3.98-0.43,5.91-0.91c2.87-0.71,5.19-2.75,5.06-6.35C75.65,85.78,75.6,84.75,75.55,83.5z
	 M61.07,29.59c-0.74,0.23-1.5,0.29-2.03,0.68c-0.86,0.63-1.55,0.78-2.26-0.11c-0.64-0.82-1.46-0.8-2.37-0.63
	c-0.03,0.49-0.01,0.89-0.1,1.26c-0.14,0.61-0.56,0.96-1.21,0.9c-0.65-0.06-1.04-0.62-0.95-1.39c0.05-0.41,0.21-0.81,0.39-1.47
	c-0.68,0.21-1.06,0.3-1.41,0.45c-0.66,0.28-1.24,0.25-1.75-0.29c-0.9-0.96-1.88-1.09-2.96-0.3c-0.68,0.5-1.33,0.36-1.96-0.14
	c-0.22-0.17-0.53-0.23-0.97-0.41c-0.26,1.19-0.15,2.19,0.04,3.29c0.37-0.06,0.67-0.1,0.97-0.16c0.73-0.15,1.28,0.04,1.5,0.79
	c0.21,0.71-0.19,1.39-1,1.63c-0.41,0.13-0.86,0.12-1.28,0.18c0.07,0.98,0.05,1.79,0.21,2.57c0.28,1.4,0.6,2.8,1.01,4.17
	c0.27,0.93,0.95,1.35,1.99,1.37c2.63,0.05,5.25,0.24,7.88,0.32c2.18,0.06,4.28,0.47,6.31,1.25c1.92,0.74,3.82,1.5,5.95,2.33
	c1.38-3.42,2.17-6.98,2.63-10.58c0.25-2,0.86-4.06,0.16-6.22c-0.69-0.05-1.32-0.17-1.94-0.12c-1.61,0.13-3.4-0.21-4.27,1.83
	c-0.27,0.62-1.07,0.57-1.66,0.06C61.7,30.57,61.51,30.2,61.07,29.59z M90.24,132.05c0.55-0.72,0.88-1.06,1.11-1.46
	c1.53-2.72,3.08-5.42,4.5-8.19c0.37-0.73,0.44-1.69,0.42-2.53c-0.11-4.15-0.33-8.3-0.43-12.45c-0.08-3.19-0.03-6.39-0.07-9.59
	c-0.01-0.6-0.13-1.19-0.24-2.12c-2.42,1.72-4.19,3.65-6.03,5.49c-0.34,0.34-0.48,1.01-0.48,1.54c-0.02,2.23-0.12,4.49,0.13,6.7
	c0.55,4.86,0.48,9.73,0.34,14.6C89.41,126.59,89.39,129.14,90.24,132.05z M57.61,80.63c4.66,0.8,9.28,0.62,13.89,0.14
	c0.44-0.05,0.89-0.33,1.26-0.61c1.59-1.22,1.49-2.84,1.07-4.62c-0.37-0.15-0.72-0.37-1.1-0.42c-3.33-0.45-6.67-0.57-10.04-0.29
	c-3.66,0.3-7.33,0.58-11,0.62c-3.59,0.04-7.18-0.24-10.78-0.35c-0.85-0.03-1.76-0.31-2.67,0.43c0,0.67,0,1.43,0,2.49
	c5.21,1.18,10.53,1.5,15.9,2.19c0.17-0.48,0.31-0.83,0.43-1.19c0.2-0.58,0.57-1.06,1.2-0.93c0.4,0.08,0.85,0.44,1.08,0.8
	C57.18,79.39,57.35,80.02,57.61,80.63z M41.98,42.69c-1.54,0.27-2.49,1.19-3.33,2.28c-3.11,4.07-5.8,8.41-8.09,12.99
	c-0.57,1.14-1,2.35-1.36,3.57c-0.41,1.39-0.1,2.7,0.85,3.8c0.25,0.29,0.59,0.64,0.93,0.7c1.81,0.34,3.6,0.67,5.08-1.01
	c0.74-0.84,1.02-1.77,1.16-2.8c0.47-3.32,0.86-6.65,1.4-9.95C39.18,48.91,39.55,45.46,41.98,42.69z M25.23,82.23
	c-2.34-0.83-8.72-0.83-11.1-0.01c0.06,0.74,0.12,1.52,0.17,2.3c0.1,1.53-0.32,2.01-1.88,2.08c-0.72,0.03-1.44-0.02-2.15-0.05
	c-2.53-0.08-2.57-0.12-3.13-2.61c-0.03-0.12-0.2-0.2-0.31-0.3c-1.98,1.84-2.73,4.48-1.98,7.13c1.85,0.3,3.73,0.6,5.61,0.93
	c1.27,0.22,2.28-0.12,3.24-1.05c1.26-1.21,2.72-2.21,4.06-3.35c1.84-1.58,3.86-2.52,6.36-2.06c0.13,0.02,0.29-0.09,0.7-0.22
	C24.96,84.16,25.1,83.17,25.23,82.23z M69.38,47.37c0.81,0.99,1.42,1.84,2.13,2.58c1.2,1.25,1.96,2.68,2.27,4.39
	c0.4,2.19,0.89,4.37,1.28,6.56c0.33,1.81,0.67,3.62,1.69,5.19c0.38,0.59,0.86,1.16,1.42,1.58c0.71,0.53,1.52,0.89,2.42,0.25
	c0.96-0.69,1.3-1.51,0.98-2.69c-0.17-0.61-0.4-1.21-0.65-1.8c-1.64-3.9-3.24-7.81-4.95-11.67c-0.87-1.96-1.93-3.85-2.94-5.75
	c-0.49-0.93-1.09-1.78-2.56-1.56C70.12,45.36,69.77,46.32,69.38,47.37z M53.33,96.78c0.02,0.13,0.03,0.26,0.05,0.39
	c0.22,0.08,0.44,0.22,0.66,0.24c3.43,0.23,6.86,0.41,10.29,0.68c5.25,0.41,10.5,0.87,15.75,1.34c1.75,0.15,3.49,0.39,5.24,0.56
	c0.91,0.09,1.71-0.12,2.41-0.8c1.73-1.66,3.53-3.25,5.26-4.91c0.29-0.28,0.4-0.75,0.61-1.17c-5.86-1.25-14.04-1.99-15.95-1.44
	c2.11,1.01,4.33,1.22,6.51,1.62c0.86,0.16,1.73,0.34,2.54,0.65c0.75,0.29,0.96,1.05,0.66,1.81c-0.69,1.75-1.95,2.48-4,2.27
	c-3.34-0.34-6.67-0.72-10.01-1.05c-2.84-0.28-5.69,0.02-8.56-0.29c-2.84-0.31-5.75-0.06-8.62-0.04
	C55.22,96.65,54.28,96.73,53.33,96.78z M4.6,93.89c0,1.83,0.05,3.49-0.01,5.14c-0.08,2.3-0.27,4.61-0.38,6.91
	c-0.09,1.95,0,3.88,0.59,5.91c0.66-0.29,1.07-0.54,1.52-0.65c1.07-0.26,1.61-0.96,1.8-1.98c0.11-0.55,0.22-1.09,0.32-1.64
	c0.35-2.04,0.55-4.11,1.06-6.11c0.61-2.38,0.15-4.71,0.24-7.02C8.04,93.82,6.52,93.51,4.6,93.89z M49.57,97.2
	c0.03-0.12,0.05-0.24,0.08-0.36c-2.03-0.41-4.1-0.69-6.08-1.26c-2.07-0.59-4.13-0.17-6.19-0.33c-3.42-0.26-6.86-0.33-10.3-0.45
	c-2.08-0.07-4.16-0.08-6.24-0.15c-0.76-0.03-1.42-0.35-1.7-1.11c-0.31-0.84,0.26-1.33,0.85-1.79c3.35-2.67,5.21-3.2,9.55-2.69
	c0.63,0.07,1.26,0.23,1.9,0.28c1.56,0.11,3.12,0.3,4.95,0.05c-0.31-0.43-0.43-0.78-0.65-0.86c-0.44-0.16-0.93-0.23-1.41-0.25
	c-4-0.13-7.99-0.27-11.99-0.31c-0.66-0.01-1.43,0.3-1.96,0.71c-2.14,1.67-4.21,3.43-6.28,5.19c-0.25,0.21-0.36,0.6-0.64,1.11
	c1.06,0.07,1.85,0.15,2.63,0.18c3.43,0.14,6.87,0.29,10.3,0.4c5.03,0.16,10.06,0.39,15.07,1.02C44.16,96.91,46.87,97,49.57,97.2z
	 M27.75,85.15c0.99,0.54,1.8,0.42,2.65,0.03c0.86-0.4,1.74-0.82,2.66-1.01c1.33-0.27,1.92-1.12,2.02-2.31
	c0.19-2.19,0.26-4.39,0.37-6.58C31.27,75.02,27.69,79.7,27.75,85.15z M77.96,79c0.14,2.8,0.42,5.49,2.59,7.28
	c1.4,1.16,2.39,3.37,4.92,2.84c0.36-1.1,0.2-2.11-0.08-3.12c-0.34-1.23-0.76-2.45-1.03-3.69c-0.36-1.68-1.42-2.61-2.97-3.13
	C80.39,78.85,79.39,78.7,77.96,79z M31.5,72.9c-0.76-0.1-1.36-0.21-1.95-0.24c-3.1-0.18-6.21-0.4-9.31-0.48
	c-2.23-0.06-4.47-0.05-6.69,0.16c-2.26,0.21-2.89,0.93-3.14,3.19c-0.25,2.22-0.38,4.45-0.56,6.67c-0.02,0.32-0.1,0.68,0.02,0.94
	c0.14,0.31,0.43,0.69,0.72,0.76c0.56,0.14,0.85-0.25,0.88-0.82c0.11-2.07,0.22-4.14,0.33-6.21c0.04-0.64,0.02-1.28,0.14-1.91
	c0.17-0.95,0.66-1.38,1.62-1.47c0.63-0.06,1.28-0.02,1.91,0c4.54,0.15,9.08,0.3,13.63,0.46C29.98,73.97,30.83,73.98,31.5,72.9z
	 M27.72,76.52c-4.58-0.17-8.69-0.32-12.72-0.47c-0.73,1.52-0.71,1.52-0.33,2.91c1.85,0.71,3.74-0.11,5.61-0.04
	c1.97,0.08,3.94,0.18,6.05,0.28C26.74,78.42,27.13,77.67,27.72,76.52z M67.5,19.2c-0.22-3.29-0.79-6.07-2.71-8.38
	c-0.34-0.41-0.81-0.75-1.28-0.99c-0.2-0.1-0.65,0.05-0.83,0.23c-0.18,0.18-0.22,0.56-0.21,0.85c0.01,0.21,0.18,0.44,0.34,0.61
	c2.04,2.36,2.65,5.18,2.66,8.2c0,0.47,0.04,0.97,0.21,1.4c0.09,0.23,0.48,0.46,0.73,0.47c0.26,0,0.69-0.23,0.74-0.44
	C67.35,20.38,67.43,19.6,67.5,19.2z M47.35,18.15c0.04,0.23,0,0.6,0.16,0.84c0.2,0.3,0.54,0.67,0.84,0.69
	c0.28,0.01,0.61-0.37,0.84-0.65c0.14-0.16,0.12-0.45,0.17-0.69c0.54-2.55,1.67-4.82,3.3-6.85c0.25-0.31,0.53-0.63,0.66-0.99
	c0.09-0.25,0.02-0.66-0.15-0.85c-0.17-0.2-0.56-0.32-0.84-0.29c-0.29,0.03-0.61,0.23-0.82,0.45C49.33,12.14,48.05,14.94,47.35,18.15
	z M58.63,10.91c0.05-0.41-0.05-0.96-0.72-1.1c-0.67-0.14-1.09,0.34-1.19,0.9c-0.21,1.08-0.34,2.18-0.38,3.27
	c-0.01,0.29,0.47,0.87,0.62,0.83c0.39-0.09,0.94-0.37,1.04-0.7C58.29,13.14,58.41,12.11,58.63,10.91z M73.95,22.57
	c1.47-1.87,1.44-2.08,0-2.79C73.95,20.54,73.95,21.26,73.95,22.57z"/>
<path class="st1" d="M86.21,102.7c0.12,0.65,0.27,1.11,0.29,1.57c0.18,3.67,0.4,7.34,0.48,11.01c0.07,3.27-0.01,6.55-0.04,9.83
	c-0.01,0.88-0.09,1.76-0.1,2.64c-0.02,0.95,0.01,1.9,0.01,2.85c-1.43,1.11-2.06,2.91-3.82,3.82c-1.96,1.02-3.86,1.55-6.08,1.7
	c-8.81,0.59-17.58-0.3-26.37-0.46c-1.52-0.03-3.04-0.05-4.56-0.16c-3.59-0.24-7.16-0.62-10.75-0.79
	c-5.43-0.26-10.83-1.08-16.28-0.66c-1.94,0.15-3.38-0.56-4.95-1.82c-2.32-1.87-2.86-3.86-2.46-6.67c0.3-2.09-0.23-4.29-0.17-6.43
	c0.15-4.87,0.44-9.74,0.69-14.6c0.09-1.68,0.21-3.35,0.35-5.02c0.05-0.54,0.21-1.07,0.36-1.77c1.56,0,3.07-0.05,4.56,0.01
	c5.83,0.24,11.66,0.5,17.49,0.79c1.67,0.08,3.34,0.34,5.01,0.47c4.06,0.31,8.13,0.63,12.2,0.88c4.39,0.27,8.79,0.4,13.17,0.74
	c5.18,0.41,10.34,0.98,15.51,1.49C82.49,102.28,84.24,102.48,86.21,102.7z"/>
<path class="st1" d="M74.06,72.34c-0.45,0.12-0.61,0.21-0.76,0.19c-5.43-0.77-10.84-0.11-16.27,0.08
	c-5.51,0.18-11.03-0.03-16.54-0.09c-0.54-0.01-1.08-0.17-1.67-0.27c-0.05-0.39-0.16-0.71-0.12-1.01c0.93-6.89,1.85-13.78,2.84-20.66
	c0.17-1.18,0.55-2.33,0.9-3.48c0.44-1.44,1.39-2.15,2.95-2.36c3.77-0.53,7.52-0.12,11.22,0.35c3.93,0.49,7.58,2.05,10.77,4.4
	c1.92,1.42,3.52,3.23,3.95,5.8c0.87,5.2,1.82,10.38,2.71,15.58C74.13,71.3,74.06,71.78,74.06,72.34z"/>
<path class="st1" d="M75.55,83.5c0.05,1.25,0.1,2.28,0.14,3.31c0.13,3.61-2.19,5.64-5.06,6.35c-1.93,0.48-3.93,0.77-5.91,0.91
	c-2.31,0.16-4.63,0.08-6.94,0.09c-1.12,0.01-2.24-0.08-3.35,0.01c-2.57,0.19-5.1,0.14-7.59-0.63c-0.6-0.18-1.26-0.18-1.89-0.28
	c-3.56-0.62-5.98-3.19-6.37-6.78c-0.15-1.43-0.28-2.86-0.38-4.29c-0.03-0.38,0.09-0.76,0.15-1.29c2.95,0.36,5.78,0.69,8.61,1.05
	c4.04,0.52,8.06,1.28,12.11,1.54c3.97,0.25,7.97,0.02,11.96-0.07C72.44,83.39,73.85,83.13,75.55,83.5z"/>
<path class="st1" d="M61.07,29.59c0.44,0.61,0.62,0.98,0.91,1.24c0.59,0.51,1.39,0.56,1.66-0.06c0.88-2.04,2.67-1.7,4.27-1.83
	c0.61-0.05,1.24,0.07,1.94,0.12c0.7,2.16,0.1,4.22-0.16,6.22c-0.46,3.61-1.25,7.17-2.63,10.58c-2.13-0.84-4.04-1.59-5.95-2.33
	c-2.03-0.78-4.13-1.18-6.31-1.25c-2.63-0.08-5.25-0.26-7.88-0.32c-1.04-0.02-1.71-0.45-1.99-1.37c-0.4-1.37-0.73-2.77-1.01-4.17
	c-0.15-0.78-0.13-1.59-0.21-2.57c0.42-0.05,0.87-0.05,1.28-0.18c0.8-0.25,1.21-0.93,1-1.63c-0.22-0.75-0.78-0.95-1.5-0.79
	c-0.3,0.06-0.6,0.1-0.97,0.16c-0.19-1.11-0.3-2.11-0.04-3.29c0.44,0.18,0.76,0.24,0.97,0.41c0.64,0.51,1.28,0.65,1.96,0.14
	c1.08-0.79,2.06-0.67,2.96,0.3c0.5,0.54,1.09,0.57,1.75,0.29c0.35-0.15,0.73-0.23,1.41-0.45c-0.18,0.67-0.34,1.06-0.39,1.47
	c-0.09,0.77,0.3,1.33,0.95,1.39c0.66,0.06,1.07-0.29,1.21-0.9c0.09-0.37,0.06-0.77,0.1-1.26c0.91-0.17,1.73-0.18,2.37,0.63
	c0.71,0.89,1.39,0.74,2.26,0.11C59.57,29.88,60.34,29.82,61.07,29.59z M65.46,31.34c-0.2,0.26-0.63,0.6-0.76,1.04
	c-0.18,0.59,0.48,1.23,1.09,1.22c0.62-0.01,1.14-0.62,1.06-1.27C66.78,31.69,66.37,31.4,65.46,31.34z M57.69,33.03
	c-0.25-0.17-0.62-0.58-1.06-0.67c-0.62-0.14-1.19,0.53-1.11,1.17c0.08,0.61,0.47,0.98,1.08,1.02C57.21,34.6,57.75,33.97,57.69,33.03
	z M48.71,30.68c-0.05-0.58-0.55-1.06-1.08-1.03c-0.64,0.04-1.19,0.69-1.06,1.31c0.14,0.63,0.57,0.92,1.21,0.86
	C48.46,31.75,48.71,31.31,48.71,30.68z M48.71,36.99c-0.01-0.59-0.47-1.1-1.01-1.11c-0.65-0.01-1.24,0.6-1.16,1.23
	c0.09,0.64,0.5,0.96,1.15,0.95C48.3,38.06,48.72,37.6,48.71,36.99z M61.58,38.97c0.07-0.88-0.35-1.37-0.96-1.4
	c-0.63-0.04-1.07,0.23-1.21,0.87c-0.14,0.63,0.45,1.36,1.08,1.22C60.94,39.56,61.32,39.14,61.58,38.97z M55.73,40.04
	c0-0.53-0.51-1.02-1.1-1.03c-0.61-0.02-1.09,0.4-1.11,0.99c-0.02,0.65,0.31,1.06,0.94,1.16C55.1,41.27,55.73,40.68,55.73,40.04z
	 M62.77,34.05c-0.09-0.64-0.46-1-1.08-1.02c-0.63-0.02-1.11,0.61-1,1.29c0.11,0.66,0.54,0.92,1.17,0.86
	C62.52,35.11,62.74,34.65,62.77,34.05z M52.06,35.66c0.03-0.5-0.38-0.96-0.98-0.99c-0.62-0.03-1.07,0.23-1.2,0.87
	c-0.13,0.62,0.43,1.26,1.1,1.23C51.59,36.74,52.01,36.43,52.06,35.66z"/>
<path class="st1" d="M90.24,132.05c-0.85-2.91-0.83-5.46-0.75-8.01c0.14-4.87,0.21-9.73-0.34-14.6c-0.25-2.21-0.14-4.47-0.13-6.7
	c0-0.52,0.14-1.2,0.48-1.54c1.84-1.84,3.61-3.78,6.03-5.49c0.11,0.93,0.23,1.53,0.24,2.12c0.03,3.2-0.01,6.39,0.07,9.59
	c0.1,4.15,0.33,8.3,0.43,12.45c0.02,0.85-0.05,1.8-0.42,2.53c-1.42,2.77-2.98,5.47-4.5,8.19C91.12,131,90.79,131.34,90.24,132.05z"
	/>
<path class="st1" d="M57.61,80.63c-0.25-0.61-0.42-1.24-0.76-1.76c-0.24-0.36-0.68-0.71-1.08-0.8c-0.63-0.13-1,0.35-1.2,0.93
	c-0.12,0.36-0.26,0.71-0.43,1.19c-5.37-0.7-10.69-1.01-15.9-2.19c0-1.06,0-1.83,0-2.49c0.92-0.74,1.82-0.46,2.67-0.43
	c3.59,0.12,7.19,0.39,10.78,0.35c3.67-0.04,7.34-0.32,11-0.62c3.37-0.28,6.7-0.16,10.04,0.29c0.37,0.05,0.73,0.28,1.1,0.42
	c0.43,1.77,0.52,3.4-1.07,4.62c-0.37,0.28-0.82,0.57-1.26,0.61C66.88,81.25,62.27,81.43,57.61,80.63z"/>
<path class="st1" d="M41.98,42.69c-2.43,2.78-2.8,6.23-3.35,9.59c-0.54,3.31-0.93,6.64-1.4,9.95c-0.14,1.03-0.42,1.96-1.16,2.8
	c-1.48,1.67-3.27,1.35-5.08,1.01c-0.35-0.06-0.68-0.41-0.93-0.7c-0.96-1.11-1.26-2.42-0.85-3.8c0.36-1.22,0.79-2.44,1.36-3.57
	c2.29-4.58,4.98-8.92,8.09-12.99C39.49,43.88,40.44,42.95,41.98,42.69z"/>
<path class="st1" d="M25.23,82.23c-0.14,0.94-0.28,1.93-0.4,2.79c-0.4,0.13-0.56,0.25-0.7,0.22c-2.49-0.46-4.51,0.48-6.36,2.06
	c-1.33,1.14-2.8,2.14-4.06,3.35c-0.96,0.93-1.97,1.27-3.24,1.05c-1.88-0.32-3.77-0.62-5.61-0.93c-0.76-2.65-0.01-5.29,1.98-7.13
	c0.11,0.1,0.28,0.18,0.31,0.3c0.56,2.49,0.6,2.53,3.13,2.61c0.72,0.02,1.44,0.08,2.15,0.05c1.55-0.07,1.97-0.56,1.88-2.08
	c-0.05-0.78-0.12-1.57-0.17-2.3C16.52,81.4,22.89,81.4,25.23,82.23z"/>
<path class="st1" d="M69.38,47.37c0.39-1.05,0.75-2.01,1.08-2.91c1.47-0.22,2.06,0.63,2.56,1.56c1.01,1.9,2.07,3.78,2.94,5.75
	c1.71,3.86,3.31,7.77,4.95,11.67c0.25,0.59,0.48,1.18,0.65,1.8c0.32,1.18-0.02,2-0.98,2.69c-0.89,0.64-1.71,0.28-2.42-0.25
	c-0.56-0.42-1.03-0.99-1.42-1.58c-1.02-1.57-1.37-3.38-1.69-5.19c-0.39-2.19-0.88-4.37-1.28-6.56c-0.31-1.7-1.07-3.14-2.27-4.39
	C70.79,49.21,70.19,48.36,69.38,47.37z"/>
<path class="st1" d="M53.33,96.78c0.95-0.05,1.89-0.13,2.84-0.14c2.88-0.03,5.78-0.27,8.62,0.04c2.86,0.31,5.71,0.02,8.56,0.29
	c3.34,0.32,6.67,0.71,10.01,1.05c2.06,0.21,3.31-0.52,4-2.27c0.3-0.76,0.09-1.52-0.66-1.81c-0.81-0.31-1.68-0.49-2.54-0.65
	c-2.18-0.4-4.4-0.61-6.51-1.62c1.91-0.55,10.08,0.2,15.95,1.44c-0.21,0.43-0.32,0.9-0.61,1.17c-1.73,1.66-3.53,3.25-5.26,4.91
	c-0.7,0.67-1.51,0.88-2.41,0.8c-1.75-0.17-3.49-0.4-5.24-0.56c-5.25-0.46-10.5-0.92-15.75-1.34c-3.43-0.27-6.86-0.45-10.29-0.68
	c-0.22-0.02-0.44-0.15-0.66-0.24C53.36,97.04,53.34,96.91,53.33,96.78z"/>
<path class="st1" d="M4.6,93.89c1.91-0.39,3.44-0.08,5.13,0.56c-0.09,2.31,0.38,4.64-0.24,7.02c-0.51,1.99-0.71,4.07-1.06,6.11
	c-0.09,0.55-0.21,1.09-0.32,1.64c-0.2,1.03-0.74,1.72-1.8,1.98c-0.45,0.11-0.86,0.36-1.52,0.65c-0.58-2.02-0.68-3.96-0.59-5.91
	c0.11-2.3,0.29-4.6,0.38-6.91C4.65,97.38,4.6,95.72,4.6,93.89z"/>
<path class="st1" d="M49.57,97.2c-2.7-0.2-5.42-0.29-8.1-0.63c-5.01-0.63-10.03-0.85-15.07-1.02c-3.43-0.11-6.87-0.26-10.3-0.4
	c-0.79-0.03-1.57-0.11-2.63-0.18c0.28-0.5,0.39-0.89,0.64-1.11c2.07-1.76,4.14-3.51,6.28-5.19c0.53-0.41,1.3-0.72,1.96-0.71
	c4,0.04,7.99,0.18,11.99,0.31c0.47,0.02,0.97,0.08,1.41,0.25c0.22,0.08,0.34,0.43,0.65,0.86c-1.83,0.25-3.39,0.06-4.95-0.05
	c-0.64-0.05-1.26-0.21-1.9-0.28c-4.34-0.51-6.2,0.02-9.55,2.69c-0.58,0.46-1.15,0.95-0.85,1.79c0.28,0.76,0.94,1.09,1.7,1.11
	c2.08,0.07,4.16,0.08,6.24,0.15c3.43,0.12,6.87,0.2,10.3,0.45c2.06,0.16,4.13-0.27,6.19,0.33c1.98,0.57,4.05,0.85,6.08,1.26
	C49.63,96.96,49.6,97.08,49.57,97.2z"/>
<path class="st1" d="M27.75,85.15c-0.06-5.45,3.53-10.13,7.71-9.88c-0.12,2.19-0.19,4.39-0.37,6.58c-0.1,1.19-0.69,2.04-2.02,2.31
	c-0.92,0.19-1.8,0.61-2.66,1.01C29.55,85.57,28.74,85.69,27.75,85.15z"/>
<path class="st1" d="M77.96,79c1.43-0.31,2.43-0.15,3.43,0.19c1.55,0.52,2.61,1.45,2.97,3.13c0.27,1.25,0.69,2.46,1.03,3.69
	c0.27,1,0.43,2.01,0.08,3.12c-2.54,0.53-3.52-1.68-4.92-2.84C78.38,84.49,78.1,81.8,77.96,79z"/>
<path class="st1" d="M31.5,72.9c-0.67,1.09-1.52,1.08-2.39,1.05c-4.54-0.16-9.08-0.31-13.63-0.46c-0.64-0.02-1.28-0.06-1.91,0
	c-0.96,0.09-1.45,0.53-1.62,1.47c-0.11,0.62-0.1,1.27-0.14,1.91c-0.11,2.07-0.23,4.14-0.33,6.21c-0.03,0.57-0.32,0.96-0.88,0.82
	c-0.29-0.07-0.58-0.45-0.72-0.76c-0.12-0.26-0.05-0.63-0.02-0.94c0.18-2.23,0.31-4.46,0.56-6.67c0.25-2.25,0.88-2.98,3.14-3.19
	c2.22-0.21,4.46-0.21,6.69-0.16c3.11,0.08,6.21,0.3,9.31,0.48C30.14,72.69,30.74,72.8,31.5,72.9z"/>
<path class="st1" d="M67.5,19.2c-0.07,0.4-0.14,1.19-0.35,1.94c-0.06,0.21-0.49,0.45-0.74,0.44c-0.26,0-0.64-0.24-0.73-0.47
	c-0.16-0.43-0.21-0.93-0.21-1.4c-0.01-3.02-0.62-5.84-2.66-8.2c-0.15-0.18-0.32-0.4-0.34-0.61c-0.02-0.29,0.03-0.66,0.21-0.85
	c0.18-0.19,0.64-0.33,0.83-0.23c0.47,0.24,0.94,0.58,1.28,0.99C66.71,13.13,67.28,15.9,67.5,19.2z"/>
<path class="st1" d="M47.35,18.15c0.69-3.2,1.98-6,4.17-8.34c0.21-0.22,0.53-0.42,0.82-0.45c0.27-0.03,0.66,0.09,0.84,0.29
	c0.17,0.19,0.24,0.61,0.15,0.85c-0.12,0.36-0.41,0.68-0.66,0.99c-1.62,2.03-2.76,4.3-3.3,6.85c-0.05,0.23-0.04,0.53-0.17,0.69
	c-0.23,0.28-0.57,0.66-0.84,0.65c-0.3-0.01-0.65-0.39-0.84-0.69C47.35,18.74,47.39,18.38,47.35,18.15z"/>
<path class="st1" d="M58.63,10.91c-0.23,1.2-0.34,2.23-0.64,3.21c-0.1,0.33-0.65,0.61-1.04,0.7c-0.14,0.03-0.63-0.55-0.62-0.83
	c0.05-1.1,0.18-2.19,0.38-3.27c0.11-0.56,0.53-1.03,1.19-0.9C58.58,9.95,58.69,10.5,58.63,10.91z"/>
<path class="st1" d="M73.95,22.57c0-1.3,0-2.03,0-2.79C75.39,20.49,75.42,20.7,73.95,22.57z"/>
<path class="st0" d="M65.46,31.34c0.91,0.05,1.31,0.35,1.39,0.98c0.08,0.65-0.44,1.26-1.06,1.27c-0.61,0.01-1.26-0.63-1.09-1.22
	C64.83,31.94,65.26,31.6,65.46,31.34z"/>
<path class="st0" d="M57.69,33.03c0.07,0.94-0.48,1.57-1.09,1.52c-0.61-0.05-0.99-0.41-1.08-1.02c-0.09-0.63,0.48-1.31,1.11-1.17
	C57.07,32.46,57.44,32.87,57.69,33.03z"/>
<path class="st0" d="M48.71,30.68c0,0.63-0.26,1.07-0.93,1.14c-0.64,0.07-1.08-0.23-1.21-0.86c-0.13-0.62,0.42-1.28,1.06-1.31
	C48.16,29.62,48.67,30.1,48.71,30.68z"/>
<path class="st0" d="M48.71,36.99c0.01,0.61-0.42,1.07-1.02,1.07c-0.64,0.01-1.06-0.31-1.15-0.95c-0.09-0.63,0.51-1.24,1.16-1.23
	C48.24,35.89,48.71,36.4,48.71,36.99z"/>
<path class="st0" d="M61.58,38.97c-0.26,0.17-0.64,0.59-1.09,0.69c-0.63,0.14-1.21-0.6-1.08-1.22c0.14-0.64,0.58-0.9,1.21-0.87
	C61.22,37.6,61.64,38.09,61.58,38.97z"/>
<path class="st0" d="M55.73,40.04c0,0.64-0.63,1.23-1.26,1.12c-0.63-0.1-0.96-0.51-0.94-1.16c0.02-0.59,0.5-1.01,1.11-0.99
	C55.22,39.02,55.73,39.51,55.73,40.04z"/>
<path class="st0" d="M62.77,34.05c-0.03,0.6-0.25,1.06-0.92,1.13c-0.63,0.06-1.06-0.2-1.17-0.86c-0.11-0.69,0.36-1.32,1-1.29
	C62.31,33.05,62.68,33.41,62.77,34.05z"/>
<path class="st0" d="M52.06,35.66c-0.06,0.77-0.47,1.08-1.09,1.1c-0.66,0.03-1.23-0.61-1.1-1.23c0.13-0.63,0.58-0.9,1.2-0.87
	C51.68,34.7,52.09,35.16,52.06,35.66z"/>
</svg>
