<?xml version="1.0" encoding="utf-8"?>
<!-- Generator: Adobe Illustrator 25.4.1, SVG Export Plug-In . SVG Version: 6.00 Build 0)  -->
<svg version="1.1" id="Layer_1" xmlns="http://www.w3.org/2000/svg" xmlns:xlink="http://www.w3.org/1999/xlink" x="0px" y="0px"
	 viewBox="0 0 32.3 49.99" style="enable-background:new 0 0 32.3 49.99;" xml:space="preserve">
<style type="text/css">
	.st0{fill:#2D6798;}
	.st1{fill:#FFFFFF;}
</style>
<path class="st0" d="M10.49,4.86c2.81-4.19,3.93-4.45,7.49-1.72c0.44-0.1,0.97-0.29,1.51-0.33c1.02-0.07,2.05-0.1,3.08-0.06
	c0.86,0.04,1.72,0.25,2.58,0.3c2.14,0.13,3.69,1.32,3.99,3.42c0.16,1.15,0.57,2.08,1.17,3.05c1.55,2.49,1.12,4.93-0.46,7.32
	c-1.22,1.85-2.37,3.67-4.02,5.2c-0.81,0.75-1.05,1.9-0.79,3.12c0.51,2.34,0,4.6-0.74,6.82c-0.38,1.16-0.85,2.25-2.11,2.75
	c-0.86,0.34-0.98,1.19-1.28,1.92c-0.92,2.21-1.8,4.44-2.78,6.62c-0.84,1.87-2.32,3.22-4,4.36c-1.23,0.83-2.58,1.29-4.07,1.17
	c-2.63-0.22-4.96-1.25-6.9-3c-1.59-1.44-1.84-3.35-1.23-5.3C2.41,39,3.13,37.55,3.77,36.1c0.45-1.01,0.97-2,1.48-3.04
	c-1.06-1.45-1.72-2.94-1.66-4.71c0.01-0.46-0.38-1.03-0.74-1.4c-0.92-0.97-1.19-2.05-0.83-3.31c0.51-1.76,0.98-3.54,1.58-5.27
	c0.47-1.34,0.49-2.55-0.04-3.92c-1.17-3-0.31-5.64,1.92-7.87c0.87-0.86,1.93-1.41,3.18-1.53C9.29,4.99,9.92,4.92,10.49,4.86z
	 M18.13,19.39c0.22-0.5,0.33-1.01,0.62-1.34c0.28-0.32,0.76-0.61,1.16-0.63c0.63-0.02,0.98,0.48,1.05,1.1
	c0.07,0.59,0.09,1.18,0.14,1.77c0.46-0.38,0.71-0.79,0.77-1.23c0.23-1.67,1.21-2.48,2.82-2.79c0.93-0.18,1.83-0.54,2.69-0.93
	c0.97-0.44,1.33-1.29,1.3-2.36C28.63,11.3,27.9,10,26.45,9.27c-1.66-0.84-3.47-0.93-4.97,0.3c-1.24,1.02-2.47,1.34-3.98,0.98
	c-0.77-0.18-1.59-0.17-2.37-0.32c-1.34-0.25-2.65-0.55-3.55-1.76c-1-1.35-3.22-1.09-4.28-0.01c-1.44,1.48-2.24,3.17-1.28,5.2
	c0.88,1.88,0.73,3.7,0.04,5.58c-0.5,1.35-0.96,2.71-1.32,4.1c-0.35,1.36-0.05,2.04,1.25,2.43c2.44,0.72,4.92,1.37,7.51,1.35
	c0.13,0,0.26-0.15,0.54-0.33c-0.31-0.44-0.59-0.88-0.91-1.29c-0.91-1.18-1.2-2.48-0.51-3.81c0.73-1.43,1.85-2.39,3.61-2.31
	C16.77,19.41,17.33,19.39,18.13,19.39z M7.66,34.24c-0.84,1.63-1.58,3.04-2.27,4.47c-0.35,0.72-0.61,1.47-0.9,2.22
	c-0.43,1.14-0.33,2.18,0.57,3.09c2.99,2.99,6.88,2.9,9.66-0.28c0.52-0.59,0.98-1.28,1.31-2c0.73-1.6,1.37-3.23,2.01-4.86
	c0.16-0.4,0.15-0.87,0.23-1.4c-1.82-0.14-3.49-0.23-5.14-0.42C11.38,34.86,9.66,34.55,7.66,34.24z M6.36,28.77
	c0.53,2.27,1.35,2.96,3.31,3.18c1.1,0.13,2.2,0.32,3.3,0.45c1.34,0.15,2.69,0.37,4.04,0.38c4.48,0.02,5.13-0.2,5.53-5.36
	c0.04-0.55,0.03-1.13-0.1-1.66c-0.11-0.44-0.33-1.01-0.67-1.2c-1.67-0.9-3.38-1.74-5.12-2.51c-0.65-0.29-1.26,0.09-1.59,0.73
	c-0.33,0.63,0.05,1.1,0.5,1.44c0.76,0.58,1.57,1.09,2.35,1.63c0.55,0.38,1,0.82,0.81,1.57c-0.16,0.65-0.67,0.79-1.25,0.91
	c-0.43,0.09-0.92,0.25-1.22,0.54c-1.02,0.99-2.19,1.17-3.53,0.93C10.68,29.44,8.65,29.14,6.36,28.77z M14.72,4.13
	c-0.96,0.25-1.34,0.86-1.28,1.61c0.04,0.5,0.31,1.23,0.68,1.4c1.6,0.74,3.36,1.19,5.06,0.65c1.27-0.4,2.4-1.29,3.63-1.98
	c-1.11-0.89-2.18-0.82-3.22-0.27c-1.58,0.85-2.87,0.54-4.01-0.8C15.34,4.46,14.97,4.3,14.72,4.13z M24.88,5.76
	C24.92,5.8,24.95,5.87,25,5.89c0.06,0.02,0.14,0.01,0.21,0.01c-0.05-0.08-0.08-0.17-0.15-0.23C25.04,5.66,24.94,5.73,24.88,5.76z"/>
<path class="st1" d="M18.13,19.39c-0.8,0-1.36,0.02-1.92,0c-1.76-0.09-2.88,0.88-3.61,2.31c-0.68,1.33-0.39,2.64,0.51,3.81
	c0.32,0.42,0.61,0.86,0.91,1.29c-0.28,0.17-0.41,0.33-0.54,0.33c-2.58,0.02-5.06-0.62-7.51-1.35c-1.3-0.38-1.6-1.07-1.25-2.43
	c0.35-1.39,0.82-2.76,1.32-4.1c0.69-1.88,0.84-3.7-0.04-5.58c-0.96-2.04-0.16-3.73,1.28-5.2c1.06-1.09,3.28-1.35,4.28,0.01
	c0.89,1.22,2.21,1.51,3.55,1.76c0.78,0.15,1.6,0.13,2.37,0.32c1.52,0.36,2.75,0.04,3.98-0.98c1.5-1.24,3.31-1.14,4.97-0.3
	c1.45,0.73,2.18,2.04,2.23,3.71c0.03,1.07-0.33,1.91-1.3,2.36c-0.86,0.39-1.77,0.75-2.69,0.93c-1.61,0.31-2.59,1.12-2.82,2.79
	c-0.06,0.44-0.31,0.85-0.77,1.23c-0.04-0.59-0.07-1.18-0.14-1.77c-0.07-0.62-0.42-1.12-1.05-1.1c-0.4,0.02-0.88,0.31-1.16,0.63
	C18.46,18.38,18.35,18.88,18.13,19.39z M21.89,12.94c0,1,0.52,1.67,1.27,1.64c0.68-0.03,1.18-0.66,1.18-1.49
	c0-0.92-0.58-1.64-1.32-1.64C22.35,11.45,21.89,12.06,21.89,12.94z M21.29,14.85c0.02-0.62-0.56-1.16-1.22-1.12
	c-0.65,0.04-0.99,0.43-1,1.06c-0.01,0.62,0.33,1.03,0.95,1.13C20.63,16.03,21.27,15.47,21.29,14.85z"/>
<path class="st1" d="M7.66,34.24c2,0.31,3.72,0.62,5.46,0.82c1.65,0.19,3.32,0.28,5.14,0.42c-0.08,0.53-0.07,0.99-0.23,1.4
	c-0.64,1.64-1.28,3.27-2.01,4.86c-0.33,0.72-0.79,1.4-1.31,2c-2.78,3.18-6.67,3.27-9.66,0.28c-0.91-0.91-1-1.95-0.57-3.09
	c0.28-0.75,0.55-1.5,0.9-2.22C6.08,37.28,6.83,35.88,7.66,34.24z"/>
<path class="st1" d="M6.36,28.77c2.29,0.37,4.33,0.67,6.34,1.04c1.34,0.24,2.51,0.07,3.53-0.93c0.3-0.29,0.79-0.46,1.22-0.54
	c0.58-0.12,1.1-0.26,1.25-0.91c0.18-0.75-0.26-1.19-0.81-1.57c-0.79-0.54-1.6-1.05-2.35-1.63c-0.45-0.34-0.83-0.81-0.5-1.44
	c0.33-0.63,0.94-1.01,1.59-0.73c1.74,0.76,3.45,1.6,5.12,2.51c0.35,0.19,0.56,0.76,0.67,1.2c0.13,0.53,0.15,1.11,0.1,1.66
	c-0.41,5.15-1.05,5.38-5.53,5.36c-1.35-0.01-2.69-0.22-4.04-0.38c-1.1-0.13-2.2-0.32-3.3-0.45C7.71,31.73,6.89,31.03,6.36,28.77z"/>
<path class="st1" d="M14.72,4.13c0.24,0.17,0.62,0.33,0.86,0.62c1.14,1.34,2.42,1.65,4.01,0.8c1.04-0.56,2.12-0.62,3.22,0.27
	c-1.23,0.7-2.35,1.58-3.63,1.98c-1.7,0.53-3.46,0.08-5.06-0.65c-0.37-0.17-0.64-0.9-0.68-1.4C13.38,4.99,13.76,4.37,14.72,4.13z"/>
<path class="st1" d="M24.88,5.76c0.06-0.03,0.16-0.1,0.19-0.08c0.07,0.06,0.1,0.15,0.15,0.23c-0.07,0-0.15,0.02-0.21-0.01
	C24.95,5.87,24.92,5.8,24.88,5.76z"/>
<path class="st0" d="M21.89,12.94c0-0.89,0.46-1.49,1.14-1.5c0.74,0,1.32,0.72,1.32,1.64c0,0.84-0.5,1.46-1.18,1.49
	C22.42,14.62,21.9,13.94,21.89,12.94z"/>
<path class="st0" d="M21.29,14.85c-0.02,0.62-0.66,1.18-1.27,1.08c-0.62-0.1-0.96-0.51-0.95-1.13c0.01-0.63,0.35-1.02,1-1.06
	C20.73,13.69,21.31,14.23,21.29,14.85z"/>
</svg>
