<?xml version="1.0" encoding="utf-8"?>
<!-- Generator: Adobe Illustrator 25.4.1, SVG Export Plug-In . SVG Version: 6.00 Build 0)  -->
<svg version="1.1" id="Layer_1" xmlns="http://www.w3.org/2000/svg" xmlns:xlink="http://www.w3.org/1999/xlink" x="0px" y="0px"
	 viewBox="0 0 179.17 280.7" style="enable-background:new 0 0 179.17 280.7;" xml:space="preserve">
<style type="text/css">
	.st0{fill:#2F6797;}
	.st1{fill:#FFFFFF;}
</style>
<path class="st0" d="M8.48,264.75c0.44-3.35-0.51-6.47-0.44-9.77c-1.26-0.49-2.42-1.01-3.62-1.39c-1.64-0.51-2.58-1.5-2.71-3.25
	c-0.08-1.03-0.31-2.06-0.4-3.09c-0.17-1.8,0.57-3.08,2.25-3.82c4.68-2.07,9.31-4.26,14.04-6.21c9.18-3.78,18.12-8.06,26.99-12.48
	c7.45-3.71,15.03-7.12,22.84-10.01c3-1.11,5.91-2.44,8.89-3.61c1.16-0.45,1.66-1.2,2-2.41c1.54-5.38,3.24-10.71,4.86-16.07
	c0.85-2.83,1.68-5.67,2.46-8.52c0.41-1.49,0.3-2.91-0.35-4.42c-1.11-2.59-1.02-5.34-0.03-7.96c0.65-1.71,1.57-3.3,2.46-5.12
	c-0.98-2.34-0.85-4.99-0.74-7.62c0.06-1.54,0.41-3.03,1.82-3.99c0.77-0.52,0.84-1.33,0.85-2.13c0.02-1.6,0.02-3.2-0.02-4.8
	c-0.17-7.11-0.16-14.24-0.6-21.34c-0.5-8.16-0.64-16.3-0.25-24.45c0.23-4.71,0.54-9.42,0.3-14.14c-0.3-5.84,0.23-11.66,0.35-17.5
	c0.11-5.52,0.16-11.04,0.01-16.55c-0.13-4.64-0.15-9.26,0.05-13.9c0.25-5.91,0.12-11.83,0.12-17.75c0-3.51-0.21-7.04-0.03-10.54
	c0.13-2.45,0.62-4.88,0.68-7.37c0.05-2.05,2.35-3.34,4.22-2.49c0.45,0.2,0.88,0.73,1.04,1.2c0.25,0.74,0.33,1.57,0.34,2.36
	c0.05,4.08,0.04,8.15,0.07,12.23c0.02,4.24,0.05,8.48,0.09,12.72c0.09,9.2-0.3,18.39-0.83,27.57c-0.08,1.35,0.16,2.71,0.2,4.06
	c0.17,5.35,0.48,10.71,0.43,16.06c-0.06,5.99-0.46,11.98-0.69,17.97c-0.18,4.64-0.16,9.26,0.12,13.9c0.24,4.14,0.05,8.31,0.05,12.47
	c0,2.56,0,5.11-0.01,7.67c-0.02,4.64-0.07,9.27-0.04,13.91c0.02,3.11,0.16,6.22,0.24,9.25c0.29,0.24,0.44,0.45,0.65,0.54
	c2.51,1.15,3.01,3.45,3.01,5.81c0,1.73-0.5,3.47-0.79,5.2c-0.15,0.89-0.47,1.67-1.25,2.24c-0.29,0.21-0.61,0.62-0.62,0.95
	c-0.07,1.7-1.08,2.77-2.28,3.77c-0.26,0.21-0.38,0.6-0.31,1.14c0.39-0.21,0.81-0.38,1.17-0.63c1.59-1.1,3.27,0.37,3.32,1.76
	c0.03,1.03-0.07,2.07-0.27,3.08c-0.14,0.73-0.24,1.37,0.09,2.08c2.03,4.48,3.12,9.22,4.02,14.03c0.41,2.18,0.92,4.35,1.86,6.55
	c0.6-0.19,1.13-0.32,1.62-0.53c13.58-5.9,27.42-11.09,41.39-15.96c4.06-1.42,7.93-3.36,11.91-5.01c0.46-0.19,1.13-0.22,1.57-0.02
	c3.49,1.6,6.99,3.17,10.38,4.96c3.02,1.59,2.98,1.81,2.57,5.12c-0.53,4.22-0.21,3.94-4.35,5.61c-1.02,0.41-2.01,0.92-3.07,1.41
	c0.04,0.53,0.02,0.93,0.1,1.3c0.86,3.74,0.48,3.19,3.99,4.1c4.44,1.15,4.44,1.13,6.12,5.45c0.14,0.37,0.3,0.74,0.43,1.12
	c0.39,1.18,0.23,1.63-0.83,2.11c-2.61,1.2-5.21,2.45-7.86,3.57c-15.25,6.44-30.52,12.82-45.76,19.27
	c-4.34,1.84-8.61,3.85-12.92,5.76c-0.86,0.38-1.52,0.84-1.55,1.9c-0.01,0.47-0.18,0.94-0.32,1.4c-0.6,1.95-1.84,2.64-3.86,2.14
	c-1.23-0.3-2.48-0.94-3.67-0.85c-1.21,0.1-2.37,0.9-3.53,1.42c-8.32,3.72-16.66,7.41-24.95,11.19c-2.47,1.13-4.83,2.49-7.23,3.76
	c-7.98,4.23-15.95,8.5-24.38,11.8c-5.44,2.13-10.89,4.21-16.33,6.32c-1.45,0.56-2.88,0.7-4.45,0.36c-4.38-0.94-8.79-1.69-13.17-2.59
	c-3.61-0.75-3.83-1.13-3.68-4.85c0.08-2.03,0.79-3.53,2.9-4.16C6.29,265.73,7.36,265.2,8.48,264.75z M101.96,204.08
	c-0.6,0.16-1.07,0.23-1.5,0.4c-10.03,3.96-20.04,8-30.1,11.89c-7.68,2.98-15.3,6.07-22.68,9.75c-9.94,4.97-19.94,9.81-30.25,13.99
	c-2.96,1.2-5.89,2.5-8.81,3.79c-0.77,0.34-1.66,0.53-2.37,1.5c0.83,0.36,1.51,0.72,2.24,0.95c2.66,0.86,5.39,1.54,7.99,2.54
	c2.13,0.82,3.95,0.48,5.94-0.43c10.91-4.97,21.87-9.84,32.81-14.74c3.21-1.44,6.51-2.7,9.61-4.35c5.8-3.08,11.76-5.79,17.81-8.31
	c6.42-2.67,12.85-5.32,19.27-7.98c0.65-0.27,1.27-0.61,1.98-0.95C103.38,209.36,102.96,206.7,101.96,204.08z M106.57,211.1
	c1.03-0.39,1.84-0.69,2.65-1.01c4.23-1.67,8.44-3.4,12.7-5.02c5-1.9,10.06-3.63,15.04-5.6c8.61-3.41,17.18-6.94,25.75-10.44
	c1.85-0.75,3.65-1.61,5.46-2.45c0.41-0.19,0.76-0.5,1.2-0.8c-0.64-0.91-1.51-1.13-2.28-1.49c-1.73-0.81-3.52-1.52-5.22-2.41
	c-1.24-0.65-2.34-0.68-3.63-0.1c-6.57,2.92-13.38,5.23-20.15,7.64c-10.46,3.72-20.79,7.78-30.96,12.23
	c-0.86,0.37-1.84,0.56-2.57,1.6C105.35,205.68,105.66,208.37,106.57,211.1z M22.23,274.91c1.09-0.37,1.84-0.59,2.58-0.87
	c2.4-0.89,4.81-1.75,7.17-2.72c5.32-2.18,10.75-4.17,15.9-6.7c5.95-2.92,12.03-5.62,17.67-9.14c0.34-0.21,0.7-0.38,1.07-0.55
	c8.79-4.03,17.58-8.06,26.38-12.08c3.56-1.63,7.15-3.2,10.71-4.84c1.88-0.87,2.02-1.34,1.2-3.68c-0.51,0.16-1.04,0.3-1.54,0.49
	c-8.69,3.25-17.2,6.93-25.6,10.85c-4.42,2.06-8.82,4.17-13.23,6.23c-1.95,0.91-3.95,1.75-5.9,2.66c-4.27,2-8.53,4.02-12.78,6.06
	c-2.67,1.28-5.32,2.59-7.97,3.9c-4.87,2.4-9.53,5.24-14.64,7.16c-0.43,0.16-0.81,0.46-1.27,0.73
	C22.04,273.19,22.12,273.89,22.23,274.91z M101.32,201.07c-0.17-0.81-0.31-1.58-0.48-2.34c-0.51-2.25-1-4.52-1.57-6.76
	c-0.77-3.01-1.59-6.01-2.44-9c-0.14-0.49-0.51-0.92-0.76-1.35c-1.27,0.44-2.37,0.96-3.53,1.18c-1.23,0.24-2.51,0.19-3.8,0.27
	c-0.15,0.34-0.31,0.62-0.4,0.92c-0.97,3.37-1.89,6.76-2.91,10.12c-1.25,4.12-2.59,8.22-3.84,12.34c-0.21,0.71-0.77,1.45-0.23,2.25
	C83.41,208.47,97.8,202.99,101.32,201.07z M104.4,215.07c-0.44,0.1-0.77,0.13-1.05,0.24c-9.43,3.96-18.9,7.83-28.27,11.92
	c-5.92,2.59-11.7,5.5-17.55,8.27c-0.14,0.07-0.29,0.14-0.43,0.2c-8.24,3.68-16.49,7.34-24.73,11.03c-3.43,1.53-6.84,3.1-10.24,4.69
	c-0.39,0.18-0.87,0.55-0.97,0.93c-0.12,0.45,0.13,1,0.25,1.69c0.95-0.32,1.71-0.53,2.43-0.83c1.77-0.73,3.53-1.49,5.28-2.27
	c5.69-2.53,11.37-5.1,17.07-7.61c6.58-2.89,13.2-5.71,19.78-8.61c2.85-1.26,5.61-2.72,8.46-3.98c9.72-4.28,19.47-8.51,29.2-12.78
	C105.28,217.24,105.29,217.14,104.4,215.07z M108.21,229.96c2.04-0.84,3.94-1.66,5.87-2.4c9.92-3.82,19.85-7.59,29.76-11.43
	c8.73-3.38,17.11-7.54,25.42-11.82c0.2-0.1,0.35-0.3,0.64-0.56c-2.2-0.97-4.09-1.3-6.39-0.11c-5.11,2.64-10.35,5.03-15.63,7.31
	c-4.62,1.99-9.36,3.71-14.07,5.5c-7.92,3.01-15.79,6.12-23.19,10.3c-0.62,0.35-1.3,0.61-1.94,0.94
	C107.82,228.12,107.63,228.79,108.21,229.96z M16.52,269.47c2.01,1.01,2.49,1.12,3.98,0.49c2.94-1.25,5.88-2.51,8.75-3.91
	c5.46-2.66,10.82-5.52,16.31-8.13c7.79-3.71,15.73-7.12,23.48-10.92c10.92-5.35,22.03-10.25,33.38-14.63
	c0.67-0.26,1.33-0.54,1.97-0.87c0.84-0.43,0.8-1.08,0.33-1.92c-1.02,0.13-1.91,0.7-2.83,1.1c-4.32,1.89-8.53,4.09-12.96,5.65
	c-11.11,3.9-21.77,8.83-32.47,13.69c-6.11,2.78-12.11,5.79-18.15,8.74c-2.3,1.12-4.63,2.21-6.79,3.57
	c-4.02,2.53-8.27,4.51-12.71,6.14C18.16,268.72,17.54,269.03,16.52,269.47z M107.78,216.16c1.04-0.36,1.73-0.56,2.39-0.82
	c13.88-5.52,27.79-11,41.64-16.59c5.85-2.36,11.61-4.97,17.4-7.48c1.72-0.75,1.71-0.77,1.26-2.75c-0.53,0.2-1.05,0.37-1.55,0.59
	c-1.98,0.85-3.94,1.76-5.93,2.58c-3.18,1.3-6.39,2.53-9.57,3.83c-6.66,2.72-13.29,5.49-19.97,8.17c-2.89,1.16-5.86,2.12-8.77,3.23
	c-5.52,2.11-11.02,4.27-16.53,6.43c-0.29,0.11-0.53,0.32-0.93,0.58C107.39,214.61,107.55,215.26,107.78,216.16z M93.33,7.45
	c-0.21,0.02-0.42,0.04-0.62,0.07c0,0.87,0.02,1.73-0.01,2.6c-0.02,0.72,0.06,1.5-0.2,2.13c-0.51,1.24-0.47,2.5-0.47,3.77
	c0,8.63-0.01,17.26,0,25.89c0.01,5.83,0.05,11.67,0.04,17.5c-0.01,4.8-0.05,9.59-0.13,14.39c-0.08,4.95-0.21,9.9-0.31,14.85
	c-0.09,4.47-0.03,8.95-0.26,13.42c-0.36,6.95-0.49,13.89,0.05,20.84c0.25,3.26,0.52,6.53,0.58,9.81c0.13,6.23,0.12,12.47,0.18,18.7
	c0,0.46,0.09,0.91,0.13,1.37c0.15-2.32,0.14-4.63,0.16-6.94c0.04-7.59,0.1-15.19,0.12-22.78c0.02-4.8-0.01-9.59-0.01-14.39
	c0-4.31-0.05-8.63,0.03-12.94c0.04-2.31,0.41-4.62,0.43-6.93c0.06-6.95,0.04-13.91,0.02-20.86c-0.01-1.6-0.16-3.19-0.22-4.79
	c-0.09-2.39-0.28-4.79-0.2-7.17c0.18-5.11,0.58-10.21,0.74-15.32c0.14-4.47,0.08-8.95,0.1-13.43c0.02-4.87,0.04-9.75,0.02-14.62
	C93.5,10.89,93.39,9.17,93.33,7.45z M108.03,235.9c1.23-0.5,2.11-0.84,2.97-1.22c3.95-1.75,7.86-3.57,11.83-5.25
	c14.79-6.26,29.61-12.47,44.41-18.73c2.19-0.93,4.29-2.06,6.57-3.17c-0.28-0.74-0.49-1.29-0.7-1.85c-0.39,0.06-0.64,0.05-0.84,0.14
	c-1.45,0.67-2.92,1.31-4.33,2.06c-14.32,7.55-29.4,13.3-44.55,18.92c-4.64,1.72-9.22,3.63-13.82,5.47c-0.51,0.2-0.98,0.5-1.55,0.8
	C108.03,233.86,108.03,234.63,108.03,235.9z M95.64,156.75c-1.17-0.06-2.36-0.26-3.51-0.14c-1.92,0.19-2.44,0.86-2.49,2.79
	c-0.03,1.19-0.03,2.39,0.02,3.58c0.02,0.52,0.21,1.04,0.32,1.57c2.02,0.31,3.88,0.49,5.87-0.2
	C96.07,161.84,97.21,159.39,95.64,156.75z M94.58,179.02c-0.14-0.97-0.81-0.63-1.32-0.7c-1.98-0.26-2.95-1.32-3.08-3.31
	c-0.07-1.16,0.15-2.25,0.82-3.18c0.6-0.84,1.29-1.61,1.98-2.38c0.44-0.48,0.93-0.9,0.46-1.8c-0.61-0.04-1.32-0.2-2-0.1
	c-0.49,0.07-1.07,0.38-1.37,0.76c-2.05,2.59-3.25,5.46-2.84,8.87c0.24,1.96,1.5,3.25,3.46,3.25
	C92.15,180.43,93.54,180.1,94.58,179.02z M4.31,247.75c-0.23,2.6-0.14,3,1.48,3.56c3.61,1.24,7.26,2.38,10.91,3.51
	c0.55,0.17,1.19,0.08,1.8,0.11c-0.01-2.77-0.02-2.74-2.39-3.48c-3.49-1.09-6.97-2.25-10.45-3.37
	C5.23,247.94,4.77,247.86,4.31,247.75z M4.97,272.12c4.58,1.3,9.15,1.93,13.68,2.78c0.2,0.04,0.43-0.14,0.81-0.27
	c-0.18-0.45-0.22-0.99-0.52-1.22c-0.41-0.33-0.99-0.49-1.53-0.62c-3.56-0.84-7.13-1.65-10.71-2.45c-0.52-0.12-1.06-0.14-1.74-0.22
	C4.97,270.78,4.97,271.3,4.97,272.12z M13.57,269.12c0.13-0.21,0.21-0.28,0.21-0.34c-0.2-3.73-0.36-7.47-0.65-11.19
	c-0.09-1.16-0.52-1.3-2.39-1.37c0.19,3.98,0.56,7.93,1.1,11.86C11.97,269,12.71,269.09,13.57,269.12z M104.78,240.71
	c-0.06-0.02-0.13-0.06-0.19-0.06c-0.02,0-0.04,0.1-0.07,0.15c0.06,0.02,0.13,0.06,0.19,0.06
	C104.74,240.86,104.75,240.77,104.78,240.71z M8.76,267.92l0.1-0.14l-0.14-0.03L8.76,267.92z"/>
<path class="st1" d="M101.96,204.08c1.01,2.63,1.42,5.28,1.94,8.05c-0.71,0.34-1.33,0.68-1.98,0.95
	c-6.42,2.67-12.85,5.32-19.27,7.98c-6.05,2.52-12.01,5.23-17.81,8.31c-3.1,1.65-6.4,2.91-9.61,4.35
	c-10.94,4.9-21.89,9.77-32.81,14.74c-2,0.91-3.81,1.25-5.94,0.43c-2.6-1-5.33-1.68-7.99-2.54c-0.73-0.23-1.41-0.6-2.24-0.95
	c0.71-0.97,1.6-1.16,2.37-1.5c2.93-1.29,5.85-2.59,8.81-3.79c10.31-4.17,20.31-9.02,30.25-13.99c7.38-3.69,15-6.78,22.68-9.75
	c10.06-3.9,20.07-7.93,30.1-11.89C100.89,204.31,101.35,204.23,101.96,204.08z"/>
<path class="st1" d="M106.57,211.1c-0.91-2.73-1.22-5.42-2.02-7.85c0.73-1.04,1.72-1.23,2.57-1.6c10.17-4.45,20.5-8.51,30.96-12.23
	c6.77-2.41,13.57-4.72,20.15-7.64c1.29-0.57,2.38-0.55,3.63,0.1c1.69,0.89,3.48,1.6,5.22,2.41c0.77,0.36,1.64,0.58,2.28,1.49
	c-0.44,0.3-0.79,0.61-1.2,0.8c-1.81,0.84-3.61,1.7-5.46,2.45c-8.57,3.51-17.14,7.03-25.75,10.44c-4.97,1.97-10.04,3.69-15.04,5.6
	c-4.25,1.62-8.46,3.34-12.7,5.02C108.42,210.41,107.61,210.71,106.57,211.1z"/>
<path class="st1" d="M22.23,274.91c-0.11-1.02-0.19-1.71-0.27-2.49c0.47-0.27,0.85-0.57,1.27-0.73c5.11-1.92,9.77-4.76,14.64-7.16
	c2.65-1.31,5.3-2.62,7.97-3.9c4.25-2.04,8.51-4.06,12.78-6.06c1.95-0.92,3.95-1.75,5.9-2.66c4.42-2.06,8.81-4.17,13.23-6.23
	c8.41-3.92,16.91-7.6,25.6-10.85c0.51-0.19,1.03-0.33,1.54-0.49c0.82,2.34,0.69,2.82-1.2,3.68c-3.56,1.64-7.14,3.21-10.71,4.84
	c-8.8,4.02-17.59,8.05-26.38,12.08c-0.36,0.17-0.73,0.34-1.07,0.55c-5.65,3.52-11.72,6.22-17.67,9.14
	c-5.16,2.53-10.58,4.52-15.9,6.7c-2.37,0.97-4.78,1.83-7.17,2.72C24.07,274.31,23.32,274.54,22.23,274.91z"/>
<path class="st1" d="M104.4,215.07c0.89,2.07,0.89,2.18-0.76,2.9c-9.73,4.27-19.48,8.49-29.2,12.78c-2.85,1.26-5.61,2.72-8.46,3.98
	c-6.58,2.9-13.2,5.72-19.78,8.61c-5.7,2.51-11.38,5.08-17.07,7.61c-1.75,0.78-3.51,1.54-5.28,2.27c-0.72,0.3-1.48,0.51-2.43,0.83
	c-0.12-0.69-0.37-1.24-0.25-1.69c0.1-0.37,0.57-0.74,0.97-0.93c3.4-1.59,6.81-3.16,10.24-4.69c8.24-3.69,16.49-7.36,24.73-11.03
	c0.15-0.07,0.29-0.14,0.43-0.2c5.84-2.77,11.62-5.68,17.55-8.27c9.37-4.09,18.84-7.96,28.27-11.92
	C103.63,215.19,103.96,215.17,104.4,215.07z"/>
<path class="st1" d="M108.21,229.96c-0.58-1.17-0.39-1.83,0.48-2.28c0.64-0.33,1.32-0.59,1.94-0.94c7.4-4.18,15.27-7.29,23.19-10.3
	c4.71-1.79,9.45-3.51,14.07-5.5c5.28-2.28,10.52-4.67,15.63-7.31c2.3-1.19,4.19-0.86,6.39,0.11c-0.29,0.26-0.44,0.46-0.64,0.56
	c-8.32,4.28-16.69,8.44-25.42,11.82c-9.91,3.84-19.84,7.61-29.76,11.43C112.15,228.3,110.25,229.12,108.21,229.96z"/>
<path class="st1" d="M16.52,269.47c1.02-0.45,1.64-0.76,2.29-1c4.44-1.63,8.69-3.61,12.71-6.14c2.16-1.36,4.49-2.44,6.79-3.57
	c6.03-2.95,12.04-5.96,18.15-8.74c10.69-4.86,21.36-9.79,32.47-13.69c4.44-1.56,8.64-3.76,12.96-5.65c0.93-0.41,1.81-0.97,2.83-1.1
	c0.47,0.84,0.51,1.5-0.33,1.92c-0.64,0.33-1.3,0.61-1.97,0.87c-11.34,4.38-22.45,9.28-33.38,14.63c-7.75,3.8-15.69,7.21-23.48,10.92
	c-5.48,2.61-10.85,5.47-16.31,8.13c-2.87,1.4-5.81,2.66-8.75,3.91C19.01,270.6,18.53,270.49,16.52,269.47z"/>
<path class="st1" d="M107.78,216.16c-0.23-0.9-0.39-1.56-0.56-2.23c0.4-0.25,0.65-0.46,0.93-0.58c5.5-2.15,11.01-4.31,16.53-6.43
	c2.91-1.11,5.88-2.07,8.77-3.23c6.67-2.68,13.31-5.46,19.97-8.17c3.18-1.3,6.39-2.53,9.57-3.83c1.99-0.82,3.95-1.72,5.93-2.58
	c0.5-0.22,1.02-0.39,1.55-0.59c0.45,1.97,0.46,2-1.26,2.75c-5.79,2.51-11.55,5.12-17.4,7.48c-13.85,5.6-27.76,11.07-41.64,16.59
	C109.51,215.61,108.82,215.81,107.78,216.16z"/>
<path class="st1" d="M93.33,7.45c0.06,1.72,0.17,3.44,0.17,5.17c0.02,4.87,0,9.75-0.02,14.62c-0.02,4.48,0.04,8.95-0.1,13.43
	c-0.16,5.11-0.56,10.21-0.74,15.32c-0.08,2.39,0.11,4.78,0.2,7.17c0.06,1.6,0.22,3.19,0.22,4.79c0.02,6.95,0.04,13.91-0.02,20.86
	c-0.02,2.31-0.39,4.62-0.43,6.93c-0.07,4.31-0.03,8.63-0.03,12.94c0,4.8,0.03,9.59,0.01,14.39c-0.03,7.59-0.08,15.19-0.12,22.78
	c-0.01,2.31,0,4.61-0.16,6.94c-0.05-0.46-0.13-0.91-0.13-1.37c-0.06-6.23-0.05-12.47-0.18-18.7c-0.07-3.27-0.33-6.54-0.58-9.81
	c-0.54-6.95-0.41-13.89-0.05-20.84c0.23-4.47,0.17-8.94,0.26-13.42c0.1-4.95,0.24-9.9,0.31-14.85c0.07-4.8,0.12-9.59,0.13-14.39
	c0.01-5.83-0.04-11.67-0.04-17.5c-0.01-8.63,0-17.26,0-25.89c0-1.27-0.04-2.53,0.47-3.77c0.26-0.63,0.17-1.41,0.2-2.13
	c0.03-0.87,0.01-1.73,0.01-2.6C92.91,7.49,93.12,7.47,93.33,7.45z"/>
<path class="st1" d="M108.03,235.9c0-1.26,0-2.03,0-2.83c0.57-0.3,1.04-0.6,1.55-0.8c4.6-1.84,9.18-3.74,13.82-5.47
	c15.14-5.62,30.22-11.37,44.55-18.92c1.41-0.74,2.88-1.39,4.33-2.06c0.2-0.09,0.45-0.08,0.84-0.14c0.21,0.56,0.42,1.11,0.7,1.85
	c-2.28,1.11-4.38,2.24-6.57,3.17c-14.79,6.26-29.61,12.47-44.41,18.73c-3.97,1.68-7.89,3.5-11.83,5.25
	C110.14,235.05,109.26,235.39,108.03,235.9z"/>
<path class="st1" d="M95.64,156.75c1.57,2.64,0.43,5.09,0.21,7.59c-1.99,0.69-3.86,0.52-5.87,0.2c-0.11-0.53-0.3-1.05-0.32-1.57
	c-0.05-1.19-0.05-2.39-0.02-3.58c0.05-1.93,0.58-2.6,2.49-2.79C93.29,156.49,94.48,156.69,95.64,156.75z"/>
<path class="st1" d="M94.58,179.02c-1.04,1.08-2.43,1.41-3.87,1.41c-1.97,0-3.22-1.3-3.46-3.25c-0.42-3.4,0.79-6.28,2.84-8.87
	c0.3-0.39,0.88-0.69,1.37-0.76c0.68-0.1,1.39,0.06,2,0.1c0.47,0.9-0.03,1.32-0.46,1.8c-0.69,0.77-1.38,1.54-1.98,2.38
	c-0.67,0.94-0.89,2.03-0.82,3.18c0.13,1.99,1.1,3.05,3.08,3.31C93.77,178.39,94.44,178.05,94.58,179.02z"/>
<path class="st1" d="M4.31,247.75c0.46,0.11,0.91,0.19,1.35,0.33c3.49,1.12,6.96,2.27,10.45,3.37c2.37,0.74,2.38,0.71,2.39,3.48
	c-0.61-0.03-1.24,0.06-1.8-0.11c-3.65-1.13-7.3-2.27-10.91-3.51C4.18,250.76,4.09,250.35,4.31,247.75z"/>
<path class="st1" d="M4.97,272.12c0-0.81,0-1.34,0-2.01c0.67,0.08,1.22,0.1,1.74,0.22c3.57,0.8,7.14,1.62,10.71,2.45
	c0.53,0.13,1.11,0.29,1.53,0.62c0.29,0.23,0.34,0.77,0.52,1.22c-0.38,0.13-0.61,0.31-0.81,0.27
	C14.12,274.04,9.55,273.42,4.97,272.12z"/>
<path class="st1" d="M13.57,269.12c-0.86-0.02-1.61-0.12-1.73-1.04c-0.54-3.93-0.91-7.88-1.1-11.86c1.87,0.07,2.3,0.21,2.39,1.37
	c0.29,3.72,0.45,7.46,0.65,11.19C13.78,268.84,13.7,268.91,13.57,269.12z"/>
<path class="st1" d="M104.78,240.71c-0.02,0.05-0.04,0.15-0.07,0.15c-0.06,0-0.13-0.04-0.19-0.06c0.02-0.05,0.04-0.15,0.07-0.15
	C104.65,240.65,104.71,240.69,104.78,240.71z"/>
<polygon class="st1" points="8.76,267.92 8.71,267.75 8.85,267.78 "/>
</svg>
