<?xml version="1.0" encoding="utf-8"?>
<!-- Generator: Adobe Illustrator 25.4.1, SVG Export Plug-In . SVG Version: 6.00 Build 0)  -->
<svg version="1.1" id="Layer_1" xmlns="http://www.w3.org/2000/svg" xmlns:xlink="http://www.w3.org/1999/xlink" x="0px" y="0px"
	 viewBox="0 0 209 225" style="enable-background:new 0 0 209 225;" xml:space="preserve">
<path d="M136.09,121.25c1.59,1.47,2.73,2.57,3.92,3.61c14.22,12.41,28.46,24.81,42.68,37.22c2.29,2,4.59,3.99,6.85,6.02
	c0.58,0.52,1.03,1.17,1.62,1.87c-0.65,0.88-1.14,1.7-1.76,2.4c-8.57,9.5-17.17,18.98-25.76,28.47c-0.21,0.24-0.43,0.48-0.65,0.7
	c-1.19,1.21-1.81,1.23-3.27,0.05c-0.75-0.6-1.47-1.24-2.19-1.87c-13.51-11.77-27.01-23.55-40.52-35.32
	c-1.2-1.05-2.46-2.05-3.71-3.04c-0.46-0.37-1.41,0-1.54,0.6c-0.7,3.12-1.41,6.23-2.05,9.36c-2.96,14.57-5.9,29.15-8.86,43.71
	c-0.22,1.08-0.62,2.13-0.88,3.03c-1.38,0.95-2.66,0.54-3.89,0.3c-6.9-1.35-13.8-2.73-20.7-4.1c-5.33-1.06-10.66-2.11-15.99-3.18
	c-0.63-0.12-1.26-0.25-1.85-0.48c-0.64-0.24-1.08-0.81-1.04-1.46c0.08-1.27,0.27-2.54,0.52-3.79c1.89-9.41,3.8-18.81,5.7-28.21
	c0.12-0.6,0.44-1.23-0.16-1.8c-1.39,0.05-2.24,1.12-3.25,1.85c-7.38,5.36-14.71,10.78-22.09,16.14c-1.27,0.92-2.4,2.15-4.34,2.36
	c-0.58-0.55-1.37-1.11-1.93-1.84c-7.79-10.16-15.54-20.33-23.3-30.51c-0.29-0.38-0.56-0.78-0.81-1.19c-0.45-0.71-0.38-1.7,0.21-2.19
	c1.11-0.91,2.24-1.8,3.4-2.65c16.25-11.92,32.52-23.83,48.76-35.76c1.39-1.02,3.01-1.83,3.93-3.38c-0.51-1.55-1.83-2.28-2.89-3.21
	c-9.27-8.11-18.56-16.2-27.84-24.3c-8.44-7.36-16.89-14.7-25.32-22.08c-1.17-1.02-2.64-1.82-3.21-3.71
	c0.59-0.82,1.18-1.75,1.88-2.59c8.52-10.18,17.06-20.34,25.61-30.49c0.17-0.21,0.57-0.23,1.03-0.4c3.6,2.51,6.76,5.7,10.16,8.57
	c3.42,2.89,6.76,5.88,10.13,8.83c3.25,2.84,6.51,5.68,9.76,8.52c3.38,2.94,6.78,5.86,10.14,8.82c3.34,2.94,6.71,5.85,9.97,8.65
	c1.34-0.72,1.38-1.75,1.56-2.64c1.71-8.3,3.37-16.61,5.05-24.91c2.6-12.85,5.21-25.7,7.82-38.54c0.13-0.63,0.29-1.24,0.46-1.86
	c0.93-3.56,1.29-3.79,5.04-3.03c11.91,2.4,23.82,4.81,35.73,7.23c0.78,0.16,1.56,0.34,2.3,0.62c0.63,0.24,1.06,0.82,1.01,1.49
	c-0.11,1.59-0.23,3.2-0.54,4.76c-2.95,14.57-5.94,29.14-8.91,43.7c-0.35,1.72-0.72,3.44-1.03,5.17c-0.08,0.43,0.08,0.9,0.13,1.36
	c1.55,0.09,2.39-1.03,3.37-1.75c12.02-8.77,24.01-17.57,36.01-26.37c1.81-1.32,3.61-2.65,5.45-3.93c0.63-0.44,1.36-0.73,2.03-1.08
	c0.52,0.4,1,0.62,1.26,0.99c8,11.38,15.98,22.78,23.94,34.19c0.16,0.23,0.1,0.61,0.14,0.98c-0.92,1.53-2.54,2.34-3.94,3.37
	c-15.86,11.65-31.74,23.26-47.61,34.89c-4.26,3.12-8.52,6.23-12.76,9.37C138.17,119.42,137.36,120.18,136.09,121.25z"/>
</svg>
