<?xml version="1.0" encoding="utf-8"?>
<!-- Generator: Adobe Illustrator 25.4.1, SVG Export Plug-In . SVG Version: 6.00 Build 0)  -->
<svg version="1.1" id="Layer_1" xmlns="http://www.w3.org/2000/svg" xmlns:xlink="http://www.w3.org/1999/xlink" x="0px" y="0px"
	 viewBox="0 0 76.24 130" style="enable-background:new 0 0 76.24 130;" xml:space="preserve">
<path d="M59.6,72.78c3.66,0,6.92-0.01,10.19,0c3.57,0.02,3.62,0.07,3.64,3.62c0.07,9.99,0.12,19.99,0.2,29.98
	c0.05,5.94-1.77,11.17-5.92,15.49c-2.95,3.06-6.57,4.87-10.85,4.89c-11.35,0.05-22.71,0.1-34.06-0.08
	c-8.59-0.14-14.4-4.72-17.08-12.9C4.58,110.33,4,106.82,4,103.18C3.99,76.96,3.9,50.73,3.93,24.5c0-2.7,0.34-5.44,0.91-8.08
	c0.95-4.37,3.41-7.96,7.01-10.56c2.42-1.75,5.4-2.49,8.38-2.53C32.54,3.2,44.86,3.17,57.17,3.13c2.12-0.01,2.35,0.23,2.39,2.32
	c0.04,2.56-0.01,5.12,0,7.68c0.01,18.79,0.03,37.58,0.05,56.37C59.6,70.44,59.6,71.39,59.6,72.78z"/>
</svg>
