<?xml version="1.0" encoding="utf-8"?>
<!-- Generator: Adobe Illustrator 25.4.1, SVG Export Plug-In . SVG Version: 6.00 Build 0)  -->
<svg version="1.1" id="Layer_1" xmlns="http://www.w3.org/2000/svg" xmlns:xlink="http://www.w3.org/1999/xlink" x="0px" y="0px"
	 viewBox="0 0 100.58 130" style="enable-background:new 0 0 100.58 130;" xml:space="preserve">
<path d="M22.39,8.43c0.23-0.3,0.5-0.58,0.7-0.9c2-3.21,5.06-4.54,8.67-4.76c2.23-0.14,4.48-0.14,6.71-0.16
	c4.5-0.05,8.05,1.73,10.53,5.53c0.65,1,1.27,2.01,1.95,3.08c0.82-1.26,1.45-2.56,2.38-3.58c3.11-3.44,7.12-5.1,11.71-5.21
	c4.88-0.11,9.76,0.1,14.63-0.07C90.43,2,97.88,12.07,97.85,20.81c-0.06,15.44,0,30.87,0.01,46.31c0.02,18.4,0.04,36.79,0.05,55.19
	c0,0.96,0.01,1.92-0.04,2.88c-0.13,2.22-0.4,2.49-2.55,2.54c-0.72,0.02-1.44,0-2.16,0c-6.48-0.01-12.96-0.01-19.44-0.03
	c-2.54-0.01-2.72-0.17-2.73-2.73c-0.02-4.32,0.02-8.64,0.02-12.96c0-0.88,0.02-1.77-0.1-2.63c-0.39-2.96-2.51-4.8-5.37-4.69
	c-2.61,0.1-4.47,1.93-4.58,4.88c-0.17,4.47-0.15,8.96-0.21,13.43c-0.01,0.96-0.05,1.92-0.13,2.87c-0.1,1.21-0.7,1.84-2.02,1.83
	c-6.16-0.04-12.32-0.01-18.48-0.04c-1.66-0.01-1.97-0.3-2.05-1.95c-0.09-1.92-0.04-3.84-0.05-5.76c-0.01-3.12,0.06-6.24-0.08-9.35
	c-0.05-1.15-0.39-2.4-0.95-3.4c-1.77-3.12-5.39-3.14-7.43-0.15c-0.95,1.39-1.17,2.95-1.17,4.57c0,3.52,0.01,7.04,0,10.56
	c0,1.04-0.01,2.08-0.08,3.12c-0.14,2.06-0.41,2.35-2.44,2.36c-4,0.03-8,0-12,0c-3.04,0-6.08,0.02-9.12-0.02
	c-2.22-0.03-2.62-0.44-2.76-2.66c-0.04-0.56-0.02-1.12-0.02-1.68C1.99,85.12,1.99,46.97,2,8.82c0-1.28-0.09-2.56-0.07-3.84
	C1.95,3.27,2.38,2.75,4,2.74c5.36-0.06,10.72-0.08,16.08-0.07c1.59,0,1.8,0.24,1.88,1.81c0.06,1.27,0.01,2.55,0.01,3.83
	C22.11,8.34,22.25,8.38,22.39,8.43z"/>
</svg>
