<?xml version="1.0" encoding="utf-8"?>
<!-- Generator: Adobe Illustrator 25.4.1, SVG Export Plug-In . SVG Version: 6.00 Build 0)  -->
<svg version="1.1" id="Layer_1" xmlns="http://www.w3.org/2000/svg" xmlns:xlink="http://www.w3.org/1999/xlink" x="0px" y="0px"
	 viewBox="0 0 78.99 67.5" style="enable-background:new 0 0 78.99 67.5;" xml:space="preserve">
<g>
	<path d="M60.63,36.78c1.25-0.99,2.64-1.71,4.21-2c3.73-0.7,7.05,0.06,9.68,2.94c1.32,1.44,1.88,3.19,1.84,5.17
		c-0.05,2.61,0.01,5.22,0.03,7.83c0.01,1.9,0.01,3.8,0.03,5.71c0.02,1.9,0,3.81,0.1,5.71c0.11,2.03-1.99,3.48-4.04,2.54
		c-0.85-0.39-1.3-1.11-1.3-2.07c-0.01-1.44-0.02-2.88-0.03-4.31c-0.03-2.26-0.08-4.51-0.1-6.77c-0.01-0.93-0.43-1.61-1.13-2.14
		c-1.56-1.17-4.17-1.02-5.61,0.3c-0.5,0.46-0.85,1.01-0.85,1.73c0,0.77-0.04,1.55-0.04,2.32c0.01,2.57,0.04,5.13,0.06,7.7
		c0,0.53-0.02,1.06-0.08,1.59c-0.09,0.9-0.89,1.74-1.83,1.97c-2.03,0.51-3.85-0.97-3.81-3.06c0.05-2.83,0.05-5.66,0.06-8.49
		c0-0.73-0.02-1.45-0.04-2.18c-0.02-1.21-0.7-1.98-1.73-2.46c-1.59-0.74-3.14-0.61-4.6,0.36c-0.78,0.52-1.22,1.27-1.22,2.23
		c0.02,3.54,0.03,7.08,0.09,10.61c0.02,1.6-1.24,3.03-2.78,3.05c-1.6,0.02-2.82-1.24-2.81-2.89c0.04-6.37,0.11-12.74,0.1-19.11
		c0-1.63,0.28-3.11,1.18-4.46c0.99-1.48,2.31-2.56,3.96-3.21c3.66-1.45,7.14-1.12,10.37,1.2C60.42,36.65,60.51,36.7,60.63,36.78z"/>
	<path d="M42.26,50.19c0,2.37-0.01,4.73,0,7.1c0.01,2.55-1.16,4.5-3.1,6.02c-4.02,3.16-10.41,2.57-13.66-1.26
		c-1.24-1.46-1.91-3.12-1.88-5.1c0.08-4.67,0.14-9.34,0.09-14c-0.03-2.59,1.03-4.57,2.96-6.14c3.81-3.1,9.92-2.81,13.32,0.6
		c1.56,1.56,2.31,3.44,2.24,5.68c-0.07,2.37-0.02,4.73-0.02,7.1C42.23,50.19,42.25,50.19,42.26,50.19z M33.23,47.9
		c0.01,0,0.02,0,0.04,0c0,0.77-0.02,1.54,0,2.31c0.02,0.85,0.56,1.33,1.46,1.35c0.95,0.02,1.71-0.48,1.73-1.26
		c0.05-1.7,0.05-3.4,0.01-5.09c-0.01-0.32-0.26-0.71-0.52-0.93c-0.56-0.46-1.22-0.44-1.87-0.15c-0.62,0.28-0.85,0.79-0.85,1.44
		C33.23,46.36,33.23,47.13,33.23,47.9z"/>
	<path d="M2.49,51.92c0-3.01,0.06-6.02-0.02-9.03c-0.06-2.49,0.97-4.41,2.8-5.95c3.77-3.21,9.95-3.01,13.43,0.42
		c1.61,1.59,2.36,3.5,2.3,5.79c-0.07,2.56,0.01,5.13,0.03,7.7c0.01,1.15,0.02,2.3,0.03,3.45c0.02,2.41,0.04,4.82,0.06,7.23
		c0,0.35,0,0.71-0.03,1.06c-0.09,1.2-0.68,1.91-1.83,2.22c-1.15,0.31-2.45-0.08-3.03-0.96c-0.15-0.23-0.26-0.51-0.31-0.79
		c-0.07-0.41-0.1-0.84-0.1-1.25c-0.02-3.61-0.05-7.21-0.04-10.82c0-1.27-0.57-2.12-1.68-2.61c-1.76-0.78-3.45-0.59-5.01,0.55
		c-0.68,0.5-1.05,1.2-1.05,2.05c0.02,3.65,0.03,7.3,0.09,10.95c0.02,1.34-0.44,2.34-1.53,2.83c-1.16,0.52-2.56,0.26-3.43-0.65
		c-0.56-0.59-0.81-1.29-0.81-2.11c0.01-3.36,0.01-6.72,0.01-10.09C2.41,51.92,2.45,51.92,2.49,51.92z"/>
</g>
<g>
	<path d="M60.63,4.38c0.98-0.78,2.05-1.42,3.25-1.75c4.04-1.11,7.69-0.48,10.64,2.68c1.33,1.43,1.88,3.19,1.85,5.17
		c-0.05,2.63,0.02,5.26,0.03,7.9c0.01,1.88,0.01,3.76,0.02,5.64c0.02,1.9,0,3.81,0.1,5.71c0.11,2.06-2.02,3.47-4.04,2.54
		c-0.85-0.39-1.3-1.11-1.31-2.07c-0.01-1.53-0.02-3.05-0.03-4.58c-0.03-2.17-0.08-4.33-0.1-6.5c-0.01-1.04-0.5-1.79-1.35-2.28
		c-1.61-0.93-3.26-0.9-4.85,0.04c-0.84,0.49-1.4,1.21-1.4,2.26c0,0.73-0.03,1.46-0.03,2.19c0.02,2.57,0.04,5.13,0.06,7.7
		c0,0.53-0.02,1.06-0.08,1.59c-0.09,0.9-0.88,1.73-1.82,1.98c-2.02,0.53-3.86-0.97-3.82-3.05c0.05-2.85,0.05-5.71,0.06-8.56
		c0-0.73-0.02-1.45-0.04-2.18c-0.04-1.25-0.78-2-1.83-2.46c-1.47-0.65-2.94-0.54-4.31,0.31c-0.91,0.56-1.4,1.37-1.39,2.48
		c0.02,3.32,0.03,6.64,0.03,9.95c0,0.52,0.01,1.07-0.13,1.56c-0.41,1.41-1.69,2.19-3.11,1.98c-1.31-0.2-2.3-1.42-2.29-2.85
		c0.04-6.22,0.08-12.43,0.13-18.65c0-0.27,0.01-0.53,0-0.8c-0.11-2.78,1.21-4.84,3.39-6.38c3.59-2.53,8.5-2.42,12.05,0.19
		C60.38,4.22,60.49,4.29,60.63,4.38z"/>
	<path d="M23.73,17.38c0-2.3,0.06-4.6-0.02-6.9c-0.07-2.41,0.93-4.28,2.66-5.82c3.74-3.32,10.06-3.17,13.58,0.32
		c1.59,1.57,2.34,3.47,2.28,5.73c-0.06,2.59,0.02,5.18,0.03,7.76c0.01,2.37,0.07,4.74-0.04,7.1c-0.09,1.94-1.07,3.52-2.46,4.84
		c-4.12,3.89-11.53,3.2-14.76-1.39c-0.92-1.31-1.43-2.75-1.38-4.4c0.06-2.41,0.02-4.82,0.02-7.23
		C23.67,17.38,23.7,17.38,23.73,17.38z M36.48,15.35c0.01,0,0.02,0,0.03,0c0-0.77,0-1.54,0-2.32c0-0.44-0.11-0.84-0.48-1.11
		c-0.6-0.45-1.26-0.49-1.93-0.19c-0.62,0.27-0.87,0.78-0.87,1.43c0.01,1.57,0.01,3.13,0.05,4.7c0.01,0.27,0.11,0.57,0.27,0.79
		c0.35,0.49,1.19,0.65,1.88,0.42c0.72-0.24,1.04-0.66,1.05-1.42C36.49,16.9,36.48,16.12,36.48,15.35z"/>
	<path d="M2.49,19.59c0-3.03,0.06-6.06-0.02-9.09C2.41,8.07,3.41,6.17,5.16,4.63c3.72-3.27,9.98-3.13,13.48,0.28
		c1.64,1.59,2.41,3.52,2.35,5.84c-0.06,2.56,0.01,5.13,0.03,7.7c0.01,1.26,0.02,2.52,0.03,3.78c0.02,2.3,0.04,4.6,0.06,6.9
		c0,0.35,0,0.71-0.02,1.06c-0.09,1.2-0.68,1.91-1.83,2.22c-1.14,0.31-2.45-0.08-3.04-0.96c-0.15-0.23-0.26-0.51-0.31-0.79
		c-0.07-0.41-0.1-0.84-0.1-1.25c-0.02-3.61-0.05-7.21-0.03-10.82c0.01-1.3-0.6-2.16-1.74-2.64c-1.74-0.74-3.41-0.56-4.95,0.58
		c-0.68,0.51-1.05,1.2-1.05,2.05c0.02,3.65,0.03,7.3,0.09,10.95c0.03,1.36-0.47,2.39-1.59,2.86c-1.2,0.51-2.61,0.19-3.46-0.77
		c-0.5-0.57-0.72-1.24-0.72-2.01c0.01-3.34,0.01-6.68,0.01-10.02C2.41,19.59,2.45,19.59,2.49,19.59z"/>
</g>
</svg>
