<?xml version="1.0" encoding="utf-8"?>
<!-- Generator: Adobe Illustrator 25.4.1, SVG Export Plug-In . SVG Version: 6.00 Build 0)  -->
<svg version="1.1" id="Layer_1" xmlns="http://www.w3.org/2000/svg" xmlns:xlink="http://www.w3.org/1999/xlink" x="0px" y="0px"
	 viewBox="0 0 76.24 130" style="enable-background:new 0 0 76.24 130;" xml:space="preserve">
<path d="M73.37,64.11c0,12.88,0.07,25.75-0.05,38.62c-0.03,3.5-0.37,7.04-1.07,10.46c-1.03,5-3.38,9.31-8.18,11.81
	c-2.17,1.12-4.47,1.7-6.91,1.7c-11.67-0.02-23.35-0.01-35.02-0.07c-1.83-0.01-3.67-0.23-5.49-0.45c-2.44-0.3-4.65-1.24-6.46-2.92
	c-4.62-4.3-7.57-9.38-7.59-15.94C2.53,85.73,2.4,64.14,2.3,42.55c-0.02-5.12-0.17-10.24,0-15.35c0.12-3.66,0.43-7.36,1.09-10.95
	C4.75,8.89,11.09,2.07,20.07,2.11c11.03,0.05,22.07-0.02,33.1-0.17c13.03-0.17,19.89,9.59,20,20.18
	c0.15,13.99,0.04,27.99,0.04,41.98C73.26,64.11,73.31,64.11,73.37,64.11z M44.08,62.57c-0.01,0-0.02,0-0.03,0
	c0-1.68,0.21-3.39-0.06-5.02c-0.24-1.45-0.79-2.98-1.62-4.17c-2.39-3.4-6.93-3.58-9.78-0.55c-1.24,1.33-2.06,2.91-2.13,4.72
	c-0.13,3.19-0.26,6.4-0.09,9.58c0.2,3.5,3.3,6.11,6.83,6.12c3.49,0.01,6.52-2.63,6.86-6.12C44.21,65.62,44.08,64.09,44.08,62.57z"/>
</svg>
