<?xml version="1.0" encoding="utf-8"?>
<!-- Generator: Adobe Illustrator 25.4.1, SVG Export Plug-In . SVG Version: 6.00 Build 0)  -->
<svg version="1.1" id="Layer_1" xmlns="http://www.w3.org/2000/svg" xmlns:xlink="http://www.w3.org/1999/xlink" x="0px" y="0px"
	 viewBox="0 0 189 187" style="enable-background:new 0 0 189 187;" xml:space="preserve">
<path d="M37.89,22.03c1.26,0.67,1.93,1.57,2.71,2.33c12.54,12.41,25.07,24.84,37.61,37.25c1.06,1.05,2.2,2.04,3.31,3.04
	c0.21,0.19,0.67,0.01,0.72-0.26c0.06-0.29,0.16-0.58,0.17-0.87c0.02-0.9,0.01-1.8,0.01-2.71c-0.08-17.85-0.16-35.69-0.23-53.54
	c0-1,0.03-2,0.07-3c0.02-0.47,0.5-0.92,1-0.97c0.6-0.06,1.2-0.1,1.8-0.11c5.71-0.02,11.43-0.02,17.14-0.02c0.6,0,1.2,0.04,1.8,0.1
	c0.49,0.05,0.97,0.51,0.99,0.98c0.06,1,0.09,2,0.1,3c0.06,18.15,0.12,36.29,0.18,54.44c0,1.07-0.08,2.16,0.14,3.36
	c0.41-0.16,0.73-0.2,0.92-0.37c0.74-0.68,1.44-1.39,2.15-2.1c12.63-12.75,25.25-25.51,37.88-38.26c0.91-0.92,1.75-1.93,2.94-2.7
	c0.35,0.18,0.76,0.28,1.01,0.54c4.84,4.8,9.66,9.62,14.48,14.44c0.14,0.14,0.21,0.34,0.31,0.5c0.14,0.58-0.2,0.95-0.55,1.31
	c-0.63,0.65-1.26,1.29-1.9,1.93c-12.84,12.97-25.68,25.93-38.51,38.9c-0.63,0.63-1.21,1.31-1.9,2.06c0.36,0.22,0.58,0.46,0.82,0.47
	c0.8,0.06,1.6,0.05,2.4,0.04c15.14-0.05,30.28-0.11,45.42-0.17c3.51-0.02,7.02-0.12,10.53-0.13c2.77-0.01,2.87,0.1,2.88,2.87
	c0.03,5.71,0.04,11.43,0.03,17.14c-0.01,2.73-0.09,2.78-2.93,2.82c-0.2,0-0.4,0-0.6,0c-18.45,0.12-36.89,0.24-55.34,0.36
	c-0.8,0.01-1.6,0.02-2.4,0.08c-0.15,0.01-0.37,0.18-0.41,0.33c-0.05,0.16,0,0.42,0.11,0.54c0.54,0.59,1.1,1.16,1.67,1.73
	c7.69,7.62,15.39,15.23,23.09,22.85c5.49,5.43,10.97,10.86,16.44,16.31c0.69,0.69,1.59,1.25,1.86,2.43
	c-0.27,0.34-0.53,0.77-0.87,1.11c-4.52,4.55-9.06,9.09-13.59,13.63c-0.21,0.21-0.43,0.43-0.68,0.59c-0.35,0.24-0.78,0.31-1.11,0.03
	c-0.69-0.58-1.34-1.21-1.98-1.84c-8.26-8.19-16.52-16.38-24.78-24.56c-4.91-4.87-9.83-9.74-14.74-14.61
	c-0.57-0.56-1.14-1.11-1.8-1.75c-0.23,0.29-0.52,0.47-0.53,0.68c-0.06,1.1-0.06,2.2-0.06,3.31c0.06,17.95,0.12,35.89,0.17,53.84
	c0.01,4.79,0.47,4.32-4.36,4.34c-5.01,0.02-10.03,0.01-15.04,0c-0.99,0-2.01,0.17-3.07-0.34c-0.1-0.41-0.3-0.87-0.33-1.35
	c-0.07-1-0.06-2-0.06-3.01c-0.07-17.95-0.14-35.89-0.21-53.84c0-1.1-0.04-2.2-0.06-3.4c-0.37,0.07-0.7,0.04-0.87,0.19
	c-0.67,0.6-1.3,1.25-1.94,1.89c-12.91,13.04-25.82,26.08-38.73,39.11c-0.77,0.78-1.57,1.53-2.41,2.36
	c-0.43-0.24-0.82-0.36-1.08-0.62c-4.76-4.73-9.52-9.48-14.26-14.24c-0.27-0.27-0.45-0.64-0.7-1.01c0.25-0.37,0.44-0.73,0.7-1.02
	c0.61-0.66,1.25-1.3,1.89-1.94C37.88,133.85,50.44,121.18,63,108.5c0.78-0.78,1.55-1.57,2.3-2.38c0.18-0.2,0.24-0.5,0.39-0.85
	c-0.32-0.12-0.58-0.29-0.84-0.3c-1-0.04-2-0.04-3.01-0.03c-16.34,0.11-32.68,0.22-49.02,0.33c-2.11,0.01-4.21,0.03-6.32,0.02
	c-0.6,0-1.2-0.04-1.79-0.14c-0.41-0.07-0.72-0.38-0.8-0.8c-0.09-0.49-0.12-0.99-0.13-1.49c-0.01-6.02-0.01-12.03,0-18.05
	c0-0.5,0.06-1,0.14-1.49C4,82.89,4.3,82.58,4.72,82.54c1-0.08,2-0.13,3-0.14c10.13-0.05,20.25-0.07,30.38-0.12
	c8.22-0.05,16.44-0.13,24.66-0.22c0.88-0.01,1.79,0.13,2.71-0.3c-0.11-0.33-0.13-0.65-0.31-0.84c-0.67-0.74-1.39-1.45-2.1-2.15
	c-12.82-12.7-25.65-25.39-38.47-38.09c-0.64-0.63-1.28-1.27-1.9-1.93c-0.53-0.57-0.55-1.05-0.07-1.58c0.33-0.37,0.68-0.73,1.04-1.09
	c4.25-4.25,8.5-8.51,12.76-12.76C36.84,22.9,37.31,22.54,37.89,22.03z"/>
</svg>
