<?xml version="1.0" encoding="utf-8"?>
<!-- Generator: Adobe Illustrator 25.4.1, SVG Export Plug-In . SVG Version: 6.00 Build 0)  -->
<svg version="1.1" id="Layer_1" xmlns="http://www.w3.org/2000/svg" xmlns:xlink="http://www.w3.org/1999/xlink" x="0px" y="0px"
	 viewBox="0 0 105 130" style="enable-background:new 0 0 105 130;" xml:space="preserve">
<path d="M32.71,3.71c0.11,1.26,0.25,2.2,0.26,3.15c0.05,3.84,0.01,7.68,0.12,11.51c0.09,3.12,2.29,5.2,5.18,5.08
	c2.07-0.09,3.79-1.34,4.41-3.45c0.33-1.13,0.46-2.36,0.48-3.55c0.05-3.44,0.01-6.88-0.03-10.31c-0.02-2.31,0.12-2.54,2.35-2.56
	c6-0.05,12-0.08,17.99-0.07c1.99,0,2.37,0.39,2.4,2.39c0.06,3.76,0.05,7.52,0.1,11.27c0.01,0.71,0.09,1.45,0.28,2.13
	c0.63,2.21,2.84,3.76,5.07,3.64c2.28-0.13,4.17-1.87,4.48-4.26c0.16-1.26,0.17-2.55,0.18-3.83c0.01-2.96-0.04-5.92-0.02-8.88
	c0.01-2.15,0.35-2.49,2.51-2.51c6.4-0.05,12.8-0.08,19.19-0.09c2.06,0,2.28,0.23,2.34,2.37c0.03,1.2-0.02,2.4-0.02,3.6
	c-0.09,30.07-0.18,60.14-0.29,90.21c-0.01,2.32-0.03,4.65-0.35,6.94c-1.02,7.45-4.49,13.47-11.02,17.39
	c-1.72,1.03-3.86,1.79-5.85,1.88c-6.06,0.28-12.14,0.19-18.22,0.22c-2.63,0.01-4.73-1.29-6.7-2.86c-2.48-1.97-4.3-4.48-5.89-7.46
	c-0.44,0.67-0.77,1.17-1.11,1.65c-1.04,1.51-1.99,3.11-3.16,4.51c-1.98,2.36-4.52,3.87-7.66,3.93c-5.11,0.11-10.23,0.22-15.34,0.04
	c-4.1-0.14-7.48-2.2-10.35-5.02c-5.07-4.99-7.44-11.26-8.23-18.2c-0.14-1.27-0.19-2.55-0.19-3.83C5.52,68.67,5.43,38.6,5.34,8.53
	c0-0.48-0.01-0.96,0-1.44c0.04-2.97,0.36-3.3,3.31-3.31C15.76,3.76,22.88,3.74,30,3.71C30.78,3.71,31.57,3.71,32.71,3.71z"/>
</svg>
