<?xml version="1.0" encoding="utf-8"?>
<!-- Generator: Adobe Illustrator 25.4.1, SVG Export Plug-In . SVG Version: 6.00 Build 0)  -->
<svg version="1.1" id="Layer_1" xmlns="http://www.w3.org/2000/svg" xmlns:xlink="http://www.w3.org/1999/xlink" x="0px" y="0px"
	 viewBox="0 0 326.82 178.51" style="enable-background:new 0 0 326.82 178.51;" xml:space="preserve">
<style type="text/css">
	.st0{fill:#FFFFFF;}
	.st1{fill:#FF9E02;}
	.st2{fill:#2B6998;}
</style>
<path class="st0" d="M25.53,72.11c-0.09-4.69,0.17-9.29,0.57-14.09c1.57,0.37,2.97,0.68,4.35,1.02c3.03,0.74,6.06,1.27,9.22,1.36
	c3.83,0.11,7.64,0.69,11.46,1.07c2.86,0.29,5.73,0.54,8.59,0.87c4.21,0.49,8.4,1.06,12.61,1.58c5.95,0.72,11.85,1.74,17.82,2.35
	c8.05,0.82,16.11,1,24.18,1.32c6.07,0.24,12.12,0.83,18.18,1.22c1.91,0.12,3.84,0.03,5.75,0.18c4.14,0.33,8.29,0.61,12.4,1.18
	c6.5,0.89,12.97,1.81,19.55,1.9c3.83,0.05,7.65,0.59,11.48,0.87c4.14,0.31,8.29,0.55,12.44,0.87c2.63,0.21,5.24,0.53,7.87,0.78
	c2.15,0.21,4.3,0.38,6.44,0.62c4.68,0.54,9.36,1.11,14.05,1.67c0.63,0.08,1.27,0.24,1.9,0.23c3.14-0.04,6.21,0.45,9.3,0.92
	c4.11,0.64,8.25,0.94,12.41,1.04c3.11,0.08,6.21,0.48,9.31,0.77c1.99,0.18,3.97,0.53,5.96,0.59c4.33,0.15,8.59,0.77,12.86,1.4
	c2.36,0.35,4.78,0.32,7.17,0.58c4.29,0.47,8.55,1.17,12.89,1.07c1.44-0.03,1.69,0.25,1.8,1.67c0.2,2.55,0.3,5.11,0.45,7.66
	c0.16,2.71,0.32,5.42,0.47,8.14c0.02,0.3-0.08,0.61-0.15,1.13c-0.83,0-1.62,0.1-2.37-0.01c-3.87-0.57-7.72-1.28-11.6-1.79
	c-4.59-0.61-9.2-1.13-13.82-1.57c-8.12-0.78-16.24-1.5-24.36-2.17c-3.42-0.29-6.86-0.39-10.3-0.6c-9.1-0.55-18.22-0.91-27.25-2.12
	c-6.83-0.91-13.7-1.09-20.54-1.74c-3.74-0.36-7.48-0.83-11.22-0.97c-5.52-0.21-11-0.76-16.46-1.57c-2.68-0.4-5.41-0.54-8.12-0.75
	c-4.62-0.35-9.26-0.59-13.87-1.02c-7.08-0.65-14.15-1.43-21.23-2.13c-2.7-0.27-5.41-0.5-8.12-0.73c-5.26-0.44-10.53-0.73-15.77-1.33
	c-7.07-0.81-14.06-2.1-21.02-3.65c-8.11-1.81-16.28-3.41-24.45-4.92c-3.37-0.62-6.82-0.81-10.24-1.15c-2.23-0.23-4.47-0.33-6.69-0.6
	C28.17,73.11,26.86,73.02,25.53,72.11z M254.4,95.85c1.69,0.06,2.96,0.12,4.23,0.15c1.84,0.05,3.69-0.06,5.5,0.17
	c1.5,0.19,2.35-0.28,3.14-1.51c2.1-3.31,4.33-6.53,6.49-9.8c0.2-0.31,0.31-0.68,0.51-1.16c-0.56-0.12-0.93-0.23-1.31-0.26
	c-2.7-0.26-5.42-0.42-8.11-0.78c-1.47-0.2-2.42,0.23-3.21,1.46c-2.14,3.37-4.36,6.7-6.52,10.06
	C254.88,94.56,254.75,95.02,254.4,95.85z M282.39,84.19c-0.34,0.26-0.51,0.33-0.59,0.45c-2.54,3.86-5.08,7.72-7.6,11.6
	c-0.14,0.22-0.08,0.57-0.13,1.02c3.47,0.18,6.8,0.22,10.14,0.05c0.9-0.05,1.42-0.61,1.88-1.3c2.01-3.07,4.04-6.12,6.04-9.19
	c0.19-0.29,0.21-0.69,0.35-1.17C288.93,85.14,285.56,84.65,282.39,84.19z M49.37,73.62c3.07,0.62,5.95,1.21,8.83,1.77
	c1.78,0.35,1.8,0.33,2.71-1.11c1.66-2.62,3.32-5.25,4.96-7.88c0.28-0.45,0.48-0.95,0.79-1.58c-0.96-0.13-1.74-0.26-2.53-0.34
	c-1.97-0.19-3.95-0.35-5.93-0.53c-0.48-0.04-0.96-0.05-1.43-0.14c-1.1-0.21-1.81,0.27-2.37,1.18c-1.59,2.57-3.22,5.13-4.81,7.7
	C49.5,72.87,49.49,73.13,49.37,73.62z M48.25,63.57c-4.08-0.44-7.62-0.83-11.06-1.2c-1.97,2.32-5.04,7.42-5.47,9.1
	c3.53,0.52,7.04,1.03,10.67,1.56C44.28,69.97,46.12,67,48.25,63.57z M198.44,81.76c-0.35-0.83-0.54-1.23-0.68-1.64
	c-0.29-0.83-0.49-1.69-0.85-2.48c-0.17-0.38-0.57-0.79-0.95-0.93c-1.11-0.39-1.76,0.1-1.93,1.37c-0.48,3.63-0.94,7.27-1.39,10.91
	c-0.06,0.45,0.05,0.93,0.09,1.57c0.74,0.08,1.39,0.15,1.94,0.21c1.04-1.61,0.36-3.46,1.4-5c0.85,1.78,0.54,3.67,1.54,5.24
	c0.43,0.05,0.82,0.15,1.2,0.14c0.3,0,0.61-0.12,0.95-0.2c0.13-0.41,0.31-0.77,0.37-1.15c0.35-2.45,0.68-4.9,0.99-7.35
	c0.2-1.58,0.35-3.17,0.49-4.75c0.02-0.2-0.16-0.43-0.3-0.75c-0.6,0-1.2,0-1.99,0C199.05,78.42,198.79,79.85,198.44,81.76z
	 M176.24,89.19c0.93-0.08,1.6-0.14,2.18-0.19c0.73-2.44,1.71-11.96,1.45-13.68c-0.62-0.47-1.26-0.59-1.9-0.15
	c-0.66,1.06-0.04,2.43-1.12,3.48c-0.14-0.53-0.24-0.9-0.35-1.28c-0.13-0.46-0.23-0.93-0.38-1.38c-0.51-1.51-0.85-1.66-2.67-1.21
	c-0.78,3.1-1.64,13.37-1.06,14.02c0.18,0.05,0.48,0.19,0.78,0.21c0.3,0.02,0.61-0.07,1.11-0.14c0.21-1.26,0.42-2.49,0.73-4.32
	C175.5,86.35,175.83,87.62,176.24,89.19z M94.57,72.82c0,0.63,0.01,1.16,0,1.68c-0.03,1.6-0.12,3.19-0.08,4.78
	c0.04,1.74,0.34,1.89,2.22,1.38c0.48-2.84,0.85-10.6,0.59-12.64c-1.01-0.62-1.89-0.36-2.79,0.37c-0.64,0.52-1.04,1.42-2.11,1.46
	c-0.34-0.59-0.67-1.13-0.98-1.68c-0.51-0.92-1.37-1.07-2.27-0.92c-0.84,0.14-1.09,0.85-1.2,1.6c-0.14,0.95-0.26,1.9-0.37,2.85
	c-0.26,2.3-0.56,4.59-0.74,6.89c-0.04,0.48,0.18,1.14,0.53,1.45c0.33,0.3,0.98,0.26,1.56,0.39c0.72-2.61,0.45-5.22,1.33-7.64
	C92.35,73.98,92.35,73.98,94.57,72.82z M140.23,79.31c0.48-0.65,0.9-1.14,1.23-1.68c1.54-2.5,0.43-5.15-2.45-5.6
	c-1.31-0.2-2.67-0.03-3.94-0.03c-1,1.65-0.55,3.3-0.73,4.85c-0.18,1.5-0.29,3.02-0.33,4.53c-0.04,1.57-0.26,3.16,0.24,4.81
	c0.66,0,1.26,0,2.06,0c0.06-1.05,0.12-1.98,0.15-2.92c0.04-1,0.03-2,0.67-3.04c0.82,0.74,0.98,1.6,1.22,2.42
	c0.33,1.15,0.66,2.3,1.01,3.44c0.21,0.71,0.71,1.07,1.45,0.91c0.43-0.09,0.83-0.34,1.35-0.56C141.5,84.03,140.88,81.73,140.23,79.31
	z M116.74,70.18c-0.55,4.24-0.98,8.43-1.1,12.64c-0.03,1.29,0.32,1.45,2.15,1.26c0.76-1.57-0.01-3.55,1.07-5.2
	c0.75,0.76,0.67,1.59,0.74,2.36c0.07,0.71,0.08,1.44,0.22,2.14c0.29,1.46,0.57,1.57,2.39,1.1c0.05-0.21,0.17-0.44,0.15-0.66
	c-0.09-1.35-0.18-2.71-0.34-4.05c-0.12-0.99-0.01-1.84,0.67-2.67c0.82-1,1.21-2.23,1.21-3.56c0-1.71-0.67-2.72-2.31-3.21
	C120.07,69.87,118.49,69.79,116.74,70.18z M180.2,89.92c1.19,0.02,2.28,0.06,3.38,0.04c1.64-0.02,2.64-0.88,3.21-2.4
	c0.96-2.58,1.25-5.28,1.34-7.99c0.03-0.83-0.36-1.71-0.72-2.49c-0.42-0.91-1.23-1.53-2.24-1.62c-1.17-0.11-2.36-0.45-3.5,0.02
	C180.99,77.63,179.97,87.21,180.2,89.92z M127.12,71.08c-0.38,1.19-0.8,2.31-1.08,3.45c-0.81,3.33-1.56,6.68-2.31,10.02
	c-0.04,0.19,0.15,0.42,0.25,0.68c0.64,0,1.25,0,1.94,0c0.42-1.34,0.81-2.6,1.23-3.96c0.69,0.13,1.22,0.23,1.78,0.33
	c0.26,1.3,0.51,2.53,0.73,3.63c0.86,0.43,1.52,0.69,2.35,0c-0.47-4.63-0.5-9.38-1.25-14.16C129.45,71.08,128.36,71.08,127.12,71.08z
	 M171.41,88.08c-0.63-4.83-0.33-9.46-1.42-13.93c-1.17-0.34-2.16-0.54-3.12-0.11c-1.27,2.93-3.48,11.69-3.44,13.81
	c0.66,0,1.33,0,2.08,0c0.22-0.64,0.38-1.25,0.65-1.82c0.19-0.4,0.44-0.89,0.8-1.05c0.36-0.16,0.88,0.04,1.35,0.09
	c0.21,1.05,0.4,1.96,0.62,3.02C169.67,88.08,170.34,88.08,171.41,88.08z M115,75.03c-0.05-0.02-0.09-0.03-0.14-0.05
	c-0.06-1.03,0.02-2.1-0.2-3.1c-0.45-2.1-2.21-3.08-4.18-2.31c-0.69,0.27-1.35,0.87-1.8,1.49c-1.29,1.76-2.02,8.51-1.17,10.48
	c0.28,0.64,0.69,1.3,1.23,1.72c1.82,1.44,4.25,0.67,4.93-1.69C114.29,79.45,114.57,77.22,115,75.03z M209.62,79.69
	c0.31-0.69,0.01-1.26-0.59-1.57c-0.63-0.32-1.33-0.54-2.02-0.66c-2.49-0.46-3.88,0.44-4.27,2.92c-0.35,2.28-0.5,4.59-0.7,6.89
	c-0.05,0.55-0.01,1.12,0.07,1.67c0.24,1.68,1.11,2.64,2.63,3.02c1.53,0.38,2.7-0.24,3.52-1.43c1.25-1.83,1.59-3.9,1.46-6.26
	c-1.28,0-2.35,0-3.47,0c-0.29,1.05-0.9,1.95,0.27,2.84c0.48,0.36,0.16,1.24-0.41,1.59c-0.45,0.28-1.16,0.01-1.3-0.62
	c-0.14-0.6-0.17-1.26-0.1-1.87c0.18-1.58,0.43-3.16,0.66-4.73c0.09-0.6,0.22-1.2,0.32-1.69C207.13,79.16,208.35,80.53,209.62,79.69z
	 M221.87,93.27c2.43,0.24,2.44,0.24,2.99-1.44c0.15-0.45,0.28-0.92,0.42-1.37c0.2-0.66,0.53-1.2,1.34-1.08
	c0.7,0.1,0.83,0.66,0.88,1.24c0.06,0.72,0.1,1.43,0.17,2.15c0.06,0.62,0.38,1.02,1.04,1.12c1.06,0.17,1.71-0.34,1.58-1.48
	c-0.41-3.73-0.88-7.44-1.38-11.16c-0.07-0.52-0.38-1.01-0.59-1.53c-0.88,0-1.64,0-2.48,0C224.33,84.21,223.06,88.64,221.87,93.27z
	 M247.17,85.37c-1.24-0.24-2.31-0.44-3.56-0.69c0.13-0.79,0.24-1.44,0.37-2.26c1.02,0,1.89,0.02,2.75-0.01
	c0.54-0.02,0.9-0.28,0.89-0.88c0-0.59-0.36-0.86-0.88-0.93c-1.34-0.16-2.69-0.33-4.04-0.42c-0.44-0.03-0.89,0.14-1.51,0.25
	c-0.08,1.6-0.13,3.1-0.24,4.6c-0.12,1.59-0.37,3.17-0.43,4.76c-0.06,1.46-0.79,2.92-0.2,4.51c2.04,0.08,3.94,0.96,5.87,0.29
	c0.49-1.35,0.49-1.35,0.17-2.72c-0.48-0.08-1.02-0.15-1.55-0.24c-0.53-0.09-1.06-0.2-1.63-0.31c-0.32-1.3-0.2-2.41,0.45-3.46
	c1.13-0.09,2.15-0.16,3.16-0.25c0.06-0.01,0.12-0.1,0.28-0.24c0.05-0.19,0.16-0.49,0.18-0.79
	C247.28,86.26,247.22,85.95,247.17,85.37z M239,81.68c-1.01-1.73-2.37-2.27-4.26-1.86c-1.22,0.26-2.07,0.94-2.28,2.17
	c-0.42,2.52-0.9,5.05-0.58,7.63c0.1,0.79,0.24,1.6,0.54,2.32c1.16,2.83,4.01,3.18,5.79,0.66c0.63-0.88,1.11-1.98,1.31-3.04
	c0.46-2.48,0.09-3.46-2.79-3.26c-0.15,0.01-0.29,0.13-0.47,0.21c-0.38,0.69-0.65,1.34-0.04,2.16c0.93,1.25,0.82,1.48-0.8,2.39
	c-1.25-1.42-1-3.16-0.8-4.76c0.19-1.56-0.3-3.39,1.19-4.71C236.85,81.83,237.84,82.36,239,81.68z M81.83,69.25c1.34,0,2.34,0,3.33,0
	c0.4-0.89,0.52-1.63-0.01-2.44c-1.1-0.18-2.19-0.41-3.3-0.54c-1.58-0.18-2.21,0.3-2.49,1.87c-0.19,1.02-0.28,2.06-0.39,3.09
	c-0.21,2.07-0.43,4.14-0.57,6.21c-0.11,1.63,0.53,2.68,1.88,2.9c1.31,0.22,2.67,0.47,4.08,0c0-0.75,0-1.42,0-2.08
	c-1.14-0.3-2.13-0.55-3.08-0.8c-0.23-0.92-0.36-1.69,0.32-2.38c0.94,0,1.88,0,2.82,0c0.56-0.87,0.62-1.67,0.2-2.52
	c-1-0.2-1.91-0.39-3.01-0.62C81.69,71.07,81.75,70.31,81.83,69.25z M101.49,76.86c0.57-0.09,0.95-0.21,1.33-0.2
	c3.02,0.08,4.5-3.33,3.61-5.95c-0.3-0.87-0.83-1.56-1.72-1.88c-1.59-0.56-3.2-0.9-4.81-0.36c-0.88,2.75-1.49,12.03-0.84,12.83
	c0.62,0.26,1.27,0.6,2.07-0.05C101.24,79.85,101.36,78.38,101.49,76.86z M218.5,88.43c0.59-0.25,1.03-0.43,1.47-0.62
	c2.49-1.03,3.64-2.73,3.62-5.34c-0.02-1.47-0.82-2.9-2.05-3.22c-1.44-0.37-2.93-0.58-4.41-0.16c-0.14,0.96-0.27,1.74-0.38,2.53
	c-0.46,3.4-0.92,6.79-1.35,10.19c-0.04,0.29,0.1,0.59,0.18,1.01c0.69,0,1.28,0,2.02,0C217.89,91.37,218.18,89.98,218.5,88.43z
	 M150.83,72.59c-2.34-0.31-2.34-0.31-4.31,1.53c-0.81-1.13-1.58-2.57-3.53-1.25c0.33,0.93,0.63,1.91,1.04,2.84
	c0.79,1.8,1.06,3.62,0.69,5.59c-0.31,1.71-0.28,3.46-0.08,5.11c0.83,0.48,1.48,0.58,2.23-0.05c0.19-2.14,0.45-4.35,0.55-6.56
	c0.06-1.25,0.4-2.33,1.06-3.36C149.24,75.25,149.96,74.02,150.83,72.59z M156.38,87.04c1.85,0.79,3.53,0.71,5.19,0.67
	c0.75-0.02,1.1-0.57,1.16-1.28c0.07-0.83-0.33-1.39-1.1-1.63c-0.81-0.25-1.65-0.43-2.51-0.65c-0.12-3.63,1.08-7.03,0.7-10.65
	c-0.8,0-1.44,0-2.16,0C156.94,78.06,156.47,82.47,156.38,87.04z M72.61,68.92c-0.1,1.29-0.2,2.55-0.31,3.8
	c-0.15,1.66-0.31,3.33-0.44,4.99c-0.02,0.21,0.15,0.44,0.27,0.76c0.65,0,1.31,0,2.05,0c0.46-3.27,0.46-6.47,1.33-9.45
	c2.29-0.8,2.29-0.8,1.9-2.76c-2.38-0.76-5.83-0.9-6.65-0.07c-0.04,0.49-0.1,1.17-0.16,1.85C71.32,68.35,71.89,68.6,72.61,68.92z
	 M190.95,90.28c0.6-4.55,1.16-8.8,1.71-13.05c0.03-0.21-0.13-0.44-0.22-0.73c-0.31-0.06-0.6-0.16-0.91-0.18
	c-0.31-0.02-0.62,0.05-1.08,0.1c-0.19,1.03-0.42,2.02-0.56,3.02c-0.46,3.31-0.9,6.62-1.33,9.94c-0.03,0.2,0.14,0.43,0.25,0.74
	C189.42,90.17,190.04,90.21,190.95,90.28z"/>
<path class="st0" d="M99.3,126.02c-0.54-4.91-0.9-9.73-0.79-14.61c1.83-0.89,3.71-0.93,5.49-1.07c7.81-0.6,15.63-1.03,23.44-1.54
	c2.07-0.14,4.15-0.32,6.21-0.55c5.56-0.6,11.12-1.24,16.68-1.85c8.34-0.91,16.68-1.83,25.03-2.67c3.18-0.32,6.38-0.48,9.57-0.65
	c7.02-0.36,14.05-0.65,21.07-1.03c2.07-0.11,4.14-0.4,6.2-0.65c1.74-0.21,3.48-0.3,5.17-0.22c0.47,1.7,0.27,7.92-0.31,10.45
	c-0.38,0.14-0.81,0.38-1.26,0.45c-2.29,0.34-4.59,0.68-6.89,0.94c-3.81,0.44-7.62,0.82-11.43,1.24c-3.81,0.42-7.63,0.83-11.44,1.29
	c-2.38,0.29-4.74,0.72-7.13,0.98c-3.89,0.43-7.8,0.72-11.69,1.19c-5.95,0.72-11.88,1.59-17.83,2.33c-4.92,0.61-9.85,1.08-14.77,1.7
	c-5.47,0.68-10.94,1.43-16.4,2.19c-4.59,0.64-9.17,1.34-13.76,1.98C102.83,126.16,101.16,126.31,99.3,126.02z"/>
<path class="st0" d="M229.59,152.02c1.5-2.38,2.68-4.45,4.04-6.39c2.71-3.85,5.54-7.61,8.29-11.43c1.54-2.14,3.05-4.29,4.49-6.49
	c0.63-0.96,1.37-1.48,2.53-1.46c0.88,0.01,1.75-0.09,2.63-0.14c2.15-0.11,4.3-0.23,6.45-0.31c0.93-0.04,1.88-0.22,3.01,0.09
	c-0.32,0.63-0.52,1.12-0.81,1.57c-3.93,6.1-7.86,12.2-11.8,18.3c-0.99,1.54-2.01,3.07-2.98,4.63c-0.51,0.82-1.19,1.26-2.17,1.2
	c-0.24-0.01-0.48,0-0.72,0.01c-3.66,0.14-7.33,0.28-10.99,0.42C231.1,152.04,230.63,152.02,229.59,152.02z"/>
<path class="st0" d="M294.75,124.28c0.15,1.23-0.47,2.03-0.91,2.84c-2.9,5.24-5.83,10.45-8.76,15.67c-1.09,1.95-2.25,3.86-3.32,5.82
	c-0.5,0.91-1.09,1.51-2.21,1.55c-3.91,0.16-7.81,0.37-11.72,0.54c-0.38,0.02-0.77-0.09-1.21-0.15c-0.16-1.22,0.65-1.98,1.15-2.84
	c2.85-4.9,5.75-9.76,8.58-14.67c1.27-2.21,2.47-4.47,3.61-6.76c0.62-1.25,1.53-1.62,2.87-1.64c3.19-0.04,6.38-0.24,9.56-0.36
	C293.18,124.25,293.96,124.28,294.75,124.28z"/>
<path class="st0" d="M292.61,53.8c0.55,2.03,0.71,4,0.68,5.99c-0.01,0.59-0.32,1.23-0.65,1.75c-1.07,1.69-2.14,3.38-3.33,4.97
	c-2.96,3.97-6,7.88-8.96,11.85c-0.63,0.85-1.3,1.32-2.4,1.18c-1.34-0.17-2.7-0.21-4.05-0.36c-1.82-0.2-3.64-0.45-5.46-0.71
	c-0.78-0.11-1.55-0.3-2.52-0.48c0.3-0.64,0.46-1.16,0.76-1.59c1.06-1.5,2.21-2.94,3.26-4.44c3.48-4.97,6.93-9.96,10.39-14.95
	c0.36-0.52,0.73-1.05,1.06-1.6c0.59-0.97,1.42-1.39,2.57-1.42c2.23-0.05,4.46-0.25,6.7-0.34C291.29,53.62,291.92,53.74,292.61,53.8z
	"/>
<path class="st0" d="M277.57,124.88c-0.37,0.86-0.53,1.29-0.74,1.7c-3.47,6.66-7.02,13.28-11.13,19.58
	c-0.74,1.14-1.4,2.33-2.08,3.51c-0.42,0.75-0.98,1.25-1.88,1.26c-4.31,0.03-8.61,0.07-12.92,0.09c-0.06,0-0.12-0.08-0.34-0.24
	c0.31-0.59,0.58-1.23,0.96-1.81c4.41-6.85,8.88-13.66,13.22-20.56c1.21-1.93,2.61-2.97,4.95-2.99
	C270.78,125.39,273.95,125.09,277.57,124.88z"/>
<path class="st0" d="M244.1,126.59c-2.82,3.97-5.38,7.54-7.9,11.13c-2.57,3.66-5.12,7.34-7.63,11.04c-2.88,4.24-2.17,3.81-7.26,4.22
	c-1.35,0.11-2.71,0.02-4.05,0.02c-0.74-2.42-0.42-4.69,0.92-6.53c4.46-6.15,8.94-12.28,13.37-18.45c0.73-1.02,1.52-1.47,2.78-1.46
	c2.72,0.01,5.43-0.12,8.15-0.17C242.85,126.38,243.23,126.48,244.1,126.59z"/>
<path class="st0" d="M28.51,138.93c0.65-0.7,1.08-1.25,1.58-1.7c5.61-5.12,11.24-10.23,16.85-15.35c1.36-1.24,2.71-2.48,4.04-3.76
	c0.6-0.58,1.22-0.96,2.1-0.98c3.27-0.08,6.53,0.07,10.04,0.48c-0.38,0.53-0.61,0.93-0.91,1.25c-3.67,3.91-7.31,7.84-11.03,11.69
	c-2.5,2.59-5.12,5.06-7.68,7.59c-0.59,0.58-1.19,1.01-2.08,1.01c-3.84,0-7.68,0.04-11.52,0.05
	C29.54,139.21,29.17,139.07,28.51,138.93z"/>
<path class="st0" d="M278.57,54.62c-0.42,0.79-0.68,1.44-1.07,2c-2.5,3.7-4.99,7.41-7.56,11.06c-2.07,2.93-4.3,5.75-6.37,8.68
	c-0.72,1.02-1.48,1.48-2.77,1.39c-3.1-0.21-6.17-0.62-9.52-1.16c0.53-0.87,0.9-1.55,1.34-2.17c2.45-3.44,4.96-6.85,7.38-10.32
	c1.74-2.48,3.44-4.99,5.02-7.58c0.77-1.26,1.57-2.05,3.16-2.04c3.03,0.02,6.05-0.15,9.08-0.2
	C277.62,54.28,277.98,54.47,278.57,54.62z"/>
<path class="st0" d="M263.12,54.58c-0.7,1.25-1.06,2.04-1.54,2.74c-1.9,2.76-3.83,5.51-5.77,8.25c-2.22,3.13-4.49,6.22-6.67,9.38
	c-0.71,1.03-1.52,1.47-2.8,1.39c-2.47-0.16-4.95-0.13-7.43-0.24c-1.01-0.05-2.01-0.28-3.37-0.48c0.64-0.92,1.05-1.57,1.52-2.17
	c2.82-3.58,5.69-7.11,8.47-10.72c1.66-2.15,3.23-4.37,4.72-6.64c0.75-1.14,1.63-1.56,2.97-1.53
	C256.33,54.63,259.44,54.58,263.12,54.58z"/>
<path class="st0" d="M94.8,117.42c-0.95,0.96-1.86,1.96-2.85,2.88c-4.4,4.06-8.84,8.1-13.25,12.15c-2,1.84-4.01,3.67-5.93,5.59
	c-1.1,1.1-2.35,1.55-3.87,1.5c-2.16-0.08-4.31-0.08-6.47-0.13c-0.37-0.01-0.74-0.13-1.38-0.26c0.58-0.67,0.95-1.16,1.38-1.58
	c1.89-1.84,3.86-3.6,5.69-5.5c4.38-4.54,8.72-9.12,13.02-13.75c0.82-0.88,1.63-1.47,2.85-1.46c0.88,0.01,1.75-0.09,2.63-0.1
	c2-0.02,3.99-0.02,5.99-0.01c0.69,0,1.37,0.08,2.06,0.12C94.71,117.05,94.76,117.24,94.8,117.42z"/>
<path class="st0" d="M247.83,55.01c-1.22,1.81-2.12,3.32-3.2,4.7c-3.59,4.59-7.25,9.14-10.88,13.7c-0.3,0.38-0.56,0.82-0.94,1.08
	c-0.43,0.29-1,0.57-1.48,0.54c-2.55-0.16-5.09-0.4-7.64-0.64c-0.54-0.05-1.08-0.19-1.64-0.29c-0.49-1.32-0.29-2.37,0.57-3.39
	c3.87-4.58,7.71-9.18,11.55-13.78c0.71-0.85,1.54-1.32,2.66-1.4c3.16-0.23,6.32-0.53,9.48-0.77
	C246.66,54.73,247.04,54.88,247.83,55.01z"/>
<path class="st0" d="M46.63,138.99c0.6-0.69,1.04-1.23,1.52-1.74c4.74-4.96,9.48-9.92,14.23-14.87c1.32-1.38,2.61-2.8,3.99-4.13
	c0.42-0.41,1.07-0.78,1.63-0.81c2.94-0.17,5.9-0.23,8.84-0.31c0.37-0.01,0.74,0.12,1.36,0.22c-0.38,0.56-0.59,0.95-0.88,1.28
	c-5.31,5.96-10.94,11.61-16.72,17.12c-0.4,0.39-0.85,0.73-1.23,1.13c-1.74,1.8-3.67,2.97-6.35,2.41c-0.91-0.19-1.9,0.07-2.86,0.1
	C49.05,139.44,47.94,139.46,46.63,138.99z"/>
<path class="st0" d="M235.64,98.77c0.82,0,1.53-0.04,2.24,0.01c13.16,0.76,26.24,2.3,39.38,3.52c-13.62,3.11-27.51,4.47-41.12,7.38
	C235.61,107.91,235.27,101.03,235.64,98.77z"/>
<path class="st0" d="M71.83,41c3.13,1.44,5,5.45,4.34,9.45c-2.43,0.52-5,0.33-7.51,0.64c-2.61,0.32-5.25,0.41-7.88,0.57
	c-2.55,0.16-5.1,0.35-7.66,0.43c-2.53,0.07-5.05,0.84-7.56,0.23c-0.67-3.27,1.04-8.15,3.57-10.05c0.7,0.35,1.48,0.72,2.24,1.12
	c6.4,3.4,12.57,2.98,18.51-1.13c0.53-0.36,1.04-0.75,1.56-1.12C71.5,41.11,71.58,41.1,71.83,41z"/>
<path class="st0" d="M270.82,51.66c-2.58,0.15-4.88,0.37-7.18,0.39c-3.43,0.03-6.86-0.13-10.29-0.12c-2.15,0.01-4.31,0.18-6.46,0.26
	c-1.03,0.03-2.06,0.01-3.22,0.01c0.03-1.83,0.91-3.17,1.96-4.29c2.62-2.8,5.6-4.95,9.74-4.89c2.06,0.03,4.14-0.42,6.2-0.38
	c4.63,0.08,7.69,3.09,9.09,7.24C270.8,50.31,270.74,50.8,270.82,51.66z"/>
<path class="st0" d="M26.4,80.22c2.2-0.51,4.08-0.23,6.02-0.09c0.49,1.33,0.31,2.61,0.17,3.86c-0.85,7.63-1.74,15.25-2.6,22.88
	c-0.14,1.27-0.17,2.55-0.29,3.83c-0.11,1.19-0.28,2.37-0.43,3.59c-1.64,0.63-3.18,0.42-4.55,0.07c-0.21-0.2-0.28-0.25-0.33-0.31
	c-0.05-0.06-0.08-0.14-0.1-0.22c-0.04-0.15-0.1-0.31-0.1-0.46c0.01-0.4,0.06-0.8,0.08-1.19C24.8,101.56,25.52,90.96,26.4,80.22z"/>
<path class="st0" d="M220.68,97.87c2.32-0.17,4.52-0.12,6.86,0.49c0.07,0.75,0.21,1.44,0.19,2.14c-0.08,2.87-0.18,5.74-0.34,8.6
	c-0.24,4.14-0.54,8.27-0.81,12.4c-0.06,0.87-0.13,1.73-0.22,2.79c-2.4,0.67-4.74,0.49-6.91,0.33c-0.23-0.22-0.3-0.26-0.35-0.33
	c-0.04-0.06-0.08-0.15-0.08-0.22c0-0.71-0.03-1.43,0.02-2.14C219.58,114.01,220.12,106.08,220.68,97.87z"/>
<path class="st0" d="M22.82,139.1c0.21-2.74,0.37-5.27,0.63-7.78c0.05-0.5,0.44-1.03,0.8-1.41c3.64-3.8,7.31-7.58,10.97-11.36
	c0.69-0.72,1.46-1.13,2.52-1.14c3.11-0.02,6.21-0.14,9.32-0.21c0.13,0,0.26,0.14,0.56,0.33c-0.42,0.47-0.77,0.96-1.21,1.35
	c-3.84,3.49-7.7,6.95-11.54,10.44c-2.95,2.68-5.88,5.39-8.82,8.08c-0.53,0.48-1.06,0.99-1.66,1.36
	C24.04,138.97,23.54,138.95,22.82,139.1z"/>
<path class="st0" d="M298.9,124.53c0.08,0.66,0.18,1.2,0.22,1.74c0.27,4.62,0.54,9.24,0.76,13.87c0.03,0.68-0.09,1.47-0.41,2.05
	c-1.26,2.22-2.6,4.4-3.99,6.54c-0.26,0.39-0.89,0.74-1.36,0.76c-2.95,0.11-5.91,0.13-8.86,0.16c-0.21,0-0.41-0.16-0.83-0.32
	c0.41-0.82,0.77-1.6,1.19-2.35c4.17-7.45,8.34-14.89,12.53-22.32C298.18,124.57,298.42,124.6,298.9,124.53z"/>
<path class="st0" d="M95.76,114.06c-2.11,0-4,0-6.01,0c-0.11-0.59-0.3-1.12-0.3-1.65c-0.02-8.22-0.02-16.44-0.01-24.66
	c0-0.46,0.11-0.92,0.16-1.34c2.31-0.32,4.39-0.17,6.4,0.46c0.26,2.6,0.18,5.3,0.13,8C96.02,101.22,96.12,107.58,95.76,114.06z"/>
<path class="st0" d="M96.03,120.12c0.16,1.12,0.33,1.89,0.38,2.67c0.16,2.39,0.25,4.78,0.41,7.17c0.07,0.95-0.19,1.7-0.93,2.33
	c-2.5,2.11-4.99,4.24-7.48,6.36c-0.96,0.81-2.02,1.1-3.31,1.02c-3.02-0.18-6.05-0.2-9.33-0.3c0.31-0.5,0.46-0.93,0.76-1.21
	c2.3-2.21,4.61-4.43,6.96-6.59C87.52,127.83,91.6,124.14,96.03,120.12z"/>
<path class="st0" d="M94.8,53c-0.89,2.1-2.53,3.54-3.8,5.24c-1.23,1.66-2.6,3.22-3.91,4.84c-2.02,0.26-10.21-0.84-13.03-1.79
	c0.17-0.34,0.28-0.72,0.51-0.98c1.82-2.12,3.64-4.24,5.51-6.31c0.34-0.38,0.91-0.74,1.39-0.77c4.29-0.23,8.59-0.37,12.89-0.54
	C94.42,52.69,94.49,52.78,94.8,53z"/>
<path class="st0" d="M215.68,172.51c-0.05-0.5-0.19-1.04-0.15-1.58c0.37-4.92,0.76-9.83,1.16-14.84c0.6-0.16,1.12-0.39,1.65-0.41
	c1.59-0.05,3.18-0.02,4.84-0.02c0.66,0.68,0.44,1.6,0.39,2.44c-0.23,4.46-0.51,8.93-0.79,13.39c-0.02,0.39-0.13,0.78-0.19,1.13
	C220.68,173.29,218.36,173.25,215.68,172.51z"/>
<path class="st0" d="M96.64,161.12c-1.9,0.17-3.7,0.28-5.59-0.22c-0.58-1.98-0.25-3.98-0.28-5.94c-0.04-2.07,0.07-4.15,0.09-6.22
	c0.02-1.97,0-3.94,0-6.01c2.07-0.4,3.93-0.19,5.75,0.24C97.18,145.01,97.23,158.02,96.64,161.12z"/>
<path class="st0" d="M293.72,65.49c0.14,0.53,0.38,1.03,0.4,1.55c0.24,4.51,0.76,9,0.84,13.66c-4.2,0.66-8.07-0.28-12.2-0.73
	c0.25-0.6,0.33-1,0.55-1.29c3.27-4.33,6.56-8.64,9.85-12.95C293.25,65.62,293.45,65.6,293.72,65.49z"/>
<path class="st0" d="M301.88,169.07c-2.01,0.61-3.87,0.8-6,0.58c-0.49-2.76-0.11-5.55-0.41-8.3c-0.3-2.75-0.22-5.55-0.31-8.19
	c2.07-1.22,2.07-1.22,5.25-1.08c0.1,0.18,0.3,0.37,0.31,0.58c0.12,1.59,0.2,3.18,0.31,4.77C301.31,161.3,301.6,165.16,301.88,169.07
	z"/>
<path class="st0" d="M36.74,114.55c-1.62,0-2.94,0-4.44,0c-0.31-2.05-0.08-3.94,0.11-5.81c0.55-5.4,1.17-10.79,1.75-16.18
	c0.39-3.65,0.72-7.3,1.1-10.95c0.06-0.54,0.21-1.07,0.42-2.1c0.36,0.81,0.62,1.17,0.66,1.55c0.11,1.11,0.17,2.23,0.18,3.35
	c0.03,6.31,0.01,12.62,0.07,18.92c0.03,2.87,0.22,5.74,0.3,8.61C36.9,112.71,36.8,113.5,36.74,114.55z"/>
<path class="st0" d="M298.44,121.47c-1.77,0.43-3.56,0.29-5.29,0.08c-0.84-0.77-0.67-1.69-0.69-2.54c-0.06-3.27-0.08-6.55-0.15-9.82
	c-0.03-1.43-0.13-2.85-0.2-4.37c1.64-0.73,3.13,0.25,4.62,0.21C297.79,107.58,298.91,118.33,298.44,121.47z"/>
<path class="st0" d="M22.39,160.1c-0.47-2.59-0.1-14.94,0.52-18.01c1.49-0.36,3.05-0.28,4.8-0.03c0.54,3.03-0.2,6.02-0.29,9.01
	c-0.09,3.02-0.33,6.03-0.5,9.12C25.3,160.47,23.9,160.26,22.39,160.1z"/>
<path class="st0" d="M230.64,98.53c1.82-0.01,1.91,0.05,2.11,1.28c0.04,0.24,0.06,0.47,0.07,0.71c0.38,7.4,0.44,14.8,0.34,22.21
	c0,0.31-0.12,0.61-0.19,0.95c-1.12,0.71-2.31,0.41-3.47,0.52c-0.79-1.4-0.4-2.77-0.33-4.08c0.37-6.68,0.8-13.35,1.23-20.02
	C230.44,99.58,230.56,99.05,230.64,98.53z"/>
<path class="st0" d="M285.11,103.65c1.49-0.23,2.77,0.07,4.17,0.71c0.8,5.65,0.67,11.35,0.69,17.09c-1.55,0.58-2.92,0.56-4.29,0.28
	C285.19,120.03,284.72,105.79,285.11,103.65z"/>
<path class="st0" d="M228.57,127.18c-0.97,2.28-9.07,13.21-10.9,14.79c-0.31-1.88,0.33-10.29,1.09-14.24c1.5-1,3.22-0.19,4.83-0.42
	C225.22,127.07,226.87,126.92,228.57,127.18z"/>
<path class="st0" d="M67.09,54.14c-1.65,1.78-3.1,3.35-4.54,4.92c-0.5,0.54-1.11,0.53-1.76,0.45c-2.37-0.29-4.74-0.58-7.12-0.83
	c-1.4-0.15-2.81-0.22-4.42-0.34c0.57-1.4,1.39-2.36,2.3-3.2c0.36-0.33,1.02-0.44,1.55-0.48c4.37-0.3,8.74-0.56,13.11-0.81
	C66.36,53.83,66.51,53.94,67.09,54.14z"/>
<path class="st0" d="M82.36,111.39c0,1.02,0,1.79,0,2.75c-0.67,0.14-1.26,0.33-1.86,0.36c-1.91,0.09-3.83,0.15-5.75,0.15
	c-8.54-0.01-17.09-0.05-25.63-0.08c-0.39,0-0.79-0.04-1.19-0.34c5.69-0.45,11.37-0.9,17.06-1.36
	C70.69,112.39,76.4,111.9,82.36,111.39z"/>
<path class="st0" d="M222.7,56.54c2.69-0.87,5.24-0.17,8.18,0.09c-2.72,3.49-5.3,6.66-8.2,9.7C222.18,64.65,222.2,59.28,222.7,56.54
	z"/>
<path class="st0" d="M85.24,113.89c-0.06-0.52-0.19-1.06-0.17-1.59c0.24-8.77,0.5-17.54,0.77-26.31c0-0.1,0.22-0.19,0.45-0.38
	c0.17,0.23,0.46,0.43,0.49,0.68c0.1,0.63,0.11,1.27,0.11,1.91c0.01,7.91,0,15.82,0,23.72c0,0.4,0.01,0.8-0.04,1.2
	C86.77,113.94,86.66,113.99,85.24,113.89z"/>
<path class="st0" d="M65.33,60.19c2.06-2.3,3.79-4.24,5.54-6.16c0.2-0.22,0.52-0.36,0.8-0.47c0.94-0.36,3.38-0.34,5.03,0.04
	c-0.2,0.36-0.33,0.72-0.57,0.99c-1.52,1.73-3.11,3.4-4.58,5.17c-0.82,0.99-1.74,1.27-2.94,1.02C67.7,60.59,66.76,60.44,65.33,60.19z
	"/>
<path class="st0" d="M23.67,126.1c-0.31-2.95,0.18-5.81,0.49-8.64c1.95-0.45,4.99-0.39,7.81,0.17c-0.24,0.42-0.39,0.84-0.67,1.14
	c-2.32,2.41-4.67,4.8-7.01,7.18C24.19,126.04,24,126.02,23.67,126.1z"/>
<path class="st0" d="M90.39,63.26c1.55-2.02,3.06-3.98,4.91-6.12c0.17,0.68,0.28,0.96,0.3,1.24c0.14,1.81,0.25,3.61,0.37,5.39
	C94.35,64.16,92.53,63.99,90.39,63.26z"/>
<path class="st0" d="M48.11,55.13c-0.92,1.12-1.43,1.81-2.02,2.41c-0.25,0.26-0.69,0.47-1.04,0.46c-2.11-0.06-4.24,0.08-6.33-0.67
	c0.45-1.5,1.36-2.21,2.82-2.2C43.51,55.14,45.48,55.13,48.11,55.13z"/>
<path class="st0" d="M96.78,135.15c0,1.87,0,3.17,0,4.47c-1.67,0.65-2.49,0.65-4.91-0.04C93.16,137.91,94.8,136.78,96.78,135.15z"/>
<path class="st0" d="M34.73,57.34c-2.23-0.52-4.38-0.83-6.56-1.76c1.72-0.6,4.93-0.66,7.85-0.2C36.13,56.31,35.48,56.76,34.73,57.34
	z"/>
<path class="st0" d="M35.49,76.53c-3.03,0.83-6.01,0.77-9.14,0.6c-0.03-0.52-0.05-0.94-0.07-1.3c0.29-0.14,0.44-0.28,0.57-0.27
	c2.6,0.23,5.2,0.48,7.8,0.74C34.93,76.34,35.21,76.46,35.49,76.53z"/>
<path class="st0" d="M30.53,143.26c0.48-0.62,0.7-1.17,0.97-1.19c1.96-0.19,3.93-0.18,5.82-0.05c0.48,0.86,0.12,1.27-0.51,1.34
	C34.85,143.57,32.89,143.5,30.53,143.26z"/>
<path class="st0" d="M233.2,155.03c-1.79,1.04-4.85,1.26-6.63,0.59C227.94,154.78,231.38,154.41,233.2,155.03z"/>
<path class="st0" d="M27.48,52.16c1.99-0.45,3.95-1.06,6.21-0.61c-0.2,0.38-0.3,0.79-0.46,0.83C31.31,52.75,29.39,52.67,27.48,52.16
	z"/>
<path class="st0" d="M88.44,50.03c0.19-0.42,0.24-0.86,0.42-0.92c1.6-0.51,3.18-0.36,5.15,0.32C92,50.41,90.34,50.39,88.44,50.03z"
	/>
<path class="st0" d="M229.29,53.36c-2.28,0.54-4.03,0.2-5.92,0.06C224.84,52.26,227.09,52.18,229.29,53.36z"/>
<path class="st0" d="M286.43,152.73c1.79-0.84,3.64-0.8,5.52-0.33C290.16,153.14,288.3,152.98,286.43,152.73z"/>
<path class="st0" d="M288.3,50.67c1.47-1.02,2.51-1,3.93,0.09C290.85,51.23,289.64,51.41,288.3,50.67z"/>
<path class="st0" d="M300.09,146.57c0.53,2.57,0.51,2.6-1.38,2.4C298.78,148.06,299.27,147.41,300.09,146.57z"/>
<path class="st0" d="M6.52,139.14c0.25,0.41,0.51,0.79,0.71,1.2c0.97,2.02,1.61,2.14,3.32,0.57c0.29-0.27,0.59-0.52,1.03-0.9
	c0.32,0.4,0.73,0.69,0.82,1.07c0.31,1.28-1.41,3.62-2.72,3.69c-0.41,0.02-0.96-0.23-1.23-0.54c-0.59-0.69-1.26-1.14-2.11-1.48
	c-2.06-0.81-2.2-1.76-0.57-3.28C5.94,139.32,6.2,139.28,6.52,139.14z"/>
<path class="st0" d="M322.17,158.5c-0.84-0.04-1.43-0.38-1.72-1.08c-0.09-0.23-0.01-0.68,0.17-0.83c0.17-0.14,0.62-0.13,0.85,0
	C322.18,156.99,322.27,157.68,322.17,158.5z"/>
<path class="st0" d="M137.07,76.67c-0.03-0.4-0.13-0.86-0.1-1.31c0.04-0.56,0.45-0.94,0.96-0.82c0.49,0.11,0.97,0.44,1.36,0.79
	c0.11,0.1,0,0.64-0.17,0.85C138.65,76.78,138,77.01,137.07,76.67z"/>
<path class="st0" d="M128.6,76.27c0,0.65,0,1.16,0,1.83C128.04,77.33,128.04,77.33,128.6,76.27z"/>
<path class="st0" d="M167.53,81.29c0.05-0.38,0.09-0.75,0.14-1.13c0.12,0.01,0.23,0.02,0.35,0.04c-0.03,0.38-0.06,0.76-0.09,1.13
	C167.8,81.32,167.67,81.31,167.53,81.29z"/>
<path class="st0" d="M110.44,81.32c-0.35-0.86-0.75-1.35-0.71-1.81c0.16-2.05,0.42-4.09,0.71-6.12c0.09-0.65,0.45-1.19,1.36-1.12
	c0.92,1.25,0.5,2.72,0.35,4.07C111.96,77.92,112.02,79.66,110.44,81.32z"/>
<g>
	<path class="st2" d="M116.74,70.18c1.76-0.39,3.33-0.31,4.87,0.15c1.64,0.49,2.3,1.5,2.31,3.21c0,1.33-0.39,2.56-1.21,3.56
		c-0.68,0.83-0.79,1.68-0.67,2.67c0.16,1.35,0.24,2.7,0.34,4.05c0.02,0.22-0.1,0.45-0.15,0.66c-1.82,0.48-2.09,0.36-2.39-1.1
		c-0.14-0.7-0.15-1.43-0.22-2.14c-0.07-0.78,0-1.6-0.74-2.36c-1.08,1.65-0.31,3.63-1.07,5.2c-1.84,0.19-2.19,0.03-2.15-1.26
		C115.75,78.6,116.18,74.41,116.74,70.18z M119.1,72.73c-0.13,0.68-0.31,1.2-0.31,1.73c0,0.34,0.22,0.88,0.46,0.96
		c0.39,0.12,1.05,0.1,1.28-0.15c0.39-0.42,0.7-1.05,0.73-1.61c0.03-0.62-0.62-0.83-1.19-0.92C119.85,72.7,119.61,72.73,119.1,72.73z
		"/>
	<path class="st2" d="M180.2,89.92c-0.23-2.71,0.79-12.28,1.48-14.44c1.14-0.47,2.33-0.14,3.5-0.02c1.01,0.1,1.82,0.71,2.24,1.62
		c0.36,0.78,0.74,1.67,0.72,2.49c-0.09,2.71-0.38,5.41-1.34,7.99c-0.57,1.52-1.57,2.38-3.21,2.4
		C182.48,89.97,181.39,89.93,180.2,89.92z M184.09,77.58c-0.67,1.77-1.27,7.44-0.99,9.33c0.74,0.16,1.22-0.21,1.42-0.86
		c0.68-2.2,1.1-4.46,0.89-6.77C185.34,78.51,185.11,77.69,184.09,77.58z"/>
	<path class="st2" d="M101.49,76.86c-0.12,1.51-0.24,2.99-0.36,4.39c-0.79,0.65-1.44,0.31-2.07,0.05
		c-0.65-0.8-0.05-10.08,0.84-12.83c1.62-0.53,3.23-0.2,4.81,0.36c0.88,0.31,1.42,1,1.72,1.88c0.89,2.62-0.59,6.03-3.61,5.95
		C102.44,76.65,102.05,76.77,101.49,76.86z M102.08,70.73c-0.13,0.98-0.27,1.52-0.26,2.04c0.02,0.71,0.54,0.92,1.16,0.85
		c1.01-0.11,1.48-1.15,0.81-1.92C103.48,71.35,102.91,71.19,102.08,70.73z"/>
	<path class="st2" d="M218.5,88.43c-0.32,1.56-0.61,2.95-0.9,4.4c-0.74,0-1.34,0-2.02,0c-0.08-0.41-0.22-0.72-0.18-1.01
		c0.44-3.4,0.9-6.8,1.35-10.19c0.11-0.78,0.23-1.57,0.38-2.53c1.48-0.42,2.97-0.21,4.41,0.16c1.23,0.32,2.03,1.75,2.05,3.22
		c0.03,2.6-1.13,4.31-3.62,5.34C219.53,87.99,219.09,88.18,218.5,88.43z M219.14,84.64c1.38-0.29,1.61-0.49,1.74-1.47
		c0.14-1.03-0.08-1.38-1.2-1.87C219.13,82.35,218.89,83.44,219.14,84.64z"/>
	<path class="st2" d="M292.66,155.71c-1.86-0.46-3.37-0.29-4.87-0.09c-0.79,0.1-1.59,0.25-2.38,0.25c-1.3,0-1.64-0.31-2.01-1.59
		c-0.13-0.46-0.2-0.93-0.31-1.47c-1.44-0.36-2.86-0.12-4.28-0.06c-5.27,0.24-10.54,0.51-15.81,0.71
		c-5.75,0.22-11.51,0.38-17.26,0.55c-2.16,0.06-4.32,0.05-6.48,0.13c-1.09,0.04-2.18,0.23-3.32,0.36c-0.08,0.68-0.13,1.14-0.19,1.61
		c-0.23,1.88-0.55,2.11-2.39,2.22c-2.15,0.13-4.29,0.37-6.43,0.58c-0.15,0.01-0.28,0.14-0.59,0.3c-0.44,1.07-0.54,2.33-0.59,3.59
		c-0.14,3.36-0.24,6.71-0.35,10.07c-0.07,2.24-0.42,2.7-2.65,2.76c-2.4,0.06-4.8,0.01-7.19-0.13c-2.25-0.13-2.84-0.77-2.78-3.01
		c0.05-1.91,0.32-3.82,0.46-5.74c0.32-4.55,0.71-9.09,0.9-13.64c0.34-7.99,0.95-15.96,1.77-23.91c0.41-3.98,0.67-7.97,0.97-11.95
		c0.06-0.77-0.04-1.56-0.06-2.43c-0.56-0.03-0.95-0.1-1.32-0.06c-3.65,0.41-7.3,0.82-10.95,1.25c-6.83,0.81-13.65,1.65-20.47,2.43
		c-6.03,0.69-12.08,1.3-18.11,1.99c-2.38,0.27-4.74,0.73-7.12,1.03c-4.84,0.61-9.68,1.16-14.52,1.75
		c-6.03,0.74-12.06,1.43-18.08,2.26c-6.25,0.86-12.49,1.87-18.74,2.75c-1.82,0.26-3.66,0.3-5.49,0.45
		c-0.78,0.07-1.56,0.16-2.51,0.27c-0.24,6.14,0.15,12.1,0.05,18.15c0.88,0.27,1.56,0.46,2.22,0.68c0.59,0.2,1.01,0.65,0.85,1.25
		c-0.11,0.39-0.51,0.8-0.89,0.98c-0.48,0.22-1.07,0.22-1.53,0.3c-0.14,0.23-0.3,0.37-0.3,0.5c-0.02,3.67-0.68,7.32-0.15,11
		c0.15,1.02-0.16,1.58-1.11,1.83c-0.92,0.24-1.89,0.39-2.83,0.36c-1.76-0.04-3.51-0.21-5.26-0.36c-1.8-0.16-2.21-0.55-2.24-2.4
		c-0.04-2.88,0-5.76,0.02-8.64c0.01-1.6,0.05-3.2,0.03-4.8c-0.01-0.78-0.12-1.57-0.2-2.44c-0.66-0.13-1.19-0.29-1.72-0.33
		c-0.72-0.06-1.44-0.04-2.16-0.02c-2.06,0.04-3.9-0.26-4.24-2.83c-0.58-0.07-1.04-0.17-1.51-0.17c-12.4-0.02-24.79-0.03-37.19-0.03
		c-0.22,0-0.44,0.16-0.61,0.22c-0.66,0.97-0.12,2.39-1.23,3.06c-1.34,0.82-2.88,0.89-4.4,0.89c-1.12,0-2.23-0.13-3.35-0.16
		c-0.38-0.01-0.76,0.15-1.29,0.26c-0.17,2.11-0.39,4.16-0.5,6.21c-0.12,2.16-0.11,4.32-0.2,6.48c-0.15,3.52-1.13,4.35-4.64,4.09
		c-1.11-0.08-2.23,0-3.34,0.02c-1.81,0.04-2.26-0.36-2.33-2.2c-0.04-1.04-0.02-2.08,0.02-3.12c0.24-6.15,0.46-12.31,0.75-18.46
		c0.31-6.47,0.69-12.93,1.04-19.4c0.33-6.23,0.59-12.46,0.98-18.68c0.32-5.02,0.88-10.03,1.18-15.06c0.21-3.51,0.14-7.03,0.2-10.55
		c0-0.16,0.02-0.34-0.04-0.47c-1.14-2.29-0.53-4.71-0.5-7.07c0.04-3.36,0.19-6.71,0.4-10.06c0.07-1.18,0.43-2.34,0.66-3.5
		c0.16-0.85,0.35-1.71,0.47-2.57c0.28-2.08,0.74-2.6,2.88-2.78c2.07-0.17,4.15-0.29,6.23-0.32c2.21-0.03,2.53,0.33,2.83,2.6
		c0.04,0.31,0.13,0.61,0.21,0.98c1.84,0.39,3.64,0.45,5.51,0.01c0.13-0.3,0.31-0.57,0.37-0.86c0.47-2.51,0.89-5.03,1.4-7.54
		c0.24-1.17,0.58-2.32,0.99-3.45c0.3-0.84,0.27-1.55-0.31-2.23c-0.26-0.3-0.48-0.64-0.72-0.96c-2.77-3.83-3.23-8.09-2.25-12.58
		c0.39-1.79,0.98-3.54,1.5-5.3c0.77-2.6,2.35-4.63,4.2-6.6c3.53-3.75,8.1-5.07,12.89-5.7c2.96-0.39,5.92,0.43,8.53,1.94
		c1.79,1.04,3.47,2.3,5.08,3.6c1.74,1.4,2.59,3.44,3.31,5.48c0.58,1.65,1.16,3.38,1.28,5.1c0.13,1.88-0.16,3.82-0.46,5.69
		c-0.41,2.53-1.09,5-2.44,7.23c-0.12,0.19-0.14,0.45-0.23,0.78c1.57,1.73,2.46,3.85,2.84,6.17c0.39,2.36,0.72,4.72,1.07,7.02
		c1.9,0.67,3.98,0.69,6.36,0.02c0.12-0.67,0.26-1.44,0.4-2.2c0.17-0.88,0.69-1.47,1.57-1.59c1.02-0.14,2.06-0.25,3.09-0.23
		c1.03,0.02,2.06,0.27,3.1,0.33c1.3,0.07,2.12,0.75,2.47,1.92c0.49,1.67,1.28,3.23,1.37,5.05c0.14,2.87,0.51,5.72,0.83,8.58
		c0.09,0.78,0.33,1.54,0.52,2.42c1.23,0.1,2.34,0.27,3.44,0.26c6.48-0.04,12.95,0.19,19.41,0.81c1.27,0.12,2.56,0.13,3.84,0.14
		c7.52,0.09,15.01,0.7,22.49,1.5c3.73,0.4,7.43,1.12,11.16,1.58c2.77,0.34,5.57,0.69,8.36,0.69c5.85,0,11.64,0.8,17.46,1.2
		c2.63,0.18,5.26,0.34,7.89,0.56c4.38,0.37,8.75,0.78,13.13,1.18c4.13,0.38,8.27,0.78,12.44,1.17c0.73-0.65,0.66-1.58,0.71-2.43
		c0.22-3.99,0.37-7.99,0.6-11.98c0.12-2.07,0.25-4.14,0.57-6.19c0.4-2.55,1.25-2.79,3.12-2.85c1.6-0.05,3.19-0.25,4.78-0.19
		c2.43,0.09,2.75,0.44,3.42,2.82c0.06,0.22,0.2,0.42,0.39,0.82c2.4-0.33,4.84-0.64,7.26-1.05c0.39-0.07,0.81-0.51,1.03-0.89
		c0.31-0.54,0.51-1.18,0.63-1.79c0.7-3.38,2.29-6.28,4.61-8.82c0.16-0.17,0.26-0.39,0.47-0.71c-0.44-0.33-0.85-0.68-1.31-0.96
		c-4.34-2.66-6.58-6.64-7.22-11.58c-0.37-2.85-0.68-5.69-0.1-8.59c1.51-7.53,5.75-12.71,12.98-15.33c2.71-0.98,5.48-1.71,8.43-1.62
		c3.46,0.11,6.36,1.63,8.95,3.66c5.67,4.43,7.5,10.5,7,17.46c-0.05,0.64-0.23,1.26-0.26,1.9c-0.21,4.59-2.08,8.49-5.01,11.93
		c-0.41,0.48-0.79,0.97-1.3,1.59c4.15,3.18,5.54,7.53,5.42,12.59c3.95,0.97,7.71-0.04,11.6-0.17c0.16-0.68,0.28-1.28,0.45-1.88
		c0.32-1.11,1.03-1.81,2.22-1.84c1.52-0.04,3.04-0.03,4.56-0.03c1,0,1.68,0.52,2.02,1.42c0.28,0.74,0.6,1.51,0.67,2.29
		c0.34,3.74,0.6,7.49,0.91,11.23c0.15,1.75,0.38,3.49,0.53,5.25c0.33,4.06,0.62,8.13,0.93,12.19c0.02,0.24,0.01,0.49,0.09,0.71
		c1.38,4.01,1.07,8.21,1.33,12.34c0.13,2.07,0.25,4.15,0.39,6.22c0.17,2.47,0.32,4.94,0.55,7.41c0.38,4.14,0.85,8.27,1.22,12.41
		c0.28,3.18,0.64,6.38,0.65,9.57c0.02,5.21,0.52,10.37,0.93,15.55c0.46,5.74,0.66,11.49,1.04,17.24c0.17,2.63,0.51,5.25,0.77,7.87
		c0.06,0.56,0.16,1.12,0.12,1.67c-0.05,0.83-0.6,1.36-1.42,1.31c-2.56-0.16-5.09,0.16-7.63,0.41c-1.71,0.17-2.39-0.39-2.49-2.09
		c-0.17-3.03-0.23-6.07-0.34-9.11C292.81,159.49,292.74,157.67,292.66,155.71z M25.53,72.11c1.33,0.91,2.64,1,3.89,1.15
		c2.22,0.27,4.46,0.38,6.69,0.6c3.42,0.35,6.87,0.53,10.24,1.15c8.17,1.51,16.34,3.12,24.45,4.92c6.96,1.55,13.95,2.84,21.02,3.65
		c5.24,0.6,10.51,0.89,15.77,1.33c2.71,0.23,5.42,0.46,8.12,0.73c7.08,0.71,14.15,1.48,21.23,2.13c4.62,0.42,9.25,0.66,13.87,1.02
		c2.71,0.21,5.43,0.35,8.12,0.75c5.46,0.81,10.94,1.36,16.46,1.57c3.75,0.14,7.48,0.62,11.22,0.97c6.84,0.65,13.71,0.83,20.54,1.74
		c9.03,1.21,18.16,1.57,27.25,2.12c3.43,0.21,6.87,0.31,10.3,0.6c8.12,0.68,16.25,1.4,24.36,2.17c4.61,0.44,9.22,0.96,13.82,1.57
		c3.88,0.51,7.73,1.22,11.6,1.79c0.75,0.11,1.54,0.01,2.37,0.01c0.07-0.52,0.16-0.83,0.15-1.13c-0.15-2.71-0.31-5.42-0.47-8.14
		c-0.15-2.55-0.25-5.11-0.45-7.66c-0.11-1.42-0.36-1.71-1.8-1.67c-4.34,0.11-8.6-0.6-12.89-1.07c-2.38-0.26-4.8-0.23-7.17-0.58
		c-4.27-0.64-8.53-1.25-12.86-1.4c-1.99-0.07-3.97-0.41-5.96-0.59c-3.1-0.29-6.2-0.69-9.31-0.77c-4.17-0.1-8.3-0.4-12.41-1.04
		c-3.08-0.48-6.16-0.97-9.3-0.92c-0.63,0.01-1.27-0.15-1.9-0.23c-4.68-0.56-9.36-1.13-14.05-1.67c-2.14-0.25-4.29-0.41-6.44-0.62
		c-2.62-0.26-5.24-0.58-7.87-0.78c-4.14-0.33-8.29-0.56-12.44-0.87c-3.83-0.28-7.65-0.82-11.48-0.87
		c-6.58-0.09-13.06-1.01-19.55-1.9c-4.11-0.57-8.26-0.85-12.4-1.18c-1.91-0.15-3.84-0.05-5.75-0.18
		c-6.06-0.39-12.12-0.99-18.18-1.22c-8.07-0.32-16.13-0.5-24.18-1.32c-5.97-0.61-11.87-1.62-17.82-2.35
		c-4.2-0.51-8.4-1.08-12.61-1.58c-2.86-0.34-5.72-0.59-8.59-0.87c-3.82-0.38-7.63-0.96-11.46-1.07c-3.16-0.09-6.19-0.62-9.22-1.36
		c-1.39-0.34-2.78-0.65-4.35-1.02C25.7,62.82,25.44,67.42,25.53,72.11z M99.3,126.02c1.86,0.29,3.53,0.13,5.18-0.1
		c4.59-0.63,9.17-1.34,13.76-1.98c5.46-0.76,10.93-1.51,16.4-2.19c4.92-0.61,9.85-1.09,14.77-1.7c5.95-0.74,11.88-1.6,17.83-2.33
		c3.89-0.47,7.8-0.75,11.69-1.19c2.38-0.27,4.75-0.69,7.13-0.98c3.81-0.46,7.62-0.87,11.44-1.29c3.81-0.42,7.63-0.8,11.43-1.24
		c2.3-0.27,4.6-0.6,6.89-0.94c0.45-0.07,0.88-0.31,1.26-0.45c0.58-2.54,0.78-8.75,0.31-10.45c-1.69-0.08-3.43,0.01-5.17,0.22
		c-2.06,0.25-4.13,0.54-6.2,0.65c-7.02,0.38-14.05,0.67-21.07,1.03c-3.19,0.16-6.39,0.33-9.57,0.65
		c-8.35,0.84-16.69,1.77-25.03,2.67c-5.56,0.6-11.12,1.25-16.68,1.85c-2.07,0.22-4.14,0.41-6.21,0.55
		c-7.82,0.51-15.64,0.94-23.44,1.54c-1.79,0.14-3.67,0.18-5.49,1.07C98.4,116.29,98.76,121.11,99.3,126.02z M98.67,108.26
		c0.75,0,1.15,0.03,1.54-0.01c4.29-0.41,8.58-0.86,12.87-1.25c2.31-0.21,4.62-0.44,6.93-0.46c7.45-0.09,14.81-1.08,22.21-1.78
		c5.41-0.51,10.8-1.14,16.2-1.72c1.99-0.21,3.97-0.46,5.95-0.66c5.4-0.55,10.8-1.17,16.22-1.59c4.62-0.36,9.26-0.43,13.88-0.72
		c6.85-0.43,13.71-0.92,20.56-1.4c0.85-0.06,1.73-0.05,2.75-0.82c-0.75-0.22-1.22-0.43-1.71-0.48c-2.54-0.28-5.08-0.53-7.63-0.79
		c-3.89-0.39-7.78-0.82-11.68-1.17c-3.34-0.3-6.69-0.5-10.03-0.75c-5.34-0.39-10.67-0.78-16.01-1.18c-0.88-0.06-1.76-0.08-2.63-0.19
		c-3.33-0.41-6.64-0.93-9.98-1.24c-4.77-0.45-9.56-0.76-14.34-1.12c-3.9-0.3-7.82-0.51-11.71-0.89c-5.64-0.56-11.27-1.28-16.91-1.84
		c-4.93-0.49-9.87-0.85-14.8-1.25c-0.44-0.03-0.89,0.14-1.53,0.25C99.15,94.22,98.2,101.13,98.67,108.26z M39.6,112.29
		c1.12-0.07,1.98-0.1,2.85-0.18c4.85-0.42,9.7-0.89,14.55-1.27c5.33-0.41,10.68-0.68,16.01-1.11c2.86-0.23,5.71-0.66,8.56-1.03
		c0.3-0.04,0.58-0.22,0.91-0.36c0.48-7.74,0.94-15.44,0.49-23.19c-0.58-0.16-0.95-0.28-1.33-0.36c-7.04-1.45-14.07-2.9-21.12-4.32
		c-1.88-0.38-3.77-0.84-5.67-0.89c-4.63-0.13-9.26-0.06-13.9-0.04c-0.61,0-1.22,0.15-1.97,0.24
		C39.13,90.61,38.76,101.28,39.6,112.29z M253.28,5.8c-7.63,1.66-12.53,7.8-13.09,14.24c2.22,2.07,2.23,2.43,0.41,4.92
		c-0.3,0.41-0.53,1.02-0.5,1.51c0.32,4.19,1.9,7.78,5.44,10.2c2.39,1.63,5.11,2.57,7.96,2.94c1.5-2.56,3.36-3.51,5.95,0.15
		c2.5-0.79,5.21-1.28,7.22-3.29c2.78-2.77,4.72-5.99,5.22-10c0.15-1.19,0.07-2.06-0.86-2.99c-1.35-1.36-1.15-2.88,0.26-4.15
		c0.29-0.25,0.59-0.49,0.82-0.68c-0.58-8.01-7.72-13.69-12.94-13.56C257.47,7.35,256.41,7.92,253.28,5.8z M44.02,30.54
		c-0.02,1.98,1.04,3.59,2.03,5.22c1.74,2.87,4.59,4.37,7.44,5.83c1.04,0.53,2.08,1.18,3.37,0.88c0.25-0.58,0.43-1.11,0.71-1.58
		c0.57-0.95,1.42-1.57,2.55-1.51c1.13,0.06,1.9,0.74,2.32,1.8c0.17,0.43,0.35,0.86,0.51,1.25c6.15-0.86,11.62-6.96,12.34-13.73
		c-0.82-0.83-1.99-1.51-1.89-3.04c0.1-1.52,1.38-2.02,2.23-2.77c-0.42-7.07-6.11-11.71-11.84-12.78c-2.26,1.61-2.34,1.66-4.75,0.57
		c-0.8-0.36-1.53-0.35-2.31-0.15c-2.75,0.7-5.11,1.96-7.26,3.93c-3.1,2.85-4.19,6.46-5.05,10.23C47.16,26.66,47.73,28.1,44.02,30.54
		z M282.23,104.31c-1.33,0.26-2.41,0.49-3.51,0.68c-6.53,1.13-13.06,2.28-19.59,3.38c-5.91,0.99-11.83,1.88-17.73,2.89
		c-1.86,0.32-3.69,0.85-5.44,1.26c-0.51,3.32-0.39,9.43,0.24,11.31c0.71,0,1.5,0.02,2.29,0c5.59-0.15,11.18-0.32,16.77-0.47
		c3.27-0.09,6.55-0.08,9.82-0.24c5.18-0.25,10.36-0.6,15.54-0.91c0.62-0.04,1.23-0.15,2.05-0.25
		C282.82,116.02,282.25,110.25,282.23,104.31z M229.59,152.02c1.04,0,1.51,0.02,1.98,0c3.66-0.14,7.33-0.28,10.99-0.42
		c0.24-0.01,0.48-0.03,0.72-0.01c0.98,0.06,1.65-0.38,2.17-1.2c0.97-1.56,1.99-3.08,2.98-4.63c3.94-6.1,7.87-12.2,11.8-18.3
		c0.29-0.44,0.49-0.94,0.81-1.57c-1.13-0.32-2.08-0.13-3.01-0.09c-2.15,0.08-4.3,0.2-6.45,0.31c-0.88,0.04-1.75,0.15-2.63,0.14
		c-1.16-0.02-1.9,0.5-2.53,1.46c-1.44,2.2-2.96,4.36-4.49,6.49c-2.75,3.82-5.58,7.58-8.29,11.43
		C232.27,147.57,231.09,149.64,229.59,152.02z M294.75,124.28c-0.8,0-1.58-0.02-2.35,0c-3.19,0.12-6.38,0.32-9.56,0.36
		c-1.34,0.02-2.25,0.39-2.87,1.64c-1.14,2.28-2.33,4.55-3.61,6.76c-2.83,4.91-5.73,9.77-8.58,14.67c-0.5,0.86-1.31,1.62-1.15,2.84
		c0.43,0.06,0.82,0.17,1.21,0.15c3.91-0.17,7.81-0.38,11.72-0.54c1.11-0.04,1.71-0.65,2.21-1.55c1.08-1.96,2.23-3.87,3.32-5.82
		c2.93-5.22,5.86-10.43,8.76-15.67C294.29,126.3,294.9,125.5,294.75,124.28z M292.61,53.8c-0.7-0.06-1.32-0.18-1.94-0.15
		c-2.23,0.09-4.46,0.29-6.7,0.34c-1.16,0.03-1.98,0.45-2.57,1.42c-0.33,0.55-0.69,1.07-1.06,1.6c-3.46,4.99-6.91,9.98-10.39,14.95
		c-1.05,1.51-2.2,2.94-3.26,4.44c-0.3,0.43-0.46,0.95-0.76,1.59c0.97,0.19,1.74,0.37,2.52,0.48c1.82,0.26,3.64,0.5,5.46,0.71
		c1.35,0.15,2.7,0.19,4.05,0.36c1.1,0.14,1.76-0.33,2.4-1.18c2.96-3.97,6-7.88,8.96-11.85c1.19-1.6,2.26-3.29,3.33-4.97
		c0.33-0.52,0.64-1.16,0.65-1.75C293.32,57.8,293.16,55.82,292.61,53.8z M277.57,124.88c-3.62,0.21-6.79,0.51-9.96,0.54
		c-2.34,0.02-3.74,1.07-4.95,2.99c-4.33,6.9-8.81,13.71-13.22,20.56c-0.37,0.58-0.65,1.22-0.96,1.81c0.22,0.16,0.28,0.24,0.34,0.24
		c4.31-0.03,8.61-0.06,12.92-0.09c0.9-0.01,1.46-0.51,1.88-1.26c0.67-1.18,1.33-2.37,2.08-3.51c4.11-6.3,7.65-12.92,11.13-19.58
		C277.04,126.18,277.2,125.74,277.57,124.88z M244.1,126.59c-0.88-0.11-1.25-0.21-1.62-0.2c-2.72,0.05-5.44,0.19-8.15,0.17
		c-1.26-0.01-2.05,0.44-2.78,1.46c-4.42,6.17-8.91,12.3-13.37,18.45c-1.34,1.84-1.66,4.11-0.92,6.53c1.34,0,2.7,0.09,4.05-0.02
		c5.09-0.41,4.38,0.02,7.26-4.22c2.51-3.7,5.07-7.38,7.63-11.04C238.72,134.12,241.28,130.56,244.1,126.59z M28.51,138.93
		c0.67,0.14,1.03,0.28,1.4,0.28c3.84-0.01,7.68-0.05,11.52-0.05c0.89,0,1.49-0.43,2.08-1.01c2.56-2.53,5.18-5,7.68-7.59
		c3.72-3.85,7.37-7.78,11.03-11.69c0.3-0.32,0.53-0.72,0.91-1.25c-3.51-0.41-6.77-0.56-10.04-0.48c-0.88,0.02-1.5,0.4-2.1,0.98
		c-1.33,1.27-2.68,2.52-4.04,3.76c-5.62,5.12-11.24,10.23-16.85,15.35C29.58,137.69,29.15,138.23,28.51,138.93z M278.57,54.62
		c-0.59-0.15-0.95-0.34-1.31-0.33c-3.03,0.06-6.05,0.22-9.08,0.2c-1.59-0.01-2.39,0.78-3.16,2.04c-1.58,2.58-3.28,5.09-5.02,7.58
		c-2.42,3.47-4.93,6.87-7.38,10.32c-0.45,0.62-0.81,1.31-1.34,2.17c3.35,0.54,6.42,0.95,9.52,1.16c1.29,0.09,2.04-0.37,2.77-1.39
		c2.07-2.93,4.3-5.75,6.37-8.68c2.58-3.65,5.06-7.36,7.56-11.06C277.89,56.06,278.15,55.41,278.57,54.62z M263.12,54.58
		c-3.68,0-6.78,0.05-9.89-0.02c-1.34-0.03-2.22,0.39-2.97,1.53c-1.49,2.27-3.07,4.49-4.72,6.64c-2.78,3.61-5.65,7.14-8.47,10.72
		c-0.47,0.6-0.88,1.25-1.52,2.17c1.36,0.2,2.36,0.43,3.37,0.48c2.47,0.12,4.96,0.09,7.43,0.24c1.28,0.08,2.08-0.36,2.8-1.39
		c2.18-3.15,4.45-6.25,6.67-9.38c1.94-2.74,3.87-5.48,5.77-8.25C262.06,56.62,262.42,55.83,263.12,54.58z M94.8,117.42
		c-0.05-0.18-0.09-0.37-0.14-0.55c-0.69-0.04-1.37-0.12-2.06-0.12c-2-0.01-3.99-0.01-5.99,0.01c-0.88,0.01-1.75,0.11-2.63,0.1
		c-1.22-0.01-2.03,0.58-2.85,1.46c-4.3,4.62-8.64,9.2-13.02,13.75c-1.83,1.9-3.8,3.66-5.69,5.5c-0.43,0.42-0.8,0.91-1.38,1.58
		c0.64,0.12,1.01,0.25,1.38,0.26c2.16,0.06,4.32,0.06,6.47,0.13c1.52,0.05,2.77-0.4,3.87-1.5c1.93-1.91,3.93-3.75,5.93-5.59
		c4.41-4.06,8.84-8.09,13.25-12.15C92.95,119.39,93.86,118.38,94.8,117.42z M247.83,55.01c-0.79-0.14-1.17-0.28-1.53-0.25
		c-3.16,0.24-6.32,0.54-9.48,0.77c-1.12,0.08-1.95,0.56-2.66,1.4c-3.84,4.61-7.68,9.2-11.55,13.78c-0.86,1.02-1.07,2.07-0.57,3.39
		c0.57,0.1,1.1,0.24,1.64,0.29c2.54,0.24,5.09,0.49,7.64,0.64c0.49,0.03,1.05-0.26,1.48-0.54c0.38-0.25,0.64-0.7,0.94-1.08
		c3.63-4.56,7.29-9.11,10.88-13.7C245.7,58.33,246.61,56.82,247.83,55.01z M46.63,138.99c1.32,0.47,2.43,0.45,3.53,0.41
		c0.96-0.03,1.95-0.29,2.86-0.1c2.68,0.56,4.61-0.6,6.35-2.41c0.39-0.4,0.83-0.75,1.23-1.13c5.78-5.51,11.41-11.15,16.72-17.12
		c0.29-0.33,0.5-0.72,0.88-1.28c-0.62-0.11-0.99-0.23-1.36-0.22c-2.95,0.08-5.9,0.14-8.84,0.31c-0.56,0.03-1.21,0.4-1.63,0.81
		c-1.38,1.33-2.67,2.74-3.99,4.13c-4.74,4.96-9.49,9.91-14.23,14.87C47.67,137.76,47.23,138.3,46.63,138.99z M235.64,98.77
		c-0.37,2.27-0.03,9.14,0.5,10.9c13.6-2.91,27.49-4.27,41.12-7.38c-13.14-1.22-26.22-2.76-39.38-3.52
		C237.17,98.73,236.46,98.77,235.64,98.77z M71.83,41c-0.25,0.09-0.33,0.11-0.4,0.15c-0.52,0.37-1.03,0.75-1.56,1.12
		c-5.94,4.11-12.11,4.53-18.51,1.13c-0.76-0.41-1.55-0.78-2.24-1.12c-2.53,1.9-4.24,6.77-3.57,10.05c2.52,0.61,5.04-0.15,7.56-0.23
		c2.55-0.08,5.11-0.27,7.66-0.43c2.63-0.17,5.27-0.25,7.88-0.57c2.51-0.31,5.08-0.12,7.51-0.64C76.83,46.45,74.96,42.44,71.83,41z
		 M270.82,51.66c-0.07-0.86-0.02-1.36-0.17-1.79c-1.4-4.15-4.46-7.16-9.09-7.24c-2.06-0.04-4.14,0.42-6.2,0.38
		c-4.14-0.06-7.11,2.09-9.74,4.89c-1.05,1.12-1.93,2.46-1.96,4.29c1.17,0,2.2,0.03,3.22-0.01c2.15-0.07,4.31-0.25,6.46-0.26
		c3.43-0.01,6.86,0.15,10.29,0.12C265.94,52.04,268.24,51.81,270.82,51.66z M26.4,80.22c-0.88,10.74-1.59,21.34-2.11,31.95
		c-0.02,0.4-0.07,0.8-0.08,1.19c0,0.15,0.06,0.31,0.1,0.46c0.02,0.08,0.06,0.15,0.1,0.22c0.05,0.06,0.11,0.11,0.33,0.31
		c1.37,0.34,2.9,0.56,4.55-0.07c0.15-1.22,0.32-2.4,0.43-3.59c0.12-1.27,0.15-2.56,0.29-3.83c0.86-7.63,1.75-15.25,2.6-22.88
		c0.14-1.25,0.32-2.53-0.17-3.86C30.47,79.99,28.6,79.72,26.4,80.22z M220.68,97.87c-0.56,8.2-1.1,16.13-1.63,24.06
		c-0.05,0.71-0.02,1.43-0.02,2.14c0,0.07,0.04,0.16,0.08,0.22c0.04,0.06,0.11,0.11,0.35,0.33c2.17,0.15,4.5,0.34,6.91-0.33
		c0.08-1.06,0.16-1.93,0.22-2.79c0.28-4.13,0.58-8.27,0.81-12.4c0.16-2.86,0.26-5.73,0.34-8.6c0.02-0.69-0.12-1.39-0.19-2.14
		C225.2,97.75,223,97.7,220.68,97.87z M22.82,139.1c0.72-0.15,1.22-0.13,1.57-0.35c0.6-0.38,1.13-0.88,1.66-1.36
		c2.95-2.69,5.87-5.4,8.82-8.08c3.84-3.49,7.7-6.95,11.54-10.44c0.44-0.4,0.79-0.88,1.21-1.35c-0.31-0.18-0.44-0.33-0.56-0.33
		c-3.11,0.07-6.21,0.19-9.32,0.21c-1.06,0.01-1.83,0.42-2.52,1.14c-3.66,3.79-7.33,7.56-10.97,11.36c-0.37,0.38-0.75,0.91-0.8,1.41
		C23.19,133.83,23.03,136.35,22.82,139.1z M298.9,124.53c-0.47,0.07-0.72,0.04-0.76,0.12c-4.19,7.43-8.36,14.87-12.53,22.32
		c-0.42,0.75-0.77,1.53-1.19,2.35c0.42,0.17,0.62,0.33,0.83,0.32c2.95-0.03,5.91-0.05,8.86-0.16c0.47-0.02,1.11-0.37,1.36-0.76
		c1.39-2.14,2.73-4.32,3.99-6.54c0.33-0.58,0.45-1.37,0.41-2.05c-0.21-4.62-0.49-9.25-0.76-13.87
		C299.08,125.73,298.98,125.2,298.9,124.53z M95.76,114.06c0.36-6.47,0.26-12.83,0.37-19.19c0.05-2.69,0.12-5.39-0.13-8
		c-2.01-0.64-4.09-0.78-6.4-0.46c-0.05,0.42-0.16,0.88-0.16,1.34c-0.01,8.22-0.01,16.44,0.01,24.66c0,0.53,0.19,1.06,0.3,1.65
		C91.76,114.06,93.65,114.06,95.76,114.06z M96.03,120.12c-4.43,4.03-8.51,7.71-12.56,11.44c-2.35,2.16-4.65,4.37-6.96,6.59
		c-0.29,0.28-0.45,0.71-0.76,1.21c3.28,0.09,6.31,0.11,9.33,0.3c1.29,0.08,2.36-0.2,3.31-1.02c2.49-2.12,4.98-4.25,7.48-6.36
		c0.74-0.62,1-1.37,0.93-2.33c-0.16-2.39-0.25-4.78-0.41-7.17C96.35,122,96.19,121.23,96.03,120.12z M94.8,53
		c-0.31-0.22-0.38-0.3-0.45-0.3c-4.3,0.16-8.59,0.31-12.89,0.54c-0.48,0.03-1.05,0.39-1.39,0.77c-1.87,2.07-3.69,4.19-5.51,6.31
		c-0.23,0.27-0.33,0.64-0.51,0.98c2.82,0.95,11.01,2.05,13.03,1.79c1.32-1.62,2.68-3.19,3.91-4.84C92.27,56.54,93.91,55.09,94.8,53z
		 M215.68,172.51c2.68,0.74,5,0.77,6.91,0.12c0.06-0.35,0.17-0.74,0.19-1.13c0.27-4.46,0.55-8.92,0.79-13.39
		c0.04-0.84,0.26-1.76-0.39-2.44c-1.66,0-3.25-0.03-4.84,0.02c-0.53,0.02-1.05,0.25-1.65,0.41c-0.39,5-0.79,9.92-1.16,14.84
		C215.49,171.47,215.63,172.01,215.68,172.51z M96.64,161.12c0.59-3.09,0.54-16.11-0.03-18.14c-1.82-0.43-3.68-0.64-5.75-0.24
		c0,2.07,0.01,4.04,0,6.01c-0.02,2.07-0.12,4.15-0.09,6.22c0.03,1.96-0.3,3.95,0.28,5.94C92.94,161.4,94.73,161.28,96.64,161.12z
		 M293.72,65.49c-0.28,0.12-0.47,0.13-0.55,0.24c-3.29,4.31-6.58,8.62-9.85,12.95c-0.22,0.29-0.3,0.68-0.55,1.29
		c4.14,0.45,8,1.38,12.2,0.73c-0.08-4.65-0.61-9.15-0.84-13.66C294.1,66.52,293.87,66.02,293.72,65.49z M301.88,169.07
		c-0.29-3.9-0.58-7.77-0.85-11.64c-0.11-1.59-0.19-3.18-0.31-4.77c-0.02-0.21-0.21-0.4-0.31-0.58c-3.17-0.13-3.17-0.13-5.25,1.08
		c0.08,2.64,0.01,5.44,0.31,8.19c0.3,2.75-0.08,5.54,0.41,8.3C298.01,169.87,299.87,169.68,301.88,169.07z M36.74,114.55
		c0.06-1.05,0.16-1.83,0.14-2.61c-0.08-2.87-0.27-5.74-0.3-8.61c-0.06-6.31-0.04-12.62-0.07-18.92c-0.01-1.12-0.07-2.24-0.18-3.35
		c-0.04-0.38-0.3-0.74-0.66-1.55c-0.21,1.03-0.36,1.56-0.42,2.1c-0.38,3.65-0.71,7.3-1.1,10.95c-0.57,5.39-1.2,10.78-1.75,16.18
		c-0.19,1.87-0.42,3.77-0.11,5.81C33.8,114.55,35.12,114.55,36.74,114.55z M298.44,121.47c0.46-3.14-0.65-13.89-1.7-16.44
		c-1.5,0.04-2.99-0.93-4.62-0.21c0.07,1.51,0.17,2.94,0.2,4.37c0.07,3.27,0.09,6.55,0.15,9.82c0.02,0.86-0.15,1.78,0.69,2.54
		C294.88,121.76,296.68,121.91,298.44,121.47z M22.39,160.1c1.51,0.16,2.91,0.36,4.53,0.09c0.18-3.09,0.42-6.1,0.5-9.12
		c0.09-2.99,0.83-5.97,0.29-9.01c-1.75-0.25-3.3-0.33-4.8,0.03C22.28,145.17,21.92,157.51,22.39,160.1z M230.64,98.53
		c-0.08,0.51-0.21,1.05-0.24,1.58c-0.42,6.67-0.86,13.34-1.23,20.02c-0.07,1.3-0.46,2.67,0.33,4.08c1.16-0.11,2.35,0.18,3.47-0.52
		c0.07-0.34,0.19-0.64,0.19-0.95c0.1-7.41,0.04-14.81-0.34-22.21c-0.01-0.24-0.03-0.48-0.07-0.71
		C232.55,98.58,232.46,98.52,230.64,98.53z M285.11,103.65c-0.39,2.14,0.08,16.38,0.57,18.08c1.37,0.28,2.75,0.31,4.29-0.28
		c-0.02-5.74,0.1-11.44-0.69-17.09C287.88,103.72,286.6,103.42,285.11,103.65z M228.57,127.18c-1.7-0.26-3.36-0.11-4.98,0.13
		c-1.61,0.23-3.34-0.58-4.83,0.42c-0.76,3.95-1.4,12.36-1.09,14.24C219.5,140.39,227.6,129.46,228.57,127.18z M67.09,54.14
		c-0.58-0.21-0.73-0.32-0.87-0.31c-4.37,0.26-8.74,0.52-13.11,0.81c-0.54,0.04-1.19,0.15-1.55,0.48c-0.91,0.85-1.73,1.81-2.3,3.2
		c1.61,0.12,3.02,0.19,4.42,0.34c2.38,0.25,4.75,0.54,7.12,0.83c0.66,0.08,1.26,0.1,1.76-0.45C63.99,57.49,65.45,55.93,67.09,54.14z
		 M82.36,111.39c-5.96,0.51-11.67,1.01-17.38,1.48c-5.68,0.47-11.37,0.91-17.06,1.36c0.41,0.3,0.8,0.34,1.19,0.34
		c8.54,0.03,17.09,0.07,25.63,0.08c1.92,0,3.83-0.06,5.75-0.15c0.6-0.03,1.19-0.23,1.86-0.36
		C82.36,113.18,82.36,112.41,82.36,111.39z M222.7,56.54c-0.5,2.73-0.51,8.11-0.02,9.79c2.9-3.04,5.48-6.21,8.2-9.7
		C227.94,56.37,225.39,55.68,222.7,56.54z M85.24,113.89c1.43,0.1,1.53,0.05,1.62-0.78c0.05-0.4,0.04-0.8,0.04-1.2
		c0-7.91,0-15.82,0-23.72c0-0.64-0.02-1.28-0.11-1.91c-0.04-0.24-0.32-0.45-0.49-0.68c-0.23,0.19-0.45,0.28-0.45,0.38
		c-0.27,8.77-0.53,17.54-0.77,26.31C85.05,112.83,85.18,113.37,85.24,113.89z M65.33,60.19c1.43,0.25,2.36,0.4,3.29,0.59
		c1.2,0.25,2.12-0.04,2.94-1.02c1.47-1.77,3.06-3.44,4.58-5.17c0.24-0.27,0.37-0.63,0.57-0.99c-1.65-0.38-4.09-0.4-5.03-0.04
		c-0.29,0.11-0.6,0.25-0.8,0.47C69.12,55.95,67.39,57.89,65.33,60.19z M23.67,126.1c0.33-0.08,0.53-0.06,0.62-0.15
		c2.35-2.38,4.69-4.77,7.01-7.18c0.28-0.29,0.43-0.72,0.67-1.14c-2.82-0.55-5.86-0.62-7.81-0.17
		C23.85,120.29,23.36,123.15,23.67,126.1z M90.39,63.26c2.14,0.73,3.96,0.9,5.58,0.51c-0.12-1.78-0.24-3.58-0.37-5.39
		c-0.02-0.28-0.13-0.56-0.3-1.24C93.45,59.27,91.94,61.23,90.39,63.26z M48.11,55.13c-2.63,0-4.61,0-6.58,0
		c-1.46,0-2.36,0.71-2.82,2.2c2.09,0.74,4.23,0.61,6.33,0.67c0.35,0.01,0.79-0.21,1.04-0.46C46.68,56.94,47.19,56.25,48.11,55.13z
		 M96.78,135.15c-1.98,1.63-3.62,2.76-4.91,4.43c2.42,0.69,3.23,0.69,4.91,0.04C96.78,138.32,96.78,137.01,96.78,135.15z
		 M34.73,57.34c0.75-0.58,1.4-1.03,1.29-1.96c-2.92-0.45-6.13-0.4-7.85,0.2C30.35,56.51,32.5,56.83,34.73,57.34z M35.49,76.53
		c-0.28-0.08-0.56-0.2-0.84-0.22c-2.6-0.26-5.2-0.51-7.8-0.74c-0.13-0.01-0.28,0.12-0.57,0.27c0.02,0.36,0.04,0.78,0.07,1.3
		C29.49,77.31,32.46,77.37,35.49,76.53z M30.53,143.26c2.36,0.24,4.32,0.31,6.28,0.09c0.62-0.07,0.98-0.48,0.51-1.34
		c-1.89-0.13-3.86-0.14-5.82,0.05C31.23,142.09,31.02,142.64,30.53,143.26z M233.2,155.03c-1.82-0.62-5.26-0.25-6.63,0.59
		C228.35,156.29,231.4,156.07,233.2,155.03z M27.48,52.16c1.91,0.5,3.83,0.59,5.74,0.21c0.17-0.03,0.26-0.45,0.46-0.83
		C31.43,51.1,29.47,51.71,27.48,52.16z M88.44,50.03c1.9,0.37,3.56,0.39,5.58-0.6c-1.98-0.68-3.55-0.83-5.15-0.32
		C88.68,49.16,88.62,49.6,88.44,50.03z M229.29,53.36c-2.2-1.18-4.45-1.1-5.92,0.06C225.27,53.55,227.01,53.9,229.29,53.36z
		 M286.43,152.73c1.86,0.24,3.72,0.41,5.52-0.33C290.07,151.94,288.22,151.9,286.43,152.73z M288.3,50.67
		c1.34,0.73,2.55,0.56,3.93,0.09C290.81,49.67,289.78,49.65,288.3,50.67z M300.09,146.57c-0.82,0.84-1.31,1.49-1.38,2.4
		C300.6,149.17,300.62,149.14,300.09,146.57z"/>
	<path class="st2" d="M9.09,138.13c1.19-0.75,2.02-1.37,2.93-1.83c1.11-0.56,1.71-0.16,1.98,1.11c0.15,0.68,0.34,1.37,0.61,2.01
		c0.85,2.02,0.75,3.87-0.88,5.49c-0.45,0.45-0.85,0.96-1.33,1.37c-1.77,1.53-3.82,1.53-5.64,0.1c-0.67-0.53-1.4-1-2.15-1.41
		c-1.51-0.81-2.41-1.97-2.64-3.71c-0.24-1.8,2.69-5.02,4.44-4.97c0.59,0.02,1.25,0.24,1.74,0.57
		C8.59,137.16,8.82,137.74,9.09,138.13z M6.52,139.14c-0.32,0.14-0.58,0.17-0.74,0.32c-1.63,1.52-1.49,2.46,0.57,3.28
		c0.85,0.34,1.52,0.78,2.11,1.48c0.27,0.31,0.82,0.56,1.23,0.54c1.31-0.06,3.03-2.41,2.72-3.69c-0.09-0.38-0.51-0.68-0.82-1.07
		c-0.44,0.39-0.75,0.64-1.03,0.9c-1.71,1.57-2.35,1.46-3.32-0.57C7.03,139.93,6.77,139.56,6.52,139.14z"/>
	<path class="st2" d="M322.54,161.62c-1.52-0.41-3.32-1.04-4.38-2.82c-1.04-1.75-0.37-4.01,1.37-4.94c1.44-0.77,3.89,0.06,4.7,1.69
		c0.46,0.92,0.78,1.91,1.08,2.9C325.86,160.24,324.8,161.62,322.54,161.62z M322.17,158.5c0.09-0.82,0.01-1.51-0.71-1.92
		c-0.22-0.13-0.67-0.14-0.85,0c-0.17,0.14-0.26,0.6-0.17,0.83C320.75,158.13,321.33,158.47,322.17,158.5z"/>
	<path class="st2" d="M178.19,157.81c-0.53-0.09-1.27-0.11-1.92-0.36c-1.13-0.43-1.37-1.59-0.63-2.55c0.97-1.25,4.21-2.26,5.73-1.72
		c0.43,0.16,0.84,0.46,1.18,0.78c1.21,1.14,0.91,2.59-0.64,3.21c-0.29,0.12-0.62,0.17-0.93,0.22
		C180.12,157.53,179.25,157.66,178.19,157.81z"/>
	<path class="st2" d="M320.19,166.41c-0.03,0.71-0.67,1.26-1.47,1.26c-0.68,0-1.28-0.51-1.32-1.13c-0.05-0.74,0.75-1.43,1.62-1.39
		C319.68,165.19,320.21,165.76,320.19,166.41z"/>
	<path class="st2" d="M209.63,143.01c-0.03,0.73-0.71,1.36-1.4,1.28c-0.62-0.07-1.06-0.69-0.98-1.38c0.08-0.68,0.64-1.22,1.23-1.18
		C209.11,141.77,209.66,142.39,209.63,143.01z"/>
	<path class="st2" d="M112.49,146.06c-0.05,0.66-0.62,1.14-1.31,1.11c-0.69-0.03-1.22-0.57-1.17-1.23c0.04-0.65,0.58-1.09,1.31-1.09
		C112.04,144.86,112.55,145.38,112.49,146.06z"/>
	<path class="st2" d="M254.4,95.85c0.35-0.83,0.48-1.29,0.72-1.67c2.17-3.36,4.38-6.69,6.52-10.06c0.78-1.23,1.73-1.66,3.21-1.46
		c2.69,0.36,5.4,0.53,8.11,0.78c0.38,0.04,0.75,0.15,1.31,0.26c-0.21,0.48-0.31,0.85-0.51,1.16c-2.16,3.27-4.39,6.49-6.49,9.8
		c-0.79,1.24-1.64,1.71-3.14,1.51c-1.81-0.24-3.67-0.12-5.5-0.17C257.36,95.97,256.09,95.91,254.4,95.85z"/>
	<path class="st2" d="M282.39,84.19c3.17,0.46,6.54,0.94,10.09,1.46c-0.14,0.48-0.16,0.88-0.35,1.17c-2,3.07-4.03,6.13-6.04,9.19
		c-0.46,0.7-0.98,1.26-1.88,1.3c-3.34,0.17-6.67,0.12-10.14-0.05c0.05-0.45-0.01-0.8,0.13-1.02c2.52-3.88,5.05-7.74,7.6-11.6
		C281.88,84.52,282.05,84.45,282.39,84.19z"/>
	<path class="st2" d="M49.37,73.62c0.12-0.49,0.12-0.75,0.24-0.93c1.6-2.57,3.22-5.12,4.81-7.7c0.56-0.9,1.27-1.39,2.37-1.18
		c0.47,0.09,0.95,0.1,1.43,0.14c1.98,0.18,3.95,0.34,5.93,0.53c0.78,0.08,1.56,0.21,2.53,0.34c-0.32,0.63-0.51,1.13-0.79,1.58
		c-1.64,2.63-3.3,5.26-4.96,7.88c-0.91,1.44-0.92,1.45-2.71,1.11C55.33,74.83,52.45,74.24,49.37,73.62z"/>
	<path class="st2" d="M48.25,63.57c-2.12,3.43-3.96,6.4-5.86,9.46c-3.62-0.53-7.14-1.04-10.67-1.56c0.43-1.68,3.5-6.78,5.47-9.1
		C40.63,62.74,44.16,63.13,48.25,63.57z"/>
	<path class="st2" d="M198.44,81.76c0.35-1.91,0.61-3.35,0.88-4.82c0.79,0,1.39,0,1.99,0c0.13,0.33,0.31,0.55,0.3,0.75
		c-0.14,1.59-0.29,3.17-0.49,4.75c-0.31,2.45-0.64,4.9-0.99,7.35c-0.05,0.38-0.23,0.75-0.37,1.15c-0.34,0.08-0.65,0.2-0.95,0.2
		c-0.39,0-0.77-0.09-1.2-0.14c-1-1.57-0.69-3.46-1.54-5.24c-1.04,1.53-0.36,3.39-1.4,5c-0.54-0.06-1.2-0.13-1.94-0.21
		c-0.04-0.64-0.14-1.11-0.09-1.57c0.44-3.64,0.91-7.27,1.39-10.91c0.17-1.27,0.82-1.76,1.93-1.37c0.39,0.14,0.78,0.55,0.95,0.93
		c0.36,0.79,0.56,1.66,0.85,2.48C197.9,80.53,198.09,80.93,198.44,81.76z"/>
	<path class="st2" d="M176.24,89.19c-0.41-1.56-0.74-2.84-1.22-4.66c-0.31,1.83-0.52,3.06-0.73,4.32c-0.5,0.07-0.81,0.16-1.11,0.14
		c-0.3-0.02-0.6-0.16-0.78-0.21c-0.58-0.64,0.28-10.92,1.06-14.02c1.81-0.45,2.16-0.3,2.67,1.21c0.15,0.45,0.26,0.92,0.38,1.38
		c0.1,0.38,0.2,0.75,0.35,1.28c1.08-1.05,0.46-2.42,1.12-3.48c0.64-0.44,1.28-0.31,1.9,0.15c0.26,1.72-0.72,11.24-1.45,13.68
		C177.84,89.05,177.17,89.11,176.24,89.19z"/>
	<path class="st2" d="M94.57,72.82c-2.23,1.16-2.23,1.16-4.32-0.02c-0.88,2.42-0.61,5.03-1.33,7.64c-0.58-0.13-1.22-0.09-1.56-0.39
		c-0.34-0.31-0.57-0.97-0.53-1.45c0.19-2.3,0.48-4.6,0.74-6.89c0.11-0.95,0.23-1.9,0.37-2.85c0.11-0.74,0.37-1.45,1.2-1.6
		c0.9-0.15,1.76,0,2.27,0.92c0.31,0.55,0.64,1.09,0.98,1.68c1.07-0.04,1.47-0.94,2.11-1.46c0.89-0.72,1.78-0.99,2.79-0.37
		c0.26,2.04-0.11,9.8-0.59,12.64c-1.88,0.51-2.18,0.36-2.22-1.38c-0.04-1.59,0.05-3.19,0.08-4.78
		C94.58,73.97,94.57,73.44,94.57,72.82z"/>
	<path class="st2" d="M140.23,79.31c0.65,2.42,1.27,4.72,1.92,7.14c-0.51,0.22-0.91,0.47-1.35,0.56c-0.74,0.16-1.23-0.2-1.45-0.91
		c-0.34-1.14-0.67-2.29-1.01-3.44c-0.24-0.82-0.4-1.68-1.22-2.42c-0.63,1.04-0.63,2.04-0.67,3.04c-0.04,0.94-0.1,1.87-0.15,2.92
		c-0.8,0-1.4,0-2.06,0c-0.5-1.65-0.28-3.24-0.24-4.81c0.04-1.51,0.15-3.03,0.33-4.53c0.18-1.55-0.27-3.2,0.73-4.85
		c1.27,0,2.63-0.17,3.94,0.03c2.88,0.45,3.99,3.1,2.45,5.6C141.13,78.17,140.71,78.66,140.23,79.31z M137.07,76.67
		c0.93,0.35,1.58,0.12,2.06-0.49c0.17-0.21,0.28-0.75,0.17-0.85c-0.39-0.34-0.87-0.68-1.36-0.79c-0.51-0.11-0.93,0.26-0.96,0.82
		C136.94,75.81,137.04,76.27,137.07,76.67z"/>
	<path class="st2" d="M127.12,71.08c1.24,0,2.33,0,3.64,0c0.76,4.79,0.78,9.54,1.25,14.16c-0.84,0.69-1.49,0.43-2.35,0
		c-0.22-1.1-0.47-2.33-0.73-3.63c-0.56-0.1-1.08-0.2-1.78-0.33c-0.42,1.36-0.81,2.62-1.23,3.96c-0.69,0-1.3,0-1.94,0
		c-0.1-0.26-0.29-0.5-0.25-0.68c0.75-3.35,1.51-6.69,2.31-10.02C126.33,73.38,126.75,72.27,127.12,71.08z M128.6,76.27
		c-0.56,1.07-0.56,1.07,0,1.83C128.6,77.42,128.6,76.91,128.6,76.27z"/>
	<path class="st2" d="M171.41,88.08c-1.07,0-1.74,0-2.49,0c-0.21-1.05-0.4-1.97-0.62-3.02c-0.47-0.05-0.99-0.25-1.35-0.09
		c-0.36,0.16-0.61,0.65-0.8,1.05c-0.26,0.57-0.43,1.18-0.65,1.82c-0.75,0-1.42,0-2.08,0c-0.04-2.11,2.17-10.87,3.44-13.81
		c0.97-0.43,1.95-0.23,3.12,0.11C171.08,78.62,170.77,83.25,171.41,88.08z M167.53,81.29c0.14,0.01,0.27,0.03,0.41,0.04
		c0.03-0.38,0.06-0.76,0.09-1.13c-0.12-0.01-0.23-0.02-0.35-0.04C167.63,80.54,167.58,80.92,167.53,81.29z"/>
	<path class="st2" d="M115,75.03c-0.43,2.19-0.71,4.42-1.32,6.55c-0.68,2.36-3.11,3.13-4.93,1.69c-0.53-0.42-0.95-1.08-1.23-1.72
		c-0.86-1.97-0.12-8.73,1.17-10.48c0.45-0.61,1.1-1.22,1.8-1.49c1.97-0.77,3.73,0.21,4.18,2.31c0.22,1,0.14,2.06,0.2,3.1
		C114.91,75,114.95,75.02,115,75.03z M110.44,81.32c1.58-1.66,1.52-3.39,1.71-4.98c0.16-1.35,0.58-2.81-0.35-4.07
		c-0.92-0.07-1.27,0.46-1.36,1.12c-0.28,2.04-0.54,4.08-0.71,6.12C109.69,79.97,110.09,80.46,110.44,81.32z"/>
	<path class="st2" d="M209.62,79.69c-1.27,0.84-2.49-0.52-3.94,0.09c-0.09,0.49-0.22,1.09-0.32,1.69c-0.24,1.57-0.49,3.15-0.66,4.73
		c-0.07,0.62-0.04,1.27,0.1,1.87c0.14,0.63,0.85,0.9,1.3,0.62c0.57-0.35,0.88-1.23,0.41-1.59c-1.18-0.89-0.56-1.79-0.27-2.84
		c1.12,0,2.19,0,3.47,0c0.13,2.36-0.21,4.43-1.46,6.26c-0.82,1.19-1.99,1.82-3.52,1.43c-1.52-0.38-2.39-1.34-2.63-3.02
		c-0.08-0.55-0.12-1.12-0.07-1.67c0.2-2.3,0.35-4.61,0.7-6.89c0.38-2.48,1.78-3.38,4.27-2.92c0.69,0.13,1.4,0.35,2.02,0.66
		C209.63,78.43,209.93,78.99,209.62,79.69z"/>
	<path class="st2" d="M221.87,93.27c1.19-4.64,2.46-9.06,3.96-13.55c0.84,0,1.6,0,2.48,0c0.21,0.52,0.52,1.01,0.59,1.53
		c0.49,3.72,0.97,7.43,1.38,11.16c0.13,1.15-0.51,1.65-1.58,1.48c-0.65-0.1-0.98-0.5-1.04-1.12c-0.07-0.71-0.1-1.43-0.17-2.15
		c-0.05-0.58-0.18-1.14-0.88-1.24c-0.81-0.12-1.13,0.42-1.34,1.08c-0.14,0.46-0.27,0.92-0.42,1.37
		C224.3,93.51,224.3,93.51,221.87,93.27z"/>
	<path class="st2" d="M247.17,85.37c0.05,0.58,0.11,0.89,0.09,1.2c-0.02,0.3-0.14,0.6-0.18,0.79c-0.16,0.14-0.22,0.24-0.28,0.24
		c-1.02,0.09-2.04,0.16-3.16,0.25c-0.65,1.05-0.77,2.16-0.45,3.46c0.56,0.11,1.09,0.22,1.63,0.31c0.53,0.09,1.07,0.17,1.55,0.24
		c0.32,1.37,0.32,1.37-0.17,2.72c-1.93,0.67-3.82-0.21-5.87-0.29c-0.6-1.58,0.14-3.04,0.2-4.51c0.06-1.59,0.31-3.17,0.43-4.76
		c0.11-1.5,0.16-3,0.24-4.6c0.61-0.11,1.07-0.28,1.51-0.25c1.35,0.1,2.69,0.26,4.04,0.42c0.52,0.06,0.88,0.34,0.88,0.93
		c0,0.6-0.36,0.86-0.89,0.88c-0.87,0.03-1.73,0.01-2.75,0.01c-0.13,0.82-0.24,1.47-0.37,2.26
		C244.86,84.92,245.93,85.13,247.17,85.37z"/>
	<path class="st2" d="M239,81.68c-1.16,0.69-2.15,0.16-3.19-0.09c-1.49,1.33-1,3.15-1.19,4.71c-0.19,1.6-0.45,3.34,0.8,4.76
		c1.62-0.9,1.74-1.13,0.8-2.39c-0.61-0.82-0.35-1.47,0.04-2.16c0.19-0.09,0.33-0.2,0.47-0.21c2.88-0.2,3.25,0.78,2.79,3.26
		c-0.2,1.06-0.68,2.16-1.31,3.04c-1.78,2.52-4.63,2.17-5.79-0.66c-0.3-0.73-0.44-1.54-0.54-2.32c-0.32-2.58,0.16-5.11,0.58-7.63
		c0.2-1.23,1.05-1.9,2.28-2.17C236.63,79.41,237.99,79.95,239,81.68z"/>
	<path class="st2" d="M81.83,69.25c-0.08,1.06-0.14,1.82-0.21,2.71c1.09,0.22,2.01,0.41,3.01,0.62c0.41,0.85,0.36,1.65-0.2,2.52
		c-0.93,0-1.87,0-2.82,0c-0.68,0.69-0.54,1.46-0.32,2.38c0.95,0.25,1.93,0.5,3.08,0.8c0,0.67,0,1.33,0,2.08
		c-1.42,0.47-2.77,0.22-4.08,0c-1.35-0.23-1.99-1.27-1.88-2.9c0.14-2.07,0.36-4.14,0.57-6.21c0.1-1.03,0.2-2.07,0.39-3.09
		c0.29-1.57,0.91-2.05,2.49-1.87c1.1,0.12,2.19,0.35,3.3,0.54c0.52,0.81,0.4,1.55,0.01,2.44C84.17,69.25,83.17,69.25,81.83,69.25z"
		/>
	<path class="st2" d="M150.83,72.59c-0.87,1.43-1.59,2.65-2.35,3.85c-0.66,1.03-1,2.11-1.06,3.36c-0.1,2.22-0.37,4.43-0.55,6.56
		c-0.75,0.63-1.4,0.53-2.23,0.05c-0.19-1.65-0.23-3.41,0.08-5.11c0.36-1.97,0.1-3.79-0.69-5.59c-0.41-0.93-0.7-1.91-1.04-2.84
		c1.96-1.32,2.72,0.12,3.53,1.25C148.49,72.29,148.49,72.29,150.83,72.59z"/>
	<path class="st2" d="M156.38,87.04c0.1-4.57,0.56-8.98,1.28-13.54c0.71,0,1.36,0,2.16,0c0.38,3.61-0.82,7.02-0.7,10.65
		c0.86,0.22,1.7,0.4,2.51,0.65c0.77,0.24,1.17,0.8,1.1,1.63c-0.06,0.71-0.41,1.26-1.16,1.28C159.91,87.76,158.23,87.83,156.38,87.04
		z"/>
	<path class="st2" d="M72.61,68.92c-0.72-0.32-1.29-0.56-2-0.87c0.06-0.68,0.12-1.36,0.16-1.85c0.83-0.82,4.28-0.69,6.65,0.07
		c0.4,1.97,0.4,1.97-1.9,2.76c-0.88,2.98-0.87,6.18-1.33,9.45c-0.74,0-1.4,0-2.05,0c-0.12-0.33-0.29-0.55-0.27-0.76
		c0.13-1.67,0.3-3.33,0.44-4.99C72.41,71.46,72.51,70.21,72.61,68.92z"/>
	<path class="st2" d="M190.95,90.28c-0.91-0.07-1.53-0.12-2.14-0.16c-0.11-0.31-0.28-0.54-0.25-0.74c0.43-3.31,0.87-6.63,1.33-9.94
		c0.14-1,0.37-2,0.56-3.02c0.46-0.05,0.77-0.11,1.08-0.1c0.3,0.02,0.6,0.11,0.91,0.18c0.09,0.29,0.24,0.52,0.22,0.73
		C192.11,81.48,191.55,85.74,190.95,90.28z"/>
</g>
<path class="st0" d="M119.1,72.73c0.51,0,0.75-0.03,0.97,0.01c0.57,0.08,1.22,0.29,1.19,0.92c-0.03,0.56-0.34,1.2-0.73,1.61
	c-0.24,0.25-0.89,0.27-1.28,0.15c-0.24-0.08-0.45-0.62-0.46-0.96C118.79,73.93,118.97,73.4,119.1,72.73z"/>
<path class="st0" d="M184.09,77.58c1.02,0.11,1.26,0.94,1.32,1.7c0.2,2.31-0.21,4.57-0.89,6.77c-0.2,0.65-0.68,1.02-1.42,0.86
	C182.81,85.02,183.42,79.35,184.09,77.58z"/>
<path class="st0" d="M102.08,70.73c0.83,0.46,1.39,0.61,1.71,0.98c0.67,0.77,0.2,1.81-0.81,1.92c-0.62,0.07-1.14-0.14-1.16-0.85
	C101.81,72.25,101.95,71.72,102.08,70.73z"/>
<path class="st0" d="M219.14,84.64c-0.25-1.2-0.01-2.28,0.53-3.34c1.13,0.5,1.34,0.85,1.2,1.87
	C220.75,84.14,220.52,84.34,219.14,84.64z"/>
</svg>
