<?xml version="1.0" encoding="utf-8"?>
<!-- Generator: Adobe Illustrator 25.4.1, SVG Export Plug-In . SVG Version: 6.00 Build 0)  -->
<svg version="1.1" id="Layer_1" xmlns="http://www.w3.org/2000/svg" xmlns:xlink="http://www.w3.org/1999/xlink" x="0px" y="0px"
	 viewBox="0 0 232.15 40.04" style="enable-background:new 0 0 232.15 40.04;" xml:space="preserve">
<style type="text/css">
	.st0{fill:#FF9E02;}
	.st1{fill:#FFFFFF;}
	.st2{fill:#2B6998;}
</style>
<g>
	<path class="st0" d="M210.48,1.7c3.13,2.13,4.19,1.55,5.91-0.71c5.22-0.13,12.35,5.56,12.94,13.56c-0.23,0.19-0.54,0.43-0.82,0.68
		c-1.41,1.26-1.62,2.79-0.26,4.15c0.93,0.93,1.01,1.8,0.86,2.99c-0.5,4-2.44,7.23-5.22,10c-2.01,2.01-4.72,2.5-7.22,3.29
		c-2.59-3.66-4.45-2.71-5.95-0.15c-2.86-0.38-5.57-1.31-7.96-2.94c-3.54-2.42-5.13-6.01-5.44-10.2c-0.04-0.49,0.19-1.1,0.5-1.51
		c1.82-2.49,1.81-2.85-0.41-4.92C197.95,9.5,202.85,3.37,210.48,1.7z"/>
	<path class="st0" d="M1.22,26.45c3.71-2.44,3.14-3.88,0.41-5.84c0.86-3.77,1.95-7.38,5.05-10.23c2.15-1.97,4.51-3.23,7.26-3.93
		c0.79-0.2,1.51-0.21,2.31,0.15c2.4,1.09,2.49,1.03,4.75-0.57c5.73,1.06,11.42,5.7,11.84,12.78c-0.85,0.75-2.13,1.26-2.23,2.77
		c-0.1,1.53,1.07,2.21,1.89,3.04c-0.72,6.77-6.19,12.87-12.34,13.73c-0.16-0.4-0.34-0.82-0.51-1.25c-0.42-1.06-1.19-1.74-2.32-1.8
		c-1.13-0.06-1.98,0.56-2.55,1.51c-0.28,0.47-0.46,1-0.71,1.58c-1.29,0.3-2.33-0.35-3.37-0.88c-2.85-1.46-5.71-2.95-7.44-5.83
		C2.26,30.04,1.2,28.42,1.22,26.45z"/>
</g>
</svg>
